<svg xmlns="http://www.w3.org/2000/svg" viewBox="0 0 68.94 163.46"><defs><style>.cls-1{fill:#2fa600;}</style></defs><title>men_4</title><g id="Capa_2" data-name="Capa 2"><g id="Capa_1-2" data-name="Capa 1"><path class="cls-1" d="M36.69,0c.86.25,1.72.48,2.56.75a15.5,15.5,0,1,1-20.12,17C18.19,9.58,22.89,2.54,30.6.53,31.15.38,31.68.18,32.22,0Z"/><path class="cls-1" d="M53.08,52.47v2q0,49.71,0,99.43a9.49,9.49,0,0,1-1.92,6.41A8.51,8.51,0,0,1,36.07,155c0-9.31,0-18.62,0-27.93V92.82h-3.2v2q0,29.93,0,59.85a8.51,8.51,0,0,1-10.93,8.44c-3.77-1.09-6.07-4.35-6.07-8.73q0-16.51,0-33V52.46l-.39-.09c-.36.94-.79,1.87-1.1,2.84-2.58,8.09-3.24,16.46-3.27,24.88,0,4.84.19,9.68.35,14.51a5.79,5.79,0,0,1-2.36,5.29A5.41,5.41,0,0,1,.6,96.55a47,47,0,0,1-.46-6.83C-.24,78.11,0,66.53,2.88,55.18,4.32,49.57,6.43,44.26,10.54,40a15.45,15.45,0,0,1,11.78-5.07c7.82.09,15.65.19,23.46,0,6.51-.18,11.23,2.66,14.82,7.77S65.87,53.41,67,59.35a134.3,134.3,0,0,1,1.76,30.83c-.07,1.65-.1,3.3-.19,4.94-.19,3.56-2.62,5.93-5.88,5.77s-5.22-2.77-5.2-6.26c0-7.92.16-15.85-.11-23.76A53.27,53.27,0,0,0,54,53.58c-.15-.38-.32-.76-.47-1.15Z"/></g></g></svg>