<svg id="Capa_1" data-name="Capa 1" xmlns="http://www.w3.org/2000/svg" viewBox="0 0 66 64.13"><title>administrador</title><path d="M29.3,56.5h0a2.7,2.7,0,0,1-2-2.9V50.2c-1-.4-1.9-.7-2.8-1.1l-.7-.3-.8.8-1.8,1.8a2.5,2.5,0,0,1-1.8.8,2.61,2.61,0,0,1-1.7-.7l-4.6-4.6a2.42,2.42,0,0,1,0-3.5c.9-.9,1.8-1.9,2.8-2.8-.4-1-.9-2.2-1.4-3.5H10.7a2.42,2.42,0,0,1-2.6-2.6V28.3a2.45,2.45,0,0,1,2.7-2.6h3.9c.3-.9.7-1.8,1.1-2.7l.3-.7-.5-.5-2.2-2.2a2.46,2.46,0,0,1,0-3.8l4.3-4.3a2.5,2.5,0,0,1,1.9-.8,2.62,2.62,0,0,1,1.9.9l.1.1,2.9,2.9c.8-.4,1.7-.7,2.6-1.1l.6-.3v-4a2.53,2.53,0,0,1,2.8-2.8h6a2.47,2.47,0,0,1,2.7,2.7v4.3h0c.8.3,1.7.6,2.6,1l.6.3.5-.5,2.3-2.3a4.37,4.37,0,0,1,1.3-.9,2.2,2.2,0,0,1,.8-.1,2.34,2.34,0,0,1,1.7.7l.4.4c1.4,1.4,2.8,2.8,4.2,4.3a2.34,2.34,0,0,1-.1,3.5c-1,1.1-2.1,2.1-3,3,.5,1.1.9,2.1,1.3,3.1V26h4a2.52,2.52,0,0,1,2.7,1.9v7.7a2.52,2.52,0,0,1-2.7,1.9H51.9v.1c-.3,1-.8,2-1.3,3.3h0c.9.8,1.7,1.7,2.8,2.8a2.38,2.38,0,0,1,0,3.6l-4.5,4.5a2.43,2.43,0,0,1-3.6,0l-1.7-1.7-.9-.9-.7.3c-1,.4-1.9.8-2.8,1.1V54a2.65,2.65,0,0,1-1.9,2.9h-8Zm-5.5-11a16.57,16.57,0,0,0,5.8,2.4l.5.1v5.7h5.8V48.9a1.12,1.12,0,0,1,.9-1.2,14.77,14.77,0,0,0,5-2.1,1,1,0,0,1,.7-.2,1.2,1.2,0,0,1,.8.4c.9.9,1.7,1.8,2.6,2.6l.8.8,1.1-1.1,2.6-2.6.3-.3.1-.1-.1-.1-.4-.4L48,42.3,46.7,41l.3-.4a19,19,0,0,0,2.3-5.7l.1-.5h6V28.6h-6l-.2-.6c0-.1-.1-.2-.1-.3a18,18,0,0,0-2-4.7,1.1,1.1,0,0,1,.2-1.5c.7-.7,1.4-1.4,2.1-2L51,17.9l-4.1-4.1a6,6,0,0,1-.8.8l-.4.4-3.2,3.2L42,18c-.1,0-.1-.1-.2-.1a15.84,15.84,0,0,0-4.9-2,1,1,0,0,1-.9-1.1V9.5H30.2v5.3a1.18,1.18,0,0,1-.9,1.2,15,15,0,0,0-4.7,1.9,1.17,1.17,0,0,1-.7.2.89.89,0,0,1-.8-.4l-2-2-1.6-1.6-4.1,4.1.9.9.4.4,2.9,2.9-.3.5c0,.1-.1.1-.1.2a17,17,0,0,0-2.2,5,1,1,0,0,1-1.1.8h-5v5.9h4.8a1.18,1.18,0,0,1,1.2.9,17.64,17.64,0,0,0,1.8,4.7l.7,1.2-.4.3c-.1,0-.1.1-.2.1l-.2.2-3.3,3.3,4.1,4.1,1.4-1.4.8-.8,1.9-1.9Z"/><path d="M29.4,55.9a2.1,2.1,0,0,1-1.5-2.3c.1-1.2,0-2.3,0-3.5,0-.2,0-.4-.3-.5-1.3-.5-2.6-1-4-1.6a.75.75,0,0,0-.3.3c-.9.9-1.7,1.8-2.6,2.6a1.82,1.82,0,0,1-2.7,0l-4.6-4.6a1.78,1.78,0,0,1,0-2.6l2.8-2.8a.47.47,0,0,0,.1-.6c-.5-1.2-1-2.3-1.4-3.5-.1-.3-.2-.4-.5-.4H10.5a1.8,1.8,0,0,1-2-2V28.2a1.8,1.8,0,0,1,2-2h4a.55.55,0,0,0,.6-.4c.5-1.2,1-2.4,1.5-3.7-1-1-2-2-3.1-3a1.78,1.78,0,0,1,0-2.9l4.3-4.3a1.89,1.89,0,0,1,2.9,0l3,3a.47.47,0,0,0,.6.1c1.2-.5,2.3-1,3.6-1.5V9.1a1.92,1.92,0,0,1,2.2-2.2h6a1.8,1.8,0,0,1,2,2v4.2a.55.55,0,0,0,.4.6c1.2.4,2.3.9,3.6,1.4,1-1,2-2,3-3.1a2.59,2.59,0,0,1,1.1-.7,1.7,1.7,0,0,1,1.8.4l4.6,4.6a1.71,1.71,0,0,1-.1,2.6l-3,3a.48.48,0,0,0-.1.7c.5,1,.9,2.1,1.3,3.1a.63.63,0,0,0,.6.5h3.8a2.17,2.17,0,0,1,2.3,1.5V35a2.1,2.1,0,0,1-2.3,1.5c-1.2-.1-2.4,0-3.6,0-.4,0-.6.1-.7.5a30.54,30.54,0,0,1-1.3,3.2.59.59,0,0,0,.1.7c1,.9,1.9,1.9,2.8,2.8a1.82,1.82,0,0,1,0,2.7l-4.5,4.5a1.82,1.82,0,0,1-2.7,0l-2.7-2.7-.2-.2c-1.4.6-2.7,1.1-4,1.6-.3.1-.3.2-.3.5v3.5a2.17,2.17,0,0,1-1.5,2.3ZM42.2,17.2a.31.31,0,0,0-.2-.1A16.67,16.67,0,0,0,37,15c-.3-.1-.4-.2-.4-.5V9.1c0-.5-.1-.6-.6-.6H30.1c-.5,0-.6.2-.6.6v5.3c0,.3-.1.5-.4.5a17.44,17.44,0,0,0-4.9,2c-.3.2-.5.2-.7-.1-1.2-1.3-2.5-2.5-3.7-3.8-.3-.3-.5-.3-.8,0-1.4,1.4-2.8,2.9-4.3,4.3-.3.3-.3.5,0,.8.5.4.9.9,1.4,1.3L18.7,22a.31.31,0,0,0-.1.2,20.13,20.13,0,0,0-2.3,5.2c-.1.3-.3.3-.5.3H10.7c-.5,0-.6.2-.6.6v5.9c0,.6,0,.6.6.6h4.9c.3,0,.5.1.5.4A17.2,17.2,0,0,0,18,40.1a5.74,5.74,0,0,0,.4.7,1.38,1.38,0,0,0-.4.3l-3.4,3.4c-.2.2-.4.4-.1.7,1.5,1.5,3,2.9,4.4,4.4.3.3.5.2.7-.1l2.2-2.2,1.5-1.5a19.61,19.61,0,0,0,6,2.5v5.2c0,.5.2.6.6.6h5.9c.6,0,.6,0,.6-.7V48.7a.55.55,0,0,1,.4-.6A16,16,0,0,0,42,45.9a.48.48,0,0,1,.7.1c1.1,1.1,2.2,2.3,3.4,3.4.5.5.5.5.9,0l3.6-3.6c1-1.1,1-.8,0-1.8l-3.3-3.3a17.9,17.9,0,0,0,2.4-5.9h5.5c.6,0,.6,0,.6-.6V28.4c0-.7,0-.7-.7-.7H49.6c0-.2-.1-.3-.1-.4a17.7,17.7,0,0,0-2.1-4.9c-.2-.3-.2-.5.1-.7,1.3-1.2,2.5-2.5,3.8-3.7.3-.3.3-.5,0-.8L47,12.9c-.3-.3-.5-.3-.8,0L45,14.1A27,27,0,0,1,42.2,17.2Z"/><path d="M33,43.3a11.8,11.8,0,0,1,0-23.6,11.48,11.48,0,0,1,8.4,3.5,12.06,12.06,0,0,1,3.5,8.4A12,12,0,0,1,33,43.3Zm0-20.9a9.05,9.05,0,0,0-6.4,15.4A9.09,9.09,0,0,0,33,40.5a9.05,9.05,0,0,0,6.4-15.4A8.69,8.69,0,0,0,33,22.4v0Z"/><path d="M21.8,31.4A11.2,11.2,0,1,1,33,42.6,11.18,11.18,0,0,1,21.8,31.4ZM33,21.8a9.7,9.7,0,1,0,9.7,9.7A9.71,9.71,0,0,0,33,21.8Z"/></svg>