<svg id="Capa_1" data-name="Capa 1" xmlns="http://www.w3.org/2000/svg" viewBox="0 0 66 64.13"><title>buscar copia 2</title><path d="M43.07,46.53H23.64a8,8,0,0,1-2.53,7.4,7.58,7.58,0,0,1-5.29,2c-4.7-.05-7.58-3.59-7.69-9.39a22.62,22.62,0,0,1-2.72-.3,4.35,4.35,0,0,1-3.63-4.41q-.06-14.38,0-28.78A4.53,4.53,0,0,1,6.47,8.52q15.78-.06,31.55,0a4.65,4.65,0,0,1,4.74,4.93c0,1.45,0,2.9,0,4.56,1.28,0,2.5,0,3.71,0A7,7,0,0,1,52,20.29q3.7,3.86,7.56,7.56a7,7,0,0,1,2.23,5.43c-.06,3.29,0,6.59,0,10.08.52,0,.94,0,1.36,0C64.33,43.23,65,43.48,65,45s-.83,1.56-1.94,1.52c-1.48,0-3,0-4.58,0A7.91,7.91,0,0,1,55.86,54,7.47,7.47,0,0,1,50.4,56,8,8,0,0,1,43.07,46.53Zm-3.42-3.17a3.56,3.56,0,0,0,.12-.56q0-14.71,0-29.44a1.61,1.61,0,0,0-1.84-1.76H6.65c-1.3,0-1.9.56-1.9,1.82,0,9.37,0,18.74,0,28.12a2.29,2.29,0,0,0,.88,1.59c1,.69,4,.17,4.86-.71,2.74-2.66,7.07-3.17,9.85-.69a6.89,6.89,0,0,0,5.24,1.64c4.17-.05,8.36,0,12.54,0Zm3.22-9.51v9.89a10.63,10.63,0,0,0,2.38-1.22,7.66,7.66,0,0,1,11,0,2.18,2.18,0,0,0,2.46.7V33.85ZM58.06,30.6c-.43-.48-.69-.81-1-1.1-2.07-2.09-4.34-4-6.19-6.28-2.3-2.84-5.2-2-8-2.06V30.6ZM15.86,52.87a4.79,4.79,0,1,0,.19-9.58,4.79,4.79,0,1,0-.19,9.58Zm34.86,0A4.79,4.79,0,1,0,45.94,48,4.71,4.71,0,0,0,50.72,52.87Z"/><path d="M25.33,30.62c0,1.73,0,3.3,0,4.87,0,1.06-.29,1.55-1.42,1.48s-2.38,0-3.56,0c-.85,0-1.2-.33-1.19-1.17,0-1.66,0-3.32,0-5.17-1.68,0-3.25-.06-4.81,0-1.12.06-1.62-.3-1.55-1.48a35.23,35.23,0,0,0,0-3.56c0-.89.32-1.28,1.24-1.25,1.62,0,3.24,0,5.11,0,0-1.63,0-3.19,0-4.75-.06-1.17.3-1.71,1.56-1.61a30,30,0,0,0,3.42,0c.85,0,1.2.33,1.19,1.17,0,1.66,0,3.33,0,5.18,1.68,0,3.25,0,4.81,0,1.13,0,1.62.3,1.55,1.49s0,2.37,0,3.56c0,.89-.32,1.27-1.24,1.25C28.82,30.58,27.2,30.62,25.33,30.62Z"/></svg>