<svg id="Capa_1" data-name="Capa 1" xmlns="http://www.w3.org/2000/svg" viewBox="0 0 61.06 61.06"><defs><style>.cls-1{fill:#fff;}</style></defs><title>aprobar cita</title><path class="cls-1" d="M40,70A30.53,30.53,0,1,1,70.53,39.5,30.56,30.56,0,0,1,40,70ZM40,13.1A26.4,26.4,0,1,0,66.4,39.5,26.43,26.43,0,0,0,40,13.1Z" transform="translate(-9.47 -8.97)"/><path class="cls-1" d="M37.71,45.87,36.94,27.4a3.06,3.06,0,1,1,6.12-.25,1,1,0,0,1,0,.25l-.77,18.47a2.29,2.29,0,0,1-4.58,0Z" transform="translate(-9.47 -8.97)"/><circle class="cls-1" cx="30.43" cy="43.37" r="2.46"/></svg>