<svg id="Capa_1" data-name="Capa 1" xmlns="http://www.w3.org/2000/svg" viewBox="0 0 66 64.13"><title>atencion_al_paciente</title><path d="M33,27.4a12.86,12.86,0,0,0-12.5,10c.9-.3,1.8-.5,2.6-.7a10.46,10.46,0,0,1,20.3,3.6,1.22,1.22,0,0,0,1.2,1.2,1.16,1.16,0,0,0,1.2-1.2A12.85,12.85,0,0,0,33,27.4Z"/><path d="M33,24.9a7.49,7.49,0,0,1-7.5-7.5V15a7.5,7.5,0,0,1,15,0v2.3A7.58,7.58,0,0,1,33,24.9ZM33,9.6A5.38,5.38,0,0,0,27.6,15v2.3a5.4,5.4,0,0,0,10.8,0V15A5.44,5.44,0,0,0,33,9.6Z"/><path d="M32.1,57.5h0a.9.9,0,0,1-.5-.1,3.55,3.55,0,0,1-1-.2c-.9-.2-1.8-.5-2.8-.7a14.62,14.62,0,0,0-2-.5l-1.1-.3c-1.7-.4-3.4-.9-5.1-1.3a19.73,19.73,0,0,0-3.5-.4c-.8,0-1.6-.1-2.4-.1a2.92,2.92,0,0,1-.9-.2,1.42,1.42,0,0,1-.6-1.6,1.27,1.27,0,0,1,1.2-1H15a19.25,19.25,0,0,1,5,.5c1.9.4,3.8.9,5.7,1.4l2.1.6.3.1a35.89,35.89,0,0,0,3.5.8,9.7,9.7,0,0,0,1.7.1,13.06,13.06,0,0,0,3.8-.6A35.85,35.85,0,0,0,42,52c1.9-.9,3.9-1.8,5.8-2.8l1.3-.6c.2-.1.5-.2.6-.4a1.63,1.63,0,0,0,.6-1.7,1.11,1.11,0,0,0-1.2-.9h-.4c-1.5.3-3.2.7-5.3,1.2-1,.2-2.1.5-3.1.7a17.42,17.42,0,0,1-2.2.5,4.69,4.69,0,0,1-1,1.6,4.05,4.05,0,0,1-3,1.4,2,2,0,0,1-.7-.1c-1.1-.2-2.2-.4-3.7-.8l-3.3-.9H26a6.89,6.89,0,0,0-.8-.3,1.48,1.48,0,0,1-.7-1.7,1.42,1.42,0,0,1,1.3-.9h.3l1.2.3a3,3,0,0,0,1,.2c1.8.4,3.6.9,5.4,1.3.1,0,.3.1.4.1A2.92,2.92,0,0,0,35,48a1.34,1.34,0,0,0,.6-.7,1.64,1.64,0,0,0-.8-1.9,60,60,0,0,0-6.2-2.9c-.5-.2-1.1-.4-1.6-.6-.2-.1-.5-.2-.7-.3a5.66,5.66,0,0,0-1.8-.3,6.15,6.15,0,0,0-1.3.1l-1,.2c-1.5.3-3,.6-4.5.8a14.53,14.53,0,0,1-3,.3h-.6a1.38,1.38,0,0,1-1.3-.8,1.48,1.48,0,0,1,0-1.3,1.2,1.2,0,0,1,1-.7c.2,0,.4-.1.6-.1h.4l.6-.1c1.2-.2,2.3-.3,3.5-.5a12.86,12.86,0,0,0,1.9-.4c.7-.1,1.3-.3,2-.4a7.57,7.57,0,0,1,1.5-.1,11.85,11.85,0,0,1,3.2.5A53.65,53.65,0,0,1,34.8,42c.5.3,1.2.6,1.8,1a4,4,0,0,1,1.7,2.1l2.7-.7,5-1.2a25.58,25.58,0,0,1,2.7-.5h.7a4.13,4.13,0,0,1,4.1,3.6.76.76,0,0,0,.1.4v.6a4.27,4.27,0,0,1-2.3,3.6c-.9.5-1.8.9-2.6,1.3l-1,.5c-2.5,1.2-5.1,2.4-7.7,3.5a18.32,18.32,0,0,1-4.4,1.2c-.3,0-.5.1-.8.1H32.1Z"/><path d="M32.2,57c-.5-.1-.9-.1-1.4-.2L26,55.6c-2-.6-4.1-1.1-6.2-1.6a22,22,0,0,0-3.6-.4c-.8,0-1.6-.1-2.4-.1a1.42,1.42,0,0,1-.6-.2.81.81,0,0,1-.3-.9.86.86,0,0,1,.7-.6,28.08,28.08,0,0,1,6.5.4c2.6.5,5.2,1.3,7.8,2,1.3.3,2.6.7,3.9.9a12.34,12.34,0,0,0,5.7-.5,52.09,52.09,0,0,0,5-2c2.4-1.1,4.8-2.3,7.2-3.4a3.51,3.51,0,0,0,.8-.5,2,2,0,0,0,.7-2.3A1.78,1.78,0,0,0,49,45.1l-5.3,1.2c-1.8.4-3.6.9-5.3,1.3a.27.27,0,0,0-.3.3,4.62,4.62,0,0,1-.9,1.5A3.82,3.82,0,0,1,34,50.6c-1.2-.2-2.4-.5-3.6-.7-1.4-.3-2.7-.7-4.1-1.1l-.6-.3a.86.86,0,0,1-.4-1,.94.94,0,0,1,1-.5c.7.2,1.4.4,2.2.6,1.8.4,3.6.9,5.4,1.3a2.46,2.46,0,0,0,1.7-.2,1.55,1.55,0,0,0,.8-1.1,2.11,2.11,0,0,0-1.1-2.5c-2-1.1-4.1-2-6.2-2.9-.8-.3-1.6-.6-2.3-.9a6.89,6.89,0,0,0-3.5-.2c-1.8.3-3.7.7-5.5,1a13.43,13.43,0,0,1-3.5.3c-.3,0-.7-.1-.8-.4a.88.88,0,0,1,.6-1.3c.3-.1.7,0,1.1-.1l4.1-.6c1.3-.2,2.6-.5,3.8-.7a8.69,8.69,0,0,1,4.5.4,78,78,0,0,1,7.2,3.1l1.8.9a3.76,3.76,0,0,1,1.5,1.8c.1.4.2.4.6.3,2.6-.6,5.2-1.3,7.8-1.9a23.81,23.81,0,0,1,2.6-.5,3.64,3.64,0,0,1,4.2,3,.9.9,0,0,0,.1.5v.3a3.89,3.89,0,0,1-2,3.2c-.9.5-1.9,1-2.8,1.4-2.8,1.3-5.6,2.7-8.4,3.8a21.09,21.09,0,0,1-4.3,1.2c-.4,0-.8.1-1.2.1A24.51,24.51,0,0,1,32.2,57Z"/></svg>