<?xml version="1.0" encoding="utf-8"?>
<!-- Generator: Adobe Illustrator 23.0.0, SVG Export Plug-In . SVG Version: 6.00 Build 0)  -->
<svg version="1.1" id="Capa_1" xmlns="http://www.w3.org/2000/svg" xmlns:xlink="http://www.w3.org/1999/xlink" x="0px" y="0px"
	 viewBox="0 0 80 79" style="enable-background:new 0 0 80 79;" xml:space="preserve">
<style type="text/css">
	.st0{fill:#FFFFFF;}
</style>
<g>
	<path class="st0" d="M25.4,20.7L25.4,20.7c-1.9,0-3.5-1.6-3.5-3.5v-9c0-1.9,1.6-3.5,3.5-3.5h0c1.9,0,3.5,1.6,3.5,3.5v9
		C28.9,19.1,27.3,20.7,25.4,20.7z"/>
	<path class="st0" d="M54.6,20.7L54.6,20.7c-1.9,0-3.5-1.6-3.5-3.5v-9c0-1.9,1.6-3.5,3.5-3.5h0c1.9,0,3.5,1.6,3.5,3.5v9
		C58.1,19.1,56.6,20.7,54.6,20.7z"/>
	<path class="st0" d="M69.2,74.4H10.8c-3.1,0-5.6-2.5-5.6-5.6V17.1c0-3.1,2.5-5.6,5.6-5.6h58.4c3.1,0,5.6,2.5,5.6,5.6v51.7
		C74.8,71.9,72.3,74.4,69.2,74.4z M10.8,16.2c-0.5,0-0.9,0.4-0.9,0.9v51.7c0,0.5,0.4,0.9,0.9,0.9h58.4c0.5,0,0.9-0.4,0.9-0.9V17.1
		c0-0.5-0.4-0.9-0.9-0.9H10.8z"/>
	<path class="st0" d="M71.1,33.1H8.7c-1.3,0-2.3-1-2.3-2.3c0-1.3,1-2.3,2.3-2.3h62.3c1.3,0,2.3,1,2.3,2.3
		C73.4,32,72.3,33.1,71.1,33.1z"/>
	<path class="st0" d="M29,54.6H16.6c-1.2,0-2.2-1-2.2-2.2V40c0-1.2,1-2.2,2.2-2.2H29c1.2,0,2.2,1,2.2,2.2v12.4
		C31.1,53.6,30.2,54.6,29,54.6z M18.7,50.2h8v-8h-8V50.2z"/>
</g>
</svg>
