<svg id="Capa_1" data-name="Capa 1" xmlns="http://www.w3.org/2000/svg" viewBox="0 0 63.02 63.17"><defs><style>.cls-1{fill:#fff;}</style></defs><title>calendario (boton de aprobados)</title><rect class="cls-1" x="15.07" width="6.38" height="14.54" rx="3.19"/><rect class="cls-1" x="41.57" width="6.38" height="14.54" rx="3.19"/><path class="cls-1" d="M66.45,71.09H13.55A5.07,5.07,0,0,1,8.49,66V19.22a5.07,5.07,0,0,1,5.06-5.06h52.9a5.07,5.07,0,0,1,5.06,5.06V66A5.07,5.07,0,0,1,66.45,71.09ZM13.55,18.38a.84.84,0,0,0-.84.84V66a.85.85,0,0,0,.84.84h52.9a.85.85,0,0,0,.84-.84V19.22a.84.84,0,0,0-.84-.84Z" transform="translate(-8.49 -7.91)"/><path class="cls-1" d="M68.14,32H11.66a2.11,2.11,0,1,1,0-4.22H68.14a2.11,2.11,0,0,1,0,4.22Z" transform="translate(-8.49 -7.91)"/><path class="cls-1" d="M38.43,57.68a2.1,2.1,0,0,1-1.35-.49l-7.5-6.26a2.11,2.11,0,0,1,2.71-3.24l5.77,4.83L47.37,39.9a2.11,2.11,0,0,1,3.39,2.5L40.13,56.82a2.13,2.13,0,0,1-1.45.85Z" transform="translate(-8.49 -7.91)"/></svg>