<svg id="Capa_1" data-name="Capa 1" xmlns="http://www.w3.org/2000/svg" viewBox="0 0 66 64.13"><title>card_user</title><path d="M58.4,56.5H8A6.51,6.51,0,0,1,1.5,50V16.6H64.9V50A6.51,6.51,0,0,1,58.4,56.5ZM4.5,19.6V50A3.5,3.5,0,0,0,8,53.5H58.4A3.5,3.5,0,0,0,61.9,50V19.6Zm60.4-3.4H1.5V13A6.51,6.51,0,0,1,8,6.5H58.4A6.51,6.51,0,0,1,64.9,13Zm-60.4-3H61.9V13a3.5,3.5,0,0,0-3.5-3.5H8A3.5,3.5,0,0,0,4.5,13Z"/><path d="M31.4,51.5a1,1,0,0,1-1-1,9.2,9.2,0,0,0-18.4,0,1,1,0,0,1-2,0,11.3,11.3,0,0,1,22.6,0A1.27,1.27,0,0,1,31.4,51.5Z"/><path d="M31.4,52a1.5,1.5,0,0,1-1.5-1.5,8.7,8.7,0,0,0-17.4,0,1.5,1.5,0,0,1-3,0,11.8,11.8,0,0,1,23.6,0l0,.16A1.75,1.75,0,0,1,31.4,52ZM21.2,40.8a9.71,9.71,0,0,1,9.7,9.7.5.5,0,0,0,.5.5c.12,0,.48,0,.7-.58a10.8,10.8,0,0,0-21.6.08.5.5,0,0,0,1,0A9.71,9.71,0,0,1,21.2,40.8Z"/><path d="M21.1,37a6.7,6.7,0,0,1-6.7-6.7v-2a6.7,6.7,0,0,1,13.4,0v2A6.7,6.7,0,0,1,21.1,37Zm0-13.5a4.8,4.8,0,0,0-4.8,4.8v2a4.8,4.8,0,1,0,9.6,0v-2A4.8,4.8,0,0,0,21.1,23.5Z"/><path d="M21.1,37.5a7.21,7.21,0,0,1-7.2-7.2v-2a7.2,7.2,0,0,1,14.4,0v2A7.21,7.21,0,0,1,21.1,37.5Zm0-15.4a6.21,6.21,0,0,0-6.2,6.2v2a6.2,6.2,0,0,0,12.4,0v-2A6.21,6.21,0,0,0,21.1,22.1Zm0,13.5a5.31,5.31,0,0,1-5.3-5.3v-2a5.3,5.3,0,1,1,10.6,0v2A5.31,5.31,0,0,1,21.1,35.6Zm0-11.6a4.31,4.31,0,0,0-4.3,4.3v2a4.3,4.3,0,1,0,8.6,0v-2A4.31,4.31,0,0,0,21.1,24Z"/><path d="M56,30.5H39a1.5,1.5,0,0,1,0-3H56a1.5,1.5,0,0,1,0,3Z"/><path d="M56,36.5H39a1.5,1.5,0,0,1,0-3H56a1.5,1.5,0,0,1,0,3Z"/><path d="M56,42.5H39a1.5,1.5,0,0,1,0-3H56a1.5,1.5,0,0,1,0,3Z"/></svg>