<svg id="Capa_1" data-name="Capa 1" xmlns="http://www.w3.org/2000/svg" viewBox="0 0 66 64.13"><title>check</title><path d="M52.9,14.49l.31.12-.36.24c.5.18.8-.27,1.29-.22l-2.17,1,0,.08.7-.19,0,0-.37.21,0,.08.59-.18a.14.14,0,0,0,.08-.09c0-.08,0-.23.08-.25a4.86,4.86,0,0,1,.76-.26s.08.1.14.17a30.69,30.69,0,0,1,4.76-1.52l.06.18a5.12,5.12,0,0,1-.93.25,7.32,7.32,0,0,0-1.76.66c-.39.14-.75.36-1.13.54-.58.27-1.18.52-1.76.81s-1.39.74-2.08,1.12a1.07,1.07,0,0,0-.16.14l0,.11a8.18,8.18,0,0,1,1-.41c.33-.08.5-.51.91-.38,0,0,.15-.09.2-.15a.6.6,0,0,1,.54-.16,2.47,2.47,0,0,0,1-.32c.31-.12.61-.29.93-.4l-.8.46.05.09h.39v0l-1.07.44a9.48,9.48,0,0,0-1.14.48c-1,.52-1.9,1.06-2.84,1.6s-1.57.93-2.33,1.43c-.41.26-.76.59-1.15.87-.71.52-1.45,1-2.13,1.56a58.75,58.75,0,0,0-5.91,5.23c-1.81,1.91-3.7,3.75-5.48,5.68s-3.42,3.83-5.07,5.79a91.85,91.85,0,0,0-5.9,8c-.71,1.06-1.43,2.13-2.18,3.17a5.65,5.65,0,0,1-3.74,2.42,3.8,3.8,0,0,1-2.25-.27,7,7,0,0,1-2.48-2.08,77,77,0,0,1-6.07-8.89c-.92-1.59-2-3.1-3-4.65A9.41,9.41,0,0,1,1.23,33.9a2.7,2.7,0,0,1,0-.28,2.55,2.55,0,0,1,0-.28l.25.29c.38-.15.18-.49.25-.73.27,0,.56.12.67-.25,0,0,.05,0,.07-.06l.74-.54h.7c.09-.14,0-.48.36-.35v-.35l.37.38.08-.05,0-.37a.65.65,0,0,1,.73,0,.67.67,0,0,1,.48-.73c.09,0,.14-.17.2-.26s.1-.26.19-.33c.38-.28.78-.53,1.21-.83.26.46.54.9.79,1.36a45.46,45.46,0,0,0,4.55,7.09c.75.93,1.33,2,2,3,.23.35.48.68.75,1l.26-.36C17.52,38.82,19.17,36.35,21,34c1.37-1.83,2.9-3.53,4.38-5.28.54-.64,1.1-1.27,1.69-1.87C28,25.85,29,24.9,30,24c.22-.21.48-.38.72-.57l.08.08-1,.77.09.1.76-.6,0,.36.65-.48,0-.08-.19.07c0-.48.37-.35.65-.31l-.38.35.41.17a1,1,0,0,0,.51-.62,2.27,2.27,0,0,1,.5-.73l0,0,1.09-.74-.06-.05-.31.58c.46,0,.63-.29.83-.51a3.63,3.63,0,0,0,.42-.65c.2-.06.33-.06.41-.13.39-.33.77-.69,1.17-1s.6-.37.88-.59.41-.39.63-.57l1.35-1.14-.34.38.06.09a1,1,0,0,0,.28-.13c.51-.42,1-.84,1.52-1.27,0,0,0-.07,0-.11h0s.09,0,.12,0l1.26-.78s0-.12.08-.18V16l-1.07.56.06.13a6.27,6.27,0,0,0,.74-.35,1.19,1.19,0,0,0,.28-.34,2,2,0,0,0,.46-.17c.33-.2.64-.43,1-.64A2.69,2.69,0,0,1,43.9,15l.07.1L42.5,16.2l.11.2a3.88,3.88,0,0,0-.61.33c-.16.13-.26.33-.44.45l.07-.12,0,0a3.25,3.25,0,0,0-.37.21c-.42.34-.82.69-1.25,1s-1.12.82-1.66,1.26a12,12,0,0,0-.88.87.7.7,0,0,1-.21.14c-.06,0-.15,0-.19,0a18.51,18.51,0,0,0-1.37,1.29c.49-.11.75-.54,1.06-.76.12,0,.21.07.27,0a4,4,0,0,0,.47-.22c.05,0,.12-.05.14-.09.19-.52.72-.7,1.06-1.07a6.38,6.38,0,0,1,.78-.56l-.13.46c.24-.25.65-.32.69-.77,0-.15.17-.3.29-.42.28-.24.57-.48.87-.69a1,1,0,0,1,.36-.1l-.72.58-.69.54.09.11L42,17.63l-.06-.11-.22.09a3,3,0,0,1,.45-.49c.31-.22.66-.39,1-.61,0-.38.4-.4.63-.56.51-.33,1.08-.57,1.62-.85a1.07,1.07,0,0,1,.35-.14L44,16.14a7.52,7.52,0,0,0-1.7,1.19l.06.1c.15-.08.31-.15.46-.24.77-.49,1.53-1,2.3-1.5.05,0,.08-.12.14-.17s.2-.18.31-.18a3.56,3.56,0,0,0,1.72-.81,3.72,3.72,0,0,1,.91-.35,4.88,4.88,0,0,0,1.85-.62l-.36.25,0,.06,1.34-.53a12.14,12.14,0,0,0-2.71,1.82c.16-.07.48.23.49-.19,0,0,.07,0,.11,0a.78.78,0,0,0,.21-.09,5.76,5.76,0,0,1,1.65-.61c.74-.29,1.48-.56,2.26-.78a2.55,2.55,0,0,0-.6.41,2.61,2.61,0,0,0-.28.69l.69-.07ZM39,18.38l-.12-.08L36,20.72l.06.08a.21.21,0,0,0,.11,0l2.64-2.12A.89.89,0,0,0,39,18.38ZM40.88,17l0-.05a.84.84,0,0,0-.33.07c-.41.28-.8.59-1.19.89a1.08,1.08,0,0,0-.18.24l.28.14,0-.1Zm10-1.45-1.23.53A1.15,1.15,0,0,0,50.85,15.58ZM28.35,25.81l.13.13c.17-.15.35-.3.51-.46s0-.15,0-.23-.12,0-.14,0C28.69,25.43,28.52,25.62,28.35,25.81Zm.93-.67c.43-.25.47-.34.31-.65C29.4,24.68,29.15,24.8,29.28,25.14Zm20.18-6.82,0,.1c.21-.05.42-.08.62-.14,0,0,0-.14,0-.21S50,18,50,18C49.82,18.09,49.64,18.21,49.46,18.32Zm-.83-1.54L48,17C48.16,17.29,48.29,17.26,48.63,16.78Z"/><path d="M39.3,17.61c.27-.58.86-.79,1.34-1.13.77-.55,1.56-1.07,2.35-1.59.24-.17.49-.33.74-.49h0a3.17,3.17,0,0,1-.35.45c-.28.25-.57.47-.86.7l0-.2-.31.35a1.23,1.23,0,0,0-.29.09l-.9.6a2.37,2.37,0,0,0-.28.27h0a.92.92,0,0,0-.23.09Z"/><path d="M43.73,14.4l1.59-1a1,1,0,0,1,.5-.09l-1,.5.05.12A7.18,7.18,0,0,0,46,13.47l-1.61,1-.05-.07.24-.21,0-.08a3.74,3.74,0,0,1-.52.28.85.85,0,0,1-.32,0Z"/><path d="M32.74,22.49l0,0-.4,0,.4-.35,0-.05-.33.08.78-.63h0l-.16.24,0,.06.68-.39,0,0Z"/><path d="M47.25,13.11a4.65,4.65,0,0,1-.71.65,1.2,1.2,0,0,1-.74.11Z"/><path d="M52.91,14.49l-.1-.17,1.49-.56,0,.05-1.11.47a2.82,2.82,0,0,0-.31.21Z"/><path d="M47.88,14.1l1.33-.71,0,.06-1.33.69Z"/><path d="M31.69,23l.46-.63.09.06-.46.62Z"/><path d="M46,13l.63-.34,0,.06-.6.39Z"/><path d="M44.34,14.74l.78-.48,0,0-.76.51Z"/><path d="M55.6,16l.57-.24,0,.06-.56.3Z"/><path d="M51.4,13l-.75.33,0-.07.74-.29Z"/><path d="M54.26,14.19l.46-.31.06.08-.49.31Z"/></svg>