<svg id="Capa_1" data-name="Capa 1" xmlns="http://www.w3.org/2000/svg" viewBox="0 0 66 64.13"><defs><style>.cls-1{fill:#fff;}</style></defs><title>cita_confirmada</title><path d="M32.33,10.54h0c-.2,0-.3-.1-.83-.3V7.54c.53-.2.63-.3.83-.3h0c.2,0,.3.1.17.3v2.7C32.63,10.44,32.53,10.54,32.33,10.54Z"/><path class="cls-1" d="M32.33,10.88a1.07,1.07,0,0,1-.51-.15l-.44-.18-.22-.08V7.3l.22-.08L31.82,7a1.11,1.11,0,0,1,.51-.15.54.54,0,0,1,.52.27.51.51,0,0,1,0,.47v2.52a.49.49,0,0,1,0,.46A.55.55,0,0,1,32.33,10.88ZM31.84,10l.25.11.07,0V7.63l-.06,0-.26.11Z"/><path d="M30.63,8.84h0a.32.32,0,0,1,.3-.34h2.7a.32.32,0,0,1,.3.34h0c0,.2-.1.3-.3.66h-2.7C30.73,9.14,30.63,9,30.63,8.84Z"/><path class="cls-1" d="M33.84,9.84H30.73l-.23-.4a1.12,1.12,0,0,1-.21-.6.65.65,0,0,1,.59-.68h2.75a.66.66,0,0,1,.64.68,1.06,1.06,0,0,1-.21.59Zm-2.71-.68h2.3l0-.07c.1-.18.11-.21.11-.25H31a.75.75,0,0,0,.12.25Z"/><path d="M22.6,19h-.2A2.41,2.41,0,0,1,20,16.6V9.4A2.41,2.41,0,0,1,22.4,7h.2A2.41,2.41,0,0,1,25,9.4v7.2A2.41,2.41,0,0,1,22.6,19Z"/><path d="M43.6,19h-.2A2.41,2.41,0,0,1,41,16.6V9.4A2.41,2.41,0,0,1,43.4,7h.2A2.41,2.41,0,0,1,46,9.4v7.2A2.41,2.41,0,0,1,43.6,19Z"/><path d="M54,57H12a4,4,0,0,1-4-4V16a4,4,0,0,1,4-4H54a4,4,0,0,1,4,4V53A4,4,0,0,1,54,57ZM12,15.7V53.3a.7.7,0,0,0,.7.7H54.3a.7.7,0,0,0,.7-.7V15.7a.7.7,0,0,0-.7-.7H12.7A.7.7,0,0,0,12,15.7Z"/><path d="M55.73,26H10.83a1.55,1.55,0,0,1-1.7-1.56A1.4,1.4,0,0,1,10.83,23h44.9a1.4,1.4,0,0,1,1.7,1.44A1.55,1.55,0,0,1,55.73,26Z"/><path d="M32.13,46.64a1.5,1.5,0,0,1-1.1-.4l-6-5a1.7,1.7,0,1,1,2.2-2.6l4.6,3.8,7.4-10a1.65,1.65,0,0,1,2.7,1.9l-8.5,11.5a1.9,1.9,0,0,1-1.1.7A.31.31,0,0,1,32.13,46.64Z"/></svg>