<svg id="Capa_1" data-name="Capa 1" xmlns="http://www.w3.org/2000/svg" viewBox="0 0 66 64.13"><defs><style>.cls-1{fill:#fff;}</style></defs><title>cita_cancelada</title><path d="M32.2,10.4h0a.27.27,0,0,1-.3-.3V7.4a.27.27,0,0,1,.3-.3h0a.27.27,0,0,1,.3.3v2.7A.27.27,0,0,1,32.2,10.4Z"/><path class="cls-1" d="M32.2,10.74a.6.6,0,0,1-.64-.64V7.4a.64.64,0,0,1,1.28,0v2.7A.6.6,0,0,1,32.2,10.74Z"/><path d="M30.5,8.7h0a.27.27,0,0,1,.3-.3h2.7a.27.27,0,0,1,.3.3h0a.27.27,0,0,1-.3.3H30.8A.27.27,0,0,1,30.5,8.7Z"/><path class="cls-1" d="M33.5,9.34H30.8a.64.64,0,1,1,0-1.28h2.7a.64.64,0,1,1,0,1.28Z"/><path d="M22.7,18.5h0A2.48,2.48,0,0,1,20.2,16V9.5A2.48,2.48,0,0,1,22.7,7h0a2.48,2.48,0,0,1,2.5,2.5V16A2.48,2.48,0,0,1,22.7,18.5Z"/><path d="M43.7,18.5h0A2.48,2.48,0,0,1,41.2,16V9.5A2.48,2.48,0,0,1,43.7,7h0a2.48,2.48,0,0,1,2.5,2.5V16A2.42,2.42,0,0,1,43.7,18.5Z"/><path d="M54.2,57.1h-42a4,4,0,0,1-4-4V15.9a4,4,0,0,1,4-4h42a4,4,0,0,1,4,4V53.1A4,4,0,0,1,54.2,57.1Zm-42-41.9a.68.68,0,0,0-.7.7V53.1a.68.68,0,0,0,.7.7h42a.68.68,0,0,0,.7-.7V15.9a.68.68,0,0,0-.7-.7Z"/><path d="M55.6,26H10.7a1.7,1.7,0,0,1,0-3.4H55.6a1.7,1.7,0,0,1,0,3.4Z"/><path d="M28,47a1.5,1.5,0,0,1-1.1-.4,1.72,1.72,0,0,1-.1-2.4L37,33.1a1.7,1.7,0,0,1,2.5,2.3l-10.2,11A1.76,1.76,0,0,1,28,47Z"/><path d="M38.7,46.5a1.5,1.5,0,0,1-1.1-.4L26.4,35.9a1.7,1.7,0,0,1,2.3-2.5L39.8,43.6a1.72,1.72,0,0,1,.1,2.4A1.85,1.85,0,0,1,38.7,46.5Z"/></svg>