<svg id="Capa_1" data-name="Capa 1" xmlns="http://www.w3.org/2000/svg" viewBox="0 0 66 64.13"><defs><style>.cls-1{fill:#fff;}</style></defs><title>cita_reprogramada</title><path d="M32.33,10.2h0c-.2,0-.3-.1-.83-.3V7.2c.53-.2.63-.3.83-.3h0c.2,0,.3.1.17.3V9.9C32.63,10.1,32.53,10.2,32.33,10.2Z"/><path class="cls-1" d="M32.33,10.54a1.18,1.18,0,0,1-.51-.14,4.74,4.74,0,0,0-.44-.18l-.22-.09V7l.22-.08.44-.18a1.09,1.09,0,0,1,.51-.14.53.53,0,0,1,.52.26.51.51,0,0,1,0,.47V9.81a.49.49,0,0,1,0,.46A.55.55,0,0,1,32.33,10.54Zm-.49-.88.25.11.07,0V7.29l-.06,0-.26.11Z"/><path d="M30.63,8.5h0a6.47,6.47,0,0,1,.3-1h2.7a6.47,6.47,0,0,1,.3,1h0c0,.2-.1.3-.3,0h-2.7C30.73,8.8,30.63,8.7,30.63,8.5Z"/><path class="cls-1" d="M33.84,9a.5.5,0,0,1-.37-.19H31.1a.45.45,0,0,1-.81-.34A1.11,1.11,0,0,1,30.4,8c.05-.14.12-.32.21-.63l.07-.25h3.21l.07.25c.09.31.16.5.21.63a1.27,1.27,0,0,1,.1.46A.48.48,0,0,1,34,9ZM31,8.52h0v0h0Zm.12-.36h2.41c0-.09-.07-.19-.11-.32H31.19C31.15,8,31.11,8.07,31.08,8.16Z"/><path d="M22.5,18.3h0A2.48,2.48,0,0,1,20,15.8V9.3a2.48,2.48,0,0,1,2.5-2.5h0A2.48,2.48,0,0,1,25,9.3v6.5A2.48,2.48,0,0,1,22.5,18.3Z"/><path d="M43.5,18.3h0A2.48,2.48,0,0,1,41,15.8V9.3a2.48,2.48,0,0,1,2.5-2.5h0A2.48,2.48,0,0,1,46,9.3v6.5A2.42,2.42,0,0,1,43.5,18.3Z"/><path d="M54,57H12a4,4,0,0,1-4-4V16a4,4,0,0,1,4-4H54a4,4,0,0,1,4,4V53A4,4,0,0,1,54,57ZM12,15.7V53.3a.7.7,0,0,0,.7.7H54.3a.7.7,0,0,0,.7-.7V15.7a.7.7,0,0,0-.7-.7H12.7A.7.7,0,0,0,12,15.7Z"/><path d="M55.73,26H10.83a2.12,2.12,0,0,1-1.7-1.9c0-.9.8-1.7,1.7-1.1h44.9c.9-.6,1.7.2,1.7,1.1A2.12,2.12,0,0,1,55.73,26Z"/><path d="M31.4,43.6l-.5-12.4a2.05,2.05,0,0,1,4.1-.1v.2l-.5,12.4a1.55,1.55,0,0,1-3.1-.1Z"/><circle cx="33.23" cy="48" r="1.6"/></svg>