<svg id="Capa_1" data-name="Capa 1" xmlns="http://www.w3.org/2000/svg" viewBox="0 0 66 64.13"><title>cita_por_confirmar</title><path d="M22.5,17.9h0A2.48,2.48,0,0,1,20,15.4V8.9a2.48,2.48,0,0,1,2.5-2.5h0A2.48,2.48,0,0,1,25,8.9v6.5A2.48,2.48,0,0,1,22.5,17.9Z"/><path d="M43.5,17.9h0A2.48,2.48,0,0,1,41,15.4V8.9a2.48,2.48,0,0,1,2.5-2.5h0A2.48,2.48,0,0,1,46,8.9v6.5A2.42,2.42,0,0,1,43.5,17.9Z"/><path d="M54,56.5H12a4,4,0,0,1-4-4V15.3a4,4,0,0,1,4-4H54a4,4,0,0,1,4,4V52.5A4,4,0,0,1,54,56.5ZM12,14.6a.68.68,0,0,0-.7.7V52.5a.68.68,0,0,0,.7.7H54a.68.68,0,0,0,.7-.7V15.3a.68.68,0,0,0-.7-.7Z"/><path d="M55.4,26.8H10.5a1.7,1.7,0,0,1,0-3.4H55.4a1.7,1.7,0,0,1,0,3.4Z"/><path d="M25,42.3H16.1a1.58,1.58,0,0,1-1.6-1.6V31.8a1.58,1.58,0,0,1,1.6-1.6H25a1.58,1.58,0,0,1,1.6,1.6v8.9A1.58,1.58,0,0,1,25,42.3Zm-7.3-3.1h5.8V33.4H17.7Z"/></svg>