<svg id="Capa_1" data-name="Capa 1" xmlns="http://www.w3.org/2000/svg" viewBox="0 0 66 64.13"><defs><style>.cls-1{fill:#fff;}</style></defs><title>cita_favorita</title><path d="M30.49,10.84h0a6.19,6.19,0,0,1-1-.3V7.84a6.19,6.19,0,0,1,1-.3h0c.2,0,.3.1,0,.3v2.7C30.79,10.74,30.69,10.84,30.49,10.84Z"/><path class="cls-1" d="M30.49,11.18a1.19,1.19,0,0,1-.47-.11l-.62-.2-.24-.07V7.59l.25-.08a5.76,5.76,0,0,0,.62-.2,1.29,1.29,0,0,1,.46-.11.48.48,0,0,1,.51.31.45.45,0,0,1-.16.49v2.38a.47.47,0,0,1,.16.49A.48.48,0,0,1,30.49,11.18Zm0-.67v0h0v0Zm-.65-.22.32.11V8l-.32.1Z"/><path d="M28.79,9.14h0c0-.2.1-.3.3-.64h2.7c.2.34.3.44.3.64h0c0,.2-.1.3-.3.36h-2.7C28.89,9.44,28.79,9.34,28.79,9.14Z"/><path class="cls-1" d="M31.83,9.84H29a.67.67,0,0,1-.54-.69,1.11,1.11,0,0,1,.22-.62l.22-.36H32l.22.36a1.13,1.13,0,0,1,.23.62.68.68,0,0,1-.55.69Zm-2.55-1,0,0c-.11.18-.12.21-.12.26v0H31.7c0-.07,0-.11-.08-.28l0,0Z"/><path d="M20.5,18.94h0a2.48,2.48,0,0,1-2.5-2.5V9.94a2.48,2.48,0,0,1,2.5-2.5h0A2.48,2.48,0,0,1,23,9.94v6.5A2.48,2.48,0,0,1,20.5,18.94Z"/><path d="M41.5,18.94h0a2.48,2.48,0,0,1-2.5-2.5V9.94a2.48,2.48,0,0,1,2.5-2.5h0A2.48,2.48,0,0,1,44,9.94v6.5A2.48,2.48,0,0,1,41.5,18.94Z"/><path d="M52,57H10a4,4,0,0,1-4-4V16a4,4,0,0,1,4-4H52a4,4,0,0,1,4,4V53A4,4,0,0,1,52,57ZM10,16.7V53.3a.7.7,0,0,0,.7.7H52.3a.7.7,0,0,0,.7-.7V16.7a.7.7,0,0,0-.7-.7H10.7A.7.7,0,0,0,10,16.7Z"/><path d="M53.79,26H9c-.9.54-1.7-.16-1.7-1.16A1.83,1.83,0,0,1,9,23h44.8a1.91,1.91,0,0,1,1.7,1.84C55.49,25.84,54.79,26.54,53.79,26Z"/><path d="M41,38.23v.3a1.49,1.49,0,0,1-.51.36l-3.64,3c-.47.73-.84.68-.68,1.18l1.21,5.43a1.7,1.7,0,0,1-.1.7c-.2.3-.5.1-.7-.1-1.61-1-3.22-1.91-4.83-2.92a.45.45,0,0,0-.5,0c-1.61,1-3.22,1.91-4.83,2.92-.2.1-.5.3-.7.1a.88.88,0,0,1-.1-.7l1.21-5.43c.1-.3,0-.41-.21-.61-1.5-1.3-3-2.71-4.62-4v-.3c.2-.1.4-.3.6-.3.51-.1,1-.1,1.51-.2,1.41-.1,2.72-.2,4.12-.4a.56.56,0,0,0,.61-.41c.7-1.71,1.4-3.41,2.21-5.12a1.23,1.23,0,0,1,.5-.51c.3-.1.4.21.6.51.71,1.61,1.41,3.21,2.11,4.92.21.51.51.61,1,.71,1.81.1,3.52.3,5.33.5C40.6,37.93,40.8,38.13,41,38.23Z"/></svg>