<svg id="Capa_1" data-name="Capa 1" xmlns="http://www.w3.org/2000/svg" viewBox="0 0 61.06 61.06"><defs><style>.cls-1{fill:#fff;}</style></defs><title>cita aprobada</title><path class="cls-1" d="M38,51.33a2.63,2.63,0,0,1-1.71-.62l-9.52-8a2.68,2.68,0,0,1,3.44-4.11l7.33,6.13,11.81-16a2.68,2.68,0,1,1,4.31,3.18L40.16,50.25a2.65,2.65,0,0,1-1.84,1.06A1.67,1.67,0,0,1,38,51.33Z" transform="translate(-9.47 -8.97)"/><path class="cls-1" d="M40,70A30.53,30.53,0,1,1,70.53,39.5,30.56,30.56,0,0,1,40,70ZM40,13.1A26.4,26.4,0,1,0,66.4,39.5,26.43,26.43,0,0,0,40,13.1Z" transform="translate(-9.47 -8.97)"/></svg>