<svg id="Capa_1" data-name="Capa 1" xmlns="http://www.w3.org/2000/svg" viewBox="0 0 66 64.13"><title>consulta</title><path d="M33.48,25.13h0A1.81,1.81,0,0,1,35.29,27V42a1.81,1.81,0,0,1-1.81,1.82h0A1.81,1.81,0,0,1,31.66,42V27A1.81,1.81,0,0,1,33.48,25.13Z"/><rect x="24.17" y="32.62" width="18.64" height="3.63" rx="1.81" ry="1.81"/><path d="M54.13,61.8H12.86A1.86,1.86,0,0,1,11,59.94h0v-51a1.86,1.86,0,0,1,1.86-1.86h9.73a1.86,1.86,0,1,1,0,3.72H14.72V58.08H52.27V10.81H44.13a1.86,1.86,0,1,1,0-3.72h10A1.86,1.86,0,0,1,56,9h0V60A1.87,1.87,0,0,1,54.13,61.8Z"/><path d="M42.34,15.4H24.2a1.85,1.85,0,0,1-1.85-1.71L21.55,4a1.88,1.88,0,0,1,1.74-2H43.13a1.87,1.87,0,0,1,1.37.6A1.82,1.82,0,0,1,45,4l-.79,9.72A1.85,1.85,0,0,1,42.34,15.4ZM25.91,11.72H40.63l.49-6H25.42Z"/></svg>