<svg id="Capa_1" data-name="Capa 1" xmlns="http://www.w3.org/2000/svg" viewBox="0 0 66 64.13"><title>enfermeria</title><path d="M53.6,60.1a1.79,1.79,0,0,1-1.8-1.8,16,16,0,0,0-32,0,1.8,1.8,0,1,1-3.6,0,19.6,19.6,0,0,1,39.2,0A1.79,1.79,0,0,1,53.6,60.1Z"/><path d="M36,11.8h0a.27.27,0,0,1-.3-.3V8.8a.27.27,0,0,1,.3-.3h0a.27.27,0,0,1,.3.3v2.7A.27.27,0,0,1,36,11.8Z"/><path d="M36,12.14a.6.6,0,0,1-.64-.64V8.8a.64.64,0,1,1,1.28,0v2.7A.6.6,0,0,1,36,12.14Z"/><path d="M34.3,10.1h0a.27.27,0,0,1,.3-.3h2.7a.27.27,0,0,1,.3.3h0a.27.27,0,0,1-.3.3H34.6A.27.27,0,0,1,34.3,10.1Z"/><path d="M37.3,10.74H34.6a.64.64,0,1,1,0-1.28h2.7a.64.64,0,1,1,0,1.28Z"/><path d="M44.2,16.9H27.4A1.49,1.49,0,0,1,26,15.6l-.6-8.8a1.6,1.6,0,0,1,.8-1.4l.9-.4A22.55,22.55,0,0,1,44.4,5l.9.4a1.34,1.34,0,0,1,.8,1.4l-.6,8.8A1.21,1.21,0,0,1,44.2,16.9ZM28.6,14.1H43l.4-6.6a20,20,0,0,0-15.2,0Z"/><path d="M43.8,11.4a3.13,3.13,0,0,1-1.7,2.9,8.33,8.33,0,0,1,2,5.4v3.5a8.3,8.3,0,0,1-16.6,0V19.7a8.32,8.32,0,0,1,1.8-5.1,3,3,0,0,1-1.9-2.7,11.58,11.58,0,0,0-3.1,7.8v3.5a11.5,11.5,0,0,0,23,0V19.7A10.94,10.94,0,0,0,43.8,11.4Z"/></svg>