<svg id="Capa_1" data-name="Capa 1" xmlns="http://www.w3.org/2000/svg" viewBox="0 0 66 64.13"><title>estudio</title><path d="M32.5,60.5A28.94,28.94,0,1,1,61.44,31.56,29,29,0,0,1,32.5,60.5Zm0-54.87A25.94,25.94,0,1,0,58.44,31.56,26,26,0,0,0,32.5,5.63Z"/><rect x="20.2" y="19.16" width="3.92" height="1"/><rect x="20.2" y="22.7" width="3.92" height="1"/><rect x="20.2" y="26.25" width="3.92" height="1"/><path d="M30.62,49.43H20.49a6.41,6.41,0,0,1-6-8.64L19.7,26.66V14.06H31.12v7.78h-1V15.06H20.7l0,11.87L15.41,41.14a5.41,5.41,0,0,0,5.08,7.29H30.62Z"/><path d="M48.77,49.46H31.21a2.73,2.73,0,0,1-2.73-2.73V24a2.73,2.73,0,0,1,2.73-2.73h4.68v1H31.21A1.73,1.73,0,0,0,29.48,24V46.73a1.73,1.73,0,0,0,1.73,1.73H48.77a1.74,1.74,0,0,0,1.73-1.73V24a1.74,1.74,0,0,0-1.73-1.73H44v-1h4.75A2.74,2.74,0,0,1,51.5,24V46.73A2.73,2.73,0,0,1,48.77,49.46Z"/><rect x="33.49" y="31.46" width="12.93" height="1"/><rect x="33.49" y="35.81" width="12.93" height="1"/><rect x="33.49" y="40.16" width="12.93" height="1"/><path d="M31.41,15.81H19.18a.47.47,0,0,1-.47-.46V13.46a.47.47,0,0,1,.47-.46H31.41a.47.47,0,0,1,.47.46v1.89A.46.46,0,0,1,31.41,15.81Z"/><path d="M40,26.4a4.57,4.57,0,1,1,4.57-4.56A4.56,4.56,0,0,1,40,26.4Zm0-8.13a3.57,3.57,0,1,0,3.57,3.57A3.57,3.57,0,0,0,40,18.27Z"/><rect x="39.38" y="19.95" width="1.22" height="3.73"/><rect x="38.12" y="21.19" width="3.73" height="1.22"/><rect x="17.01" y="34.87" width="11.84" height="1"/></svg>