<svg id="Capa_1" data-name="Capa 1" xmlns="http://www.w3.org/2000/svg" viewBox="0 0 66 64.13"><title>estudios_diagnosticos</title><path d="M33.5,60.5A28.94,28.94,0,1,1,62.44,31.56,29,29,0,0,1,33.5,60.5Zm0-54.87A25.94,25.94,0,1,0,59.44,31.56,26,26,0,0,0,33.5,5.63Z"/><path d="M42.54,40.08a7.1,7.1,0,0,1-1.72-.21,1.43,1.43,0,0,1-.34-.14,3.48,3.48,0,0,1-1.72-2.13c-.32-1.4.51-2.65,1.24-3.76.42-.64,1-1.51.87-1.85,0-.09-.25-.53-1.78-1a1.21,1.21,0,0,1-.67-.55l-1-1.76C35.08,24.8,37.51,20.51,41,18a2,2,0,0,1,1.52-.52c2.1.09,5.08,3.21,6.38,4.7H60v2.43H48.32a1.19,1.19,0,0,1-.93-.43C45.57,22,43.3,20,42.48,19.87h0c-2.41,1.76-4.63,4.79-3,7.53l.8,1.4c1.59.6,2.51,1.37,2.86,2.39.52,1.48-.36,2.81-1.14,4-.41.63-1,1.49-.89,1.88a1,1,0,0,0,.45.48,4.48,4.48,0,0,0,4.13-1.16,3.14,3.14,0,0,0,.57-3.28,1.21,1.21,0,0,1,1.16-1.59H60V34H48.93a5.31,5.31,0,0,1-1.43,4.1A6.87,6.87,0,0,1,42.54,40.08Z"/><path d="M10.77,48.44,9.55,46.33l12.94-7.5a1.22,1.22,0,0,1,1.66.44c.83,1.41,2.71,2.25,5,2.27h.06c2.77,0,5.44-1.16,6.64-2.86,0-.1,0-.21,0-.32.12-.91.17-1.21-1-1.57l-.18-.07c-.52-.26-1-.47-1.46-.68-2.64-1.18-4.54-2-6.21-6.93a1.32,1.32,0,0,1-.06-.39c-.21-.62-3.3-2-5.38-1.4-2,1-2,1.79-1.87,4.48,0,.62.05,1.32.05,2.1a1.34,1.34,0,0,1-.1.49l-.26.59a1.19,1.19,0,0,1-.55.58L7.8,41.43,6.66,39.27l10.75-5.65c0-.63,0-1.21-.05-1.73-.11-2.91-.19-5,3.31-6.79l.18-.08a9.23,9.23,0,0,1,7.22,1.33,3.08,3.08,0,0,1,1.4,2.13c1.3,3.75,2.43,4.25,4.85,5.34l1.45.67a3.38,3.38,0,0,1,2.57,4.2,3,3,0,0,0,0,.39,1.21,1.21,0,0,1-.18.64C36.57,42.29,32.91,44,29.17,44a8.5,8.5,0,0,1-6.4-2.49Z"/></svg>