<svg id="Capa_1" data-name="Capa 1" xmlns="http://www.w3.org/2000/svg" viewBox="0 0 66 64.13"><title>fotografias</title><path d="M33.5,60.5A28.94,28.94,0,1,1,62.44,31.56,29,29,0,0,1,33.5,60.5Zm0-54.87A25.94,25.94,0,1,0,59.44,31.56,26,26,0,0,0,33.5,5.63Z"/><path d="M47.32,48.75H19.68A5.68,5.68,0,0,1,14,43.08V25.21a5.69,5.69,0,0,1,5.68-5.68H47.36a5.63,5.63,0,0,1,4.1,1.71,5.41,5.41,0,0,1,1.54,4V43.08A5.68,5.68,0,0,1,47.32,48.75ZM19.68,21.53A3.68,3.68,0,0,0,16,25.21V43.08a3.67,3.67,0,0,0,3.68,3.67H47.32A3.67,3.67,0,0,0,51,43.08V25.16a3.4,3.4,0,0,0-1-2.53,3.66,3.66,0,0,0-2.66-1.1Zm14,22.2h-.27a9.64,9.64,0,0,1-9.31-9.13,9.52,9.52,0,0,1,2.65-7.06,9.57,9.57,0,0,1,16.52,6.6,9.59,9.59,0,0,1-9.59,9.59Zm-.22-2a7.59,7.59,0,1,0-5.26-12.81,7.5,7.5,0,0,0-2.1,5.58,7.71,7.71,0,0,0,7.36,7.23ZM47.11,30.25h-.26a3.44,3.44,0,1,1,1.38-6.68,3.44,3.44,0,0,1,1.43,5.58A3.4,3.4,0,0,1,47.11,30.25Zm0-4.88a1.43,1.43,0,0,0-1,.45,1.4,1.4,0,0,0-.3,1.53,1.43,1.43,0,0,0,1.21.9h0a1.44,1.44,0,0,0,.59-2.8A1.26,1.26,0,0,0,47.11,25.37Z"/><path d="M23.06,21.48l-1.19-1.6c.73-.55.86-1.62,1-2.87.23-1.9.55-4.51,3.89-5H41.42l.25.17c2.4,1.62,2.87,4.38,3.29,6.81.09.5.17,1,.28,1.49l-2,.42c-.11-.52-.2-1-.29-1.57-.37-2.13-.72-4.15-2.2-5.32H27c-1.68.27-1.88,1.26-2.13,3.26C24.69,18.74,24.48,20.42,23.06,21.48Z"/><ellipse cx="33.78" cy="34" rx="5.78" ry="6"/></svg>