<svg id="Capa_1" data-name="Capa 1" xmlns="http://www.w3.org/2000/svg" viewBox="0 0 66 64.13"><title>grafico</title><path d="M60.7,57.5H5.3a2.65,2.65,0,0,1-2.6-2.6V9.9A2.65,2.65,0,0,1,5.3,7.3,2.65,2.65,0,0,1,7.9,9.9V52.3H60.6a2.65,2.65,0,0,1,2.6,2.6A2.5,2.5,0,0,1,60.7,57.5Z"/><path d="M44.4,19.8H17.5a2.6,2.6,0,1,1,0-5.2H44.4A2.65,2.65,0,0,1,47,17.2,2.58,2.58,0,0,1,44.4,19.8Z"/><path d="M37.7,31.3H17.5a2.6,2.6,0,0,1,0-5.2H37.7a2.65,2.65,0,0,1,2.6,2.6A2.58,2.58,0,0,1,37.7,31.3Z"/><path d="M51.9,42.2H17.5a2.6,2.6,0,1,1,0-5.2H51.9a2.65,2.65,0,0,1,2.6,2.6A2.58,2.58,0,0,1,51.9,42.2Z"/></svg>