<svg id="Capa_1" data-name="Capa 1" xmlns="http://www.w3.org/2000/svg" viewBox="0 0 66 64.13"><title>hospital</title><path d="M32.6,27.1h0c-.5,0-.9-.4-.6-.9V18.9c-.3-.5.1-.9.6-.9h0c.5,0,.9.4,1.4.9v7.3C33.5,26.7,33.1,27.1,32.6,27.1Z"/><path d="M28,22.6h0c0-.5.4-.9.9-.6h7.3c.5-.3.9.1.9.6h0c0,.5-.4.9-.9,1.4H28.9C28.4,23.5,28,23.1,28,22.6Z"/><path d="M45.69,57H19.3A1.3,1.3,0,0,1,18,55.7V8.3A1.31,1.31,0,0,1,19.3,7H45.7A1.3,1.3,0,0,1,47,8.3V55.8A1.31,1.31,0,0,1,45.69,57ZM21,55H45V10H21Z"/><path d="M43.8,57a1.06,1.06,0,0,1-1.3-1.1c0-.7.6-1.3,1.3-1.9H59V30H45.7a1.32,1.32,0,0,1-1.3-1.3A2.2,2.2,0,0,1,45.7,27H60.5A6.22,6.22,0,0,1,62,28.7V55.9s-.8,1.3-1.5,1.1Z"/><path d="M21,57H4.3A1.18,1.18,0,0,1,3,55.8V28.7A2.2,2.2,0,0,1,4.3,27H19.1a2.2,2.2,0,0,1,1.3,1.7A1.32,1.32,0,0,1,19.1,30H6V54H21c.7.7,1.3,1.3,1.3,2A1,1,0,0,1,21,57Z"/><path d="M26.4,57.2A1.49,1.49,0,0,1,25,55.9V41.8c.1-.7,1.4-1.8,1.4-1.8H40.2A14.35,14.35,0,0,1,42,41.8V55.3a2.51,2.51,0,0,1-1.8,1.3A1.18,1.18,0,0,1,39,55.3V43H28V56A1.81,1.81,0,0,1,26.4,57.2Z"/><path d="M15,47a1,1,0,0,1-1,1H9a1,1,0,0,1-1-1V38a1,1,0,0,1,1-1H14a1,1,0,0,1,1,1Zm-5-1h3V39H10Z"/><path d="M56,48H51a1,1,0,0,1-1-1V38a1,1,0,0,1,1-1H56a1,1,0,0,1,1,1v9A1,1,0,0,1,56,48Zm-4-2h3V39H52Z"/></svg>