<svg id="Capa_1" data-name="Capa 1" xmlns="http://www.w3.org/2000/svg" viewBox="0 0 44.99 59.8"><defs><style>.cls-1,.cls-2{fill:#fff;}.cls-1{stroke:#fff;stroke-miterlimit:10;stroke-width:0.87px;}</style></defs><title>icono consulta</title><rect class="cls-1" x="20.66" y="23.13" width="3.63" height="18.64" rx="1.82"/><rect class="cls-1" x="38.2" y="32.72" width="3.63" height="18.64" rx="1.82" transform="translate(64.53 -7.58) rotate(90)"/><path class="cls-2" d="M60.65,69.4H19.38a1.86,1.86,0,0,1-1.86-1.86v-51a1.86,1.86,0,0,1,1.86-1.86h9.73a1.86,1.86,0,0,1,0,3.72H21.24V65.68H58.79V18.41H50.65a1.86,1.86,0,1,1,0-3.72h10a1.86,1.86,0,0,1,1.86,1.86v51A1.86,1.86,0,0,1,60.65,69.4Z" transform="translate(-17.52 -9.6)"/><path class="cls-2" d="M48.86,23H30.72a1.85,1.85,0,0,1-1.85-1.71l-.8-9.72a1.87,1.87,0,0,1,1.86-2H49.65a1.87,1.87,0,0,1,1.37.6,1.82,1.82,0,0,1,.48,1.41l-.79,9.72A1.85,1.85,0,0,1,48.86,23ZM32.43,19.32H47.15l.49-6H31.94Z" transform="translate(-17.52 -9.6)"/></svg>