<svg id="Capa_1" data-name="Capa 1" xmlns="http://www.w3.org/2000/svg" viewBox="0 0 66 64.13"><title>laboratorios</title><path d="M32.5,60.5A28.94,28.94,0,1,1,61.44,31.56,29,29,0,0,1,32.5,60.5Zm0-54.87A25.94,25.94,0,1,0,58.44,31.56,26,26,0,0,0,32.5,5.63Z"/><path d="M32.64,48.18H18.7a6.5,6.5,0,0,1-1,0c-3.64-.61-4.86-3.61-2.68-6.68q5.57-7.83,11.18-15.61a3.43,3.43,0,0,0,.72-2.16c0-3.71,0-7.41,0-11.11,0-1.3.1-1.38,1.41-1.39H38c1.18,0,1.39.19,1.39,1.36,0,3.95,0,7.89,0,11.84a2.72,2.72,0,0,0,.44,1.41c3.48,5.08,7,10.12,10.48,15.21a6.21,6.21,0,0,1,1,2.39c.48,2.8-1.35,4.76-4.41,4.77C42.17,48.2,37.4,48.18,32.64,48.18Zm0-2.24H45.91a10.33,10.33,0,0,0,1.36-.07c1.72-.22,2.25-1.17,1.52-2.73a3.5,3.5,0,0,0-.35-.63c-1.65-2.4-3.32-4.78-5-7.19-.31-.46-.58-.52-1.11-.32a6.17,6.17,0,0,1-4.19.24c-1.46-.47-2.85-1.14-4.27-1.72a16.61,16.61,0,0,0-2.51-1,12.82,12.82,0,0,0-7.55,1,2.89,2.89,0,0,0-1.23,1c-1.86,2.54-3.69,5.11-5.51,7.68a6.51,6.51,0,0,0-.62,1c-.7,1.53-.18,2.47,1.48,2.69a10.34,10.34,0,0,0,1.36.08Zm9.74-12.16c-.19-.3-.34-.55-.51-.8-1.43-2.07-2.89-4.12-4.29-6.21a2.41,2.41,0,0,1-.41-1.24c0-3.67,0-7.35,0-11v-1h-8c0,3.72,0,7.36,0,11A2.8,2.8,0,0,1,28.64,26c-1.35,2-2.77,3.93-4.29,6.05l1.33-.34c3.21-.83,6.29-.77,9.21,1a13.24,13.24,0,0,0,3,1.29A5.88,5.88,0,0,0,42.36,33.78Z"/><path d="M24.7,44.39a3,3,0,0,1-3.06-3,3.11,3.11,0,0,1,3.11-3.12,3.15,3.15,0,0,1,3.08,3.08A3.09,3.09,0,0,1,24.7,44.39Zm.06-1.1a2,2,0,0,0,0-3.95,2,2,0,0,0-2,2A2,2,0,0,0,24.76,43.29Z"/><path d="M43.75,41.74a2.61,2.61,0,0,1-2.63,2.65,2.65,2.65,0,0,1-2.7-2.68,2.72,2.72,0,0,1,2.69-2.64A2.66,2.66,0,0,1,43.75,41.74Zm-1.13,0a1.54,1.54,0,0,0-1.56-1.56,1.62,1.62,0,0,0-1.52,1.53,1.56,1.56,0,0,0,1.54,1.58A1.5,1.5,0,0,0,42.62,41.74Z"/><path d="M34.42,37.32a2.27,2.27,0,1,1-4.54,0,2.34,2.34,0,0,1,2.25-2.29A2.31,2.31,0,0,1,34.42,37.32Zm-1.1.09a1.17,1.17,0,0,0-1.14-1.2,1.15,1.15,0,1,0,0,2.3A1.14,1.14,0,0,0,33.32,37.41Z"/><path d="M34.89,18.22c0-.94,0-1.89,0-2.82,0-.28.34-.53.52-.79.19.26.54.51.54.77.05,1.92.05,3.83,0,5.74,0,.27-.35.53-.54.8-.18-.26-.5-.52-.52-.79C34.85,20.16,34.89,19.19,34.89,18.22Z"/><path d="M36.24,23.91l-.77.83c-.19-.24-.55-.5-.54-.74s.33-.57.51-.86Z"/></svg>