<svg id="Capa_1" data-name="Capa 1" xmlns="http://www.w3.org/2000/svg" viewBox="0 0 66 64.13"><title>medico</title><path d="M26.4,47.4a1.32,1.32,0,0,1-1.3-1.3V41.2a1.32,1.32,0,0,1,1.3-1.3h0a1.32,1.32,0,0,1,1.3,1.3v4.9a1.26,1.26,0,0,1-1.3,1.3Z"/><path d="M26.4,53A3.6,3.6,0,1,1,30,49.4,3.59,3.59,0,0,1,26.4,53Zm0-4.8a1.1,1.1,0,1,0,1.1,1.1A1,1,0,0,0,26.4,48.2Z"/><path d="M39.5,47.6a1.32,1.32,0,0,1-1.3-1.3V41.2a1.3,1.3,0,1,1,2.6,0v5.1A1.4,1.4,0,0,1,39.5,47.6Z"/><path d="M42.7,57.2a1.32,1.32,0,0,1-1.3-1.3V50.4a2,2,0,0,0-4,0v5.5a1.3,1.3,0,0,1-2.6,0V50.4a4.5,4.5,0,1,1,9,0v5.5A1.11,1.11,0,0,1,42.7,57.2Z"/><path d="M50,57.5a1.69,1.69,0,0,1-1.7-1.7,15.5,15.5,0,0,0-31,0,1.7,1.7,0,0,1-3.4,0,19,19,0,0,1,38,0A2,2,0,0,1,50,57.5Z"/><path d="M32.7,33.1A11.18,11.18,0,0,1,21.5,21.9V18.5a11.2,11.2,0,1,1,22.4,0v3.4A11.18,11.18,0,0,1,32.7,33.1Zm0-22.6a8.13,8.13,0,0,0-8.1,8.1V22a8.1,8.1,0,1,0,16.2,0V18.6A8.07,8.07,0,0,0,32.7,10.5Z"/></svg>