<svg id="Capa_1" data-name="Capa 1" xmlns="http://www.w3.org/2000/svg" viewBox="0 0 66 64.13"><title>otros_archivos</title><path d="M36,23H28a1,1,0,0,1,0-2h8a1,1,0,0,1,0,2Z"/><path d="M33.5,61.5A28.94,28.94,0,1,1,62.44,32.56,29,29,0,0,1,33.5,61.5Zm0-54.87A25.94,25.94,0,1,0,59.44,32.56,26,26,0,0,0,33.5,6.63Z"/><path d="M40,16l7,7V48H21V16H40m0-2H21a2,2,0,0,0-2,2V48a2,2,0,0,0,2,2H47a2,2,0,0,0,2-2V23a2,2,0,0,0-.59-1.41l-7-7A2,2,0,0,0,40,14Z"/><path d="M40,29H28a1,1,0,0,1,0-2H40a1,1,0,0,1,0,2Z"/><path d="M40,35H28a1,1,0,0,1,0-2H40a1,1,0,0,1,0,2Z"/><path d="M40,41H28a1,1,0,0,1,0-2H40a1,1,0,0,1,0,2Z"/></svg>