<svg id="Capa_1" data-name="Capa 1" xmlns="http://www.w3.org/2000/svg" viewBox="0 0 66 64.13"><title>paciente</title><path d="M33,57h0a1.32,1.32,0,0,1-1.3-1.3V44.9A1.32,1.32,0,0,1,33,43.6h0a1.32,1.32,0,0,1,1.3,1.3V55.7A1.32,1.32,0,0,1,33,57Z"/><path d="M26.3,50.3h0A1.32,1.32,0,0,1,27.6,49H38.4a1.32,1.32,0,0,1,1.3,1.3h0a1.32,1.32,0,0,1-1.3,1.3H27.6A1.32,1.32,0,0,1,26.3,50.3Z"/><path d="M50.3,57.5a1.69,1.69,0,0,1-1.7-1.7,15.5,15.5,0,0,0-31,0,1.7,1.7,0,1,1-3.4,0,19,19,0,0,1,38,0A1.93,1.93,0,0,1,50.3,57.5Z"/><path d="M33,33.1A11.18,11.18,0,0,1,21.8,21.9V18.5a11.2,11.2,0,0,1,22.4,0v3.4A11.18,11.18,0,0,1,33,33.1Zm0-22.6a8.13,8.13,0,0,0-8.1,8.1V22a8.1,8.1,0,0,0,16.2,0V18.6A8.07,8.07,0,0,0,33,10.5Z"/></svg>