<svg id="Capa_1" data-name="Capa 1" xmlns="http://www.w3.org/2000/svg" viewBox="0 0 66 64.13"><title>solid_estetoscopio copia 7</title><path d="M36.23,57.93a1.56,1.56,0,0,1-1.1-.45L15,37.44a22.76,22.76,0,0,1-6.32-9.78c-2.09-7.06-.29-12.94,5.19-17a13.36,13.36,0,0,1,10.5-2.8c5.26.94,9.32,4.9,11.3,7.24C37.53,12.78,41.26,9,46.26,8a13.22,13.22,0,0,1,10.48,2.54c4.66,3.32,7.2,7.78,7.26,12.91A16.14,16.14,0,0,1,59.45,34.7L37.36,57.48a1.54,1.54,0,0,1-1.11.47Zm-14-47.46a10.82,10.82,0,0,0-6.52,2.38c-4.4,3.28-5.76,7.86-4.06,13.63.93,3,2.48,5.42,5.52,8.45l19,18.92,21-21.6a13.07,13.07,0,0,0,3.67-9.1c0-4.13-2-7.63-5.94-10.39a10.28,10.28,0,0,0-8.06-2c-5.77,1.14-9.81,7.46-9.86,7.46a1.57,1.57,0,0,1-2.61,0c-.09-.13-4.54-6.59-10.57-7.62a8.24,8.24,0,0,0-1.57-.12Z"/><path d="M29.39,39.36h-.6a1.47,1.47,0,0,1-1.15-.77L21.45,27.11l-5.68,6.15a1.56,1.56,0,0,1-1.15.51H3.69S2.07,32.93,2,32.07a1.57,1.57,0,0,1,1.44-1.68c.09,0,.25.58.25.58h9.85l7-8.23a1.55,1.55,0,0,1,2.2-.11,1.7,1.7,0,0,1,.33.42l6.51,12.06,3.91-4.66A1.1,1.1,0,0,1,34.7,30h6.52c.85-.22,1.78,1.31,1.78,1.31v-.11a1.59,1.59,0,0,1-1.56,1.6l-5.87,0-5,5.9A1.62,1.62,0,0,1,29.39,39.36Z"/></svg>