<svg id="Capa_1" data-name="Capa 1" xmlns="http://www.w3.org/2000/svg" viewBox="0 0 66 64.13"><title>recipe</title><path d="M33.5,60.5A28.94,28.94,0,1,1,62.44,31.56,29,29,0,0,1,33.5,60.5Zm0-54.87A25.94,25.94,0,1,0,59.44,31.56,26,26,0,0,0,33.5,5.63Z"/><path d="M29.57,43.73H23.06a2.5,2.5,0,0,1-2.49-2.49v-25H32.06v8.44h-1V17.19H21.57V41.24a1.49,1.49,0,0,0,1.49,1.49h6.51Z"/><path d="M31.9,18.67H20.65a1,1,0,0,1-1-1.05V14.05a1,1,0,0,1,1-1.05H31.9A1,1,0,0,1,33,14.05v3.57A1,1,0,0,1,31.9,18.67Z"/><rect x="24.63" y="24.95" width="3.04" height="6.64"/><rect x="22.84" y="26.74" width="6.64" height="3.04"/><path d="M47,49.44H31.33A2.48,2.48,0,0,1,28.84,47V26.63a2.49,2.49,0,0,1,2.49-2.5H47a2.5,2.5,0,0,1,2.49,2.5V47A2.49,2.49,0,0,1,47,49.44ZM31.33,25.13a1.5,1.5,0,0,0-1.49,1.5V47a1.49,1.49,0,0,0,1.49,1.49H47A1.49,1.49,0,0,0,48.5,47V26.63A1.5,1.5,0,0,0,47,25.13Z"/><rect x="33.39" y="32.63" width="11.55" height="1"/><rect x="33.39" y="36.51" width="11.55" height="1"/><rect x="33.39" y="40.4" width="11.55" height="1"/></svg>