<svg id="Capa_1" data-name="Capa 1" xmlns="http://www.w3.org/2000/svg" viewBox="0 0 66 64.13"><title>salud_chacao</title><path d="M54.79,22.2l.29,0a19.71,19.71,0,0,1,5.44.94,5.06,5.06,0,0,1,1.62.82A2.32,2.32,0,0,1,63,25.85a7.72,7.72,0,0,1-.39,2.39,18.28,18.28,0,0,1-3.34,6.61c-.45.56-1,1.07-1.45,1.6a1.18,1.18,0,0,1-1.39.31c-.53-.19-1.07-.32-1.61-.46a.28.28,0,0,0-.18,0c-.52.15-1,.28-1.55.47a1.31,1.31,0,0,1-1.49-.42,18.47,18.47,0,0,1-3.45-4.82,18.12,18.12,0,0,1-1.6-5,3.84,3.84,0,0,1,0-1.22,2.1,2.1,0,0,1,1.13-1.48,9.56,9.56,0,0,1,2.87-1.11A24.32,24.32,0,0,1,54,22.27l.76-.07Zm-2.53,14,.2,0,2.1-.53a1,1,0,0,1,.42,0l1.36.35,1,.22a.88.88,0,0,0-.73-.95l-1.69-.44a.65.65,0,0,0-.31,0L53,35.22A.84.84,0,0,0,52.26,36.17Zm.12-1.53.45-.07,1.51-.42a1,1,0,0,1,.48-.06c.66.16,1.32.34,2,.52.24.07.35,0,.35-.25a.62.62,0,0,0-.48-.58l-1.59-.47a1,1,0,0,0-.64,0c-.46.16-.93.27-1.4.42A.88.88,0,0,0,52.38,34.64Zm.32-1.49a.53.53,0,0,0,.12,0c.45-.12.91-.22,1.35-.38a1.88,1.88,0,0,1,1.4,0c.33.13.68.23,1,.34.17,0,.28,0,.3-.15a.67.67,0,0,0-.38-.65l-1.67-.58a.33.33,0,0,0-.17,0c-.5.18-1,.35-1.51.54A.75.75,0,0,0,52.7,33.15Zm3.91-1.49a.75.75,0,0,0-.52-.95c-.41-.15-.83-.29-1.25-.42a.2.2,0,0,0-.15,0c-.45.15-.9.31-1.34.48a.74.74,0,0,0-.39.91c.53-.18,1.06-.37,1.6-.53a.64.64,0,0,1,.41,0c.3.08.59.21.89.31Zm-3.48-1.5.21-.06c.41-.15.83-.31,1.25-.44a.7.7,0,0,1,.43,0c.29.09.57.23.85.33s.37.11.56.17a.85.85,0,0,0-.6-1l-1-.37a.34.34,0,0,0-.22,0l-1,.38A.86.86,0,0,0,53.13,30.16Zm.19-1.49,1.31-.52a.42.42,0,0,1,.27,0c.26.08.5.2.75.3l.56.21a.72.72,0,0,0-.42-.94c-.3-.13-.59-.28-.9-.41a.33.33,0,0,0-.24,0c-.25.11-.49.26-.75.36A.81.81,0,0,0,53.32,28.67Zm.1-1.49c.39-.17.76-.32,1.12-.5a.56.56,0,0,1,.56,0l.69.36c.16.08.25.05.32-.12a.46.46,0,0,0-.23-.62c-.35-.18-.69-.34-1-.5a.29.29,0,0,0-.22,0c-.2.09-.39.2-.6.28A.91.91,0,0,0,53.42,27.18Zm2.51-1.5a.93.93,0,0,0-.38-1c-.23-.15-.49-.28-.74-.41a.13.13,0,0,0-.12,0c-.28.17-.56.33-.83.51a.62.62,0,0,0-.27.54.19.19,0,0,0,.29.19l.22-.11c.78-.4.56-.49,1.4,0A4.26,4.26,0,0,0,55.93,25.68Zm-1.17-2.93-.56,1.13a1,1,0,0,0,.3-.05.73.73,0,0,1,.56,0,1.07,1.07,0,0,0,.32,0Z"/><path d="M41.94,37.43a4.12,4.12,0,0,1-2.06-.54,3.09,3.09,0,0,1-1.53-2.36,3.41,3.41,0,0,1,3-4,4.16,4.16,0,0,1,2.6.35,3.11,3.11,0,0,1,1.77,2.8,3.57,3.57,0,0,1-.51,2.14,3.34,3.34,0,0,1-2.37,1.51C42.51,37.39,42.22,37.4,41.94,37.43Zm2.64-3.54c0-.06,0-.17,0-.28a2.5,2.5,0,0,0-2.13-2.39,2.4,2.4,0,0,0-2.62,1.21,3.07,3.07,0,0,0-.07,2.9,2.56,2.56,0,0,0,4.14.57A3,3,0,0,0,44.58,33.89Z"/><path d="M15.72,37.29h-1V34.17H10.78v3.12h-1V30.6h1v2.79h3.9v-2.8h1Z"/><path d="M23.67,37.3c-.35,0-.68,0-1,0a.27.27,0,0,1-.15-.13c-.26-.6-.5-1.21-.75-1.82a.19.19,0,0,0-.22-.15H19a.22.22,0,0,0-.23.16l-.7,1.8a.21.21,0,0,1-.23.15h-.92l.27-.66q1.2-2.94,2.39-5.88a.24.24,0,0,1,.27-.18h.94a.22.22,0,0,1,.17.1c.9,2.19,1.8,4.37,2.69,6.56A.13.13,0,0,0,23.67,37.3Zm-3.4-5.85-1.18,3.06h2.37Z"/><path d="M37.76,37.3c-.35,0-.68,0-1,0a.27.27,0,0,1-.15-.13c-.26-.61-.5-1.21-.75-1.82a.19.19,0,0,0-.22-.15H33.1a.22.22,0,0,0-.23.16l-.7,1.8a.21.21,0,0,1-.23.15H31l.38-.93q1.14-2.79,2.26-5.58a.29.29,0,0,1,.33-.21c.3,0,.6,0,.9,0a.22.22,0,0,1,.17.1c.9,2.19,1.8,4.37,2.69,6.56A.13.13,0,0,0,37.76,37.3Zm-3.4-5.85-1.18,3.06h2.37Z"/><path d="M8.45,37.12c-.3.07-.58.15-.87.2a6.4,6.4,0,0,1-2.72-.09,3.13,3.13,0,0,1-2.34-2,3.36,3.36,0,0,1,2-4.36,5.86,5.86,0,0,1,3.7-.14l.15,0,0,0-.25.7a4.75,4.75,0,0,0-2.39-.21A2.55,2.55,0,0,0,3.58,33,2.75,2.75,0,0,0,4,35.67a2.73,2.73,0,0,0,1.78.95,5.18,5.18,0,0,0,2.46-.22Z"/><path d="M30.09,36.41l.22.71c-.3.07-.58.15-.86.19a6.33,6.33,0,0,1-2.74-.08,3.13,3.13,0,0,1-2.34-2,3.34,3.34,0,0,1,1.88-4.28,5.77,5.77,0,0,1,4-.17l.09,0-.25.73a4.17,4.17,0,0,0-1.47-.28,3.94,3.94,0,0,0-1.89.36,2.39,2.39,0,0,0-1.33,1.7,2.8,2.8,0,0,0,.35,2.22,2.6,2.6,0,0,0,1.9,1.12A5.1,5.1,0,0,0,30.09,36.41Z"/><path d="M42.44,29V25.13a5.16,5.16,0,0,1,1.88,0,1.62,1.62,0,0,1,1.29,1.52,2.31,2.31,0,0,1-.37,1.62,2,2,0,0,1-1.58.74C43.26,29,42.85,29,42.44,29ZM43,25.51V28.6a3.62,3.62,0,0,0,.46,0,1.68,1.68,0,0,0,1.23-.41,1.76,1.76,0,0,0,.43-1.61,1.23,1.23,0,0,0-.92-1.06A2.56,2.56,0,0,0,43,25.51Z"/><path d="M35.06,29,34.7,27.9a.17.17,0,0,0-.19-.14H33.43a.17.17,0,0,0-.2.15c-.1.32-.21.63-.31.94,0,.1-.07.16-.18.15a2.6,2.6,0,0,0-.4,0L33,27.22c.22-.66.45-1.32.66-2,0-.11.08-.16.2-.15s.3,0,.48,0L35.61,29Zm-.52-1.61L34,25.61l-.56,1.76Z"/><path d="M38.71,25.1h.5v.19c0,.68,0,1.36,0,2a2.9,2.9,0,0,0,.15.83.72.72,0,0,0,.74.49.75.75,0,0,0,.79-.49,2.65,2.65,0,0,0,.15-.84c0-.73,0-1.47,0-2.21h.49s0,.08,0,.13c0,.76,0,1.51,0,2.27a1.55,1.55,0,0,1-.39,1.13,1.47,1.47,0,0,1-1.55.36,1.21,1.21,0,0,1-.87-1.07,3.49,3.49,0,0,1,0-.65Z"/><path d="M29.72,28.36a1.84,1.84,0,0,0,1,.24.69.69,0,0,0,.72-.51.66.66,0,0,0-.41-.76c-.27-.14-.56-.24-.82-.38a1,1,0,0,1,.1-1.81,1.85,1.85,0,0,1,1.33,0c.14.05.2.13.11.28a1.77,1.77,0,0,0-.06.17,6.43,6.43,0,0,0-.72-.13.93.93,0,0,0-.44.08.53.53,0,0,0-.14.91,3.26,3.26,0,0,0,.55.31c.14.07.29.12.42.19a1,1,0,0,1,.59,1.15,1.08,1.08,0,0,1-.9.9,2.26,2.26,0,0,1-1.26-.11c-.15-.05-.21-.13-.14-.29A1,1,0,0,0,29.72,28.36Z"/><path d="M36.19,25.1h.5v3.47h1.65V29H36.19Z"/><path d="M53.23,37.48c.52-.13,1-.27,1.48-.38a.87.87,0,0,1,.31,0l1.33.3A2.84,2.84,0,0,1,53.23,37.48Z"/></svg>