<svg id="Capa_1" data-name="Capa 1" xmlns="http://www.w3.org/2000/svg" viewBox="0 0 66 64.13"><defs><style>.cls-1{fill:#fff;}</style></defs><title>user</title><path d="M32,9.8h0a.27.27,0,0,1-.3-.3V6.8a.27.27,0,0,1,.3-.3h0a.27.27,0,0,1,.3.3V9.5A.27.27,0,0,1,32,9.8Z"/><path class="cls-1" d="M32,10.14a.6.6,0,0,1-.64-.64V6.8a.64.64,0,1,1,1.28,0V9.5A.6.6,0,0,1,32,10.14Z"/><path d="M30.3,8.1h0a.27.27,0,0,1,.3-.3h2.7a.27.27,0,0,1,.3.3h0a.27.27,0,0,1-.3.3H30.6A.27.27,0,0,1,30.3,8.1Z"/><path class="cls-1" d="M33.3,8.74H30.6A.6.6,0,0,1,30,8.1a.6.6,0,0,1,.64-.64h2.7a.6.6,0,0,1,.64.64A.6.6,0,0,1,33.3,8.74Z"/><path d="M50.2,56.5a1.69,1.69,0,0,1-1.7-1.7,15.5,15.5,0,0,0-31,0,1.69,1.69,0,0,1-1.7,1.7A1.86,1.86,0,0,1,14,54.7a19,19,0,0,1,38,0A1.79,1.79,0,0,1,50.2,56.5Z"/><path d="M33,32.1A11.18,11.18,0,0,1,21.8,20.9V17.5a11.2,11.2,0,0,1,22.4,0v3.4A11.18,11.18,0,0,1,33,32.1ZM33,9.5a8,8,0,0,0-8,8v3.4a8,8,0,0,0,16,0V17.5A8,8,0,0,0,33,9.5Z"/></svg>