<svg xmlns="http://www.w3.org/2000/svg" viewBox="0 0 63.5 63.63"><defs><style>.cls-1,.cls-3{fill:none;stroke:#185ba9;stroke-miterlimit:10;}.cls-1{stroke-width:4px;}.cls-2{fill:#185ba9;}</style></defs><title>Coloproctologia</title><g id="Capa_2" data-name="Capa 2"><g id="Capa_1-2" data-name="Capa 1"><path class="cls-1" d="M31.75,2A29.75,29.75,0,1,0,61.5,31.75,29.75,29.75,0,0,0,31.75,2Z"/><path class="cls-2" d="M15.27,7.63l-.08-.17A1.5,1.5,0,1,0,12.6,9l.08.16a1.5,1.5,0,1,0,2.59-1.51Z"/><path class="cls-2" d="M33.94,63.63a1.5,1.5,0,0,0,0-3,1.5,1.5,0,0,0,0,3Z"/><path class="cls-2" d="M34.5,62.69a1.5,1.5,0,0,0,0-3,1.5,1.5,0,0,0,0,3Z"/><path class="cls-3" d="M31.5,16.5s3-2,5,0a4.33,4.33,0,0,1,4-2s2.32-3.34,5-2c0,0,4-1,3,4,0,0,3,3,0,5,0,0,2,2,0,5,0,0,2,2-1,3,0,0,2,1,1,4,0,0,3,4-1,6,0,0,1,3-3,4,0,0-4,4-6,0,0,0-1,3-4,0,0,0,2,5-3,10,0,0-5-7-3-10,0,0-2-9,6-7a5,5,0,0,1,5-1s-1-4,1-5c0,0-3-3,0-6,0,0-2,2-3,0,0,0-1,4-5,1,0,0-3,2-4-1,0,0-2,2-5-2a4.83,4.83,0,0,1,0,4s2,0,1,3c0,0,2,1,1,4a10.34,10.34,0,0,1,1,4c0,2,1,7-1,5l-2-2s-1-3,0-3-5,4-7-1c0,0-3,1-3-3,0,0-3-2,0-6,0,0-2-4,1-6,0,0-3-3,1-4,0,0-1-3,3-4,0,0,3-3,6,0,0,0,3-1,3,2,0,0,3-2,4,1"/><path class="cls-3" d="M18.5,32.5a5.2,5.2,0,0,0,1-3c0-1.64-1-2.36-1-4a5.2,5.2,0,0,1,1-3"/><path class="cls-3" d="M20.5,19.5a4.66,4.66,0,0,1-4-3,3.73,3.73,0,0,1,0-2"/><path class="cls-3" d="M22.5,16.5a9.87,9.87,0,0,0,4,3c1.57.61,2.11.29,4,1,2.59,1,2.62,2,4,2,1.84,0,2.43-1.73,5-3a10.36,10.36,0,0,1,5-1"/><path class="cls-3" d="M44.5,26.5a5.55,5.55,0,0,0-1,3c0,1.83,1.06,2.34,1,4,0,1.24-.65,1.33-2,4s-1.18,3.51-2,4-2.49.52-6-2"/><path class="cls-3" d="M33.5,45.5a8.34,8.34,0,0,1-1,3c-.52.9-.82,1-1,1s-.48-.1-1-1a8.34,8.34,0,0,1-1-3"/></g></g></svg>