<svg xmlns="http://www.w3.org/2000/svg" viewBox="0 0 62.5 62.5"><defs><style>.cls-1,.cls-2,.cls-3{fill:none;}.cls-1,.cls-2,.cls-3,.cls-4,.cls-5{stroke:#185ba9;}.cls-1,.cls-2,.cls-5{stroke-miterlimit:10;}.cls-1{stroke-width:3px;}.cls-2{stroke-width:4px;}.cls-3,.cls-4{stroke-linecap:round;stroke-linejoin:round;}.cls-3,.cls-4,.cls-5{stroke-width:2px;}.cls-4,.cls-5{fill:#185ba9;}</style></defs><title>Psiquiatria</title><g id="Capa_2" data-name="Capa 2"><g id="Capa_1-2" data-name="Capa 1"><path class="cls-1" d="M31.25,1.5A29.75,29.75,0,1,0,61,31.25,29.75,29.75,0,0,0,31.25,1.5Z"/><path class="cls-2" d="M27.33,49.61c-.32-2.35-1.13-5.29-3.49-6.27-2.62-1.09-4.9,1.18-7,0C14.43,42,16.35,38.06,13.39,34,12,32,10.2,32.26,9.9,30.82c-.42-2,2.28-3.16,3.49-6.27,1.07-2.76-.64-3.83,0-6.26.81-3.1,4.12-4.79,7-6.26,4-2.07,10.25-5.32,17.43-3.14,4.22,1.29,9.29,4.61,10.46,9.4,1,4.05-1.09,8-3.49,12.53-2,3.88-3.09,4.19-3.48,6.26-.53,2.77.45,6.82,7,12.53"/><path class="cls-3" d="M36.57,17.86l-4.15-2.39a3.5,3.5,0,0,0-4.78,1.28h0a3.5,3.5,0,0,0,1.28,4.78l4.41,2.55"/><path class="cls-4" d="M36.69,17.93l4.39,2.54a3.5,3.5,0,0,1,1.28,4.78h0a3.5,3.5,0,0,1-4.78,1.28l-4.09-2.36,3.2-6.24-.12-.07"/><path class="cls-5" d="M35.5,30.67a3.42,3.42,0,0,1-4.8,4.86Z"/><path class="cls-5" d="M33.33,28.5a3.42,3.42,0,1,0-4.8,4.86Z"/></g></g></svg>