<svg id="Layer_1" data-name="Layer 1" xmlns="http://www.w3.org/2000/svg" viewBox="0 0 80 80"><defs><style>.cls-1{fill:#185ba9;}</style></defs><title>Icono Pstelemed</title><path class="cls-1" d="M40,71.63,39.16,71C20.77,58.37,11.4,46.82,10.52,35.71V32.32c.85-10.35,7.83-15.7,14-16.29.94-.09,1.84-.13,2.68-.13,6.29,0,9.64,3.22,12.86,6.92,3.21-3.7,6.56-6.92,12.85-6.92.84,0,1.74,0,2.68.13,6.13.59,13.11,5.94,14,16.29v3.39C68.61,46.82,59.24,58.37,40.86,71Zm-26.5-36.1C14.33,45.36,23.24,56.27,40,68,56.77,56.27,65.69,45.36,66.5,35.53v-3c-.73-8.59-6.33-13-11.25-13.48-.84-.08-1.64-.12-2.39-.12-5.57,0-8.22,3.1-11.58,7L40,27.43l-1.28-1.49c-3.36-3.94-6-7-11.58-7-.74,0-1.55,0-2.39.12-4.91.47-10.52,4.89-11.25,13.48Z"/><path class="cls-1" d="M40,80A40,40,0,1,1,80,40,40,40,0,0,1,40,80ZM40,4A36,36,0,1,0,76,40,36,36,0,0,0,40,4Z"/><path class="cls-1" d="M53.6,26.52l-3.66,3.66-3.67-3.66a2.14,2.14,0,0,0-3,0l-2.72,2.71a2.15,2.15,0,0,0,0,3l3.66,3.67L40.52,39.6a2.15,2.15,0,0,0,0,3l2.72,2.72a2.14,2.14,0,0,0,3,0l3.67-3.67,3.66,3.67a2.15,2.15,0,0,0,3,0l2.72-2.72a2.15,2.15,0,0,0,0-3l-3.67-3.66,3.67-3.67a2.15,2.15,0,0,0,0-3l-2.72-2.71A2.15,2.15,0,0,0,53.6,26.52Zm-8.54.57a.37.37,0,0,1,.5,0,.35.35,0,0,1-.5.5A.37.37,0,0,1,45.06,27.09Zm-2,2a.35.35,0,0,1,.5.5.37.37,0,0,1-.5,0A.35.35,0,0,1,43.1,29.06Zm-2,2a.35.35,0,0,1,.5,0,.37.37,0,0,1,0,.5.35.35,0,0,1-.5-.5Zm5.4-2.45a.34.34,0,0,1,.49,0,.35.35,0,0,1,0,.5.36.36,0,0,1-.49,0A.35.35,0,0,1,46.54,28.57Zm-2,2a.35.35,0,1,1,0,.5A.35.35,0,0,1,44.57,30.53Zm-2,2a.37.37,0,0,1,.5,0,.35.35,0,1,1-.5,0ZM48,30a.35.35,0,0,1,.5,0,.37.37,0,0,1,0,.5A.35.35,0,0,1,48,30Zm-2,2a.35.35,0,1,1,0,.5A.37.37,0,0,1,46,32Zm-2,2a.35.35,0,0,1,.5,0,.34.34,0,0,1,0,.49.35.35,0,0,1-.5,0A.34.34,0,0,1,44.08,34ZM55.37,37.4a.35.35,0,1,1,0,.5A.35.35,0,0,1,55.37,37.4Zm-2,2a.35.35,0,0,1,.5.5.35.35,0,0,1-.5-.5Zm-2,2a.35.35,0,0,1,.5.5.35.35,0,0,1-.5-.5Zm5.4-2.46a.37.37,0,0,1,.5,0,.35.35,0,0,1-.5.5A.37.37,0,0,1,56.84,38.87Zm-2,2a.35.35,0,0,1,.5.5.37.37,0,0,1-.5,0A.35.35,0,0,1,54.88,40.84Zm-2,2a.35.35,0,0,1,.5,0,.37.37,0,0,1,0,.5.35.35,0,0,1-.5-.5Zm5.4-2.45a.34.34,0,0,1,.49,0,.35.35,0,0,1,0,.5.36.36,0,0,1-.49,0A.35.35,0,0,1,58.32,40.35Zm-2,2a.35.35,0,1,1,0,.5A.35.35,0,0,1,56.35,42.31Zm-2,2a.37.37,0,0,1,.5,0,.35.35,0,1,1-.5,0Zm-9.67-6.72a.35.35,0,1,1,0,.5A.35.35,0,0,1,44.72,37.55Zm-2,2a.35.35,0,0,1,.5,0,.37.37,0,0,1,0,.5.35.35,0,0,1-.5-.5Zm-2,2a.35.35,0,0,1,.5,0,.34.34,0,0,1,0,.49.35.35,0,0,1-.5,0A.36.36,0,0,1,40.79,41.48ZM46.19,39a.35.35,0,1,1,0,.5A.35.35,0,0,1,46.19,39Zm-2,2a.37.37,0,0,1,.5,0,.35.35,0,1,1-.5,0Zm-2,2a.34.34,0,0,1,.49,0,.35.35,0,0,1,0,.5.36.36,0,0,1-.49,0A.35.35,0,0,1,42.27,43Zm5.39-2.46a.37.37,0,0,1,.5,0,.35.35,0,0,1-.5.5A.37.37,0,0,1,47.66,40.49Zm-2,2a.35.35,0,0,1,.5.5.37.37,0,0,1-.5,0A.35.35,0,0,1,45.7,42.46Zm-2,2a.35.35,0,0,1,.5,0,.37.37,0,0,1,0,.5.35.35,0,0,1-.5-.5ZM55.52,26.75a.35.35,0,0,1,.5,0,.37.37,0,0,1,0,.5.35.35,0,0,1-.5-.5Zm-2,2a.37.37,0,0,1,.5,0,.35.35,0,0,1-.5.5A.37.37,0,0,1,53.55,28.71Zm-2,2a.35.35,0,0,1,.5.5.37.37,0,0,1-.5,0A.35.35,0,0,1,51.59,30.68ZM57,28.22a.35.35,0,1,1,0,.5A.35.35,0,0,1,57,28.22Zm-2,2a.35.35,0,0,1,.5,0,.35.35,0,0,1-.5.5A.35.35,0,0,1,55,30.19Zm-2,2a.35.35,0,1,1,0,.5A.37.37,0,0,1,53.06,32.15Zm5.4-2.45a.35.35,0,0,1,.5,0,.34.34,0,0,1,0,.49.35.35,0,0,1-.5,0A.36.36,0,0,1,58.46,29.7Zm-2,2a.35.35,0,1,1,0,.5A.35.35,0,0,1,56.5,31.66Zm-2,2a.35.35,0,0,1,.5,0,.37.37,0,0,1,0,.5.35.35,0,0,1-.5-.5Zm-.6,1.86-4.46,4.46a.94.94,0,0,1-1.34,0l-.68-.67L46,37.74s0-.06-.06-.08a1.11,1.11,0,0,1-.16-.24.87.87,0,0,1-.05-.22c0-.05,0-.09,0-.14a.85.85,0,0,1,.26-.66l4.46-4.46a.94.94,0,0,1,1.34,0l2.15,2.14A1,1,0,0,1,53.94,35.48Z"/></svg>