<svg xmlns="http://www.w3.org/2000/svg" viewBox="0 0 63.5 63.5"><defs><style>.cls-1,.cls-3{fill:none;}.cls-1{stroke:#185ba9;stroke-miterlimit:10;stroke-width:4px;}.cls-2{fill:#fff;}.cls-4{fill:#185ba9;}</style></defs><title>CirugiaPlastica</title><g id="Capa_2" data-name="Capa 2"><g id="Capa_1-2" data-name="Capa 1"><path class="cls-1" d="M31.75,2A29.75,29.75,0,1,0,61.5,31.75,29.75,29.75,0,0,0,31.75,2Z"/><path class="cls-2" d="M25.48,44.79a7.59,7.59,0,0,1,10.88,0"/><path class="cls-3" d="M36.36,45.93a3.81,3.81,0,0,0,0-1.14"/><path class="cls-3" d="M25.48,44.79a3.77,3.77,0,0,0,.05,1.14c.56,2.75,4.16,3.88,4.58,4a5.74,5.74,0,0,0,1.67,0"/><path class="cls-4" d="M16.31,11.41c.42,3.68.76,7.21,1,10.92.21,3.41,2.1,6.47,2,9.88C19.09,36,16.34,39.77,15,43.31a17,17,0,0,0-1.07,8.21c.19,1.9,3.2,1.92,3,0-.44-4.41,1.07-7.94,2.89-11.83,1.1-2.36,2.52-4.28,2.6-6.89.12-4-1.83-6.62-2.09-10.47s-.56-7.21-1-10.92c-.21-1.89-3.22-1.92-3,0Z"/><path class="cls-4" d="M42.94,11.16a49.77,49.77,0,0,1-.64,10.69c-.3,2.11-1.47,4-1.67,6.12-.17,1.74.47,3,.52,4.78.09,3.45.14,4.78,1.6,8.17,1.57,3.67,3.1,6.79,3.32,10.87.11,1.92,3.11,1.93,3,0-.37-6.8-4.3-12.41-4.92-19-.67-7.2,2.34-14.2,1.79-21.59-.14-1.91-3.14-1.93-3,0Z"/><path class="cls-4" d="M18,24.13c2.33,1.5,4.88,3.17,7.75,2.23,1.5-.49,5.44-2,3.43-4.15-1.33-1.41-3.45.72-2.13,2.13l.1.1-.44-1.06v.16l.74-1.3c-2.87,2.15-5.27,1-7.93-.7-1.62-1.05-3.13,1.54-1.51,2.59Z"/><path class="cls-4" d="M42.52,22.64a15,15,0,0,1-4.08.77A2.4,2.4,0,0,1,37,22.88a8.27,8.27,0,0,1-1.4-.81c-1.26-1.47-3.38.66-2.12,2.12a7.55,7.55,0,0,0,1.91,1.21,4.84,4.84,0,0,0,2,.94c2,.3,4-.36,5.9-.81s1.08-3.34-.8-2.89Z"/><path class="cls-4" d="M22.72,14.41a3,3,0,0,1,2.39,0c.87.39,1.64-.9.76-1.29a4.68,4.68,0,0,0-3.91,0c-.89.38-.12,1.67.76,1.3Z"/><path class="cls-4" d="M40.77,13.09c-1.29-.42-2.29.6-3.53.49-1-.08-1,1.42,0,1.5a3.77,3.77,0,0,0,1.62-.28,2.36,2.36,0,0,1,1.51-.26c.92.3,1.32-1.15.4-1.45Z"/><path class="cls-4" d="M27.47,15.33c.49.11.91.73,1.36,1,.61.32,1.78.63,2.09,1.38a.76.76,0,0,0,1.37.18,6.61,6.61,0,0,1,1-1.65,8.22,8.22,0,0,1,2.2-1.28c.88-.35.5-1.81-.4-1.44A11.05,11.05,0,0,0,32.4,15c-.82.64-.88,1.27-1.41,2.09l1.37.17a4.49,4.49,0,0,0-1.9-2,8.6,8.6,0,0,0-2.59-1.44c-.94-.21-1.34,1.24-.4,1.44Z"/><path class="cls-4" d="M23.67,30.39a14.69,14.69,0,0,0,3.63,0c.95-.2.55-1.65-.39-1.44a14.05,14.05,0,0,1-3.24,0,.75.75,0,0,0,0,1.5Z"/><path class="cls-4" d="M29.16,28.66c1.33.16,1.85-1.1,2.7-1.81s-.32-1.68-1.06-1.06c-.47.39-.94,1.46-1.64,1.37a.75.75,0,0,0-.75.75.76.76,0,0,0,.75.75Z"/><path class="cls-4" d="M30.77,26.13a1.86,1.86,0,0,0,.92,1.68c.43.29,1.19.39,1.49.83.54.79,1.84,0,1.3-.76a2.86,2.86,0,0,0-1.27-1c-.33-.15-1-.32-.94-.77a.75.75,0,0,0-.75-.75.78.78,0,0,0-.75.75Z"/><path class="cls-4" d="M36.06,30a15.17,15.17,0,0,0,2.77.32.75.75,0,0,0,0-1.5,11.79,11.79,0,0,1-2.37-.27c-1-.2-1.35,1.25-.4,1.45Z"/><path class="cls-4" d="M25,34.64a1.39,1.39,0,0,0-1.17.59c-.35.36-.69.73-1,1.1a.76.76,0,0,0,0,1.06,1.26,1.26,0,0,0,.57.33.75.75,0,0,0,.39-1.45l.1.06v1.06l.65-.69c.09-.09.48-.56.5-.56a.76.76,0,0,0,.75-.75.78.78,0,0,0-.75-.75Z"/><path class="cls-4" d="M27.78,35.3a27.05,27.05,0,0,1,2.67-.59c.95-.15.54-1.6-.4-1.44a27,27,0,0,0-2.67.58.75.75,0,0,0,.4,1.45Z"/><path class="cls-4" d="M32.34,35a6.69,6.69,0,0,1,2.73.36c.91.32,1.3-1.13.4-1.45a7.76,7.76,0,0,0-3.13-.41c-1,.07-1,1.57,0,1.5Z"/><path class="cls-4" d="M37.24,35.66a3.77,3.77,0,0,1,2.37.93c.8.55,1.55-.75.76-1.29a5,5,0,0,0-3.13-1.14c-1,.08-1,1.58,0,1.5Z"/><path class="cls-4" d="M20.51,42.87a5.21,5.21,0,0,1,2,2.92c.14,1,1.58.55,1.44-.4a6.34,6.34,0,0,0-2.41-3.58c-.72-.64-1.78.41-1.06,1.06Z"/><path class="cls-4" d="M23.2,47.92c.05,1.3.11,2.61.17,3.91,0,1,1.54,1,1.5,0-.06-1.3-.12-2.61-.17-3.91,0-1-1.54-1-1.5,0Z"/><path class="cls-4" d="M38.38,47.54a2.25,2.25,0,0,0-.62,1.79c0,.86.07,1.72.1,2.59s1.54,1,1.5,0l-.07-1.8c0-.41-.19-1.2.15-1.52.72-.65-.35-1.71-1.06-1.06Z"/><path class="cls-4" d="M40.68,41.77a13.23,13.23,0,0,0-2.18,3.94c-.32.91,1.13,1.31,1.45.4a11,11,0,0,1,1.79-3.28c.59-.75-.47-1.82-1.06-1.06Z"/><path class="cls-4" d="M31.82,39a1.36,1.36,0,0,0-1.76,1,1.26,1.26,0,0,0,1.29,1.48,1.44,1.44,0,0,0,1.47-1.35A1.25,1.25,0,0,0,31.15,39c-.92.3-.53,1.75.39,1.45l-.23-.24.1-.37c0,.07-.12.54,0,.58a.75.75,0,0,0,.4-1.44Z"/><path class="cls-4" d="M25.5,44.4a7.57,7.57,0,0,1,2.75-1.33A9.64,9.64,0,0,1,31,42.7a10,10,0,0,1,2.75.38A7.7,7.7,0,0,1,36.5,44.4v.2c-1.83.09-3.67.06-5.5.1s-3.67,0-5.5-.1Z"/><path class="cls-4" d="M23,21.29a1.5,1.5,0,0,0,0-3,1.5,1.5,0,0,0,0,3Z"/><path class="cls-4" d="M39.33,21.33a1.5,1.5,0,0,0,0-3,1.5,1.5,0,0,0,0,3Z"/></g></g></svg>