<?xml version="1.0" encoding="utf-8"?>
<!-- Generator: Adobe Illustrator 22.0.0, SVG Export Plug-In . SVG Version: 6.00 Build 0)  -->
<svg version="1.1" id="Capa_1" xmlns="http://www.w3.org/2000/svg" xmlns:xlink="http://www.w3.org/1999/xlink" x="0px" y="0px"
	 viewBox="0 0 80 80" style="enable-background:new 0 0 80 80;" xml:space="preserve">
<style type="text/css">
	.st0{fill:#FBFCFD;}
	.st1{fill:#C8CEE6;}
	.st2{fill:#FFFFFF;}
	.st3{fill:none;stroke:#185BA9;stroke-width:4;stroke-miterlimit:10;}
	.st4{fill:#185BA9;}
</style>
<g>
	<path class="st0" d="M44.4,74.5c0-0.8,0-1.5,0-2.3c7.5,0,15,0,22.5,0c0,2.2,0,2.1-2.1,2.2c-3.5,0.1-6.9-0.2-10.4,0.1
		C51.1,74.5,47.8,74.5,44.4,74.5z"/>
	<path class="st0" d="M45,6.9c0-0.8,0-1.5,0-2.3c6.1,0,12.2,0,18.2,0c0.3,0,0.7,0.1,1,0.1c2.1,0.1,2.1,0.1,2,2.2
		C59.2,6.9,52.1,6.9,45,6.9z"/>
	<path class="st1" d="M30.7,75.3c7.4,0,14.3,0,21.4,0C50.2,76.5,33.7,76.6,30.7,75.3z"/>
	<path class="st2" d="M36.5,26.8c0.7,0.1,1.1,0.5,1.1,1.2c0,0.6-0.4,1-1.1,1c-0.7,0-1-0.3-1.1-1C35.5,27.3,35.8,26.9,36.5,26.8z"/>
	<path class="st2" d="M43.2,29c-0.7,0-1-0.4-1-1.1c0-0.6,0.4-1.1,1-1.1c0.7,0,1.1,0.5,1.1,1.2C44.3,28.7,43.9,29,43.2,29z"/>
	<path class="st2" d="M47.9,45.6c0.3-0.1,0.6,0,0.6,0.2c-0.1,0.8-0.8,1.1-1.3,1.5c-0.3,0.2-0.6-0.1-0.5-0.3
		C46.7,46.3,47.5,46,47.9,45.6z"/>
	<path class="st2" d="M33.7,48.9c-0.3,0.5-0.7,0.4-1,0.2c-0.4-0.3-1.3-0.2-1.2-1.1c0.1-0.3,0.5-0.2,0.8,0
		C32.8,48.3,33.6,48.3,33.7,48.9z"/>
	<path class="st2" d="M45.3,48.5c-0.5,0.4-1.1,0.8-1.8,0.8c-0.3,0-0.3-0.2-0.3-0.4c0-0.4,1.6-1.1,1.9-0.9
		C45.3,48.1,45.4,48.3,45.3,48.5z"/>
	<path class="st2" d="M40.1,50.3c-0.3-0.1-0.9,0.1-0.8-0.4c0.2-0.7,1-0.4,1.5-0.6c0.3-0.1,0.8-0.1,0.7,0.3
		C41.4,50.5,40.6,50.1,40.1,50.3z"/>
	<path class="st2" d="M40.1,31.8c-0.4,0-0.9-0.1-0.9-0.6c0-0.6,0.4-0.7,0.9-0.7c0.4,0,0.9,0.2,0.9,0.6C41,31.7,40.5,31.8,40.1,31.8z
		"/>
	<path class="st2" d="M36.8,50.2c-0.5-0.2-1.3,0.1-1.4-0.7c-0.1-0.4,0.4-0.4,0.7-0.3c0.5,0.1,1.3-0.1,1.5,0.6
		C37.6,50.4,37.1,50.2,36.8,50.2z"/>
	<path class="st2" d="M50.5,43.3c-0.2,0.4-0.3,0.9-0.9,1.1c-0.2,0.1-0.4-0.2-0.3-0.4c0.1-0.5,0.3-1,0.8-1.1
		C50.3,42.9,50.5,43,50.5,43.3z"/>
</g>
<circle class="st3" cx="40.5" cy="40.5" r="34.5"/>
<g>
	<path class="st4" d="M61.9,46.4c-0.2,5.2-1.8,10.4-6,14.5c-3,2.9-6.6,4-10.6,2.2c-1.4-0.6-2.9-0.6-4.3,0c-3.9,1.7-7.3,0.7-10.3-2
		c-2.5-2.2-4.2-5.1-5.1-8.3c-0.2-0.8-0.6-1.4-1.4-1.9c-2.1-1.4-4.2-2.9-6.4-4.4c-1.2-0.8-2.1-1.7-2.8-3c-0.8-1.5-1-3.1,0-4.6
		c1.8-2.9,3.7-5.8,5.7-8.6c1.3-1.8,3-2.2,5-2c2.1,0.3,3.9,1.1,5.7,2.2c0.5,0.3,0.9,0.5,1.6,0.4c2.7-0.3,5.3-0.1,7.7,1.5
		c0.4,0.3,0.9,0.7,1.3,0.4c0.5-0.3,0.2-0.9,0.2-1.3c-0.3-3.5-1.6-6.5-4.2-8.9c-0.9-0.8-0.6-1.3,0-1.9c0.8-0.8,1.1,0.2,1.4,0.5
		c2.9,2.8,4.4,6.3,4.8,10.3c0.1,1.6,0.3,1.8,1.7,0.8c1.7-1,3.5-1.4,5.4-1.6c3.2-0.2,5.6,1.1,7.3,3.6C61,37.9,61.8,41.8,61.9,46.4z
		 M28.1,53.8c0.8,3.4,3.9,6.9,7,7.9c1.5,0.5,2.9,0.5,4.3-0.2c2.4-1.1,4.9-1.1,7.3,0c2,0.9,4,0.6,5.9-0.5c1.8-1,3.1-2.4,4.1-4.1
		c3.4-5.8,4.2-12,1.9-18.4c-2-5.6-6.6-7.1-11.8-4.3c-2.5,1.4-5,1.3-7.5-0.1c-4.3-2.4-9-1.8-11.3,3.2c-0.4,1-0.4,1.4,0.5,2.1
		c4.8,3.3,9.6,6.6,14.4,9.9c0.8,0.5,0.8,0.9,0.3,1.6c-1.9,2.6-3.7,5.3-5.5,8c-0.5,0.8-0.9,0.9-1.7,0.3
		C33.4,57.4,30.8,55.7,28.1,53.8z M20.4,34.2c-1,1.5-1.9,3.1-3,4.5c-1.6,2-1.8,3.9,1,5.9c5.7,4.1,11.6,8.1,17.4,12.1
		c0.6,0.5,0.9,0.3,1.3-0.3c1.2-1.7,2.4-3.5,3.6-5.2c0.3-0.5,0.3-0.7-0.1-1.2c-2.2-1.8-2.2-1.8-3.9,0.5c-0.1,0.1-0.1,0.1-0.2,0.2
		c-0.4,0.8-0.9,0.5-1.4,0.1c-0.7-0.4-0.7-0.8-0.2-1.3c0.4-0.4,0.6-0.9,0.9-1.3c0.8-0.8,0.5-1.2-0.3-1.8c-0.9-0.7-1.4-0.7-1.9,0.4
		c-0.2,0.4-0.6,0.8-0.8,1.2c-0.4,0.6-0.6,1-1.4,0.4c-0.8-0.5-0.8-0.9-0.2-1.6c0.4-0.4,0.6-1,1-1.4c0.6-0.7,0.4-1-0.3-1.5
		c-1-0.8-1.7-0.8-2.2,0.4c-0.2,0.3-0.4,0.6-0.6,1c-0.4,0.6-0.7,0.9-1.4,0.4c-0.8-0.5-0.7-0.9-0.2-1.6c0.3-0.4,0.5-0.9,0.9-1.3
		c0.7-0.7,0.4-1.1-0.3-1.7c-0.9-0.8-1.5-0.7-2.1,0.4c-0.2,0.4-0.5,0.7-0.7,1.1c-0.4,0.7-0.8,0.9-1.5,0.3c-0.7-0.5-0.6-0.9-0.1-1.5
		c0.4-0.5,0.7-1,1.1-1.5c0.5-0.6,0.3-0.9-0.2-1.4c-1.4-1.2-1.4-1.2-2.5,0.3c-0.2,0.3-0.5,0.6-0.7,0.9c-0.4,0.7-0.8,0.3-1.3,0
		c-0.4-0.3-0.9-0.6-0.3-1.2c0.4-0.4,0.6-1,1-1.4C21.6,36.3,21.5,35.3,20.4,34.2z M25.9,37.4c1-1.9,2-3.5,3.5-4.8
		c0.5-0.4,0.5-0.6-0.1-0.9c-1.5-0.7-2.9-1.4-4.6-1.4c-2.1,0-2.9,1.3-2.2,3.2C23.2,35.2,24.4,36.3,25.9,37.4z"/>
	<path class="st4" d="M54.8,16.6c4.1,0.2,4-0.2,2.9,3.9c-1.3,5-4.4,7.8-8.7,8.3c-0.9,0.1-1.7,0-2.6-0.1c-2.5-0.3-2.6-0.5-2.5-2.9
		C44.3,19.8,48.2,16.6,54.8,16.6z M48,26.8c3.7,0,6.2-2.1,7.6-6.1c0.8-2.2,0.8-2.2-1.6-2.2c-4.8,0.1-7.7,2.6-8,6.9
		c-0.1,0.8,0.1,1.3,1,1.3C47.4,26.8,47.8,26.8,48,26.8z"/>
</g>
</svg>
