<svg id="Layer_1" data-name="Layer 1" xmlns="http://www.w3.org/2000/svg" viewBox="0 0 80 80"><defs><style>.cls-1{fill:#185ba9;}.cls-2{fill:#78dbb4;}.cls-3{fill:#fff;opacity:0.5;}.cls-4{fill:#ff666a;}.cls-5{fill:none;}</style></defs><title>Icono Pstelemed</title><path class="cls-1" d="M40,80A40,40,0,1,1,80,40,40,40,0,0,1,40,80ZM40,4A36,36,0,1,0,76,40,36,36,0,0,0,40,4Z"/><path class="cls-1" d="M58,29c-.72-1.35-1.4-2.62-2-3.85-3.72-7.89-7.79-15-16.48-15S26.77,17.21,23,25.1c-.58,1.23-1.26,2.5-2,3.85C18.69,33.42,16,38.47,16,43.64a23.53,23.53,0,1,0,47.05,0C63.05,38.47,60.36,33.42,58,29Zm-18.46,37A22.28,22.28,0,0,1,17.25,43.64c0-6.35,4.41-12.68,6.92-18,3.41-7.24,7.23-14.27,15.36-14.27s11.94,7,15.35,14.27c2.52,5.32,6.92,11.65,6.92,18A22.28,22.28,0,0,1,39.53,65.92Z"/><path class="cls-2" d="M33.42,32l-.07,0-.08,0Z"/><path class="cls-3" d="M33.42,32l-.07,0-.08,0Z"/><path class="cls-2" d="M37.42,16.51l.07,0h.08Z"/><path class="cls-3" d="M37.42,16.51l.07,0h.08Z"/><path class="cls-4" d="M19.91,37.23l0,0h0Z"/><path class="cls-3" d="M19.91,37.23l0,0h0Z"/><path class="cls-4" d="M30.2,17.11l0,0h0Z"/><path class="cls-3" d="M30.2,17.11l0,0h0Z"/><path class="cls-5" d="M33.35,32a1.56,1.56,0,0,0,1.83-1.12l3.34-12.43a1.49,1.49,0,1,0-2.87-.77L32.31,30.09A1.56,1.56,0,0,0,33.35,32Z"/><path class="cls-1" d="M39.53,38a6,6,0,0,0-6,6,6.24,6.24,0,0,0,.08,1v8h2.27v.67h-.74v1.74h.74v.67h-.74v1.73h.74v.68h-.74v1.73h.74v.67h-.74v1.74h.74v.67h-.74v1.73h.74v.67h-.74v1.74h.74v.67h-.74v1.73h.74v.68h-.74v1.73h8.81V70.56H43.2v-.68h.73V68.15H43.2v-.67h.73V65.74H43.2v-.67h.73V63.34H43.2v-.67h.73V60.93H43.2v-.67h.73V58.53H43.2v-.68h.73V56.12H43.2v-.67h.73V53.71H43.2V53h2.26V45a6.24,6.24,0,0,0,.08-1A6,6,0,0,0,39.53,38Z"/><path class="cls-1" d="M58.68,43.64c0-4.08-2.31-8.43-4.55-12.63-.75-1.4-1.45-2.72-2.07-4-3.91-8.28-6.92-12.48-12.53-12.48S30.9,18.69,27,27c-.62,1.32-1.32,2.64-2.06,4-2.24,4.2-4.56,8.55-4.56,12.63A19.16,19.16,0,0,0,34.62,62.13V53.54h-.93c-2.13.93-3.44,1.17-4.34.27s-.57-2.57.69-5.26l.18-.4a10.3,10.3,0,0,1,0-9l-.18-.4c-1.26-2.69-1.71-4.24-.69-5.26s2.58-.58,5.26.69l.41.17a10.28,10.28,0,0,1,9,0l.41-.17c2.69-1.27,4.24-1.72,5.26-.69S50.27,36,49,38.73l-.18.4a10.21,10.21,0,0,1,0,9l.18.4c1.26,2.69,1.71,4.24.69,5.26s-2.21.66-4.34-.27h-.93v8.59A19.16,19.16,0,0,0,58.68,43.64Z"/></svg>