<svg xmlns="http://www.w3.org/2000/svg" viewBox="0 0 63.5 63.5"><defs><style>.cls-1{fill:none;stroke:#185ba9;stroke-miterlimit:10;stroke-width:4px;}.cls-2{fill:#185ba9;}</style></defs><title>Cardiologia</title><g id="Capa_2" data-name="Capa 2"><g id="Capa_1-2" data-name="Capa 1"><circle class="cls-1" cx="31.75" cy="31.75" r="29.75"/><path class="cls-2" d="M28.3,12.72c-1.17-.32-2.45-.5-3,.89a2.07,2.07,0,0,0,.09,1.49c.06.17,1,1.43.65.53s-.07.65-.08.85a1.49,1.49,0,0,0,.39.66c.57.43.39.33-.56-.32-1.89.92-1.93,3.87-3.21,5.18L25,23.82a7.11,7.11,0,0,1,1.15-1.95l-2.51-1.46c0,.07-.85,2-.23,1.91l1.9,1.45a1.8,1.8,0,0,0-.59-1.5,1.52,1.52,0,0,0-2.56,1.06L22,25.7c-.08,1.66,2.69,2.09,2.95.4a3,3,0,0,0-.1-2.2,1.56,1.56,0,0,0-1.69-.69c-1.71.36-2.23,3.36-2,4.78.4,2.52,3.46,2.76,5.51,2.61a1.53,1.53,0,0,0,1.5-1.5c0-2.83.2-6.21,2.63-8.17,1.74-1.42,4.29-1.66,6.19-2.62,2.54-1.3,2.9-3.71.56-5.51a1.5,1.5,0,0,0-2.2.89c-.94,3.49-.47.31-.57-.27a3.24,3.24,0,0,0-.88-1.85,2,2,0,0,0-2.48-.32c-1.41.89-.55,1.78-.68,3-.17,1.65-1.08.78-2.64,1.22a1.47,1.47,0,0,0-1,1,10.24,10.24,0,0,1-.2,1.82c-.25.54-1.21,1.15-1.56,1.73-1.21,2-1.52,4.71-2.11,6.94a1.5,1.5,0,0,0,2.9.79c.66-2.53,1-5.22,2.75-7.19,1.11-1.23.78-1.68,1.11-3.3l-1.05,1c1.84-.51,3.1.26,4.22-1.59a4.38,4.38,0,0,0,.67-2.44c-.31-1.91-2.4.52-2.16,2,.78,4.88,5.84,1.05,6.61-1.83l-2.21.9C35.46,15,32,17,31.5,17.19A8.31,8.31,0,0,0,28,19.48c-2.43,2.75-2.85,6.08-2.87,9.62l1.5-1.5a4.14,4.14,0,0,1-2.5-.28c.5-.67.43-1.07-.21-1.22l-1.69-.69-.21-.1,3,.39.12-2.37-2.56,1.06-.29-.62a1.52,1.52,0,0,0,1.9,1.44c1.7-.29,1.92-2.68,2.33-4S25,18.55,24,19.75a12.8,12.8,0,0,0-1.62,2.55c-.68,1.47,1.09,3.12,2.35,1.82a8.21,8.21,0,0,0,1.52-2.71c.66-1.39,2-2.31,2.66-3.65.59-1.14.52-2.32-.72-3l.75,1.3a7.19,7.19,0,0,0-.17-1.6,3.27,3.27,0,0,0-.43-.62c-.44-.45-.48-.26-.11.55l-1.05,1.05.32.16a1.51,1.51,0,0,0,.8-2.9Z"/><path class="cls-2" d="M26.81,19.5a1.5,1.5,0,0,0,0-3,1.5,1.5,0,0,0,0,3Z"/><path class="cls-2" d="M31.84,29c1.58-2.79,2.52-4.85,5.66-6,2.55-1,6.17-1.9,8.85-1.12l-1.05-1-.33.8,1.29-.74c-2.82.34-6.25-.56-8.91.57a7.38,7.38,0,0,0-2.68,2.25,14.45,14.45,0,0,1-4.28,3.81,1.51,1.51,0,0,0,0,2.59c1.67.79,3.62,2.08,5.45,1.05,2-1.12,2.24-4.1,4-5.62,1.09-1-.06-3-1.46-2.51a4.52,4.52,0,0,0-2,1.4c-.51.61-1.49,3.09-1.86,3.16l1.69.69c.54.85.43.2,1.06-.38.85-.77,1.27-3,3-2.55,1.87.46,2.67-2.43.79-2.89-2.42-.6-3.89.62-5.32,2.47-1.07,1.38-3.29,2.95-2.07,4.87a1.58,1.58,0,0,0,1.7.69c2.37-.48,1.89-3.79,3.9-4.57l-1.46-2.5a9.33,9.33,0,0,0-2.35,3,10.07,10.07,0,0,1-.58,1.37c-.76.8-1.7.29-2.85-.25v2.59A13.43,13.43,0,0,0,36,26.77c1.36-1.67,1.4-2.34,3.82-2.73,1-.15,2.31-.13,3.34-.19,2.69-.15,5.91.08,5-3.87a1.5,1.5,0,0,0-1.05-1.05c-3.42-1-8,.16-11.23,1.43-3.64,1.45-4.8,3.8-6.67,7.12A1.5,1.5,0,0,0,31.84,29Z"/><path class="cls-2" d="M40,27.08c3.35,3.82,3.49,8.47,2.09,13.14-.55,1.86,2.34,2.65,2.89.8a16.22,16.22,0,0,0,.71-8.67A14.32,14.32,0,0,0,42.08,25c-1.28-1.45-3.4.68-2.12,2.12Z"/><path class="cls-2" d="M39.94,26.63a1.5,1.5,0,0,0,0-3,1.5,1.5,0,0,0,0,3Z"/><path class="cls-2" d="M40.5,25.69a1.5,1.5,0,0,0,0-3,1.5,1.5,0,0,0,0,3Z"/><path class="cls-2" d="M41.68,41c-1.51,4.44-3,9.48-8.69,9a11.66,11.66,0,0,1-8.15-4.44c-4.71-5.39-9.4-13.43-4.93-20.47,1-1.63-1.55-3.14-2.59-1.51-5.66,8.91.6,21,8.05,26.84C28,52.5,33.4,54,36.76,53c4.64-1.39,6.43-7.15,7.82-11.2.62-1.84-2.28-2.62-2.9-.8Z"/><path class="cls-2" d="M20.36,24.19c.31-1.14.59-2.3,1-3.43a13.34,13.34,0,0,0,.91-3,3.35,3.35,0,0,0-2.51-3.71c-1.43-.35-3.42-.12-3.62,1.66a2.25,2.25,0,0,0,.87,2c.44.39.89.42,1.14,1A3.79,3.79,0,0,1,18,20.93c-.46,1.88,2.43,2.68,2.89.8a7.59,7.59,0,0,0,.06-4,3.77,3.77,0,0,0-.84-1.48c-.43-.45-1.08-.6-1.46-1.09l.44,1.06v-.43l-.44,1.06c-.36.18-.27.24.26.17a.64.64,0,0,1,.25.94,6.56,6.56,0,0,1-.56,1.51c-.46,1.29-.78,2.64-1.14,4a1.5,1.5,0,0,0,2.89.79Z"/></g></g></svg>