<?xml version="1.0" encoding="utf-8"?>
<!-- Generator: Adobe Illustrator 22.0.0, SVG Export Plug-In . SVG Version: 6.00 Build 0)  -->
<svg version="1.1" id="Capa_1" xmlns="http://www.w3.org/2000/svg" xmlns:xlink="http://www.w3.org/1999/xlink" x="0px" y="0px"
	 viewBox="0 0 80 80" style="enable-background:new 0 0 80 80;" xml:space="preserve">
<style type="text/css">
	.st0{fill:#FBFCFD;}
	.st1{fill:#C8CEE6;}
	.st2{fill:#185BA9;}
	.st3{fill:#FFFFFF;}
	.st4{fill:none;stroke:#185BA9;stroke-width:4;stroke-miterlimit:10;}
</style>
<g>
	<path class="st0" d="M44.4,74.5c0-0.8,0-1.5,0-2.3c7.5,0,15,0,22.5,0c0,2.2,0,2.1-2.1,2.2c-3.5,0.1-6.9-0.2-10.4,0.1
		C51.1,74.5,47.8,74.5,44.4,74.5z"/>
	<path class="st0" d="M45,6.9c0-0.8,0-1.5,0-2.3c6.1,0,12.2,0,18.2,0c0.3,0,0.7,0.1,1,0.1c2.1,0.1,2.1,0.1,2,2.2
		C59.2,6.9,52.1,6.9,45,6.9z"/>
	<path class="st1" d="M30.7,75.3c7.4,0,14.3,0,21.4,0C50.2,76.5,33.7,76.6,30.7,75.3z"/>
	<path class="st2" d="M51.8,42c1.9,3.3,1,7.4-2.1,10.1c-0.7,0.6-1.2,0.8-0.3,1.8c1.7,1.7,1.2,5.6-0.7,7.2c-1.2,1-2.6,0.8-3.4-0.7
		c-1.1-1.9-0.9-3.9,0.2-6.1c-3.1,1.1-5.9,0.8-8.9,0c0.9,2,0.6,3.7-0.3,5.4c-0.5,0.9-1.3,1.7-2.4,1.6c-1.1-0.1-1.8-0.9-2.1-1.9
		c-0.9-2.5-0.4-4.8,1.7-6.7c-2.4-1.8-4.2-4-4.6-7.1c-0.1-0.7-0.1-1.3,0-2c0.3-1.1,0.3-1.6-1.2-1.4c-2.2,0.3-4.1-0.6-5.4-2.4
		c-1.3-1.8-0.5-3.5,1.7-3.8c2.5-0.3,5.1,1.3,6.2,4.1c1.3-1.6,2.8-2.9,4.6-3.7c-4.4-3-6.3-6.5-3.4-11.1c-2.3-0.6-3.5-1.8-3.3-3.5
		c0.2-1.5,1.6-2.8,3.1-2.7c1.8,0,2.8,1.4,3,4.1c3.5-1.6,7-1.7,10.6-0.2c0.9,0.4,0.7-0.4,0.9-0.8c0.7-1.6,2.2-2.3,3.7-1.8
		c1.4,0.4,2.3,1.9,2.1,3.4c-0.2,1-0.7,1.6-1.6,2.1c-0.4,0.2-0.7,0.4-0.4,1c1.8,4.2,1.1,6.7-2.7,9.3c-0.1,0.1-0.2,0.2-0.4,0.4
		c1.3,0.7,2.5,1.5,3.7,2.6c0.7-2.1,2-3.3,4-3.8c1.3-0.3,2.6-0.2,3.4,1.1c0.8,1.2,0.3,2.4-0.5,3.4C55.6,41.5,53.9,42,51.8,42z
		 M36.5,26.8c-0.7,0.1-1.1,0.5-1,1.2c0,0.6,0.4,1,1.1,1c0.7,0,1.1-0.4,1.1-1C37.7,27.3,37.3,26.9,36.5,26.8z M43.2,29
		c0.7,0,1.1-0.3,1.1-1c0-0.7-0.4-1.2-1.1-1.2c-0.7,0-1,0.4-1,1.1C42.2,28.5,42.5,29,43.2,29z M47.9,45.6c-0.4,0.4-1.1,0.7-1.3,1.4
		c0,0.2,0.2,0.5,0.5,0.3c0.6-0.4,1.2-0.7,1.3-1.5C48.5,45.6,48.2,45.5,47.9,45.6z M33.7,48.9c-0.2-0.7-0.9-0.6-1.3-1
		c-0.3-0.2-0.7-0.3-0.8,0c-0.2,0.9,0.7,0.7,1.2,1.1C33,49.3,33.4,49.4,33.7,48.9z M45.3,48.5c0.1-0.3,0-0.4-0.2-0.5
		c-0.4-0.2-1.9,0.6-1.9,0.9c0,0.2,0.1,0.4,0.3,0.4C44.2,49.3,44.8,49,45.3,48.5z M40.1,50.3c0.5-0.2,1.3,0.2,1.4-0.7
		c0.1-0.4-0.4-0.4-0.7-0.3c-0.5,0.1-1.3-0.2-1.5,0.6C39.2,50.4,39.8,50.2,40.1,50.3z M40.1,31.8c0.5,0,0.9-0.1,0.9-0.7
		c0-0.5-0.5-0.6-0.9-0.6c-0.5,0-0.9,0.2-0.9,0.7C39.2,31.7,39.7,31.8,40.1,31.8z M36.8,50.2c0.3,0,0.8,0.1,0.7-0.3
		c-0.1-0.8-0.9-0.5-1.5-0.6c-0.3-0.1-0.8-0.1-0.7,0.3C35.5,50.4,36.3,50.1,36.8,50.2z M50.5,43.3c0-0.3-0.2-0.5-0.4-0.4
		c-0.6,0.1-0.8,0.6-0.8,1.1c0,0.2,0.1,0.4,0.3,0.4C50.2,44.3,50.3,43.7,50.5,43.3z"/>
	<path class="st3" d="M36.5,26.8c0.7,0.1,1.1,0.5,1.1,1.2c0,0.6-0.4,1-1.1,1c-0.7,0-1-0.3-1.1-1C35.5,27.3,35.8,26.9,36.5,26.8z"/>
	<path class="st3" d="M43.2,29c-0.7,0-1-0.4-1-1.1c0-0.6,0.4-1.1,1-1.1c0.7,0,1.1,0.5,1.1,1.2C44.3,28.7,43.9,29,43.2,29z"/>
	<path class="st3" d="M47.9,45.6c0.3-0.1,0.6,0,0.6,0.2c-0.1,0.8-0.8,1.1-1.3,1.5c-0.3,0.2-0.6-0.1-0.5-0.3
		C46.7,46.3,47.5,46,47.9,45.6z"/>
	<path class="st3" d="M33.7,48.9c-0.3,0.5-0.7,0.4-1,0.2c-0.4-0.3-1.3-0.2-1.2-1.1c0.1-0.3,0.5-0.2,0.8,0
		C32.8,48.3,33.6,48.3,33.7,48.9z"/>
	<path class="st3" d="M45.3,48.5c-0.5,0.4-1.1,0.8-1.8,0.8c-0.3,0-0.3-0.2-0.3-0.4c0-0.4,1.6-1.1,1.9-0.9
		C45.3,48.1,45.4,48.3,45.3,48.5z"/>
	<path class="st3" d="M40.1,50.3c-0.3-0.1-0.9,0.1-0.8-0.4c0.2-0.7,1-0.4,1.5-0.6c0.3-0.1,0.8-0.1,0.7,0.3
		C41.4,50.5,40.6,50.1,40.1,50.3z"/>
	<path class="st3" d="M40.1,31.8c-0.4,0-0.9-0.1-0.9-0.6c0-0.6,0.4-0.7,0.9-0.7c0.4,0,0.9,0.2,0.9,0.6C41,31.7,40.5,31.8,40.1,31.8z
		"/>
	<path class="st3" d="M36.8,50.2c-0.5-0.2-1.3,0.1-1.4-0.7c-0.1-0.4,0.4-0.4,0.7-0.3c0.5,0.1,1.3-0.1,1.5,0.6
		C37.6,50.4,37.1,50.2,36.8,50.2z"/>
	<path class="st3" d="M50.5,43.3c-0.2,0.4-0.3,0.9-0.9,1.1c-0.2,0.1-0.4-0.2-0.3-0.4c0.1-0.5,0.3-1,0.8-1.1
		C50.3,42.9,50.5,43,50.5,43.3z"/>
</g>
<circle class="st4" cx="40.5" cy="40.5" r="34.5"/>
</svg>
