<svg xmlns="http://www.w3.org/2000/svg" viewBox="0 0 63.5 63.63"><defs><style>.cls-1,.cls-3,.cls-4,.cls-5{fill:none;}.cls-1,.cls-3,.cls-4,.cls-5,.cls-6{stroke:#185ba9;stroke-miterlimit:10;}.cls-1{stroke-width:4px;}.cls-2,.cls-6{fill:#185ba9;}.cls-3{stroke-width:2px;}.cls-5,.cls-6{stroke-width:0.75px;}</style></defs><title>CirugiaCardiovascular</title><g id="Capa_2" data-name="Capa 2"><g id="Capa_1-2" data-name="Capa 1"><path class="cls-1" d="M31.75,2A29.75,29.75,0,1,0,61.5,31.75,29.75,29.75,0,0,0,31.75,2Z"/><path class="cls-2" d="M15.27,7.63l-.08-.17A1.5,1.5,0,1,0,12.6,9l.08.16a1.5,1.5,0,1,0,2.59-1.51Z"/><path class="cls-2" d="M39.11,13.24c-1.06-.29-2.2-.29-2.62.94a1.77,1.77,0,0,0,.11,1.39c.16.33,1.25,1.2.51.27-.16-.63-.24-.66-.25-.09,0,.22,0,.44.08.66a1.39,1.39,0,0,0,.39.66c.61.53.48.24-.38-.87-.22,0-1.26,1.54-1.41,1.8-.33.56-.38,1.34-.82,1.8l2.35,1.81a4.76,4.76,0,0,1,.73-1.25L35.3,18.9c-.25.8-.69,1.14.16,1l1.89,1.45A1.68,1.68,0,0,0,36.81,20,1.52,1.52,0,0,0,34.25,21l-.08,1.65c-.09,1.66,2.68,2.09,2.94.4A2.54,2.54,0,0,0,37,21.21a1.53,1.53,0,0,0-1.69-.69c-1.44.3-1.93,2.65-1.72,3.88.35,2,2.61,2.26,4.27,2.14a1.52,1.52,0,0,0,1.5-1.5c0-1.82.09-4.08,1.68-5.34,1.14-.89,2.82-1.17,4.09-1.7,2.26-.94,2.37-3.23.5-4.66a1.51,1.51,0,0,0-2.2.9c-.62.73-.46,1,.48.95a2.91,2.91,0,0,0,0-1,2.79,2.79,0,0,0-.74-1.61,1.85,1.85,0,0,0-2.28-.29c-1.17.74-.64,1.53-.68,2.58.14-.36.11-.34-.1,0s-.15.52.47.08c-.61.15-1.26,0-1.88.16a1.47,1.47,0,0,0-1,1c0,.22-.36,1.7.08,1-.31.49-.93.81-1.25,1.36A20.47,20.47,0,0,0,35,23.45a1.51,1.51,0,0,0,2.9.8c.43-1.64.65-3.39,1.69-4.72.24-.31.58-.46.78-.83.31-.58.09-1.14.21-1.73l-1,1.05c1.45-.41,2.4.12,3.24-1.42a3.12,3.12,0,0,0,.47-1.94l-.11-.61L40.86,15a2.32,2.32,0,0,0,0,1.28c.56,3.94,4.81,1.26,5.47-1.2l-2.2.89c.19-.72,0-.94-.65-.65l-.62.21c-.61.23-1.16.61-1.77.85a6.16,6.16,0,0,0-2.6,1.71c-1.77,2-2.11,4.42-2.12,7l1.5-1.5a1.53,1.53,0,0,0-1.29.39c.39-.72.23-.9-.47-.52l-1.69-.69-.19-.43,3,.4L37.25,21,34.69,22.1l-.34-.75a1.52,1.52,0,0,0,1.9,1.44c1.39-.23,1.6-2,1.94-3.1.42-1.35-1.56-2.66-2.51-1.46a9.44,9.44,0,0,0-1.2,1.87c-.68,1.46,1.1,3.11,2.36,1.82a6.47,6.47,0,0,0,1.15-2c.45-.95,1.32-1.57,1.82-2.48a1.85,1.85,0,0,0-.66-2.69L39.89,16a3.65,3.65,0,0,0-.18-1.34,2.35,2.35,0,0,0-.37-.52c-.53-.51-.52-.23,0,.83L38.33,16l0,.11a1.51,1.51,0,0,0,.8-2.9Z"/><path class="cls-2" d="M41.84,25.2c1-1.83,1.61-3.2,3.65-4,1.69-.64,4.12-1.29,5.89-.78l-1-1-.19.2,1.29-.74c-2,.24-4.44-.38-6.35.43s-2.94,3.14-4.88,4.22a1.52,1.52,0,0,0,0,2.6c1.31.62,2.81,1.56,4.24.72s1.58-2.86,2.84-4c1.08-1-.06-3.05-1.46-2.51a3.67,3.67,0,0,0-1.69,1.18,8.11,8.11,0,0,0-.66,1,10.28,10.28,0,0,0-.49.93c-.24.4-.2.42.13.06l1.7.69L44.68,24l.15,1.16a9.46,9.46,0,0,1,2.24-2.3c1.88.47,2.68-2.43.8-2.89s-3.12.46-4.21,1.92c-.86,1.16-2.43,2.28-1.43,3.84a1.54,1.54,0,0,0,1.69.69,2,2,0,0,0,1.38-.94c.35-.5.72-2,1.33-2.22l-1.46-2.51a7.06,7.06,0,0,0-1.71,2.17,4.69,4.69,0,0,1-.42,1c0,.4-.17.44-.41.12a2.43,2.43,0,0,0-.91-.52v2.6a9.63,9.63,0,0,0,3-2.45c.8-1,.88-1.45,2.25-1.66a23.06,23.06,0,0,1,2.38-.14c1-.06,2.23.29,3.13-.44a2.78,2.78,0,0,0,.72-2.82,1.5,1.5,0,0,0-1-1.05c-2.45-.71-5.74.08-8,1-2.65,1.05-3.54,2.74-4.9,5.15a1.5,1.5,0,0,0,2.59,1.51Z"/><path class="cls-2" d="M46.75,24C49,26.49,49,29.56,48.08,32.64c-.55,1.85,2.34,2.64,2.89.79a11.8,11.8,0,0,0,.49-6.26,10.41,10.41,0,0,0-2.59-5.32c-1.28-1.45-3.4.68-2.12,2.12Z"/><path class="cls-2" d="M33.94,63.63a1.5,1.5,0,0,0,0-3,1.5,1.5,0,0,0,0,3Z"/><path class="cls-2" d="M34.5,62.69a1.5,1.5,0,0,0,0-3,1.5,1.5,0,0,0,0,3Z"/><path class="cls-2" d="M47.83,33.18C47,35.54,46.1,39,43.1,39.24c-2.65.21-4.81-1.47-6.39-3.32-3-3.56-6.06-8.81-3.14-13.4C34.61,20.88,32,19.38,31,21c-4.05,6.38.34,15,5.65,19.17,2,1.6,6,2.68,8.52,1.82,3.3-1.12,4.56-5.05,5.57-8,.62-1.83-2.27-2.62-2.89-.8Z"/><path class="cls-2" d="M33.92,21.76c.63-2.25,2.87-6.66-.76-7.57-1.29-.32-3,0-3.09,1.6a2,2,0,0,0,.78,1.73c.2.17.53.23.64.44a2.32,2.32,0,0,1-.09,1.3c-.46,1.87,2.43,2.67,2.89.8a5.74,5.74,0,0,0,.05-3,3.34,3.34,0,0,0-.7-1.23c-.3-.3-.76-.43-1-.75l.44,1.06v-.3l-.44,1.06c-.55.18-.64.26-.27.23q-.15-.37-.15.09a4.8,4.8,0,0,0-.38,1c-.32.9-.54,1.84-.8,2.76a1.5,1.5,0,0,0,2.89.79Z"/><polyline class="cls-3" points="9.5 40.5 15.5 40.5 18.5 36.5 19.5 45.5 24.5 30.5 25.5 52.5 27.5 40.5 39.5 40.5"/><path class="cls-4" d="M11,40l2-11,3.5.5a16.64,16.64,0,0,1-1,4A17.09,17.09,0,0,1,11,40Z"/><path class="cls-5" d="M15.69,28.93l.36-2h-2l-.36,2"/><polygon class="cls-6" points="12.77 26.88 17.18 26.96 18.63 17.85 14.22 17.76 12.77 26.88"/></g></g></svg>