<svg xmlns="http://www.w3.org/2000/svg" viewBox="0 0 62.5 62.5"><defs><style>.cls-1,.cls-3{fill:none;stroke:#185ba9;stroke-miterlimit:10;}.cls-1{stroke-width:3px;}.cls-2{fill:#185ba9;}.cls-3{stroke-width:2px;}</style></defs><title>Oncologia</title><g id="Capa_2" data-name="Capa 2"><g id="Capa_1-2" data-name="Capa 1"><path class="cls-1" d="M31.25,1.5A29.75,29.75,0,1,0,61,31.25,29.75,29.75,0,0,0,31.25,1.5Z"/><path class="cls-2" d="M14.77,7.13,14.69,7A1.5,1.5,0,1,0,12.1,8.48l.08.16a1.5,1.5,0,1,0,2.59-1.51Z"/><path class="cls-2" d="M7.5,21.5v17a39.25,39.25,0,0,0,5,6,31.38,31.38,0,0,1,3,3,16.19,16.19,0,0,1,3,6h9v-3a7.32,7.32,0,0,0-1-5,6.68,6.68,0,0,0-2-2l-3-3-6-6-1-1a2.5,2.5,0,0,0-3,1,2.39,2.39,0,0,0,0,2,53.81,53.81,0,0,1,4,4,53.93,53.93,0,0,1,4,5h-2a37.13,37.13,0,0,0-3-4,36.7,36.7,0,0,0-4-4,2.5,2.5,0,0,1,0-4l2-2v-10a2.72,2.72,0,0,0-3-2A2.65,2.65,0,0,0,7.5,21.5Z"/><path class="cls-2" d="M54.59,21.5v17a39.25,39.25,0,0,1-5,6,31.38,31.38,0,0,0-3,3,16.19,16.19,0,0,0-3,6h-9v-3a7.32,7.32,0,0,1,1-5,6.68,6.68,0,0,1,2-2l3-3,6-6,1-1a2.5,2.5,0,0,1,3,1,2.39,2.39,0,0,1,0,2,54.52,54.52,0,0,0-8,9h2a38.51,38.51,0,0,1,3-4,36.7,36.7,0,0,1,4-4,2.5,2.5,0,0,0,0-4l-2-2v-10a2.72,2.72,0,0,1,3-2A2.65,2.65,0,0,1,54.59,21.5Z"/><ellipse class="cls-3" cx="31" cy="21.5" rx="14.5" ry="15"/><path class="cls-2" d="M31,9.5A11.71,11.71,0,0,0,19.5,21.4,11.7,11.7,0,0,0,31,33.29,11.7,11.7,0,0,0,42.5,21.4,11.71,11.71,0,0,0,31,9.5Zm3.5,5a2,2,0,1,1-2,2A2,2,0,0,1,34.5,14.5Zm-9,0h4v4h-4Zm0,10a2,2,0,1,1,2-2A2,2,0,0,1,25.5,24.5Zm6,3a2,2,0,1,1,2-2A2,2,0,0,1,31.5,27.5Zm4-3a2,2,0,1,1,2-2A2,2,0,0,1,35.5,24.5Z"/></g></g></svg>