<svg xmlns="http://www.w3.org/2000/svg" viewBox="0 0 63.5 63.63"><defs><style>.cls-1,.cls-3,.cls-4,.cls-6{fill:none;}.cls-1,.cls-3,.cls-4,.cls-5,.cls-6{stroke:#185ba9;stroke-miterlimit:10;}.cls-1{stroke-width:4px;}.cls-2,.cls-5{fill:#185ba9;}.cls-4,.cls-5{stroke-width:0.75px;}.cls-6{stroke-width:2px;}</style></defs><title>CirugiaGeneral</title><g id="Capa_2" data-name="Capa 2"><g id="Capa_1-2" data-name="Capa 1"><path class="cls-1" d="M31.75,2A29.75,29.75,0,1,0,61.5,31.75,29.75,29.75,0,0,0,31.75,2Z"/><path class="cls-2" d="M15.27,7.63l-.08-.17A1.5,1.5,0,1,0,12.6,9l.08.16a1.5,1.5,0,1,0,2.59-1.51Z"/><path class="cls-2" d="M33.94,63.63a1.5,1.5,0,0,0,0-3,1.5,1.5,0,0,0,0,3Z"/><path class="cls-2" d="M34.5,62.69a1.5,1.5,0,0,0,0-3,1.5,1.5,0,0,0,0,3Z"/><path class="cls-3" d="M27.06,23.67,24,40.48a26.2,26.2,0,0,0,6.88-9.93,25.71,25.71,0,0,0,1.53-6.12Z"/><path class="cls-4" d="M31.17,23.56l.56-3.06H28.67l-.56,3.06"/><polygon class="cls-5" points="26.71 20.42 33.45 20.55 35.66 6.62 28.92 6.48 26.71 20.42"/><line class="cls-6" x1="12" y1="42" x2="22" y2="42"/><polyline class="cls-6" points="26 42 28 42 31 36 31 48 36 28 38 49 39 42 48 42"/></g></g></svg>