<svg xmlns="http://www.w3.org/2000/svg" viewBox="0 0 63.5 63.5"><defs><style>.cls-1,.cls-2,.cls-3{fill:none;}.cls-1,.cls-2,.cls-3,.cls-4{stroke:#185ba9;stroke-miterlimit:10;}.cls-1{stroke-width:4px;}.cls-2,.cls-3,.cls-4{stroke-width:2px;}.cls-2{stroke-dasharray:2;}.cls-4{fill:#185ba9;}</style></defs><title>Sirugia_pastica_facial</title><g id="Capa_2" data-name="Capa 2"><g id="Capa_1-2" data-name="Capa 1"><path class="cls-1" d="M27.83,52.11c-.32-2.35-1.13-5.29-3.49-6.27-2.62-1.09-4.9,1.18-7,0-2.44-1.39-.52-5.28-3.48-9.39-1.43-2-3.19-1.69-3.49-3.13-.42-2,2.28-3.16,3.49-6.27,1.07-2.76-.64-3.83,0-6.26.81-3.1,4.12-4.79,7-6.26,4-2.07,10.25-5.32,17.43-3.14,4.22,1.29,9.29,4.61,10.46,9.4,1,4.05-1.09,8-3.49,12.53-2,3.88-3.09,4.19-3.48,6.26-.53,2.77.45,6.82,7,12.53"/><circle class="cls-1" cx="31.75" cy="31.75" r="29.75"/><path class="cls-2" d="M20,25a8.69,8.69,0,0,1,5-3,9.29,9.29,0,0,1,9,4"/><path class="cls-2" d="M18,30a8.54,8.54,0,0,0,4,4,9.36,9.36,0,0,0,10-2"/><path class="cls-3" d="M36,28c.06-.17.7-1.8,2-2s2.3,1.12,3,2,1,1.31,1,2c0,1-1,1.38-2,3-.62,1-.41,1.37-1,2a2.66,2.66,0,0,1-2,1c-1-.12-1.92-1.34-2-3"/><path class="cls-4" d="M27,30c1.1-.27,1.79-.44,2-1s-.35-1.58-1-2c-.82-.53-1.75-.3-3,0s-1.79.44-2,1,.35,1.58,1,2C24.82,30.53,25.75,30.3,27,30Z"/><path class="cls-2" d="M18.48,41.44c.84-.06,1.77-.15,2.79-.29A53.3,53.3,0,0,0,33,38.07"/></g></g></svg>