<?xml version="1.0" encoding="utf-8"?>
<!-- Generator: Adobe Illustrator 22.0.0, SVG Export Plug-In . SVG Version: 6.00 Build 0)  -->
<svg version="1.1" id="Capa_1" xmlns="http://www.w3.org/2000/svg" xmlns:xlink="http://www.w3.org/1999/xlink" x="0px" y="0px"
	 viewBox="0 0 80 80" style="enable-background:new 0 0 80 80;" xml:space="preserve">
<style type="text/css">
	.st0{fill:#005EBD;}
	.st1{fill:#EAEAEA;}
	.st2{fill:none;stroke:#185BA9;stroke-width:4;stroke-miterlimit:10;}
</style>
<g>
	<path class="st0" d="M18.2,32.3c0-1,0.1-3.1,0.7-5.1c1-3.7,3.9-5.9,8-6.2c2.9-0.2,5.7,0.2,8.5,0.9c0.7,0.2,1.4,0.2,2.1,0
		c3.6-0.9,7.2-1.5,10.8-0.5c2.9,0.8,4.9,2.6,5.7,5.6c1.1,3.9,0.8,7.8,0.1,11.8c-0.5,2.8-1.2,5.4-2.2,8.1c-0.5,1.6-0.8,3.2-0.9,4.8
		c-0.1,5.2-1.8,10-4.4,14.5c-0.4,0.8-1,1.5-1.7,2c-1.4,1.1-2.9,0.7-3.7-1c-0.7-1.6-0.8-3.3-1-4.9c-0.5-3.1-0.9-6.2-2-9.1
		c-0.2-0.6-0.5-1.2-1-1.8c-0.6-0.8-1.2-0.8-1.8,0c-0.9,1.3-1.3,2.7-1.7,4.2c-0.8,3-1.1,6-1.6,9c-0.1,0.9-0.3,1.8-0.7,2.6
		c-0.8,1.6-2.4,2-3.8,0.8c-0.7-0.6-1.2-1.3-1.7-2.1c-2.5-4.5-4.1-9.2-4.3-14.4c-0.1-1.7-0.4-3.4-0.9-5
		C19.5,42.3,18.4,37.9,18.2,32.3z M20.2,32.4c0,2.5,0.3,4.8,0.8,7.1c0.5,2.3,1.1,4.6,1.9,6.9c0.9,2.5,0.7,5.2,1.1,7.7
		c0.6,4,1.9,7.8,4,11.3c0.4,0.6,0.8,1.5,1.5,1.3c0.6-0.1,0.6-1.1,0.7-1.7c0.3-1.9,0.6-3.9,0.9-5.9c0.5-2.8,1-5.6,2.4-8.1
		c1.6-2.9,4.2-2.9,5.8,0c0.9,1.6,1.4,3.4,1.8,5.1c0.7,2.9,1,6,1.5,8.9c0.1,0.6,0.1,1.5,0.7,1.6c0.6,0.1,1-0.7,1.3-1.2
		c2.3-3.7,3.8-7.7,4.2-12c0.3-3.4,0.9-6.8,2-10.1c1.4-4.4,2.2-8.8,1.7-13.4c-0.5-4.6-2.4-6.6-7-7.1c-2.6-0.3-5.1,0.2-7.5,0.9
		c-1.2,0.3-2.2,0.3-3.4,0c-3.1-0.8-6.2-1.3-9.4-0.5c-2.4,0.6-3.9,2-4.6,4.4C20.4,29.3,20.1,30.9,20.2,32.4z"/>
	<path class="st0" d="M50.4,65.5c0-0.8,0.3-1.4,0.4-2.1c1.2-4.4,2.4-8.8,3.5-13.3c0.2-0.7,0.5-1.1,1.2-1.3c1.9-0.7,3.9-1.5,5.8-2.2
		c0.2,0.5,0,0.8-0.1,1.1c-1.2,4.5-2.4,9.1-3.6,13.6c-0.2,0.7-0.5,1-1.1,1.3C54.6,63.5,52.6,64.5,50.4,65.5z M52.8,62.7
		c0.7-0.3,1.3-0.7,2-0.9c1-0.3,1.5-1,1.7-2.1c0.8-3.2,1.7-6.4,2.5-9.6c0.1-0.3,0.3-0.7,0.1-1.1c-0.7,0.3-1.4,0.6-2.1,0.8
		c-0.9,0.2-1.3,0.8-1.5,1.7c-0.8,3.3-1.7,6.5-2.6,9.8C52.8,61.7,52.6,62.1,52.8,62.7z"/>
	<path class="st0" d="M55.3,47.8c0.1-1.1,0.4-2,0.7-3c0.7-2.6,1.3-5.3,2-7.9c0.7-2.4,2.2-3.9,4.6-4.6c0.4-0.1,0.9-0.1,1.3,0
		c0.5,0.1,0.7,0.3,0.6,0.9c-1,4-2.1,8-3.1,12c-0.1,0.3-0.3,0.5-0.6,0.6c-0.6,0.2-1.3,0.5-2.1,0.8c0.6-2.4,1.1-4.6,1.7-6.7
		c0.1-0.3,0.2-0.6,0.3-1c0.1-0.2,0.1-0.5-0.2-0.6c-0.3-0.1-0.4,0.1-0.5,0.4c-0.2,0.6-0.3,1.1-0.5,1.7c-0.4,1.6-1,3.1-1.2,4.7
		C58.1,46.9,56.9,47.5,55.3,47.8z M63.6,33.2c-1.9-0.1-3.9,1.5-4.6,3.6c-0.3,1-0.6,2.1-0.8,3.1c-0.6,2.2-1.1,4.4-1.7,6.6
		c0.8,0,0.8-0.7,0.9-1.1c0.6-2.2,1.2-4.4,1.8-6.7c0.2-0.8,0.5-1.6,1.5-1.3c1.1,0.3,1,1.1,0.7,2c-0.1,0.5-0.3,0.9-0.4,1.4
		c-0.3,1.4-0.8,2.8-0.8,4.2C61.7,41.2,62.5,37.2,63.6,33.2z"/>
	<path class="st0" d="M58.6,25.2c-0.3,0.1-0.5-0.1-0.5-0.4c-0.2-1.1-0.5-2.1-1-3c-0.5-0.8,0.3-0.8,0.7-1.1c0.4-0.3,0.7-0.5,1.1,0.2
		c0.4,0.9,0.8,1.8,1,2.8C60.1,24.9,59.8,25.2,58.6,25.2z"/>
	<path class="st0" d="M60.6,30.1c-0.3,0.5,0.5,1.4-0.7,1.6c-0.8,0.1-1.4,0-1.3-1.2c0.1-0.8,0-1.6-0.1-2.3c-0.1-0.9,0.7-1.5,1.6-1.2
		c0.3,0.1,0.3,0.3,0.3,0.5C60.4,28.4,60.5,29.2,60.6,30.1z"/>
	<path class="st0" d="M57,18.4c-0.2,0.5-0.7,0.8-1,1.2c-0.3,0.3-0.5-0.1-0.7-0.3c-0.7-0.7-1.5-1.3-2.3-1.7c-1-0.4-0.3-0.9-0.1-1.4
		c0.2-0.6,0.5-0.6,1-0.3c1,0.6,2,1.2,2.8,2C56.7,18.1,56.9,18.3,57,18.4z"/>
	<path class="st0" d="M49,14.7c0.4,0,0.6,0,0.9,0.1c0.6,0,1.2,0,1,1c-0.1,0.9-0.4,1.2-1.3,0.9c-0.3-0.1-0.6-0.1-0.9-0.1
		c-0.9,0.1-1.3-0.2-1.3-1.2c0.1-1.1,0.8-0.7,1.4-0.7C48.9,14.7,49,14.7,49,14.7z"/>
	<path class="st0" d="M52.8,62.7c-0.2-0.6,0.1-1,0.2-1.4c0.9-3.3,1.8-6.5,2.6-9.8c0.2-0.9,0.6-1.4,1.5-1.7c0.7-0.2,1.4-0.5,2.1-0.8
		c0.2,0.4,0,0.8-0.1,1.1c-0.8,3.2-1.8,6.4-2.5,9.6c-0.3,1.1-0.7,1.7-1.7,2.1C54.1,62,53.5,62.4,52.8,62.7z"/>
	<path class="st1" d="M63.6,33.2c-1.1,4-1.9,8-3.3,11.8c0-1.5,0.5-2.8,0.8-4.2c0.1-0.5,0.2-0.9,0.4-1.4c0.3-0.9,0.3-1.7-0.7-2
		c-1-0.2-1.3,0.5-1.5,1.3c-0.6,2.2-1.2,4.5-1.8,6.7c-0.1,0.4-0.1,1-0.9,1.1c0.6-2.2,1.1-4.4,1.7-6.6c0.3-1,0.5-2.1,0.8-3.1
		C59.7,34.7,61.7,33.1,63.6,33.2z"/>
</g>
<circle class="st2" cx="40.5" cy="40.5" r="34.5"/>
</svg>
