<svg id="Layer_1" data-name="Layer 1" xmlns="http://www.w3.org/2000/svg" viewBox="0 0 80 80"><defs><style>.cls-1{fill:#185ba9;}</style></defs><title>Icono Pstelemed</title><path class="cls-1" d="M40,80A40,40,0,1,1,80,40,40,40,0,0,1,40,80ZM40,4A36,36,0,1,0,76,40,36,36,0,0,0,40,4Z"/><path class="cls-1" d="M65.83,21.27a12.49,12.49,0,0,0-1-1.76,9.58,9.58,0,0,0-.82-1,5.4,5.4,0,0,0-.42-.41l-.28-.25a6.83,6.83,0,0,0-.73-.6,7.47,7.47,0,0,0-.8-.49q-.39-.21-.81-.39c-.22-.09-.4-.15-.59-.21l-.11,0c-.22-.08-.45-.14-.68-.2l-.41-.08-.14,0c-.24-.05-.54-.09-.78-.12l-.17,0c-.26,0-.56-.06-.8-.08l-.61,0a17.34,17.34,0,0,0-2.09,0,6.27,6.27,0,0,0-1.76.33,2.67,2.67,0,0,0-1.39.9,3.87,3.87,0,0,1-1.12.55,3.81,3.81,0,0,1-1.23.05,6.79,6.79,0,0,0-5.06.81l-.13.08a4.43,4.43,0,0,1-.81.45,3.56,3.56,0,0,1-1.17,0c-.21,0-.43-.1-.65-.16l-.44-.12-.23-.09a8,8,0,0,0-1.78-.43,5,5,0,0,0-2.39.33,4,4,0,0,1-.42.11,1.87,1.87,0,0,1-.35-.35,4.61,4.61,0,0,0-2.29-1.6,6.08,6.08,0,0,0-2.65-.06,1.36,1.36,0,0,1-.67,0,1,1,0,0,0-.09-.17,3.91,3.91,0,0,0-.39-.56,6.54,6.54,0,0,0-1.17-1.07c-.17-.12-.33-.23-.65-.42-.09-.05-.17-.1-.34-.18l-.33-.16c-.14-.06-.44-.18-.74-.28a6.22,6.22,0,0,0-.72-.21l-.53-.1-.71-.1a6.52,6.52,0,0,0-.74,0h-.34l-.54,0c-.17,0-.35,0-.55.08s-.54.11-.81.18l-.12,0a6.75,6.75,0,0,0-.78.27,7.46,7.46,0,0,0-1.06.52,8.26,8.26,0,0,0-2.12,1.77A8.65,8.65,0,0,0,16.51,17a8.17,8.17,0,0,0-.46.87c-.14.31-.26.63-.31.77s-.13.4-.19.61-.06.27-.11.46l-.06.36c-.08.44-.1.63-.11.7l.32.07-.34,0c0,.19-.08.44-.1.63-.05.45-.09.93-.1,1.4s0,1.16,0,1.7c0,.22,0,.43,0,.66A9.48,9.48,0,0,1,15,26.78a1.82,1.82,0,0,1-.11.4c-.07.17-.14.38-.2.56a5.85,5.85,0,0,0-.19.6,7.28,7.28,0,0,0-.26,2.71c0,.37.09.74.15,1.12s.09.57.11.84a2.33,2.33,0,0,1-.13,1.1l-.16.37a6.74,6.74,0,0,0-.66,2.14,8.15,8.15,0,0,0,.06,2.12l0,.3a2.59,2.59,0,0,1-.08,1.15l-.13.37c-.09.21-.16.43-.24.68A4.82,4.82,0,0,0,13,43l0,.11a18.22,18.22,0,0,0,.44,2.25,18,18,0,0,0,.72,2.24A13.38,13.38,0,0,0,15.37,50a7.85,7.85,0,0,0,12.86.72,13.37,13.37,0,0,0,1.41-2.21,16.67,16.67,0,0,0,1-2.18,21.37,21.37,0,0,0,.69-2.19l0-.1a4.89,4.89,0,0,0,0-1.75c-.05-.23-.1-.45-.16-.68s-.06-.25-.09-.41A2.54,2.54,0,0,1,31.16,40l.07-.3a8.81,8.81,0,0,0,.29-2.11,6.74,6.74,0,0,0-.41-2.2L31,35A2.35,2.35,0,0,1,31,34c.05-.28.14-.55.21-.83,0-.1.06-.19.08-.29a4.33,4.33,0,0,1,1.18.07l.1,0a8.55,8.55,0,0,1,1.67.66l.2.09a7.92,7.92,0,0,0,3.33.86,11.66,11.66,0,0,0,3.14-.37c.26-.07.54-.14.78-.22l.72-.25c.3-.11.6-.22.93-.32a9.76,9.76,0,0,1,1.78-.43,5.87,5.87,0,0,1,1.35.12l.28,0A7.27,7.27,0,0,0,51.9,32c0,.2-.08.4-.1.6a7.89,7.89,0,0,0,.06,2.66c.07.32.15.65.23,1s.16.63.21,1a3.11,3.11,0,0,1,0,1.23,5.74,5.74,0,0,1-.25.73,10.6,10.6,0,0,0-.41,1.24A7.67,7.67,0,0,0,51.5,43c.06.54.17,1,.27,1.52,0,.21.1.42.14.64a5.33,5.33,0,0,1,.1,1.46,4.16,4.16,0,0,1-.28.9c-.07.18-.15.37-.19.5s-.07.2-.1.3a8.69,8.69,0,0,1-.87-.37,7.46,7.46,0,0,0-2.61-.8,22.87,22.87,0,0,0-4.38.09l-.54.07-.4.07H42l-1,0c-.21,0-.52.05-.93.11l-.74.15-.65.2-.27.11a4.65,4.65,0,0,0-.57.26c-.19.1-1.22,1-1.41,1.11s-1,1-1.08,1.12a5.54,5.54,0,0,0-.33.56c-.09.17-.17.34-.26.55l-.09.22a2.24,2.24,0,0,0-.1.26,6.36,6.36,0,0,0-.18.66l-.11.56c0,.15,0,.32-.06.52s0,.45,0,.65a10.44,10.44,0,0,0,.15,1.77c.07.45.15.87.22,1.2l.13.57a2,2,0,0,0,0,.23c0,.22,0,.45.06.62.23,2.09-.21,1.7,0,3.88a21.63,21.63,0,0,0,1.06,4.55c.16.49.34,1,.52,1.46l.24.61c.19.43.31.88.49,1.31s.39,1,.56,1.44a4.78,4.78,0,0,0,.26.62,1.67,1.67,0,0,0,.18.28s.21.2.21.24a2.4,2.4,0,0,0,3.51-.18,3.26,3.26,0,0,0,.58-1.2,20.74,20.74,0,0,1,.89-2.18l.51-1c.16-.33.25-.67.41-1A13.28,13.28,0,0,0,45,65.57a19,19,0,0,0,.78-3.87,4.9,4.9,0,0,0,0-.54c.57,0,1.12,0,1.67,0a7.33,7.33,0,0,0,2.68-.64,4.31,4.31,0,0,1,1.35-.37,8.88,8.88,0,0,1,1.6.14c.51.1,1,.23,1.52.36l.32.09c.81.21,1.52.36,2.16.46,0,0,.17,0,.18,0a3.67,3.67,0,0,0,.61,0c.26,0,.52,0,.74,0a7,7,0,0,0,3-1.1,5.9,5.9,0,0,0,.59-.43,3.92,3.92,0,0,0,.42-.36,6.78,6.78,0,0,0,.71-.77,7.21,7.21,0,0,0,.48-.67c.1-.16.2-.32.29-.5a5.36,5.36,0,0,0,.24-.48l.16-.36c.16-.42.27-.78.36-1.08a15.09,15.09,0,0,0,.37-1.92l0-.2c.08-.54.11-1,.14-1.48l0-.85a8.74,8.74,0,0,0-.08-1.94c0-.17-.07-.34-.12-.52s-.11-.38-.17-.58a4.32,4.32,0,0,1-.23-.94,5.56,5.56,0,0,1,.2-1.46c0-.21.11-.41.17-.62.13-.48.27-1,.37-1.51a7.71,7.71,0,0,0,0-2.67,9.51,9.51,0,0,0-.33-1.28,4.85,4.85,0,0,1-.21-.77,2.84,2.84,0,0,1,0-1.18c.07-.32.18-.63.28-.94s.21-.63.29-.94a8,8,0,0,0,.25-2.62,10.59,10.59,0,0,0-.42-2.25,6.44,6.44,0,0,1-.3-1.64,4.68,4.68,0,0,1,.22-1.38c.09-.27.19-.54.29-.81s.3-.79.41-1.19a8.27,8.27,0,0,0,.27-1.2,4.43,4.43,0,0,0,.06-.51l0-.22A5.07,5.07,0,0,0,65.83,21.27ZM39.5,72.43a.92.92,0,0,1-.4-.6c-.27-1.49-.48-3-.7-4.49a11.82,11.82,0,0,1-.34-4.18,14.32,14.32,0,0,0,.68-4.72c0-.16,0-.35-.05-.52a5.58,5.58,0,0,0-.27-1.52c0-.21-.09-.45-.13-.7a8.13,8.13,0,0,1-.1-1.18,3.32,3.32,0,0,1,0-.35,1.46,1.46,0,0,1,0-.22l0-.23c0-.12.06-.24.09-.34l.07-.17.14-.28.09-.16a3,3,0,0,1,.27-.35,2.5,2.5,0,0,1,.3-.28c1.23-1,2.79-.59,4.22-.75a2.42,2.42,0,0,0,.53-.13h.07a11.32,11.32,0,0,1,3.85.12c1.26.29,2.38,1,3.7,1.07.92,0,1.85,0,2.78,0a1.15,1.15,0,0,0,.58-.13c.55-.34.17-1.26.18-1.76a3.46,3.46,0,0,1,.15-1.07c.05-.15.11-.3.16-.44A7.21,7.21,0,0,0,56,47a9.1,9.1,0,0,0-.17-2.52c0-.25-.1-.49-.15-.74-.09-.4-.17-.78-.21-1.11a4,4,0,0,1,0-1.32,6.76,6.76,0,0,1,.26-.74,12.26,12.26,0,0,0,.4-1.21,7.07,7.07,0,0,0,.1-2.77A13.54,13.54,0,0,0,56,35.21c-.07-.25-.13-.5-.18-.77a3.79,3.79,0,0,1,0-1.35,7.83,7.83,0,0,1,.4-1.45,24.36,24.36,0,0,0,.75-3.57,1.06,1.06,0,0,0,0-.66.74.74,0,0,0-.6-.4c-.45-.06-.92.11-1.38.08a7,7,0,0,0-2.31.16,8,8,0,0,0-2.49,1.12,3.7,3.7,0,0,1-2.73.78l-.32,0A8.57,8.57,0,0,0,44.59,29a13.82,13.82,0,0,0-2.51.58c-.35.11-.7.24-1,.37l-.65.22c-.14.05-.32.09-.51.14a7.08,7.08,0,0,1-2,.24,4,4,0,0,1-1.68-.47l-.21-.1A12.07,12.07,0,0,0,33.42,29a9.38,9.38,0,0,0-3.11-.13,4.3,4.3,0,0,1-.62,0c-.52,0-1.32-.38-1.77,0a1.23,1.23,0,0,0-.29,1A22.08,22.08,0,0,1,27,33.27a6.33,6.33,0,0,0,.11,2.9c0,.15.09.31.14.47a3.69,3.69,0,0,1,.23.92v.12a5.16,5.16,0,0,1-.19,1.15l-.08.35A6.47,6.47,0,0,0,27.2,42c.38,1.65-.31,3.15-1.09,4.59a10,10,0,0,1-1,1.6,3.85,3.85,0,0,1-6.31-.36,10.56,10.56,0,0,1-.86-1.75,13.91,13.91,0,0,1-.57-1.78,4.36,4.36,0,0,1,0-2.83,6.43,6.43,0,0,0,.28-2.86l0-.34a5.44,5.44,0,0,1-.06-1.16l0-.13a3.4,3.4,0,0,1,.33-.88l.18-.44a6.24,6.24,0,0,0,.44-2.89,10.4,10.4,0,0,0-.15-1.25,7.32,7.32,0,0,1-.11-.8,3.32,3.32,0,0,1,.11-1.28,3.62,3.62,0,0,1,.13-.4l.14-.39a6.45,6.45,0,0,0,.35-1.3,14.27,14.27,0,0,0,.1-2.26c0-.23,0-.47,0-.71,0-.46,0-.94,0-1.46a9.73,9.73,0,0,1,.07-1,.77.77,0,0,0,0-.15,1.8,1.8,0,0,0,.06-.22l0-.3.07-.48.11-.49a3.42,3.42,0,0,1,.11-.35,2.62,2.62,0,0,1,.15-.38c.08-.17.15-.3.25-.47a4.22,4.22,0,0,1,.42-.58,4.6,4.6,0,0,1,1.06-.88,4.87,4.87,0,0,1,.56-.28l.46-.15.42-.1.29,0,.23,0h.48l.58.08c.93.12,1.41.77,2,1.41l.2.23a5.94,5.94,0,0,0,.52.49,5,5,0,0,0,1.24.75,5.17,5.17,0,0,0,2.88.28,4.49,4.49,0,0,1,.91-.06,2.47,2.47,0,0,1,.37.37A4.5,4.5,0,0,0,35,22.18a4.58,4.58,0,0,0,2.69-.2l.51-.16.14,0a4.09,4.09,0,0,1,1,.26,3.93,3.93,0,0,0,.41.14l.49.14c.35.09.71.18,1,.23a7.31,7.31,0,0,0,2.47,0,6.34,6.34,0,0,0,2.3-1l.19-.12a3.15,3.15,0,0,1,2.33-.19,7.66,7.66,0,0,0,2.65-.11A11.76,11.76,0,0,0,53.66,20a4.67,4.67,0,0,1,2.73-.42l.6,0,.56.05.17,0c.17,0,.38,0,.53.07l.18,0,.21,0,.38.1.12,0,.26.09a3.42,3.42,0,0,1,.43.21,2.4,2.4,0,0,1,.37.22,4.08,4.08,0,0,1,.39.31l.33.31.14.14a4.65,4.65,0,0,1,.48.59A4.47,4.47,0,0,1,62.47,24v.08a7.44,7.44,0,0,1-.72,2.51,8.62,8.62,0,0,0-.41,2.52,9.65,9.65,0,0,0,.43,2.74,7.53,7.53,0,0,1,.3,1.47A4.21,4.21,0,0,1,62,34.66c-.07.24-.15.49-.23.74a11.69,11.69,0,0,0-.38,1.32,6.88,6.88,0,0,0-.09,2.77,10.51,10.51,0,0,0,.33,1.24,5,5,0,0,1,.21.77,3.58,3.58,0,0,1,0,1.28,10,10,0,0,1-.28,1.11c-.07.24-.13.48-.19.71a9.32,9.32,0,0,0-.33,2.51,7.17,7.17,0,0,0,.4,2.06c0,.16.09.31.15.52a2.32,2.32,0,0,1,.07.5l-.05,1.5c0,.34,0,.71-.11,1.13l0,.21a9.72,9.72,0,0,1-.28,1.43,5.41,5.41,0,0,1-.18.58l-.12.26-.11.22c0,.1-.1.18-.14.25a4.4,4.4,0,0,1-.26.36,3.58,3.58,0,0,1-.28.3,1.51,1.51,0,0,1-.2.17,3.58,3.58,0,0,1-.31.23,3.35,3.35,0,0,1-1.25.44l-.34,0h-.13c-.52-.08-1.1-.21-1.78-.38l-.31-.09c-.6-.15-1.2-.31-1.82-.42a10.87,10.87,0,0,0-2.28-.21c-1.34,0-2.42.63-3.69.91a10.64,10.64,0,0,1-3.6-.13c-.54-.06-1.57-.69-2-.08a1.2,1.2,0,0,0-.18.52,25,25,0,0,0-.2,2.88c-.06.86-.08,1.72-.09,2.58a14.24,14.24,0,0,1,0,2.61c-.07.33-.14.66-.2,1-.31,1.61-.38,3.28-.65,4.91a1.8,1.8,0,0,1-.27.85.91.91,0,0,1-.23.21"/></svg>