<?xml version="1.0" encoding="utf-8"?>
<!-- Generator: Adobe Illustrator 22.0.0, SVG Export Plug-In . SVG Version: 6.00 Build 0)  -->
<svg version="1.1" id="Capa_1" xmlns="http://www.w3.org/2000/svg" xmlns:xlink="http://www.w3.org/1999/xlink" x="0px" y="0px"
	 viewBox="0 0 80 80" style="enable-background:new 0 0 80 80;" xml:space="preserve">
<style type="text/css">
	.st0{fill:#185BA9;}
	.st1{fill:none;stroke:#185BA9;stroke-width:4;stroke-miterlimit:10;}
</style>
<g>
	<path class="st0" d="M37.7,51.9c0.3,0,0.7,0.1,0.9,0c0.8-0.5,1.5-0.5,2.1,0.3c0.7,0.9,0,1.6-0.5,2.1c-2,2.2-4.2,4.2-6.2,6.4
		c-0.6,0.6-1.1,0.8-1.9,0.8c-4.6,0-9.2,0-13.8,0c-1,0-1.4-0.2-1.3-1.3c0.5-4.4,0.8-8.8,1.2-13.2c0.1-0.8,0.1-1.6,1.3-1.5
		c1.1,0.1,1.7,0.6,1.8,1.7c0.1,1.2,0,2.4,0,3.6c0,0.3-0.2,0.8,0.3,0.9c0.4,0.1,0.7-0.1,1-0.4c1-1.1,2.1-2.2,3.1-3.3
		c1.8-2,3.7-4,5.8-5.7c0.8-0.6,1.6-0.7,2.2,0.1c0.7,0.8,0.2,1.5-0.4,2c-2.2,2.2-4.4,4.5-6.6,6.7c-0.2,0.2-0.9,0.4-0.5,0.9
		c0.5,0.7,0.8-0.1,1.1-0.3c3.1-2.3,5.4-5.3,8.2-7.9c1-0.9,1.9-2.6,3.4-0.6c0.2,0.3,0.6,0.1,0.8-0.1c0.3-0.3,0.1-0.6,0-0.8
		c-0.5-1.1-2.4-1.6-3.5-0.7c-0.9,0.8-1.4,0.6-2-0.2c-1-1.2-2.1-1.1-3.2-0.1c-0.7,0.6-1.4,1.3-2.2,1.8c-0.6,0.5-1.3,1.2-2.2,0.5
		c-0.9-0.6-0.9-1.5-0.5-2.4c0.8-2.1,1.6-4.2,2.5-6.2c1.1-2.4,1.3-4.9,1.7-7.4c1.4-9.4,11.9-15.3,20.6-13.8c4.3,0.8,8.1,2.7,10.7,5.9
		c6.5,8.2,5.6,18.1-1.2,24.8c-1,1-1.4,1.9-1.4,3.3c0.1,3.9,0,7.8,0.1,11.6c0,1.3-0.3,1.8-1.7,1.8c-5.3-0.1-10.7-0.1-16,0
		c-1.2,0-1.8-0.2-1.7-1.6c0.1-2.1-0.3-4.2,1.8-5.7c0.6-0.5,0.6-2-0.3-2.9c-0.6-0.5-1-0.9-0.3-1.8c1.1-1.5,0.2-4.1-1.6-4.7
		c-0.5-0.2-0.9,0.2-1.3,0.5c-2.9,3-5.9,5.9-8.8,8.9c-0.2,0.2-0.9,0.4-0.3,0.9c0.4,0.4,0.9,0,1.1-0.2c0.9-0.8,1.7-1.7,2.6-2.5
		c1.7-1.7,3.4-3.4,5.1-5.1c0.6-0.6,1.3-1,2.1-0.3c0.8,0.7,0.4,1.4,0,2.2C39.2,50,37.9,50.6,37.7,51.9c-0.2,0.3-0.3,0.6-0.6,0.7
		c-2.4,0.6-3.4,2.9-5.1,4.3c-0.4,0.3-0.4,0.6-0.1,1.1c0.3,0.4,0.5,0.3,0.7,0.1C34.2,55.9,36.7,54.5,37.7,51.9z M55.8,36.7
		c0-2.5-2.1-5-4.6-5.3c-0.3,0-0.7-0.4-1,0.3c-0.2,0.6,0,0.8,0.4,1c0.4,0.3,0.8,0.5,1.3,0.7c1.4,0.6,2.1,1.6,2.2,3.2
		c0,2.2-1.3,3.3-3.1,4.1c-0.4,0.2-0.9,0.1-0.8,0.7c0.1,0.5,0.7,0.4,1.1,0.4C53.8,41.6,55.8,39.3,55.8,36.7z M34.4,31.9
		c-1.4-0.2-2.1,0.8-2.1,1.7c-0.1,1,0.7,1.8,1.8,1.7c1.1-0.1,2.2-0.3,2.2-1.8C36.2,32.4,35.6,31.8,34.4,31.9z M46.6,48.7
		c-0.1-0.8-0.5-1.4-1.3-1.5c-0.8,0-1.4,0.4-1.4,1.3c0,0.9,0.4,1.4,1.3,1.5C46,50.1,46.4,49.5,46.6,48.7z M47.7,43
		c-0.3-0.4-0.4-1-1.1-1c-0.8,0-1.5,0.4-1.5,1.2c0,0.6,0.6,1.1,1.4,1.1C47.5,44.4,47.3,43.5,47.7,43z M49.3,46.5c0-0.6-0.4-0.9-0.9-1
		c-0.6-0.1-0.9,0.3-1,0.8c-0.1,0.6,0.3,0.9,0.8,1C48.8,47.4,49.1,47.1,49.3,46.5z M44.6,41.3c-0.1-0.6-0.4-0.9-0.9-1
		c-0.5,0-0.9,0.3-1,0.9c0,0.6,0.3,0.9,0.9,0.9C44.2,42.1,44.5,41.8,44.6,41.3z"/>
</g>
<circle class="st1" cx="40.5" cy="40.5" r="34.5"/>
</svg>
