<?xml version="1.0" encoding="utf-8"?>
<!-- Generator: Adobe Illustrator 22.0.0, SVG Export Plug-In . SVG Version: 6.00 Build 0)  -->
<svg version="1.1" id="Capa_1" xmlns="http://www.w3.org/2000/svg" xmlns:xlink="http://www.w3.org/1999/xlink" x="0px" y="0px"
	 viewBox="0 0 80 80" style="enable-background:new 0 0 80 80;" xml:space="preserve">
<style type="text/css">
	.st0{fill:#1B60A5;stroke:#185BA9;stroke-width:4;stroke-miterlimit:10;}
	.st1{fill:#FCFCFC;}
	.st2{fill:#FFFFFF;}
	.st3{fill:#FAFBFC;}
</style>
<circle class="st0" cx="40.5" cy="40.5" r="34.5"/>
<g>
	<path class="st1" d="M43,25.9c2.1,2.6,2.3,4.8,0.6,6.4c-1.5,1.4-3.9,1.4-5.4,0c-1.7-1.5-1.6-3.8,0.5-6.4c-3,0.1-5.7-0.4-8.4,0.4
		c-3.5,1-6,3.8-6.1,7.4c-0.2,5.9,0,11.8,0,17.7c0,1.8,0,3.6,0,5.3c0,2.2,1.1,3.4,3,3.4c1.8,0,2.8-1.2,2.8-3.3c0-5.9,0-11.7,0-17.6
		c0-0.4,0-0.9,0-1.3c0-0.7,0.2-1.3,1.1-1.3c0.8,0,0.9,0.6,1,1.2c0,0.4,0,0.8,0,1.1c0,10.6,0,21.1,0,31.7c0,1.7-0.4,2-2,1.5
		c-15.2-5-24.2-19.3-23-34.2c1.4-17,15-29,30-30.3c20.4-1.9,37.4,14.2,36.6,34.7C73.2,55.4,64,67.7,51.5,71.9
		c-1.3,0.4-1.7,0.4-1.7-1.2c0.1-10.7,0-21.4,0-32.1c0-0.8-0.2-1.9,1-1.9c1.4,0,1,1.2,1,2c0,5.6,0,11.2,0,16.8c0,0.6,0,1.3,0.1,1.9
		c0.2,1.8,1.3,2.8,3,2.8c1.7-0.1,2.8-1.2,2.8-3c0.1-3.2,0-6.5,0-9.7c0-4.1,0-8.3,0-12.4C57.6,29.6,54,26,48.6,26
		C46.8,25.9,45.1,25.9,43,25.9z M44.1,11c1,2.7,0.8,4.3-0.7,5.5c-1.4,1.1-2.9,1.3-4.4,0.3c-2.4-1.4-2.2-3.6-1.3-5.9
		c-2.8,0.9-4.4,3.9-4,7c0.5,3.6,3.3,6.3,7,6.4c3.4,0.1,6.5-2.3,7.3-5.6C48.6,15.6,47.1,12.3,44.1,11z M42.6,29.5
		c0-1.1-0.6-1.9-1.7-1.9c-1.1,0-1.9,0.6-1.9,1.9c0,1.1,0.7,1.8,1.8,1.8C41.9,31.3,42.6,30.7,42.6,29.5z M40.9,15.4
		c1.2,0,1.8-0.6,1.8-1.8c0-1.1-0.6-1.8-1.7-1.8c-1.2,0-1.9,0.7-1.9,1.9C39.1,14.8,39.8,15.3,40.9,15.4z"/>
	<path class="st2" d="M39.9,67.2c0-1.1,0-2.3,0-3.4c0-1.4,0-2.5-1.5-3.4c-1.9-1.1-1.8-3.9-0.3-5.5s4.2-1.6,5.8,0.1
		c1.5,1.6,1.4,4.3-0.5,5.5c-1.3,0.8-1.4,1.7-1.4,3c0,3,0,6,0,8.9c0,0.7,0.1,1.4-1,1.4s-1-0.7-1-1.4C39.9,70.7,39.9,68.9,39.9,67.2z
		 M40.8,59.3c1.2,0,1.8-0.6,1.8-1.8c0-1.1-0.6-1.8-1.8-1.8c-1.1,0-1.8,0.6-1.8,1.8C39,58.6,39.7,59.2,40.8,59.3z"/>
	<path class="st3" d="M41.1,39c2.1,0.1,3.8,1.9,3.7,4.1c-0.1,2.2-2,3.8-4.2,3.7c-2.1-0.2-3.7-2-3.6-4.1C37.1,40.5,39,38.9,41.1,39z
		 M42.7,42.9c0-1.2-0.6-1.8-1.8-1.8c-1.1,0-1.8,0.6-1.8,1.7c0,1.2,0.6,1.9,1.8,1.9C42,44.7,42.6,44,42.7,42.9z"/>
</g>
</svg>
