<svg id="Layer_1" data-name="Layer 1" xmlns="http://www.w3.org/2000/svg" viewBox="0 0 80 80"><defs><style>.cls-1{fill:#185ba9;}</style></defs><title>Icono Pstelemed</title><path class="cls-1" d="M40,80A40,40,0,1,1,80,40,40,40,0,0,1,40,80ZM40,4A36,36,0,1,0,76,40,36,36,0,0,0,40,4Z"/><polygon class="cls-1" points="60.66 41.73 59.88 38.84 52.23 54.13 40.41 48.53 28.52 54.15 20.87 38.84 20.08 41.73 28.07 57.71 28.1 57.7 30.23 70.14 33.89 70.16 32.13 69.94 40.41 72.08 48.68 69.94 46.85 70.23 50.5 70.23 52.72 57.63 60.66 41.73"/><path class="cls-1" d="M17.87,37.89l.18-3.06c.07-2.14.91-21,7.62-24.17C31.13,8.09,38.22,8,40.27,8s9.11.09,14.57,2.66c6.71,3.16,7.55,22,7.62,24.17l.12,2.78-2.46-1.77c-.23-.19-3.95-3-19.87-3.07-16.51.07-19.81,3-19.85,3Z"/><path class="cls-1" d="M64.23,42.38l-.39-.3L63.35,42l-.62-.12V39.3l-2.32-1.67c-.08-.06-.93-.51-.93-.51a47.06,47.06,0,0,1,.23,5.45l-.25,2.56h2.59c-.21.66-.53,1.56-1,2.77-.14.34-.23.59-.28.72-.42,1.24-.92,2.67-1.45,4-.09.24-.15.39-.2.49-.21.07-.55.15-.69.19l-1.32.34L56.75,55c-2.45,9-4.47,12.27-5.12,12.67-1.35.45-2.65,1-3.92,1.6a20.93,20.93,0,0,1-7.23,2,22.31,22.31,0,0,1-7.53-2,41.4,41.4,0,0,0-3.85-1.56c-.72-.44-2.75-3.66-5.19-12.71l-.36-1.32-1.32-.34c-.15,0-.48-.12-.69-.19-.05-.1-.11-.25-.21-.49-.53-1.38-1-2.81-1.44-4l-.28-.73c-.47-1.21-.79-2.1-1-2.76h2.59L21,42.57A49.46,49.46,0,0,1,21.14,37l-1,.61-2.18,1.78v2.46l-.62.12-.49.11-.4.3c-1.83,1.41-1,2,.64,6.16.09.24.17.42.2.52.42,1.23.92,2.67,1.46,4.08.69,1.76,1.37,2.5,2.67,3C25,69,27.75,69.91,29,70.31s2.2.86,3.37,1.39c2.53,1.13,5.15,2.3,8,2.3s5.47-1.17,8-2.3c1.18-.53,2.29-1,3.38-1.39S55.65,69,59.27,56.14c1.3-.5,2-1.24,2.66-3,.55-1.4,1-2.84,1.47-4.08,0-.1.1-.28.2-.52C65.22,44.39,66.07,43.79,64.23,42.38Z"/></svg>