<svg xmlns="http://www.w3.org/2000/svg" viewBox="0 0 63.5 63.5"><defs><style>.cls-1,.cls-2{fill:none;stroke:#185ba9;stroke-miterlimit:10;}.cls-1{stroke-width:4px;}.cls-2{stroke-linecap:round;stroke-width:3px;}.cls-3{fill:#185ba9;}</style></defs><title>Gastroenterologia</title><g id="Capa_2" data-name="Capa 2"><g id="Capa_1-2" data-name="Capa 1"><circle class="cls-1" cx="31.75" cy="31.75" r="29.75"/><path class="cls-2" d="M14.5,48.5c-1.4-1.35-1.65-3.15-2-6a9,9,0,0,1,0-4,5.63,5.63,0,0,1,2-3,5.72,5.72,0,0,1,4-1c1.48.14,1.46.67,3,1a9.61,9.61,0,0,0,6-1,8.25,8.25,0,0,0,3-2,9.19,9.19,0,0,0,2-5,10.86,10.86,0,0,0,0-5,19.87,19.87,0,0,0-2-4,15.68,15.68,0,0,1-2-4c-.31-1.16-.56-2.17,0-3a3.16,3.16,0,0,1,3-1,3.36,3.36,0,0,1,2,1c1.52,1.7,0,4.46,1,5,.67.38,1.53-.93,4-2a10.26,10.26,0,0,1,5-1,9.33,9.33,0,0,1,5,2,9.57,9.57,0,0,1,3,4c.79,2,.53,4,0,8a30.39,30.39,0,0,1-1,5,22.2,22.2,0,0,1-2,5,22.39,22.39,0,0,1-4,5c-2.1,2.12-3.15,3.18-5,4a13.74,13.74,0,0,1-6,1c-2.29,0-4.12,0-6-1-.83-.44-1-.71-5-5-2.18-2.32-3-3.15-4-3a2.62,2.62,0,0,0-2,2c-.13.67.24,1.46,1,3a15.36,15.36,0,0,1,1,2c.27.86.65,2,0,3a2.44,2.44,0,0,1-2,1A2.94,2.94,0,0,1,14.5,48.5Z"/><path class="cls-3" d="M26.5,38.5c2.72.35,4.17-.29,5-1,1.19-1,1.46-2.5,3-3a3.71,3.71,0,0,1,2,0c4.62.93,8.45-1.12,9,0,.36.73-1,2.09-3,4a13.14,13.14,0,0,1-4,3,12.72,12.72,0,0,1-4,1,10.64,10.64,0,0,1-3,0,8.65,8.65,0,0,1-3-1c-.83-.47-1.76-1-2-2A2.38,2.38,0,0,1,26.5,38.5Z"/><path class="cls-3" d="M26.47,38.46a10.94,10.94,0,0,0,2.79-.25,4,4,0,0,0,2.19-1.31,26,26,0,0,1,1.73-2.32,3.71,3.71,0,0,1,3.17-.83A18.86,18.86,0,0,0,39,34a19,19,0,0,0,2.69-.25,28.77,28.77,0,0,1,2.92-.42,2.29,2.29,0,0,1,.5,0l.3.07a2.42,2.42,0,0,1,.36.18,1.37,1.37,0,0,1,.56.73,1.55,1.55,0,0,1,0,.79,4,4,0,0,1-.9,1.6c-.67.77-1.36,1.41-2,2.07s-1.36,1.32-2.15,1.95A10.72,10.72,0,0,1,35.79,43a20.24,20.24,0,0,1-2.93.16A9.89,9.89,0,0,1,30,42.62a9.63,9.63,0,0,1-2.55-1.47A3.11,3.11,0,0,1,26.47,40,2.15,2.15,0,0,1,26.47,38.46Zm.06.08a2.33,2.33,0,0,0,.15,1.32,2.73,2.73,0,0,0,.92,1,9.09,9.09,0,0,0,2.5,1.23,9.31,9.31,0,0,0,2.77.43,20.12,20.12,0,0,0,2.79-.27A10.57,10.57,0,0,0,40.73,40c.72-.59,1.38-1.26,2.06-1.92s1.34-1.32,1.94-2a3.22,3.22,0,0,0,.71-1.16.48.48,0,0,0-.18-.52,1.15,1.15,0,0,0-.63-.12,26.78,26.78,0,0,0-2.78.36,15.55,15.55,0,0,1-5.65-.1,3,3,0,0,0-2.6.56c-.7.61-1.09,1.5-1.77,2.19C30.48,38.7,28.28,38.8,26.53,38.54Z"/></g></g></svg>