<svg xmlns="http://www.w3.org/2000/svg" viewBox="0 0 63.5 63.5"><defs><style>.cls-1{fill:none;stroke-width:4px;}.cls-1,.cls-2{stroke:#185ba9;stroke-miterlimit:10;}.cls-2{fill:#185ba9;stroke-width:0.5px;}</style></defs><title>Ginecologia</title><g id="Capa_2" data-name="Capa 2"><g id="Capa_1-2" data-name="Capa 1"><path class="cls-1" d="M31.75,2A29.75,29.75,0,1,0,61.5,31.75,29.75,29.75,0,0,0,31.75,2Z"/><path class="cls-2" d="M20.5,20.5a12,12,0,0,1,1,3c0,.15,0,.26,0,.26,0,.25,0,.38,0,.74a7.1,7.1,0,0,0,1,3,23.18,23.18,0,0,0,2,3,4.22,4.22,0,0,1,1,2,3.45,3.45,0,0,1,0,1c-.31,2.24-.59,11.84,0,14a1.57,1.57,0,0,1,0,1c-.22.53-.67.49-1,1a2.11,2.11,0,0,0,0,2,1.75,1.75,0,0,0,1,1c.92.24,1.85-.82,2-1,.47-.54.83-1.28,1-4a30.49,30.49,0,0,0,0-5c-.18-2.09-.45-2.82,0-4,.09-.24.4-.83,1-2a15.25,15.25,0,0,0,1-2,5.47,5.47,0,0,0,0-3c-.41-1.84-1.14-1.9-2-4-.75-1.81-.19-1.72-1-4-.72-2-1.47-3-1-4a2.52,2.52,0,0,1,1-1,6.55,6.55,0,0,1,4-1c1.82,0,3.2.05,4,1,1,1.19.49,3.13,0,5-.35,1.32-.56,1.31-2,5a22,22,0,0,0-1,3c-.64,2.64-.27,3.55,0,4s.85.46,1,1a3.67,3.67,0,0,1,0,1v1c0,2,.65,6.39,1,10a7.84,7.84,0,0,0,1,3c.39.67.68.91,1,1a1.92,1.92,0,0,0,2-1,2,2,0,0,0,0-2c-.33-.48-.79-.47-1-1a1.61,1.61,0,0,1,0-1v-11c0-3.4-.19-3.36,0-4,.58-2,1.85-2.09,3-4,.85-1.41.9-3.27,1-7s.12-5.61-1-7a7.34,7.34,0,0,0-3-2,12.69,12.69,0,0,0-5-1,14.66,14.66,0,0,0-7,1,9.27,9.27,0,0,0-3.45,2.26,7,7,0,0,0-.55.74C21.05,16.19,19.52,18.4,20.5,20.5Z"/><path class="cls-2" d="M21.5,14.5a5.33,5.33,0,0,0-2,0c-2,.38-6.53,1.22-9,5a4.18,4.18,0,0,0-1,3c.23,1.19,1.17,1.28,2,3,.67,1.39.27,1.78,1,3a5.44,5.44,0,0,0,2,2,5.27,5.27,0,0,0,5,0c1-.56.79-1.31,2-2,1.06-.61,1.75-.43,2-1a1.73,1.73,0,0,0-1-2,5.67,5.67,0,0,0-1,0,4.29,4.29,0,0,1-1,0c-.5-.14-.62-.57-1-1a3.27,3.27,0,0,0-2-1c-1.48-.14-2.12,1.36-3,1s-1-1.73-1-2a3.19,3.19,0,0,1,0-1,4.2,4.2,0,0,1,4-3c1.51,0,1.76,1.11,3,1,1.86-.17,3.6-2.8,3-4C23.17,14.83,22.11,14.62,21.5,14.5Z"/><path class="cls-2" d="M41.58,14.5a5.33,5.33,0,0,1,2,0c2,.38,6.53,1.22,9,5a4.18,4.18,0,0,1,1,3c-.23,1.19-1.18,1.28-2,3-.67,1.39-.27,1.78-1,3a5.44,5.44,0,0,1-2,2,5.27,5.27,0,0,1-5,0c-1-.56-.8-1.31-2-2s-1.76-.43-2-1a1.72,1.72,0,0,1,1-2,5.63,5.63,0,0,1,1,0,4.33,4.33,0,0,0,1,0c.49-.14.61-.57,1-1a3.27,3.27,0,0,1,2-1c1.47-.14,2.12,1.36,3,1s1-1.73,1-2a3.53,3.53,0,0,0,0-1,4.2,4.2,0,0,0-4-3c-1.52,0-1.76,1.11-3,1-1.87-.17-3.6-2.8-3-4C39.91,14.83,41,14.62,41.58,14.5Z"/><path class="cls-2" d="M31.5,26.5a11.32,11.32,0,0,0,3-7h-6a11.32,11.32,0,0,0,3,7Z"/></g></g></svg>