<svg xmlns="http://www.w3.org/2000/svg" viewBox="0 0 63.5 63.5"><defs><style>.cls-1{fill:none;stroke:#185ba9;stroke-miterlimit:10;stroke-width:4px;}.cls-2{fill:#185ba9;}</style></defs><title>Inmunologia</title><g id="Capa_2" data-name="Capa 2"><g id="Capa_1-2" data-name="Capa 1"><path class="cls-1" d="M31.75,2A29.75,29.75,0,1,0,61.5,31.75,29.75,29.75,0,0,0,31.75,2Z"/><path class="cls-2" d="M15.27,7.63l-.08-.17A1.5,1.5,0,1,0,12.6,9l.08.16a1.5,1.5,0,1,0,2.59-1.51Z"/><path class="cls-1" d="M28.83,52.11c-.32-2.35-1.13-5.29-3.49-6.27-2.62-1.09-4.9,1.18-7,0-2.44-1.39-.52-5.28-3.48-9.39-1.43-2-3.19-1.69-3.49-3.13-.42-2,2.28-3.16,3.49-6.27,1.07-2.76-.64-3.83,0-6.26.81-3.1,4.12-4.79,7-6.26,4-2.07,10.25-5.32,17.43-3.14,4.22,1.29,9.29,4.61,10.46,9.4,1,4.05-1.09,8-3.49,12.53-2,3.88-3.09,4.19-3.48,6.26-.53,2.77.45,6.82,7,12.53"/><path class="cls-2" d="M30.75,29a1.5,1.5,0,0,0,0-3,1.5,1.5,0,0,0,0,3Z"/><path class="cls-2" d="M34.5,40.25a1.5,1.5,0,0,0,0-3,1.5,1.5,0,0,0,0,3Z"/><path class="cls-2" d="M24.5,40a1.5,1.5,0,0,0,0-3,1.5,1.5,0,0,0,0,3Z"/><path class="cls-2" d="M25.25,37a1.5,1.5,0,0,0,0-3,1.5,1.5,0,0,0,0,3Z"/><path class="cls-2" d="M34.5,34.5a1.5,1.5,0,0,0,0-3,1.5,1.5,0,0,0,0,3Z"/><path class="cls-2" d="M37.75,26.75a1.5,1.5,0,0,0,0-3,1.5,1.5,0,0,0,0,3Z"/><path class="cls-2" d="M9.5,41.88a.75.75,0,0,0,0-1.5.75.75,0,0,0,0,1.5Z"/><path class="cls-2" d="M12.38,42.75a.75.75,0,0,0,0-1.5.75.75,0,0,0,0,1.5Z"/><path class="cls-2" d="M10,45.75a.75.75,0,0,0,0-1.5.75.75,0,0,0,0,1.5Z"/><path class="cls-2" d="M13.25,46.88a.75.75,0,0,0,0-1.5.75.75,0,0,0,0,1.5Z"/><path class="cls-2" d="M8.63,44.75a.75.75,0,0,0,0-1.5.75.75,0,0,0,0,1.5Z"/><path class="cls-2" d="M11,48.5A.75.75,0,0,0,11,47a.75.75,0,0,0,0,1.5Z"/></g></g></svg>