<svg xmlns="http://www.w3.org/2000/svg" viewBox="0 0 62.5 62.5"><defs><style>.cls-1{fill:none;stroke:#185ba9;stroke-miterlimit:10;stroke-width:3px;}.cls-2{fill:#005bad;}</style></defs><title>laboratorio_1</title><g id="Capa_2" data-name="Capa 2"><g id="Capa_1-2" data-name="Capa 1"><g id="Capa_2-2" data-name="Capa 2"><g id="Capa_1-2-2" data-name="Capa 1-2"><path class="cls-1" d="M31.25,1.5A29.75,29.75,0,1,0,61,31.25,29.75,29.75,0,0,0,31.25,1.5Z"/></g></g><path class="cls-2" d="M10.88,45.11a12.18,12.18,0,0,1,1.69-3.43c2.22-3.8,4.46-7.58,6.68-11.38a1.48,1.48,0,0,0,.19-.71q0-5.09,0-10.16c0-.94.27-1.21,1.23-1.21h3.53c.95,0,1.22.27,1.22,1.21s0,1.73,0,2.65c.56-.21,1.08-.38,1.58-.59.09,0,.14-.26.14-.4,0-1.54,0-3.08,0-4.62V10c0-.89.28-1.17,1.15-1.17h5.42c.82,0,1.14.31,1.14,1.14,0,3.61,0,7.23,0,10.84,0,.35.11.47.44.56a14.51,14.51,0,0,1,7.49,4.91l-.65.54a2.17,2.17,0,0,1-.55.37c-.43-.36-.88-.7-1.29-1.09a12.87,12.87,0,0,0-6-3.21l-.51-.12a.87.87,0,0,1-.67-.81,3.17,3.17,0,0,1,0-.44V10.54H28.87V21.81c0,.76-.18,1-.91,1.21s-1.47.55-2.21.83a.47.47,0,0,0-.32.52c0,1.77,0,3.53,0,5.3a1.05,1.05,0,0,0,.13.49L33,41.62a1.88,1.88,0,0,0,.16.19V32.23a3.71,3.71,0,0,1,.7-2.34,3.48,3.48,0,0,1,2.89-1.39H49.78a2.08,2.08,0,0,1,1.49,3.65c-.52.54-1.07,1.05-1.58,1.6a1,1,0,0,0-.25.62c0,3.68,0,7.36,0,11a4.39,4.39,0,0,1-3.61,4.45.33.33,0,0,0-.1.06H36.9a14.15,14.15,0,0,1-1.77-.7A7.37,7.37,0,0,1,34,48.29a4.1,4.1,0,0,1-1.79,1.33c-.31.11-.63.2-.94.3H14.57a1.27,1.27,0,0,0-.18-.06,4.27,4.27,0,0,1-2.51-1.45,4.79,4.79,0,0,1-1-2.18ZM21.16,20v.53c0,3.16,0,6.31,0,9.47a2.07,2.07,0,0,1-.25.91c-.44.81-.93,1.59-1.39,2.39q-3.26,5.51-6.49,11a2.5,2.5,0,0,0,2.14,3.92c5.14,0,10.28,0,15.42,0a2.38,2.38,0,0,0,2.31-1.39,2.49,2.49,0,0,0-.25-2.58Q28.32,37.6,24,30.93a2,2,0,0,1-.3-1c0-3.16,0-6.32,0-9.48V20ZM34.87,38.84h0c0,2.24,0,4.47,0,6.71a2.62,2.62,0,0,0,2.7,2.67H45a2.69,2.69,0,0,0,1.69-.52,2.72,2.72,0,0,0,1-2.33c0-3.77,0-7.55,0-11.32a1.66,1.66,0,0,1,.55-1.31c.63-.58,1.22-1.2,1.82-1.81.1-.11.2-.35.15-.44s-.28-.18-.44-.25a.67.67,0,0,0-.2,0H36.86a1.74,1.74,0,0,0-2,2Z"/><path class="cls-2" d="M10.88,18.28a3.33,3.33,0,0,1,1.13-2,3,3,0,0,1,4.74,3.14,3,3,0,0,1-5.71.11c-.06-.16-.11-.32-.16-.49Zm3-.9a1.28,1.28,0,1,0,1.28,1.26A1.27,1.27,0,0,0,13.87,17.38Z"/><path class="cls-2" d="M47.23,26.79a3,3,0,1,1,3.05-3A3,3,0,0,1,47.23,26.79Zm.05-4.27A1.28,1.28,0,0,0,46,23.79a1.31,1.31,0,0,0,1.27,1.29,1.28,1.28,0,0,0,1.29-1.3A1.27,1.27,0,0,0,47.28,22.52Z"/><path class="cls-2" d="M44.3,14.81a2.57,2.57,0,1,1-2.58,2.56A2.57,2.57,0,0,1,44.3,14.81Zm0,3.4a.84.84,0,0,0,.86-.81.86.86,0,0,0-.84-.88.87.87,0,0,0-.85.84A.85.85,0,0,0,44.27,18.21Z"/><path class="cls-2" d="M20.29,12.23a2.57,2.57,0,0,1-2.54,2.57,2.57,2.57,0,1,1,0-5.13A2.56,2.56,0,0,1,20.29,12.23Zm-2.55.84a.85.85,0,0,0,.84-.84.87.87,0,0,0-.84-.85.85.85,0,0,0-.85.87A.82.82,0,0,0,17.74,13.07Z"/><path class="cls-2" d="M15.18,28.5c.51,0,1,0,1.44,0a.39.39,0,0,1,.25.25c0,.46,0,.93,0,1.43h-1.7Z"/><path class="cls-2" d="M29.69,30.22c-.51,0-1,0-1.49,0-.06,0-.18-.12-.18-.19q0-.66,0-1.32c0-.07.13-.14.21-.21s.05,0,.08,0l1.38.06Z"/><path class="cls-2" d="M12.61,24.24h1.67V25.9H12.61Z"/><path class="cls-2" d="M27.19,25.1h1.64v1.67H27.19Z"/><path class="cls-2" d="M31.42,32v1.66H29.76V32Z"/><path class="cls-2" d="M21.74,32.84l1.48.87-6.5,11h4.41v1.7a2.58,2.58,0,0,1-.29,0H15.38c-.62,0-1-.27-1-.79a1.59,1.59,0,0,1,.25-.74q3.12-5.34,6.28-10.68Z"/><path class="cls-2" d="M29.73,45.63H28V43.92c.5,0,1,0,1.48,0a.32.32,0,0,1,.2.22C29.74,44.62,29.73,45.1,29.73,45.63Z"/><path class="cls-2" d="M27.13,42.2H25.46V40.54h1.67Z"/><path class="cls-2" d="M41.73,46.49v-1.7h2.55V33.67H46c0,.15,0,.29,0,.43V45.34c0,.88-.27,1.15-1.14,1.15Z"/><path class="cls-2" d="M39.12,35.35H36.6V33.67h2.52Z"/><path class="cls-2" d="M36.59,42.19V40.54h2.53v1.65Z"/><path class="cls-2" d="M36.6,45.62V44h1.65v1.67Z"/><path class="cls-2" d="M36.6,38.75V37.09h1.66v1.66Z"/></g></g></svg>