<svg id="Layer_1" data-name="Layer 1" xmlns="http://www.w3.org/2000/svg" viewBox="0 0 80 80"><defs><style>.cls-1{fill:#185ba9;}</style></defs><title>Icono Pstelemed</title><path class="cls-1" d="M40,80A40,40,0,1,1,80,40,40,40,0,0,1,40,80ZM40,4A36,36,0,1,0,76,40,36,36,0,0,0,40,4Z"/><path class="cls-1" d="M63.92,20.32a2.38,2.38,0,0,0-.05-.26s0-.07,0-.11v0a4.51,4.51,0,1,0-7.76,4.09h0l0,0a5.29,5.29,0,0,0,.41.41l.14.11a3.54,3.54,0,0,0,.44.32,2.39,2.39,0,0,0,.22.12,3.55,3.55,0,0,0,.69.31,2.84,2.84,0,0,0,.38.13v1.27h-.33v4.9h.46l.17,33.21a3.7,3.7,0,0,1-1.07,2.61A3.65,3.65,0,0,1,55,68.55h-.66a3.68,3.68,0,0,1-3.68-3.67V60.67h0V53.62A5.65,5.65,0,0,0,45,48h-.09a5.64,5.64,0,0,0-5.63,5.64V64.88a3.68,3.68,0,0,1-3.68,3.67h-.68a3.68,3.68,0,0,1-3.67-3.67V63.29h0V58.06a1.59,1.59,0,0,0,.61-1,32.41,32.41,0,0,1,6-13.31l.12-.12c.3-.27.59-.57.88-.88a18.92,18.92,0,0,0,2.2-2.61L41,40.1a39.32,39.32,0,0,0,4.58-11.56l1-6.18a9,9,0,0,0-8-10.5v-.32H35.89a1.61,1.61,0,0,0-1.2-.54,1.63,1.63,0,1,0,1.19,2.73h2.66V13.5A7.41,7.41,0,0,1,45,22.09l-1,6.12a37.71,37.71,0,0,1-4.34,11l-.14-.09a22.06,22.06,0,0,1-3,3.33,9,9,0,0,1-12.39,0,22.06,22.06,0,0,1-3-3.33l-.15.1a37.61,37.61,0,0,1-4.31-10.94l-1-6.18A7.39,7.39,0,0,1,22,13.5v.23h2.67A1.63,1.63,0,1,0,25.88,11a1.59,1.59,0,0,0-1.2.54H22v.32l-.18,0-.34.06a5.25,5.25,0,0,0-.69.13l-.39.11-.62.19-.39.16c-.2.08-.38.17-.57.26l-.21.1-.22.13-.31.19-.48.32c-.09.07-.19.13-.28.21a5.85,5.85,0,0,0-.47.4l-.23.2c-.22.22-.44.44-.64.68a9,9,0,0,0-2,7.34l1.06,6.24a39.13,39.13,0,0,0,4.56,11.5l-.13.09a18.78,18.78,0,0,0,2.05,2.46,13.75,13.75,0,0,0,1.08,1.08l.06.06a32.25,32.25,0,0,1,6,13.32,1.6,1.6,0,0,0,.62,1v6.82a5.64,5.64,0,0,0,5.63,5.63h.68a5.64,5.64,0,0,0,5.64-5.63v-.94h0V53.62a3.68,3.68,0,0,1,3.68-3.68H45a3.68,3.68,0,0,1,3.68,3.68V64.88a5.64,5.64,0,0,0,5.64,5.63H55a5.63,5.63,0,0,0,5.64-5.66l-.08-14.54h0l-.09-18.66h.43v-4.9h-.32V25.48l.32-.11a3.75,3.75,0,0,0,.43-.16,3.69,3.69,0,0,0,.62-.33l.29-.23a3,3,0,0,0,.59-.55,3.37,3.37,0,0,0,.29-.35c.07-.09.13-.19.2-.29s.16-.28.23-.42l.13-.3a3.45,3.45,0,0,0,.16-.52,1.28,1.28,0,0,0,.07-.28A3.86,3.86,0,0,0,64,21.1,4,4,0,0,0,63.92,20.32Zm-33.64,35a35.5,35.5,0,0,0-3.6-9.06,10.76,10.76,0,0,0,7.2,0A36.24,36.24,0,0,0,30.28,55.33Zm29.2-31.72A2.52,2.52,0,1,1,62,21.1,2.52,2.52,0,0,1,59.48,23.61Z"/></svg>