<?xml version="1.0" encoding="utf-8"?>
<!-- Generator: Adobe Illustrator 22.0.0, SVG Export Plug-In . SVG Version: 6.00 Build 0)  -->
<svg version="1.1" id="Capa_1" xmlns="http://www.w3.org/2000/svg" xmlns:xlink="http://www.w3.org/1999/xlink" x="0px" y="0px"
	 viewBox="0 0 80 80" style="enable-background:new 0 0 80 80;" xml:space="preserve">
<style type="text/css">
	.st0{fill:none;stroke:#185BA9;stroke-width:4;stroke-miterlimit:10;}
	.st1{fill:none;stroke:#185BA9;stroke-width:2;stroke-miterlimit:10;}
	.st2{fill:none;stroke:#185BA9;stroke-width:3;stroke-miterlimit:10;}
	.st3{fill:none;stroke:#185BA9;stroke-width:3;stroke-linecap:round;stroke-miterlimit:10;}
	.st4{fill:#185BA9;stroke:#185BA9;stroke-linecap:round;stroke-miterlimit:10;}
</style>
<g>
	<g>
		<g>
			<g>
				<g>
					<g>
						<path class="st0" d="M58.9,63.2"/>
						<path class="st0" d="M54.4,53"/>
						<path class="st0" d="M58.9,28.1"/>
						<path class="st0" d="M39.8,7C21.4,7,6.4,21.9,6.4,40.4s14.9,33.4,33.4,33.4s33.4-14.9,33.4-33.4S58.2,7,39.8,7z"/>
						<path class="st1" d="M46.1,45"/>
						<path class="st1" d="M51,47.4"/>
					</g>
					<path class="st2" d="M23.9,54.3"/>
					<path class="st2" d="M25.8,36.2"/>
				</g>
			</g>
		</g>
	</g>
</g>
<path class="st3" d="M56.3,42.3"/>
<path class="st4" d="M31.5,35.7c0.3,0.5,0.9,0.6,1.3,0.3c0.8-0.7,1.3-1.3,1.6-1.8c0.6-0.9,1.4-3.3,1.2-4.8c-0.1-1.2-0.8-2-1.2-2.5
	c-2.3-2.6-6.3-2.5-7.4-2.5c-0.7,0-2.8,0.1-4.9,1.2c-5.3,2.7-7.3,9.7-7.4,14.7c0,2.3,0,10.1,4.9,13.4c3.9,2.5,8.3,1.3,8.6,1.2
	c1.2-0.3,4.1-1.2,4.9-3.7c0.9-2.9-1.4-6.3-2.5-6.1c-0.2,0-0.2,0.2-1.2,1.2c-0.6,0.6-0.9,1-1.2,1.2c-0.7,0.6-1.4,1.2-2.5,1.2
	c-1.2,0-2.1-0.8-2.5-1.2c-0.4-0.4-1.3-1.3-1.2-2.5c0.1-1.3,1.5-1.8,1.2-2.5c-0.2-0.7-1.8-0.3-2.5-1.2c-0.5-0.6-0.2-1.5,0-2.5
	c0.2-0.9,0.4-1.8,1.2-2.5c1-0.8,2.2-0.5,2.5-1.2c0.1-0.2,0-0.2,0-1.2c0-0.7,0-2.2,0-2.3c0-0.2,0.2-2,1.2-2.5c0.4-0.2,0.7-0.1,1.2,0
	c0.3,0.1,1.5,0.3,2.5,1.2c0.6,0.6,0.6,2.1,1.2,3.6C31,34.7,31.3,35.2,31.5,35.7z"/>
<path class="st4" d="M28.3,31.8c-0.3-0.1-0.9-0.3-1.2,0c-0.7,0.5,0,3.5,0,3.6c0.4,1.1,0.9,1.3,1.2,2.5c0.1,0.5,0.2,0.9,0,1.2
	c-0.2,0.3-0.8,0-2.5,0c-0.6,0-0.6,0-1.2,0c-0.8,0-1.2-0.1-1.2,0c-0.1,0.2,0.5,0.8,1.2,1.2c1.8,1.1,3.6,0.7,3.7,1.2
	c0,0.2-0.2,0.3-1.2,1.2c-0.4,0.4-0.8,0.8-1.2,1.2c-0.9,0.9-1.2,0.9-1.2,1.2c0,0.5,0.6,1.1,1.2,1.2c0.4,0.1,0.9-0.2,3.7-3.7
	c0.6-0.8,0.8-1.1,1.2-1.2c1.4-0.5,3,0.7,3.7,1.2c1.3,1,2.4,2.5,2.5,3.7c0,0,0,0,0,1.2c0,0.4,0,0.8,0,1.2c0,0.8,0,1.6,0,2.5v2.4
	c0,0,0,0,0,0.1c-0.1,1.5-0.4,2.1,0,2.4c0.2,0.2,0.3,0,1.2,0c0.8,0,1,0.2,1.2,0c0.2-0.2,0.1-0.5,0-1.2c0,0,0,0,0-1.2
	c0-4.5,0-9,0-13.5v-4.8c0-0.1,0-0.2,0-0.3c0.1-0.3,0.2-0.8,0-1.1c-0.3-0.3-1.1,0-1.2,0c-0.1,0-1,0.4-1.2,1.2c-0.1,0.2,0,0.2,0,1.2
	c0,0.4,0,0.8,0,1.2c0,0.4,0,0.8,0,1.2c0,0.8,0,1.2,0,1.2c0,1,0.1,1.1,0,1.2c-0.3,0.2-1.2-0.5-2.5-1.2C32.7,39.2,32.4,39,32,39
	c-0.5,0-0.8,0.2-1.2,0c-0.4-0.1-0.8-0.5-1.2-1.2C28.6,36.1,28.4,32.6,28.3,31.8z"/>
<path class="st4" d="M43.1,35.4c-0.1-0.8-0.2-1,0-1.2c0.3-0.3,1.1,0,1.2,0c0.1,0,1,0.4,1.2,1.2c0.1,0.2,0,0.2,0,1.2
	c0,0.4,0,0.8,0,1.2c0,0.4,0,0.8,0,1.2c0,2-0.2,2.3,0,2.5c0.3,0.3,0.9-0.1,3.7-1.2c1.1-0.4,1.7-0.7,2.5-1.2c0.7-0.5,1.1-1,1.2-1.2
	c0.3-0.4,0.6-0.8,1.2-2.5c0.8-1.9,0.9-3.5,1.2-3.6c0.4-0.1,1.1,1.7,1.2,2.3c0.5,2-2.9,4.2-2.5,4.9c0.1,0.2,0.4,0,2.5,0
	c0.4,0,0.8,0,1.2,0s0.8,0,1.2,0c0.3,0.8,0.1,1.1,0,1.2c-0.2,0.2-0.4,0-1.2,0c-0.6,0-0.6,0-1.2,0c-0.9,0-1.1-0.2-1.2,0
	c-0.3,0.2-0.2,0.8,0,1.2c0.1,0.3,0.5,0.6,1.2,1.2c0.9,0.8,1.1,0.9,1.2,1.2c0.2,0.6,0,1.1,0,1.2c-0.2,0.6-0.7,1.3-1.2,1.2
	c-0.3,0-0.4-0.3-1.2-1.2c0,0,0,0-1.2-1.2c-0.4-0.4-0.8-0.8-1.2-1.2c-0.7-0.7-0.8-1.1-1.2-1.2c-0.4-0.2-0.8-0.1-1.2,0
	c-1.2,0.2-2,0.8-2.5,1.2c-0.3,0.3-0.8,0.6-1.2,1.2c-1,1.4-1.2,3-1.2,3.7c0,0,0,0,0,1.2c0,0,0,1.2,0,1.2c0,3.6,0.7,5.7,0,6.1
	c-0.1,0-0.1,0-1.2,0c-0.5,0-0.9,0-1.2,0c0-0.4,0-0.8,0-1.2c0-6.1,0-12.3,0-18.4C43.1,36.2,43.1,35.8,43.1,35.4z"/>
<path class="st4" d="M50.4,47.6c0.2-0.3,0.5-0.4,1.2-1.2c0.8-0.9,1-1.3,1.2-1.2c0.4,0.1,0.3,1,1.2,2.5c0.6,1,1.1,1.2,1.2,1.2
	c0.2,0.1,0.2,0,1.2,0c0.1,0,0.6,0,1.2,0c1.1,0,1.1,0.1,1.2,0c0.5-0.2,0.5-1.6,1.2-2.3c0.7-0.7,1-0.7,1.2-1.2c0-0.1,0.2-0.7,0-1.2
	c-0.3-0.7-0.9-0.6-1.2-1.2c-0.2-0.4-0.2-0.9,0-1.2c0.3-0.7,0.9-0.6,1.2-1.2c0.1-0.3,0-0.4,0-1.2c-0.1-1.6,0.3-1.8,0-2.5
	c-0.1-0.1-0.5-0.5-1.2-1.2c-0.8-0.7-1.2,0-1.2-0.1c-0.4-0.9,0.4-2.6,0-3.6c-0.2-0.4-0.5-0.7-1.2-1.2c-0.5-0.4-1.3-1-2.3-1.2
	c-1-0.2-2,0.3-2.5,1.2c0,0,0,0,0,0c-1,1.8-0.4,4.3-1.2,4.8c-0.5,0.3-1.1,0-1.2,0c-0.5-0.2-0.7-0.6-1.2-1.2c-0.7-0.8-0.9-1.9-1.2-2.3
	c-0.9-1.3-0.1-3.4,0-3.7c1.1-2.6,4.2-3.5,4.9-3.7c5-1.4,9.5,2.2,9.8,2.5c4.2,3.5,4.6,8.8,4.9,12.3c0.4,4.8-0.9,7.8-1.2,8.6
	c-0.7,1.6-1.5,3.6-3.7,4.9C60.5,54,58.3,55,56.5,55c-2.2-0.1-3.7-0.1-4.9-1.2C49.8,52.1,49.4,48.9,50.4,47.6z"/>
</svg>
