<svg xmlns="http://www.w3.org/2000/svg" viewBox="0 0 62.5 62.5"><defs><style>.cls-1{fill:none;stroke:#185ba9;stroke-miterlimit:10;stroke-width:3px;}.cls-2{fill:#005bad;}</style></defs><title>neonatologia</title><g id="Capa_2" data-name="Capa 2"><g id="Capa_1-2" data-name="Capa 1"><g id="Capa_2-2" data-name="Capa 2"><g id="Capa_1-2-2" data-name="Capa 1-2"><path class="cls-1" d="M31.25,1.5A29.75,29.75,0,1,0,61,31.25,29.75,29.75,0,0,0,31.25,1.5Z"/></g></g><path class="cls-2" d="M53,19.06V23a36.19,36.19,0,0,1-1.4,3.73,11.65,11.65,0,0,0-1.16,6.17,11.26,11.26,0,0,1-3.5,8.94,37.09,37.09,0,0,1-18,10.07,22.31,22.31,0,0,0-3.3.79H21.45c-.14-.25-.4-.18-.61-.23a10.54,10.54,0,0,1-6.5-4,10.28,10.28,0,0,1,.2-12c.64-.91,1.39-1.74,2.11-2.59.42-.49.34-.72-.32-.78-1-.11-2.08-.26-3.13-.36-.57-.06-1-.42-1-.88s.62-.66,1.15-.61a34.17,34.17,0,0,1,3.91.46,2.46,2.46,0,0,0,2.5-.79,12.94,12.94,0,0,1,1.48-1.28c.38-.3.85-.51,1.25-.12s.21.78,0,1.19A16.5,16.5,0,0,1,21,33.3a23.09,23.09,0,0,0-4,8.8,6.18,6.18,0,0,0,5.2,7.59,22.9,22.9,0,0,0,8.13-.09c3.31-.64,6.22-2.26,9.13-3.83a12.86,12.86,0,0,0,5.31-5.13,6.54,6.54,0,0,0-.33-7.24,3.49,3.49,0,0,0-2.78-1.58,29.08,29.08,0,0,0-9.82,1.24,1.72,1.72,0,0,1-.86.14c-.41-.12-.92-.15-.95-.7s.39-.63.76-.79A5.66,5.66,0,0,0,32.51,31l-.59-.48-.56-.41A1.66,1.66,0,0,1,30.67,29c-.11-1-.51-1.17-1.31-.52a5.47,5.47,0,0,0-2.18,3.93c-.14,2.07.32,2.64,2.32,3.22a28.93,28.93,0,0,0,8.17,1.13,7.69,7.69,0,0,1,1.66.11.92.92,0,0,1,.85.94c0,.62-.55.68-1,.68a36.11,36.11,0,0,1-9.37-1c-1.44-.41-1.53-.36-2.18,1C26.79,40.2,26,42,25.13,43.69c-.23.47-.58.74-1.11.52s-.49-.71-.34-1.17a5.75,5.75,0,0,1,.29-.62c.77-1.63,1.52-3.27,2.32-4.88a1.93,1.93,0,0,0-.12-2.19A4.15,4.15,0,0,1,25.56,32a10.48,10.48,0,0,1,1.73-3.61,1.34,1.34,0,0,0-.2-1.92,4.57,4.57,0,0,0-3.81-1.2,17.71,17.71,0,0,0-6.66,2c-.65.31-1.51.85-1.91.12s.42-1.28,1.12-1.57c.54-.22.46-.52.2-.91a1.5,1.5,0,0,0-2.67-.1,21.09,21.09,0,0,0-2.7,4.55,1.86,1.86,0,0,1-2,1.35V29.28c.33-.18.32-.54.43-.83a12.83,12.83,0,0,1,3.25-5c1.67-1.57,3.5-1.49,4.93.29a1.63,1.63,0,0,0,2.12.63c2.64-1,5.27-1.24,7.89.14.42.22,1,.59,1.45.08a1.85,1.85,0,0,0,.5-1.89,7.75,7.75,0,0,1-.4-3.28A12,12,0,0,1,37.35,9.1c.48-.15,1-.11,1.45-.47h4c.17.32.52.24.78.3a12.19,12.19,0,0,1,8.7,7.75C52.54,17.45,52.74,18.26,53,19.06ZM41.7,10.53a1.89,1.89,0,0,0-1.51-.3,11.7,11.7,0,0,0-3.8,1c-4.32,2-6.9,6.94-5.63,11a3.44,3.44,0,0,1-.4,3.07c-.4.64-.29.84.44.88s1.56.31,1.48,1.31c-.13,1.7,1.18,2.26,2.28,3a.53.53,0,0,0,.83-.15,4.89,4.89,0,0,1-2-3.26,3.37,3.37,0,0,0-.36-1,1.35,1.35,0,0,1,.09-1.63A12.5,12.5,0,0,0,34.89,19a9,9,0,0,1,5.81-8Z"/></g></g></svg>