<svg id="Layer_1" data-name="Layer 1" xmlns="http://www.w3.org/2000/svg" viewBox="0 0 80 80"><defs><style>.cls-1{fill:#185ba9;}</style></defs><title>Icono Pstelemed</title><path class="cls-1" d="M40,80A40,40,0,1,1,80,40,40,40,0,0,1,40,80ZM40,4A36,36,0,1,0,76,40,36,36,0,0,0,40,4Z"/><path class="cls-1" d="M32.76,32.22a1.29,1.29,0,0,0,2.12.86c1.6-1.37,3.64-3.09,3.64-3.09A1.93,1.93,0,0,1,41,30l3.63,3.09a1.3,1.3,0,0,0,2.13-.86h0a2.38,2.38,0,0,0-.7-1.91l-3.69-3.62a2.37,2.37,0,0,1-.71-1.7l.18-16.27v0a2,2,0,0,0-2-2h-.2a2,2,0,0,0-2,2L37.85,25a2.33,2.33,0,0,1-.71,1.7l-3.69,3.62a2.34,2.34,0,0,0-.69,1.91Z"/><path class="cls-1" d="M19.61,64a3.34,3.34,0,0,1-2.43-1.49A12.34,12.34,0,0,1,15,57.4a51.67,51.67,0,0,1-1.18-11.18A33,33,0,0,1,24.27,21.08c3.48-3.18,6.52-4.44,8-4.28,4.26.47,3.47,8.14,3.43,8.47A1.46,1.46,0,1,1,32.79,25c.29-2.62-.31-5.18-.84-5.24-.34,0-2.53.63-5.7,3.54a30,30,0,0,0-9.51,22.91,49.56,49.56,0,0,0,1.09,10.55,10.06,10.06,0,0,0,1.61,3.95l.17.2.17-.14c.87-.69,1.79-1.36,2.72-2a36.22,36.22,0,0,1,8.32-4.46c2-.72,2.38-1.92,2.48-2.77A10.38,10.38,0,0,0,33,48.36c-.13-.71-.27-1.43-.34-2.16a24.79,24.79,0,0,1,0-4.7,7.58,7.58,0,0,1,1.28-4.06,1.47,1.47,0,1,1,2.29,1.83,5.69,5.69,0,0,0-.66,2.52,22.34,22.34,0,0,0,0,4.14,17.6,17.6,0,0,0,.3,1.87,13,13,0,0,1,.34,4.05A6.09,6.09,0,0,1,31.81,57a33.39,33.39,0,0,0-7.65,4.11c-.88.61-1.75,1.25-2.57,1.89l-.15.13a2.71,2.71,0,0,1-1.76.85Z"/><path class="cls-1" d="M60,64a3.34,3.34,0,0,0,2.43-1.49A12.34,12.34,0,0,0,64.6,57.4a52.3,52.3,0,0,0,1.18-11.18A33,33,0,0,0,55.32,21.08c-3.48-3.18-6.52-4.44-8-4.28-4.26.47-3.47,8.14-3.43,8.47A1.46,1.46,0,1,0,46.8,25c-.29-2.62.31-5.18.84-5.24.34,0,2.53.63,5.7,3.54a30,30,0,0,1,9.51,22.91,49.58,49.58,0,0,1-1.1,10.55,10,10,0,0,1-1.6,3.95l-.17.2-.17-.14c-.87-.69-1.79-1.36-2.72-2a36.42,36.42,0,0,0-8.32-4.46,3.22,3.22,0,0,1-2.49-2.77,11.06,11.06,0,0,1,.31-3.13c.14-.71.28-1.43.35-2.16a24.79,24.79,0,0,0,0-4.7,7.58,7.58,0,0,0-1.28-4.06,1.47,1.47,0,0,0-2.29,1.83,5.69,5.69,0,0,1,.66,2.52,22.34,22.34,0,0,1,0,4.14c-.06.59-.18,1.21-.3,1.87a13,13,0,0,0-.34,4.05A6.09,6.09,0,0,0,47.78,57a33.39,33.39,0,0,1,7.65,4.11c.88.61,1.74,1.25,2.57,1.89l.15.13a2.71,2.71,0,0,0,1.76.85Z"/></svg>