<svg xmlns="http://www.w3.org/2000/svg" viewBox="0 0 63.5 63.63"><defs><style>.cls-1,.cls-3,.cls-4,.cls-5{fill:none;}.cls-1,.cls-3,.cls-4,.cls-5,.cls-6{stroke:#185ba9;stroke-miterlimit:10;}.cls-1{stroke-width:4px;}.cls-2,.cls-6{fill:#185ba9;}.cls-3{stroke-width:2px;}.cls-5,.cls-6{stroke-width:0.75px;}</style></defs><title>Neurocirugia</title><g id="Capa_2" data-name="Capa 2"><g id="Capa_1-2" data-name="Capa 1"><path class="cls-1" d="M31.75,2A29.75,29.75,0,1,0,61.5,31.75,29.75,29.75,0,0,0,31.75,2Z"/><path class="cls-2" d="M15.27,7.63l-.08-.17A1.5,1.5,0,1,0,12.6,9l.08.16a1.5,1.5,0,1,0,2.59-1.51Z"/><path class="cls-2" d="M33.94,63.63a1.5,1.5,0,0,0,0-3,1.5,1.5,0,0,0,0,3Z"/><path class="cls-2" d="M34.5,62.69a1.5,1.5,0,0,0,0-3,1.5,1.5,0,0,0,0,3Z"/><polyline class="cls-3" points="9.5 40.5 15.5 40.5 18.5 36.5 19.5 45.5 24.5 30.5 25.5 52.5 27.5 40.5 39.5 40.5"/><path class="cls-4" d="M11,40l2-11,3.5.5a16.64,16.64,0,0,1-1,4A17.09,17.09,0,0,1,11,40Z"/><path class="cls-5" d="M15.69,28.93l.36-2h-2l-.36,2"/><polygon class="cls-6" points="12.77 26.88 17.18 26.96 18.63 17.85 14.22 17.76 12.77 26.88"/><path class="cls-3" d="M39.5,39.09c-.2-1.49-.72-3.36-2.22-4-1.68-.7-3.13.75-4.45,0-1.56-.89-.33-3.37-2.22-6-.91-1.26-2-1.07-2.23-2-.27-1.28,1.46-2,2.23-4,.68-1.77-.41-2.44,0-4,.52-2,2.63-3.05,4.44-4,2.54-1.32,6.54-3.39,11.12-2,2.69.82,5.92,2.94,6.67,6,.63,2.59-.7,5.1-2.22,8-1.31,2.48-2,2.68-2.23,4-.34,1.76.29,4.35,4.45,8"/><path class="cls-3" d="M38.37,17.13c-.8.25-.87.79-2,2-1.35,1.43-2.06,1.53-2,2,.11.83,2.27.34,4,2l0,0c1.39,1.35,1.49,1.71,2,2a2.51,2.51,0,0,0,2,0c.82-.31.81-.8,2-2s1.68-1.18,2-2a2.93,2.93,0,0,0,0-2,3.11,3.11,0,0,0-2-2c-.31-.09-.29,0-2,0-.13,0-1,0-2,0C38.64,17.1,38.65,17,38.37,17.13Z"/><path class="cls-3" d="M45,23a10.09,10.09,0,0,1-.64,6.11c-.83,1.75-1.92,2.45-2,4a5.52,5.52,0,0,0,2,4"/><path class="cls-3" d="M38.37,23.12a3.36,3.36,0,0,1,2-2,3.24,3.24,0,0,1,2,0h0"/></g></g></svg>