<svg xmlns="http://www.w3.org/2000/svg" viewBox="0 0 63.5 63.5"><defs><style>.cls-1{fill:none;stroke:#185ba9;stroke-miterlimit:10;stroke-width:4px;}.cls-2{fill:#185ba9;}</style></defs><title>Neurosirugia</title><g id="Capa_2" data-name="Capa 2"><g id="Capa_1-2" data-name="Capa 1"><circle class="cls-1" cx="31.75" cy="31.75" r="29.75"/><path class="cls-2" d="M13.6,23c5.49-6.36,15.16-7.89,23-6.15a18.21,18.21,0,0,1,10.2,6.41,18.69,18.69,0,0,1,2.7,5.55c.74,2.18,1.86,9.84-2.67,9.52a1.51,1.51,0,0,0-1.45,1.1c-.67,3-4.2,4.18-6.79,2.8-2.26-1.2-3.24-3.87-5.24-5.12-2.42-1.51-12.29.9-11.18-4.45.2-1-.7-2.3-1.85-1.84-3.55,1.41-9.56-.35-8.87-5.25.22-1.6,1.9-2.33,2.88-3.4,1.31-1.41-.81-3.54-2.12-2.12s-3,1.94-3.61,3.84c-.57,1.74.15,4.38,1,6,2.26,4.35,7.22,5.59,11.55,3.86l-1.84-1.85c-.67,3.21.94,5.35,3.87,6.69a12.61,12.61,0,0,0,4.25,1c3.42.29,4.51,1,6.87,3.14,4.81,4.43,12.36,5,14-2.44l-1.44,1.1c4.84.34,6.77-5.56,6.44-9.6-.49-5.93-3.87-10.91-8.48-14.34-9.37-7-25.63-5.43-33.32,3.49-1.26,1.45.85,3.58,2.12,2.12Z"/><path class="cls-2" d="M29.4,38a5,5,0,0,0-.59,5.74,17,17,0,0,0,2.31,3,11.78,11.78,0,0,1,2.68,6.23A1.5,1.5,0,0,0,35.25,54a9,9,0,0,1,4.88.67,1.53,1.53,0,0,0,2.26-1.3,6.62,6.62,0,0,0-.85-3.9,31.82,31.82,0,0,1-2.19-6c-.45-1.88-3.34-1.08-2.89.8a27.79,27.79,0,0,0,1.32,4.18c.65,1.59,1.84,3.13,1.61,4.91l2.26-1.29A11.77,11.77,0,0,0,35.25,51l1.44,1.1a13.65,13.65,0,0,0-2.09-5.82c-1-1.51-4.7-4.27-3.08-6.21,1.23-1.47-.88-3.61-2.12-2.12Z"/><path class="cls-2" d="M10.72,24.71A4.38,4.38,0,0,0,13,26.25a5.14,5.14,0,0,0,1.24.07,3.92,3.92,0,0,0,.69,0c.22,0,.27.18.07-.1a1.54,1.54,0,0,0,2.05.54,1.52,1.52,0,0,0,.54-2.06,3.19,3.19,0,0,0-2.53-1.38c-.41,0-.84.09-1.25,0s-.67-.4-1-.74c-1.28-1.45-3.39.67-2.12,2.12Z"/><path class="cls-2" d="M15.8,20.75A5.31,5.31,0,0,0,18,22.8a5,5,0,0,0,1.4.46c.51.08,1,0,1.53.11,1.89.41,2.69-2.48.8-2.89-1.28-.27-2.57.05-3.37-1.24-1-1.64-3.62-.13-2.59,1.51Z"/><path class="cls-2" d="M24.58,16.33a11.48,11.48,0,0,1-.11,2.27,1.56,1.56,0,0,0,1.05,1.85,1.53,1.53,0,0,0,1.85-1.05,15.75,15.75,0,0,0,.21-3.07,1.5,1.5,0,0,0-3,0Z"/><path class="cls-2" d="M32.22,15.16c-1.72-.46-2.69,1.1-2.51,2.62a2.83,2.83,0,0,0,.83,1.88,2.74,2.74,0,0,0,1,.6l.25.11c.32-.94.27-1.27-.14-1a1.56,1.56,0,0,0-1.05,1.85,1.52,1.52,0,0,0,1.85,1.05c1.3-.54,2.55-1.58,2-3.16a2.53,2.53,0,0,0-1.36-1.42,2.65,2.65,0,0,0-.6-.27q.22.36.15.12c0-.29,0-.32,0-.08L32.1,18h-.84l.17,0a1.5,1.5,0,0,0,.79-2.89Z"/><path class="cls-2" d="M38.94,16.23c-1.21-.06-2,1.33-2.63,2.15a1.53,1.53,0,0,0,0,2.12,1.51,1.51,0,0,0,2.12,0l.7-.86.36-.43c.07-.09.43-.38.11-.19l-.76.2h.1a1.5,1.5,0,0,0,0-3Z"/><path class="cls-2" d="M43,20.4a4.72,4.72,0,0,1-1.58,1.4c-.16.06-.17.09,0,.11a4.09,4.09,0,0,1-.49-.18,2.74,2.74,0,0,0-1.13-.15l.4,2.94a1.51,1.51,0,0,1,.62-.17l-1.06-.44A5.52,5.52,0,0,1,40.26,25l.2-.76-.09.19c-.85,1.73,1.74,3.25,2.59,1.52.59-1.19,0-2.24-.57-3.32a2.13,2.13,0,0,0-3-1,1.53,1.53,0,0,0-1.07,1.65,1.49,1.49,0,0,0,1.47,1.3c.45,0,1,.31,1.47.33a3,3,0,0,0,1.7-.52,9.26,9.26,0,0,0,2.66-2.48c1.12-1.58-1.48-3.08-2.59-1.51Z"/><path class="cls-2" d="M48,25.86a10.33,10.33,0,0,0-2.4,1.42,2.79,2.79,0,0,0-.7,2.85,1.5,1.5,0,1,0,2.9-.8l0-.13c0,.14,0,.15,0,0s0,.07,0,.09-.15.18-.15.17.3-.18.33-.2c.52-.29,1.06-.56,1.59-.85A1.5,1.5,0,0,0,48,25.86Z"/><path class="cls-2" d="M48.73,32.12a4.31,4.31,0,0,1-2.55,1.58c-1.88.44-1.08,3.33.8,2.9a7.43,7.43,0,0,0,4.34-3,1.5,1.5,0,1,0-2.59-1.51Z"/><path class="cls-2" d="M47,38.54c-2.14-1.65-4.17-2.65-6.91-2.19-1.83.3-3.23.74-5.07.12a5.09,5.09,0,0,0-2.88-.4c-1.9.29-1.1,3.18.8,2.9.76-.12,2,.78,2.8.92a7.45,7.45,0,0,0,2.31,0,27.37,27.37,0,0,1,3.32-.64c1.7,0,2.87,1,4.12,1.93,1.52,1.18,3-1.42,1.51-2.59Z"/><path class="cls-2" d="M34.5,38.84a3.84,3.84,0,0,0,2.84-1.7,5.58,5.58,0,0,0,1.54-2.82,1.54,1.54,0,0,0-1.05-1.85A1.52,1.52,0,0,0,36,33.52a2.57,2.57,0,0,1-.63,1.34c-.18.22-.38.42-.58.62a3.32,3.32,0,0,0-.38.37c-.13.17-.17,0,.1,0-1.93-.07-1.93,2.93,0,3Z"/><path class="cls-2" d="M38.27,28.16c-.68,1.74-.57,3,.92,4.18.68.53,1.52.74,1.42,1.67a14.93,14.93,0,0,1-1,2.87c-.63,1.83,2.27,2.61,2.9.8.54-1.56,1.51-3.44,1.07-5.12A2.84,2.84,0,0,0,42.54,31c-.31-.25-.68-.42-1-.65-.78-.53-.71-.51-.37-1.39.7-1.8-2.2-2.58-2.89-.8Z"/><path class="cls-2" d="M25.38,37.37c.49-.42,1-.87,1.48-1.28a2,2,0,0,1,1.26-.46c1.81-.21,1.56-2,1.4-3.31a1.54,1.54,0,0,0-1.5-1.5,1.52,1.52,0,0,0-1.5,1.5l.1.81c0,.06.06.69.1.47l.38-.66-.1.12.67-.39c.28-.07-.34,0-.35,0a3.78,3.78,0,0,0-.67.13,4.39,4.39,0,0,0-1.22.62c-.76.55-1.46,1.21-2.17,1.83-1.46,1.27.67,3.38,2.12,2.12Z"/><path class="cls-2" d="M28,36a4.39,4.39,0,0,0,2.91-.45A1.5,1.5,0,0,0,29.42,33c-.17.08-.2.1-.09.05a1.92,1.92,0,0,1-.32.09c.27,0-.47,0-.19,0A1.55,1.55,0,0,0,27,34.17,1.51,1.51,0,0,0,28,36Z"/><path class="cls-2" d="M22.16,33.3c3-3.69,8.32-4.22,12.64-3.12,1.87.48,2.67-2.41.79-2.89C30.33,26,23.66,26.68,20,31.18c-1.19,1.49.91,3.63,2.12,2.12Z"/><path class="cls-2" d="M34.18,22.85c-.43.56-1,1-1.47,1.52A3.67,3.67,0,0,0,32,26.83a1.5,1.5,0,1,0,3,0c0-.44,0-.53.25-.81A10.51,10.51,0,0,0,36.3,25a1.54,1.54,0,0,0,0-2.12,1.51,1.51,0,0,0-2.12,0Z"/><path class="cls-2" d="M26.46,23.75C26,25.29,26,27.27,27.65,28.1a1.53,1.53,0,0,0,2.05-.54,1.51,1.51,0,0,0-.54-2c-.32-.16,0,0,0,.06s0,.11,0-.06c0,.13,0,.13,0,0a2.83,2.83,0,0,1,.21-1,1.5,1.5,0,0,0-2.9-.8Z"/><path class="cls-2" d="M21.59,25.81a11.83,11.83,0,0,0,1.31,3.06,1.5,1.5,0,0,0,2.59-1.51,8.74,8.74,0,0,1-1-2.35,1.5,1.5,0,1,0-2.89.8Z"/><path class="cls-2" d="M16.14,28.42a6,6,0,0,1-1,2.46,1.48,1.48,0,0,0,.11,1.66,1.54,1.54,0,0,0,1.58.54l.24,0a1.5,1.5,0,0,0,1-1.84,1.53,1.53,0,0,0-1.84-1.05l-.24,0,1.7,2.2A8.27,8.27,0,0,0,19,29.22,1.55,1.55,0,0,0,18,27.37a1.52,1.52,0,0,0-1.85,1.05Z"/></g></g></svg>