<svg id="Layer_1" data-name="Layer 1" xmlns="http://www.w3.org/2000/svg" viewBox="0 0 80 80"><defs><style>.cls-1{fill:#185ba9;}</style></defs><title>Icono Pstelemed</title><path class="cls-1" d="M40,0A40,40,0,1,0,80,40,40,40,0,0,0,40,0Zm3.2,4.15c-.52-.05-1-.08-1.57-.11C42.16,4.06,42.68,4.1,43.2,4.15ZM4,40A36,36,0,0,1,20.94,9.48C20.14,16.45,23,26,23,26a112,112,0,0,0,4,12c.62,1.62-.05,3.66-.59,5.2a39.36,39.36,0,0,1-2.55,5.66c-.72,1.36-1.81,2.74-2.16,4.25a18.35,18.35,0,0,0,0,8.53,13.93,13.93,0,0,0,1.49,4c.68,1.12,1.51,2.15,2.14,3.3a5.86,5.86,0,0,1,1,3.33c0,.13-.14,1,0,1.08.91.37,1.83.71,2.77,1A36.07,36.07,0,0,1,4,40ZM29.13,74.32c0-1.57.34-3.29-.24-4.79-.77-2-2.28-3.72-3.41-5.52-1.94-3.11-1.92-7.52-.89-11,.6-2,1.63-2.78,2.53-4.63.58-1.21,1.17-2.42,1.76-3.64l.56-2.33a10.48,10.48,0,0,0,.37-4.17l0-.09c-.52-2.76-2.18-5.93-3.27-8.89a52.64,52.64,0,0,1-2.06-7.92l-.41-2.22s-1.59-7.37-.33-11.26A35.7,35.7,0,0,1,38.41,4L51.85,14.71l.08.09s2.13,2.21,1.81,4.68c-.21,1.67-1.49,3.2-3.79,4.56L47.48,25.5l2.68,1A34.21,34.21,0,0,1,53.3,28c.49.25,1,.51,1.46.78A28.5,28.5,0,0,1,64.61,37c2.47,3.52,2.68,7.84,2.21,12A26.25,26.25,0,0,1,57,66.65a15.92,15.92,0,0,0-3.14,3,13.33,13.33,0,0,0-1.4,4.15,36,36,0,0,1-23.29.53Zm26.16-1.74.05-.08a2.43,2.43,0,0,0,.45-.72,8.83,8.83,0,0,1,2.55-2.58,30.19,30.19,0,0,0,9-11.27,30.66,30.66,0,0,0,2.22-7.44,21.71,21.71,0,0,0-1.27-12.62c-1.74-3.77-4.9-6.7-8.24-9.06a40.36,40.36,0,0,0-3.63-2.3c-.28-.16-2.78-1.72-3-1.56a8,8,0,0,0,3-5.12c.46-3.63-2.15-6.52-2.56-6.94L43.2,4.15A36,36,0,0,1,55.29,72.58Z"/></svg>