<svg xmlns="http://www.w3.org/2000/svg" viewBox="0 0 63.5 63.5"><defs><style>.cls-1{fill:none;stroke-width:4px;}.cls-1,.cls-3{stroke:#185ba9;stroke-miterlimit:10;}.cls-2,.cls-3{fill:#185ba9;}</style></defs><title>Odontologia</title><g id="Capa_2" data-name="Capa 2"><g id="Capa_1-2" data-name="Capa 1"><circle class="cls-1" cx="31.75" cy="31.75" r="29.75"/><path class="cls-2" d="M39.49,16.68C33.6,16.42,19.77,6,15.84,15.86a18.47,18.47,0,0,0,.44,13.73,20.46,20.46,0,0,0,1.17,1.89c1.9,3,2.14,3.66,1.8,7.58a12.79,12.79,0,0,0,.59,6.41c.69,1.79,3.59,1,2.89-.79-1.54-4,1.47-9-.75-12.74-2.51-4.24-5.64-7-3.85-12.7,1-3.14,2.12-4.4,5.22-4.13,2.68.23,5.08.38,7.5,1.74,3.07,1.74,5,2.67,8.64,2.83,1.93.09,1.92-2.91,0-3Z"/><path class="cls-2" d="M20.2,46.26a22,22,0,0,0,2.05,3.21c.52.7-1.23-.66.36.49a6.39,6.39,0,0,0,2,1.16,1.54,1.54,0,0,0,2.21-.89A30.4,30.4,0,0,0,29,41.35C29.11,40,29.63,31,34.1,37c.86,1.15.37,4.58.4,5.95C34.54,45,35,53,39,51.73c1.32-.41,2.28-3,3-3.84A8.54,8.54,0,0,0,44.14,43C45,38,43.87,32.76,46,28.22a19.37,19.37,0,0,0,2.25-8.47c0-1.93-3-1.93-3,0-.06,4.49-3.05,7.52-3.56,11.78-.46,3.88.74,8.6-.74,12.36a10.52,10.52,0,0,1-2.72,3.39c-.89.53-.29,3.78-.44-.74-.11-3.27,0-7.18-.83-10.39-.9-3.64-5-7.55-8.39-4C27,33.82,26.3,37.08,26,39.24c-.57,3.62-.62,6.7-2.07,10.19l2.21-.9c-2.58-1.12-2.31-1.83-3.3-3.79-.88-1.72-3.47-.2-2.6,1.52Z"/><path class="cls-2" d="M48.38,20.62c.17-1.9.27-3.53-1-5.08a11.26,11.26,0,0,0-4.84-3.7A12,12,0,0,0,31,14.38c-1.45,1.28.68,3.39,2.12,2.12,4.09-3.61,12.86-2.63,12.25,4.12-.17,1.92,2.83,1.91,3,0Z"/><path class="cls-3" d="M25.5,31.5c-.58-.09-.53-.86-2-4a38.4,38.4,0,0,0-2-4,5.38,5.38,0,0,1-1-2,3.44,3.44,0,0,1,0-2c.54-1.42,2.52-2.06,4-2s2,.92,4,2c.7.37,6.33,3.27,11,2,.54-.15,1.47-.46,2,0s.48,1.21,0,3c-.79,2.95-2.63,7.26-4,7-.31-.06-.54-.37-1-1a9.69,9.69,0,0,1-1-2c-.8-1.41-3.87-2-6-1C26.92,28.67,26.64,31.67,25.5,31.5Z"/></g></g></svg>