<svg id="Capa_1" data-name="Capa 1" xmlns="http://www.w3.org/2000/svg" viewBox="0 0 66 64.13"><defs><style>.cls-1{fill:none;stroke:#185ba9;stroke-miterlimit:10;stroke-width:3px;}.cls-2{fill:#005bad;}</style></defs><title>oftalmologia</title><g id="Capa_2" data-name="Capa 2"><g id="Capa_1-2" data-name="Capa 1-2"><path class="cls-1" d="M33.25,2.5A29.75,29.75,0,1,0,63,32.25,29.75,29.75,0,0,0,33.25,2.5Z"/></g></g><path class="cls-2" d="M57,32.63a44.62,44.62,0,0,1-4.29,4,37.27,37.27,0,0,1-12.52,6.82A24,24,0,0,1,25,43a38.83,38.83,0,0,1-11.79-6.82,40.14,40.14,0,0,1-3.39-3.13,1,1,0,0,1,0-1.64,40.58,40.58,0,0,1,14.3-9.64,24.76,24.76,0,0,1,10.32-1.73,26.66,26.66,0,0,1,9.41,2.35,40.92,40.92,0,0,1,11.06,7.34c.34.31.67.64,1,1A8.54,8.54,0,0,1,57,32ZM33.16,22.25a10,10,0,1,0,10,10A10,10,0,0,0,33.16,22.25Z"/><path class="cls-2" d="M33.11,40.43a8.18,8.18,0,1,1,8.23-8.11A8.21,8.21,0,0,1,33.11,40.43Zm.07-3.86a4.32,4.32,0,1,0-4.33-4.3A4.33,4.33,0,0,0,33.18,36.57Z"/></svg>