<svg xmlns="http://www.w3.org/2000/svg" viewBox="0 0 63.5 63.5"><defs><style>.cls-1,.cls-2{fill:none;stroke:#185ba9;stroke-miterlimit:10;}.cls-1{stroke-width:4px;}.cls-2{stroke-width:3px;}.cls-3{fill:#185ba9;}</style></defs><title>Otorrinolaringologia</title><g id="Capa_2" data-name="Capa 2"><g id="Capa_1-2" data-name="Capa 1"><circle class="cls-1" cx="31.75" cy="31.75" r="29.75"/><path class="cls-2" d="M24.5,10.5a80.32,80.32,0,0,1,0,12c-.36,4.73-.93,6.47-2,8s-1.48,1.26-4,4-3.67,4-4,6a7.52,7.52,0,0,0,1,5,8,8,0,0,0,4,3,14.38,14.38,0,0,0,7,1c7-.57,12.45-5.51,14-7"/><path class="cls-2" d="M22.5,43.5c5.33,4.78,11.53,6.76,16,6a17.78,17.78,0,0,0,7-3,5.83,5.83,0,0,0,2-8c-.39-.71-.59-.7-3-3a38.51,38.51,0,0,1-3-3c-1.15-1.47-1.46-2.93-2-7a81.39,81.39,0,0,1-1-9c-.08-2,0-3.74,0-5"/><path class="cls-3" d="M23.07,41.92l-.09,0,.9.69a2.07,2.07,0,0,0-1.79-1,1.94,1.94,0,0,0-1.89.86,2.31,2.31,0,0,0-.14,2.15,2.33,2.33,0,0,0,2.06.91,1.5,1.5,0,1,0,0-3c-.37,0-.08,0,0,0l.74,1.3q-.06.22,0,0c0-.12,0-.12,0,0l-.89.68c-.28.07.29,0,.37,0l-.76-.2.13.06-.54-.54a2.14,2.14,0,0,0,1.11.9,1.5,1.5,0,0,0,1.85-1.05,1.54,1.54,0,0,0-1.05-1.84Z"/><path class="cls-3" d="M39.92,44.45h.27q-.25,0,0,0a.75.75,0,0,1-.52-.53c.07.24.08.16,0-.23l.39-.66a.72.72,0,0,1,.71-.24,1.5,1.5,0,0,0-.8,2.89,2.4,2.4,0,0,0,2-.33,1.91,1.91,0,0,0,.63-2.1,2.63,2.63,0,0,0-2.69-1.84,1.5,1.5,0,0,0-1.5,1.5,1.54,1.54,0,0,0,1.5,1.5Z"/><path class="cls-3" d="M32.35,48.48c.49-.12.57-.17.23-.14H32.1a2.49,2.49,0,0,1-.56-.08,16.53,16.53,0,0,0-2.33-.2c-1.93-.11-1.92,2.89,0,3l.19,0-.76-.21a3.73,3.73,0,0,0,1.93.5,4.44,4.44,0,0,0,2,.09,1.5,1.5,0,0,0-.8-2.89,3.15,3.15,0,0,1-1.51-.18c-1.88-.4-2.68,2.49-.79,2.89a6.39,6.39,0,0,0,3.1.18l-.8-2.89c.11,0,.1,0,0,0l-.36-.1c-.3-.06-.59-.07-.89-.1a9.7,9.7,0,0,0-1.32-.31v3a10.13,10.13,0,0,1,1.46.07,8,8,0,0,0,1.19.21,3.12,3.12,0,0,0,2.62-.74,1.55,1.55,0,0,0,0-2.12,1.52,1.52,0,0,0-2.13,0Z"/><path class="cls-3" d="M39.75,43.37h-.22a1.5,1.5,0,0,0-.4,2.94,3.39,3.39,0,0,0,2.61-.53,1.56,1.56,0,0,0,.54-2.06,1.5,1.5,0,0,0-2.05-.53l-.26.17h0c-.1,0-.1,0,0,0q-.27,0-.06,0l-.4,2.95h.22a1.5,1.5,0,0,0,1.5-1.5,1.54,1.54,0,0,0-1.5-1.5Z"/><path class="cls-3" d="M38.79,43.42a4,4,0,0,0-1,.47A1.55,1.55,0,0,0,37.21,46a1.51,1.51,0,0,0,2,.53,2.26,2.26,0,0,1,.26-.16c-.13,0-.11,0,.06,0a1.53,1.53,0,0,0,1.05-1.85,1.51,1.51,0,0,0-1.84-1Z"/><path class="cls-3" d="M39.31,43.56h-.06a1.5,1.5,0,0,0,0,3h.06a1.5,1.5,0,0,0,0-3Z"/><path class="cls-3" d="M23.15,43.12a3.42,3.42,0,0,0-.71-.13c-.35-.05.16.06.3.25s.09.27,0,0,0,.13,0-.17a1.51,1.51,0,0,0-.92-1.37A1.49,1.49,0,0,0,20.2,42a2.1,2.1,0,0,0-.1,3,4.16,4.16,0,0,0,2.52,1l-.4-2.95-.33.1c.05,0,0,0-.07,0-.3,0-.13.07.51.23l.38.66c-.32-.76-.53-1.57-1.49-1.74a1.54,1.54,0,0,0-1.85,1.05,1.51,1.51,0,0,0,1.05,1.84l.12,0-.67-.38c-.09-.07-.24-.6-.12-.17,0,.12.09.24.14.36a1.83,1.83,0,0,0,1,1A3.21,3.21,0,0,0,23,46a1.51,1.51,0,0,0,1.07-1.65A1.53,1.53,0,0,0,22.62,43c.21,0-.43-.14-.36-.12s0,0,0,0-.08,0,0,0,.21.32.1.59a.55.55,0,0,1,0,.65l-2.56-1.06a3.46,3.46,0,0,0,.62,2,2.11,2.11,0,0,0,1.05.76,3.21,3.21,0,0,0,.7.13c.3,0-.09,0,.22.06a1.5,1.5,0,0,0,1.84-1,1.54,1.54,0,0,0-1-1.85Z"/><path class="cls-3" d="M23.38,46.19a1.5,1.5,0,0,0,0-3,1.5,1.5,0,0,0,0,3Z"/><path class="cls-3" d="M22.81,46.5a1.5,1.5,0,0,0,0-3,1.5,1.5,0,0,0,0,3Z"/><path class="cls-3" d="M24.13,46.56a1.5,1.5,0,0,0,0-3,1.5,1.5,0,0,0,0,3Z"/><path class="cls-3" d="M21.94,46.06a1.5,1.5,0,0,0,0-3,1.5,1.5,0,0,0,0,3Z"/><path class="cls-3" d="M22.25,46.38a1.5,1.5,0,0,0,0-3,1.5,1.5,0,0,0,0,3Z"/></g></g></svg>