<svg xmlns="http://www.w3.org/2000/svg" viewBox="0 0 62.5 62.5"><defs><style>.cls-1,.cls-3{fill:none;}.cls-1,.cls-2,.cls-3{stroke:#185ba9;stroke-miterlimit:10;}.cls-1{stroke-width:3px;}.cls-2{fill:#185ba9;}.cls-3{stroke-width:2px;}</style></defs><title>Pediatria</title><g id="Capa_2" data-name="Capa 2"><g id="Capa_1-2" data-name="Capa 1"><path class="cls-1" d="M31.25,1.5A29.75,29.75,0,1,0,61,31.25,29.75,29.75,0,0,0,31.25,1.5Z"/><path class="cls-1" d="M26.71,7.48a7,7,0,1,1-7,7,7,7,0,0,1,7-7"/><path class="cls-1" d="M38.78,29.89c-1.53-2.53-3.1-4.8-4.22-6.29-.3-.29-2.33-1.45-2.62-1.74a7.92,7.92,0,0,1-.87.87,8.34,8.34,0,0,1-3.48,1.74H25.84a8.34,8.34,0,0,1-3.48-1.74,7.92,7.92,0,0,1-.87-.87c-.29.29-2.33,1.45-2.62,1.74-3.65,4.84-12,17.82-8.59,21.66a3.34,3.34,0,0,0,2.39,1h18.1"/><path class="cls-1" d="M20.16,28.78a10.42,10.42,0,0,1,1.75-6"/><path class="cls-1" d="M31.86,22.53a9.22,9.22,0,0,1,2.33,6.25,10,10,0,0,1-.06,1.11"/><path class="cls-1" d="M24.73,34.33c0-2.88-1.9-5.22-4.24-5.22s-4.24,2.34-4.24,5.22"/><polyline class="cls-1" points="17.83 38.9 16.25 38.9 16.25 34.33"/><polyline class="cls-1" points="24.73 34.71 24.73 38.9 23.22 38.9"/><line class="cls-1" x1="24.73" y1="34.33" x2="24.73" y2="34.71"/><circle class="cls-2" cx="18.86" cy="38.9" r="1.3"/><circle class="cls-2" cx="22.12" cy="38.9" r="1.3"/><circle class="cls-2" cx="34.19" cy="30.74" r="1.63"/><path class="cls-3" d="M40.43,31.35A3.45,3.45,0,1,1,37,34.79a3.44,3.44,0,0,1,3.44-3.44"/><path class="cls-3" d="M40.86,39.74H40a4,4,0,0,1-1.72-.86,3.49,3.49,0,0,1-.43-.43c-.15.14-1.15.72-1.29.86-1.81,2.39-5.91,8.81-4.25,10.7a1.65,1.65,0,0,0,1.18.49H47.37A1.65,1.65,0,0,0,48.55,50c1.66-1.89-2.44-8.31-4.25-10.7-.14-.14-1.15-.72-1.29-.86a3.49,3.49,0,0,1-.43.43A4,4,0,0,1,40.86,39.74Z"/></g></g></svg>