<svg xmlns="http://www.w3.org/2000/svg" viewBox="0 0 63.5 63.5"><defs><style>.cls-1{fill:none;stroke:#185ba9;stroke-miterlimit:10;stroke-width:4px;}</style></defs><title>Neurologia</title><g id="Capa_2" data-name="Capa 2"><g id="Capa_1-2" data-name="Capa 1"><path class="cls-1" d="M27.83,52.11c-.32-2.35-1.13-5.29-3.49-6.27-2.62-1.09-4.9,1.18-7,0-2.44-1.39-.52-5.28-3.48-9.39-1.43-2-3.19-1.69-3.49-3.13-.42-2,2.28-3.16,3.49-6.27,1.07-2.76-.64-3.83,0-6.26.81-3.1,4.12-4.79,7-6.26,4-2.07,10.25-5.32,17.43-3.14,4.22,1.29,9.29,4.61,10.46,9.4,1,4.05-1.09,8-3.49,12.53-2,3.88-3.09,4.19-3.48,6.26-.53,2.77.45,6.82,7,12.53"/><path class="cls-1" d="M26.05,17.66c-1.25.4-1.35,1.24-3.13,3.13-2.11,2.24-3.23,2.39-3.13,3.13.18,1.3,3.55.54,6.26,3.13l.05.05c2.19,2.11,2.34,2.68,3.08,3.08a4,4,0,0,0,3.14,0c1.28-.49,1.26-1.26,3.13-3.13s2.63-1.84,3.13-3.13a4.7,4.7,0,0,0,0-3.13,4.92,4.92,0,0,0-3.13-3.13c-.48-.14-.45,0-3.13,0-.21,0-1.6,0-3.14,0C26.48,17.62,26.5,17.51,26.05,17.66Z"/><path class="cls-1" d="M32.32,30.18a5.69,5.69,0,0,1,3.13,3.14,5.74,5.74,0,0,1,0,3.13c-.76,3.43-2.76,4.17-3.13,6.26-.25,1.35.16,3.37,3.13,6.26"/><path class="cls-1" d="M26.05,27.05a5.33,5.33,0,0,1,3.13-3.13,5.07,5.07,0,0,1,3.14,0h0"/><circle class="cls-1" cx="31.75" cy="31.75" r="29.75"/></g></g></svg>