<svg id="Capa_1" data-name="Capa 1" xmlns="http://www.w3.org/2000/svg" viewBox="0 0 66 64.13"><defs><style>.cls-1{fill:none;stroke:#185ba9;stroke-miterlimit:10;stroke-width:3px;}.cls-2{fill:#005bad;}</style></defs><title>radiologia</title><g id="Capa_2" data-name="Capa 2"><g id="Capa_1-2" data-name="Capa 1-2"><path class="cls-1" d="M33.25,2.5A29.75,29.75,0,1,0,63,32.25,29.75,29.75,0,0,0,33.25,2.5Z"/></g></g><path class="cls-2" d="M48.1,12.74l.62,0,1.25.53.11.09a5.58,5.58,0,0,1,1.26,1.67,1.19,1.19,0,0,0,.15.58q0,9.93,0,19.87,0,7.08,0,14.17l-.07.48A3.75,3.75,0,0,1,48.72,53l-.5,0H22.6l-4.4,0-.62,0-1.37-.62-.81-.84c-.31-.36-.34-.85-.57-1.25,0,0,0,0,0-.05a.37.37,0,0,0,0-.11l0-.25v-.26c0-.5,0-1,0-1.5q0-16.2,0-32.41a1.18,1.18,0,0,0,.14-.58l.25-.53a5.21,5.21,0,0,1,1.36-1.37l1-.39.62,0,12.31,0H48.1Zm-10.43,1.8H18.83a1.92,1.92,0,0,0-1.57.35.53.53,0,0,0-.33.34,1.64,1.64,0,0,0-.36,1.43v32a2.24,2.24,0,0,0,.36,1.81.07.07,0,0,0,.06.09,1.83,1.83,0,0,0,1.84.59H47.09c.32,0,.63,0,.94,0a1.7,1.7,0,0,0,1.7-1.58c0-.31,0-.62,0-.93v-32A1.71,1.71,0,0,0,49,14.88c-.57-.52-1.26-.32-1.92-.34H37.67Z"/><path class="cls-2" d="M33.77,15.93a1.76,1.76,0,0,1,.28.73c0,.52-.14,1-.78,1.2.68.27.77.82.77,1.49a1,1,0,0,1,1.44-.5,3.64,3.64,0,0,0,1.69.31,9.76,9.76,0,0,0,3.22-.4.94.94,0,0,1,1.26.58c.14.49-.19.95-.82,1.11s-1.36.31-2,.47l-.62,0a10,10,0,0,1-3.26-.4c-.39-.25-.94-.34-.9-1a1.81,1.81,0,0,1-.7.52,1.23,1.23,0,0,1,0,2.25.91.91,0,0,1,.68.59c.55-.78.58-.79,1.55-.56a2.13,2.13,0,0,0,.25,0A12.76,12.76,0,0,0,42,22.27a2.26,2.26,0,0,1,.86-.06,2.65,2.65,0,0,1,.52.63l0,.46-.11.25h0c-.35.43-.93.38-1.37.65h-.24l-2.13.26a19.91,19.91,0,0,1-4.22-.39c-.48-.11-1-.17-1.28-.78a1.09,1.09,0,0,1-.91,1.13c.81.19.89.73.9,1.29a1.22,1.22,0,0,1-.72.93c.72.35.84.78.55,1.81l-.56.35c.69.4.83.78.61,1.65-.09.28-.38.37-.61.55.73.4.85.83.57,1.81l-.65.42c.33,0,.44.2.63.3h0c.3.94.19,1.37-.46,1.81A1.39,1.39,0,0,1,34,37a.61.61,0,0,0,.47-.11l.23,0c.13,0,.29.06.38-.11l.25,0a32,32,0,0,0,4.27-1.24A4.86,4.86,0,0,1,42,36c0,.08.07.15.17.15l.86.77.49.73.5,1.64a8.54,8.54,0,0,1,0,1.89,4,4,0,0,1-2.18,2.64,30.16,30.16,0,0,1-3.22.9,1.73,1.73,0,0,0-1.07.7,2.21,2.21,0,0,0-.63,1.11,5.24,5.24,0,0,1-2.39,2.61l-.74.32A4.22,4.22,0,0,1,32,49.28a5,5,0,0,1-2.7-3,3.17,3.17,0,0,0-.32-.52,1.24,1.24,0,0,0-.65-.7,1.36,1.36,0,0,0-.87-.38c-.74-.2-1.48-.39-2.21-.62a4.14,4.14,0,0,1-2.66-2c-.16-.31-.16-.69-.43-.94a21.4,21.4,0,0,1,.13-2.26c.6-2.24,1.93-3.39,4-3.41A6.91,6.91,0,0,1,28.1,36a15.49,15.49,0,0,0,2.91.8l.38.11.25,0A.44.44,0,0,0,32,37l.25,0,.09,0-.08-.14a1.85,1.85,0,0,1,.19-1.18l.1-.1c.72-.35-.08-.38-.13-.56-.34-1-.2-1.46.55-1.83-1-.63-1-1.49-.08-2.24a1.19,1.19,0,0,1,.1-2.18,1,1,0,0,1-.74-1.09,1,1,0,0,1,.7-1A1.25,1.25,0,0,1,33,24.36c-.58-.05-.68-.49-.81-.93-.57.68-1.39.58-2.09.82L28,24.47H26.37c-.87-.21-1.78-.22-2.64-.49-.5-.15-.89-.41-.84-1s.47-.79,1-.8l.51.12a12.43,12.43,0,0,0,6,.06c.68-.12,1.43-.49,1.87.6a1,1,0,0,1,.74-.7A1.23,1.23,0,0,1,32.93,20a2.29,2.29,0,0,1-.31-.18,4,4,0,0,1-.3-.29c-.23.59-.34.71-.87.93-.3.13-.62.22-.94.33A14,14,0,0,1,28,21l-.6-.09-.31,0h-.26l-1.32-.37c-.66-.18-1-.58-.88-1.07s.61-.77,1.29-.63a8.76,8.76,0,0,0,2.33.4,5.5,5.5,0,0,0,2.69-.35c.55-.23.73-.16,1.31.37,0-.59.11-1.1.74-1.3a1.27,1.27,0,0,1-.65-1.66C32.61,15.7,33.11,15.59,33.77,15.93Zm-1.62,23A12,12,0,0,0,30,38.41l-.24,0c0-.07-.05-.13-.14-.11-.3,0-.54-.3-.86-.14,0-.07-.05-.13-.14-.12L28.4,38a8,8,0,0,0-1.83-.67,1.35,1.35,0,0,0-1.23.17c-1.26.66-1.4,1.83-1.34,3s1,1.65,2,1.94c.78.29,1.61.38,2.41.59a4.74,4.74,0,0,1,2.7,2.84A3.16,3.16,0,0,0,31.82,47a1.6,1.6,0,0,0,2.7-.09,6.38,6.38,0,0,0,1.13-2s.05,0,0-.08a4.55,4.55,0,0,1,3-2c.3-.06.6-.15.9-.22a3.82,3.82,0,0,0,1.89-.75,1.06,1.06,0,0,0,.61-.74.14.14,0,0,0,0-.11c.07,0,.13,0,.12-.14V39.27a1.81,1.81,0,0,0-.73-1.39l-.12-.12c0-.06,0-.14-.14-.11a.2.2,0,0,0-.11,0c0-.06,0-.16-.14-.12h-.11c0-.06,0-.14-.14-.11l-.5,0c-.11-.21-.31-.12-.44-.08-1,.31-1.89.64-2.84,1l-.24,0c-.11,0-.22,0-.26.1a2.12,2.12,0,0,0-.9.16,12.06,12.06,0,0,0-2.37.58H32.9C32.77,38.72,32.41,39,32.15,38.88Z"/><path class="cls-2" d="M45.21,25.69l.5.15c.58.77.39,1.37-.54,1.62s-1.74.41-2.61.61l-.24,0a.81.81,0,0,0-.51.09l-.37,0-2.21.12H38.06c-.06-.16-.2-.11-.32-.13a12,12,0,0,1-2.89-.72c-.87-.38-1-.8-.55-1.6a1.27,1.27,0,0,1,1.08-.07,12,12,0,0,0,6,.61A33.06,33.06,0,0,0,45.21,25.69Z"/><path class="cls-2" d="M26.36,26.6a10.4,10.4,0,0,0,4.28-.75,4.9,4.9,0,0,1,.55-.13.85.85,0,0,1,1,.6.8.8,0,0,1-.5,1,10.76,10.76,0,0,1-2.44.74c-.63.12-1.27.2-1.91.29l-.4,0-.59,0-1.9-.1L24,28.27h-.13l-1-.19-1.27-.36a1.49,1.49,0,0,0-.73-.28,1,1,0,0,1-.5-1.35l.37-.3a1.4,1.4,0,0,1,1.08.09,9.82,9.82,0,0,0,3.43.71A2.64,2.64,0,0,0,26.36,26.6Z"/><path class="cls-2" d="M28.25,30.86a4.06,4.06,0,0,0,2.61-.61.86.86,0,0,1,1.26.23c.3.49.1.87-.3,1.2a5.32,5.32,0,0,1-1.31.7,9.85,9.85,0,0,1-3,.25l-1-.15-2.27-.74L24,31.57c-.25-.39-.41-.77,0-1.18s.79-.33,1.24-.16A8,8,0,0,0,28.25,30.86Z"/><path class="cls-2" d="M28.36,41.61a1.8,1.8,0,0,1-2-.1L26,41.16a2,2,0,0,1-.26-1.74l.62-.76a2.31,2.31,0,0,1,2,.39h0a1.89,1.89,0,0,1,.26,2.35Z"/><path class="cls-2" d="M40.28,41.16l-.73.6a1.72,1.72,0,0,1-1.84-.38h0l-.18-.27h0a1.84,1.84,0,0,1,2-2.5,1.8,1.8,0,0,1,.91.67A1.85,1.85,0,0,1,40.28,41.16Z"/><path class="cls-2" d="M35.77,30.43a3.25,3.25,0,0,0,1.9.43,4.47,4.47,0,0,0,2-.24,4.78,4.78,0,0,0,1.64-.53c.47,0,.93,0,1.15.52s-.07.83-.41,1.12l-.25.13-2.65.74-.37,0-.62,0h-.51l-2-.32-.86-.45a1.06,1.06,0,0,1-.66-1.42,1.42,1.42,0,0,1,.51-.4h.51Z"/></svg>