<svg id="Layer_1" data-name="Layer 1" xmlns="http://www.w3.org/2000/svg" viewBox="0 0 80 80"><defs><style>.cls-1{fill:#185ba9;}.cls-2{fill:none;stroke:#185ba9;stroke-miterlimit:10;stroke-width:2px;}</style></defs><title>Icono Pstelemed</title><path class="cls-1" d="M31.09,47.9c-.85.67-2.24,1.06-4.41-.07a3.52,3.52,0,0,1-1.82-2.42c-.6-2.94-1.19-9.36,4.17-12a6.69,6.69,0,0,1,5.78-.1c1.74.82,3.32,2.34,1.24,4.94-3.47,4.34-3.37,2.36-3.75,7.23A3.37,3.37,0,0,1,31.09,47.9Z"/><path class="cls-2" d="M33.91,42.82s6.09,3.35,2.44,7.91-8.68,5.33-2,12.64"/><path class="cls-1" d="M50.39,47.9c.85.67,2.24,1.06,4.41-.07a3.52,3.52,0,0,0,1.82-2.42c.59-2.91,1.18-9.25-4-11.92a6.73,6.73,0,0,0-6.07-.1c-1.68.83-3.11,2.33-1.09,4.86,3.47,4.34,3.37,2.36,3.74,7.23A3.37,3.37,0,0,0,50.39,47.9Z"/><path class="cls-2" d="M47.57,42.82s-6.09,3.35-2.44,7.91,8.68,5.33,2,12.64"/><path class="cls-1" d="M48.79,61.39c-.3-3.65-8-3.35-8-3.35s-7.75-.3-8,3.35c-.28,3.33,1.07,8.93,6.39,9.9l.82,3a.9.9,0,0,0,.85.65h0a.9.9,0,0,0,.86-.66l.82-3C47.72,70.3,49.07,64.71,48.79,61.39Z"/><path class="cls-1" d="M54.11,12.41a4.71,4.71,0,0,0-9-1.86,11.68,11.68,0,0,0-8.61-.17,4.71,4.71,0,1,0-6.54,6.14,11.44,11.44,0,0,0-1,4.75,11.64,11.64,0,1,0,22.36-4.53A4.72,4.72,0,0,0,54.11,12.41ZM40,22.1h1.71a.51.51,0,0,1,.45.73l-.86,1.7a.5.5,0,0,1-.89,0l-.85-1.7A.5.5,0,0,1,40,22.1Zm-6.19-3.6a2.5,2.5,0,1,1,2.5,2.5A2.5,2.5,0,0,1,33.76,18.5Zm11.91,8.75a5.52,5.52,0,0,1-2.74.92,2.62,2.62,0,0,1-1.27-.31,2.76,2.76,0,0,1-.81-.65,2.39,2.39,0,0,1-.74.6c-1.68.87-3.92-.41-4.17-.56a.83.83,0,0,1-.28-1.14.84.84,0,0,1,1.14-.29c.54.32,1.86.87,2.54.51.46-.24.6-.95.64-1.51h1.66a2.1,2.1,0,0,0,.8,1.57c.49.26,1.33.06,2.37-.56a.83.83,0,0,1,.86,1.42ZM45.35,21a2.5,2.5,0,1,1,2.5-2.5A2.5,2.5,0,0,1,45.35,21Z"/><path class="cls-1" d="M40,80A40,40,0,1,1,80,40,40,40,0,0,1,40,80ZM40,4A36,36,0,1,0,76,40,36,36,0,0,0,40,4Z"/></svg>