<svg id="Layer_1" data-name="Layer 1" xmlns="http://www.w3.org/2000/svg" viewBox="0 0 80 80"><defs><style>.cls-1{fill:#185ba9;}.cls-2{fill:none;stroke:#185ba9;stroke-miterlimit:10;stroke-width:2px;}</style></defs><title>Icono Pstelemed</title><path class="cls-1" d="M26.14,34c-1.24,1-3.28,1.54-6.45-.11A5.13,5.13,0,0,1,17,30.33c-.87-4.3-1.73-13.68,6.1-17.53a9.72,9.72,0,0,1,8.44-.15c2.55,1.2,4.85,3.42,1.81,7.22-5.07,6.33-4.92,3.45-5.47,10.56A4.92,4.92,0,0,1,26.14,34Z"/><path class="cls-2" d="M30.26,26.54s8.9,4.9,3.56,11.57-12.67,7.78-2.89,18.46"/><path class="cls-1" d="M54.34,34c1.24,1,3.28,1.54,6.45-.11a5.13,5.13,0,0,0,2.66-3.53c.86-4.26,1.72-13.51-5.88-17.43a9.86,9.86,0,0,0-8.87-.14c-2.46,1.22-4.55,3.41-1.6,7.11,5.07,6.33,4.93,3.45,5.47,10.56A5,5,0,0,0,54.34,34Z"/><path class="cls-2" d="M50.22,26.54s-8.9,4.9-3.56,11.57,12.68,7.78,2.89,18.46"/><path class="cls-1" d="M52,53.68c-.45-5.34-11.76-4.89-11.76-4.89s-11.32-.45-11.76,4.89c-.41,4.87,1.57,13.06,9.34,14.47L39,72.52a1.27,1.27,0,0,0,1.24,1h0a1.28,1.28,0,0,0,1.25-1l1.2-4.38C50.45,66.7,52.41,58.53,52,53.68Z"/><path class="cls-1" d="M40,80A40,40,0,1,1,80,40,40,40,0,0,1,40,80ZM40,4A36,36,0,1,0,76,40,36,36,0,0,0,40,4Z"/></svg>