<svg xmlns="http://www.w3.org/2000/svg" viewBox="0 0 62.5 62.5"><defs><style>.cls-1{fill:none;stroke:#185ba9;stroke-miterlimit:10;stroke-width:3px;}.cls-2{fill:#185ba9;}</style></defs><title>veterinario</title><g id="Capa_2" data-name="Capa 2"><g id="Capa_1-2" data-name="Capa 1"><g id="Capa_2-2" data-name="Capa 2"><g id="Capa_1-2-2" data-name="Capa 1-2"><path class="cls-1" d="M31.25,1.5A29.75,29.75,0,1,0,61,31.25,29.75,29.75,0,0,0,31.25,1.5Z"/></g></g><path class="cls-2" d="M32.87,10.41c1.22.31,2.43.68,3.66.91a6.32,6.32,0,0,1,4.82,3.3,6.38,6.38,0,0,0,5.23,3.53,12.55,12.55,0,0,1,2.31.63,2.19,2.19,0,0,1,1.66,2.74,7.24,7.24,0,0,1-8,6.71c-3.31-.41-5.21,1.09-6.73,3.65-.26.43-.39,1.34-1.18.84s-.11-1,.17-1.49c1.16-1.83,2.39-3.66,4.71-4.09a9.1,9.1,0,0,1,3.25-.05c3.5.66,6.54-3.18,6.52-6.18,0-.33-.49-.84-.86-1a22.4,22.4,0,0,0-3.24-.86,5.72,5.72,0,0,1-4.39-3,6.44,6.44,0,0,0-6.25-3.7,1.22,1.22,0,0,1-.47-.05c-3.61-1.43-6.25.65-8.9,2.51a1.81,1.81,0,0,0-.43,1.62,14.34,14.34,0,0,0,5.35,7.43,1.32,1.32,0,0,0,2.2-1.21c-.09-1.82-.43-3.63-.46-5.45a10.49,10.49,0,0,1,.61-2.94c0-.15.54-.28.78-.23a.81.81,0,0,1,.26.7c-.9,1.51-.35,3.06-.2,4.6.09,1.05.23,2.1.27,3.16a2.59,2.59,0,0,1-4.26,2.29c-1.46-1.42-2.77-3-4.13-4.52a9.87,9.87,0,0,1-.57-.86c-1,1.32-1.9,2.58-2.86,3.82-.83,1.06-1.7,2.08-2.57,3.11-2.44,2.9-5.76,3.65-9.32,3.74-.26,0-.53-.32-.79-.5.25-.21.48-.56.77-.62,1-.19,2-.23,3-.4a8.55,8.55,0,0,0,5.43-3q2.75-3.47,5.41-7a1.24,1.24,0,0,0,.12-1c-.65-2.13-.4-3.33,1.53-4.4a55.08,55.08,0,0,1,5.79-2.48,6.5,6.5,0,0,1,.62-.22Z"/><path class="cls-2" d="M40.4,44.7c-1.61,0-3.08,0-4.55,0-.77,0-1.12-.2-1.09-1,.05-1.37.05-2.75,0-4.13,0-.82.29-1.06,1.07-1,1.47.05,3,0,4.57,0V34.16c0-1.42,0-1.42,1.45-1.42s2.7,0,4,0c.61,0,.89.23.84.85a6.59,6.59,0,0,0,0,.77c0,1.34.07,2.68.11,4l4,.14a5.14,5.14,0,0,0,.68,0c.67-.05.91.3.91.92,0,1.45,0,2.89,0,4.33,0,.71-.32,1-1,.94-1.22,0-2.44,0-3.65,0-.89-.06-1.1.27-1.06,1.09.07,1.28,0,2.57,0,3.85,0,.61-.21.88-.84.87q-2.31,0-4.62,0c-.68,0-.89-.31-.89-.94C40.41,48,40.4,46.41,40.4,44.7Z"/><path class="cls-2" d="M27.2,27.65a6.31,6.31,0,0,0-3.58,2.5A6.1,6.1,0,0,1,22.5,31.3,6,6,0,0,0,19.92,36c-.1,1.66-.32,2.5-2.64,2.58a25.33,25.33,0,0,0-4.93,1.09c-.46.11-1,.36-1.08-.27,0-.24.36-.77.64-.84,1.82-.45,3.65-.87,5.5-1.17.78-.13,1.23-.25,1.26-1.16A7.18,7.18,0,0,1,22,30.16a3.45,3.45,0,0,0,.69-.78,7.08,7.08,0,0,1,3.9-2.82c1.2-.32,1.57-.14,1.71,1.05.09.78-.23,1.7.08,2.35s1.25.84,1.77,1.38a15.09,15.09,0,0,1,1.33,1.88,12.54,12.54,0,0,0,1,1.36,2.56,2.56,0,0,1-.23,4.09,7.18,7.18,0,0,1-2.54,1c-.77.19-1,.47-.94,1.29.25,2.29.51,4.59.54,6.89a13.76,13.76,0,0,1-.73,3.64c-.06.22-.56.33-.86.49-.08-.3-.32-.66-.23-.88.93-2.27.65-4.61.46-6.94-.1-1.25-.31-2.48-.45-3.72-.11-1.08.15-1.44,1.21-1.73a7.34,7.34,0,0,0,1.66-.42A5.48,5.48,0,0,0,32,36.86c.17-.23-.06-.88-.28-1.23-.47-.76-1.09-1.42-1.56-2.17a4.83,4.83,0,0,0-2.75-2.41c-.68-.19-.57-.67-.52-1.14C27,29.21,27.09,28.52,27.2,27.65Z"/></g></g></svg>