<?xml version="1.0" encoding="utf-8"?>
<!-- Generator: Adobe Illustrator 22.0.0, SVG Export Plug-In . SVG Version: 6.00 Build 0)  -->
<svg version="1.1" id="Capa_1" xmlns="http://www.w3.org/2000/svg" xmlns:xlink="http://www.w3.org/1999/xlink" x="0px" y="0px"
	 viewBox="0 0 80 79" style="enable-background:new 0 0 80 79;" xml:space="preserve">
<style type="text/css">
	.st0{fill:#185BA9;stroke:#FFFFFF;stroke-width:0.6821;stroke-miterlimit:10;}
	.st1{fill:#185BA9;}
</style>
<g>
	<path class="st0" d="M39,16.8L39,16.8c-0.2,0-0.3-0.1-0.3-0.3v-2.7c0-0.2,0.1-0.3,0.3-0.3l0,0c0.2,0,0.3,0.1,0.3,0.3v2.7
		C39.3,16.7,39.2,16.8,39,16.8z"/>
	<path class="st0" d="M37.3,15.1L37.3,15.1c0-0.2,0.1-0.3,0.3-0.3h2.7c0.2,0,0.3,0.1,0.3,0.3l0,0c0,0.2-0.1,0.3-0.3,0.3h-2.7
		C37.4,15.4,37.3,15.3,37.3,15.1z"/>
</g>
<path class="st1" d="M47.9,39.8H29.8c-0.6,0-1.2-0.5-1.2-1.2v-4.4c0-0.6,0.5-1.2,1.2-1.2h18.1c0.6,0,1.2,0.5,1.2,1.2v4.4
	C49.1,39.3,48.5,39.8,47.9,39.8z M30.9,37.5h15.8v-2.1H30.9V37.5z"/>
<g>
	<g>
		<g>
			<path class="st1" d="M38.6,25L38.6,25c-0.4,0-0.6-0.3-0.6-0.6V19c0-0.4,0.3-0.6,0.6-0.6l0,0c0.4,0,0.6,0.3,0.6,0.6v5.4
				C39.2,24.7,38.9,25,38.6,25z"/>
		</g>
		<g>
			<path class="st1" d="M35.3,21.6L35.3,21.6c0-0.4,0.3-0.6,0.6-0.6h5.4c0.4,0,0.6,0.3,0.6,0.6l0,0c0,0.4-0.3,0.6-0.6,0.6h-5.4
				C35.5,22.3,35.3,22,35.3,21.6z"/>
		</g>
	</g>
</g>
<path class="st1" d="M58.2,63.5H19.8c-0.8,0-1.5-0.7-1.5-1.5V21.3c0-0.8,0.7-1.5,1.5-1.5h10.6c0.8,0,1.5,0.7,1.5,1.5
	s-0.7,1.5-1.5,1.5h-9.2v37.9h35.5V22.8h-9.8c-0.8,0-1.5-0.7-1.5-1.5s0.7-1.5,1.5-1.5h11.3c0.8,0,1.5,0.7,1.5,1.5v40.8
	C59.7,62.9,59,63.5,58.2,63.5z"/>
<path class="st1" d="M48.3,63.5H29.4c-0.8,0-1.5-0.7-1.5-1.5V44.5c0-0.8,0.7-1.5,1.5-1.5h18.9c0.8,0,1.5,0.7,1.5,1.5v17.6
	C49.7,62.9,49.1,63.5,48.3,63.5z M30.9,60.6h15.9V45.9H30.9V60.6z"/>
<path class="st1" d="M45.6,29.9h-14c-0.8,0-1.5-0.7-1.5-1.5V14.8c0-0.8,0.7-1.5,1.5-1.5h14c0.8,0,1.5,0.7,1.5,1.5v13.7
	C47,29.3,46.4,29.9,45.6,29.9z M33,27h11.1V16.2H33V27z"/>
</svg>
