<?xml version="1.0" encoding="utf-8"?>
<!-- Generator: Adobe Illustrator 22.0.0, SVG Export Plug-In . SVG Version: 6.00 Build 0)  -->
<svg version="1.1" id="Capa_1" xmlns="http://www.w3.org/2000/svg" xmlns:xlink="http://www.w3.org/1999/xlink" x="0px" y="0px"
	 viewBox="0 0 54.3 62.1" style="enable-background:new 0 0 54.3 62.1;" xml:space="preserve">
<style type="text/css">
	.st0{fill:#FFFFFF;stroke:#FFFFFF;stroke-width:0.6821;stroke-miterlimit:10;}
	.st1{fill:#FFFFFF;}
</style>
<title>calendar-cancel</title>
<g>
	<path class="st0" d="M26.2,9.5L26.2,9.5c-0.2,0-0.3-0.1-0.3-0.3V6.5c0-0.2,0.1-0.3,0.3-0.3l0,0c0.2,0,0.3,0.1,0.3,0.3v2.7
		C26.5,9.4,26.4,9.5,26.2,9.5z"/>
	<path class="st0" d="M24.5,7.8L24.5,7.8c0-0.2,0.1-0.3,0.3-0.3h2.7c0.2,0,0.3,0.1,0.3,0.3l0,0c0,0.2-0.1,0.3-0.3,0.3h-2.7
		C24.6,8.1,24.5,8,24.5,7.8z"/>
</g>
<path class="st1" d="M16.8,17.6h-0.3c-1.3,0-2.4-1.1-2.4-2.4V8.4c0-1.3,1.1-2.4,2.4-2.4h0.3c1.3,0,2.4,1.1,2.4,2.4v6.8
	C19.2,16.5,18.1,17.6,16.8,17.6z"/>
<path class="st1" d="M37.9,17.6h-0.3c-1.3,0-2.4-1.1-2.4-2.4V8.4c0-1.3,1.1-2.4,2.4-2.4h0.3c1.3,0,2.4,1.1,2.4,2.4v6.8
	C40.3,16.5,39.2,17.6,37.9,17.6z"/>
<path class="st1" d="M48.2,56.2h-42c-2.2,0-4-1.8-4-4V15c0-2.2,1.8-4,4-4h42c2.2,0,4,1.8,4,4v37.2C52.2,54.4,50.4,56.2,48.2,56.2z
	 M6.2,14.3c-0.4,0-0.7,0.3-0.7,0.7v37.2c0,0.4,0.3,0.7,0.7,0.7h42c0.4,0,0.7-0.3,0.7-0.7V15c0-0.4-0.3-0.7-0.7-0.7
	C48.2,14.3,6.2,14.3,6.2,14.3z"/>
<path class="st1" d="M49.6,25.1H4.7c-0.9,0-1.7-0.8-1.7-1.7s0.8-1.7,1.7-1.7h44.9c0.9,0,1.7,0.8,1.7,1.7S50.5,25.1,49.6,25.1z"/>
<path class="st1" d="M26,45.6c-0.4,0-0.8-0.1-1.1-0.4l-6-5c-0.7-0.6-0.8-1.7-0.2-2.4c0.6-0.7,1.7-0.8,2.4-0.2l4.6,3.8l7.4-10
	c0.5-0.7,1.6-0.9,2.3-0.4s0.9,1.6,0.4,2.3l-8.5,11.5c-0.3,0.4-0.7,0.6-1.1,0.7C26.1,45.6,26,45.6,26,45.6z"/>
</svg>
