<?xml version="1.0" encoding="utf-8"?>
<!-- Generator: Adobe Illustrator 22.0.0, SVG Export Plug-In . SVG Version: 6.00 Build 0)  -->
<svg version="1.1" id="Capa_1" xmlns="http://www.w3.org/2000/svg" xmlns:xlink="http://www.w3.org/1999/xlink" x="0px" y="0px"
	 viewBox="0 0 54.3 62.1" style="enable-background:new 0 0 54.3 62.1;" xml:space="preserve">
<style type="text/css">
	.st0{fill:#FFFFFF;stroke:#FFFFFF;stroke-width:0.6821;stroke-miterlimit:10;}
	.st1{fill:#FFFFFF;}
</style>
<title>calendar-cancel</title>
<g>
	<path class="st0" d="M26.2,9.4L26.2,9.4c-0.2,0-0.3-0.1-0.3-0.3V6.4c0-0.2,0.1-0.3,0.3-0.3l0,0c0.2,0,0.3,0.1,0.3,0.3v2.7
		C26.5,9.3,26.4,9.4,26.2,9.4z"/>
	<path class="st0" d="M24.5,7.7L24.5,7.7c0-0.2,0.1-0.3,0.3-0.3h2.7c0.2,0,0.3,0.1,0.3,0.3l0,0c0,0.2-0.1,0.3-0.3,0.3h-2.7
		C24.6,8,24.5,7.9,24.5,7.7z"/>
</g>
<g>
	<path class="st1" d="M16.7,17.5L16.7,17.5c-1.4,0-2.5-1.1-2.5-2.5V8.5c0-1.4,1.1-2.5,2.5-2.5l0,0c1.4,0,2.5,1.1,2.5,2.5V15
		C19.2,16.4,18.1,17.5,16.7,17.5z"/>
	<path class="st1" d="M37.7,17.5L37.7,17.5c-1.4,0-2.5-1.1-2.5-2.5V8.5c0-1.4,1.1-2.5,2.5-2.5l0,0c1.4,0,2.5,1.1,2.5,2.5V15
		C40.3,16.4,39.1,17.5,37.7,17.5z"/>
	<path class="st1" d="M48.2,56.1h-42c-2.2,0-4-1.8-4-4V14.9c0-2.2,1.8-4,4-4h42c2.2,0,4,1.8,4,4v37.2C52.2,54.3,50.4,56.1,48.2,56.1
		z M6.2,14.2c-0.4,0-0.7,0.3-0.7,0.7v37.2c0,0.4,0.3,0.7,0.7,0.7h42c0.4,0,0.7-0.3,0.7-0.7V14.9c0-0.4-0.3-0.7-0.7-0.7
		C48.2,14.2,6.2,14.2,6.2,14.2z"/>
	<path class="st1" d="M49.6,25H4.7C3.8,25,3,24.2,3,23.3s0.8-1.7,1.7-1.7h44.9c0.9,0,1.7,0.8,1.7,1.7S50.5,25,49.6,25z"/>
	<path class="st1" d="M22,46c-0.4,0-0.8-0.1-1.1-0.4c-0.7-0.6-0.7-1.7-0.1-2.4L31,32.1c0.6-0.7,1.7-0.7,2.4-0.1
		c0.7,0.6,0.7,1.7,0.1,2.4l-10.2,11C22.9,45.8,22.5,46,22,46z"/>
	<path class="st1" d="M32.7,45.5c-0.4,0-0.8-0.1-1.1-0.4L20.4,34.9c-0.7-0.6-0.7-1.7-0.1-2.4c0.6-0.7,1.7-0.7,2.4-0.1l11.1,10.2
		c0.7,0.6,0.7,1.7,0.1,2.4C33.6,45.3,33.1,45.5,32.7,45.5z"/>
</g>
</svg>
