<?xml version="1.0" encoding="utf-8"?>
<!-- Generator: Adobe Illustrator 22.0.0, SVG Export Plug-In . SVG Version: 6.00 Build 0)  -->
<svg version="1.1" id="Capa_1" xmlns="http://www.w3.org/2000/svg" xmlns:xlink="http://www.w3.org/1999/xlink" x="0px" y="0px"
	 viewBox="0 0 54.3 62.1" style="enable-background:new 0 0 54.3 62.1;" xml:space="preserve">
<style type="text/css">
	.st0{fill:#FFFFFF;stroke:#FFFFFF;stroke-width:0.6821;stroke-miterlimit:10;}
	.st1{fill:#FFFFFF;}
</style>
<title>calendar-cancel</title>
<g>
	<path class="st0" d="M26.6,8.5L26.6,8.5c-0.2,0-0.3-0.1-0.3-0.3V5.5c0-0.2,0.1-0.3,0.3-0.3l0,0c0.2,0,0.3,0.1,0.3,0.3v2.7
		C26.9,8.4,26.8,8.5,26.6,8.5z"/>
	<path class="st0" d="M24.9,6.8L24.9,6.8c0-0.2,0.1-0.3,0.3-0.3h2.7c0.2,0,0.3,0.1,0.3,0.3l0,0c0,0.2-0.1,0.3-0.3,0.3h-2.7
		C25,7.1,24.9,7,24.9,6.8z"/>
</g>
<g>
	<path class="st1" d="M17.1,16.6L17.1,16.6c-1.4,0-2.5-1.1-2.5-2.5V7.6c0-1.4,1.1-2.5,2.5-2.5l0,0c1.4,0,2.5,1.1,2.5,2.5v6.5
		C19.6,15.5,18.5,16.6,17.1,16.6z"/>
	<path class="st1" d="M38.1,16.6L38.1,16.6c-1.4,0-2.5-1.1-2.5-2.5V7.6c0-1.4,1.1-2.5,2.5-2.5l0,0c1.4,0,2.5,1.1,2.5,2.5v6.5
		C40.6,15.5,39.5,16.6,38.1,16.6z"/>
	<path class="st1" d="M48.6,55.2h-42c-2.2,0-4-1.8-4-4V14.1c0-2.2,1.8-4,4-4h42c2.2,0,4,1.8,4,4v37.1C52.6,53.4,50.8,55.2,48.6,55.2
		z M6.6,13.4c-0.4,0-0.7,0.3-0.7,0.7v37.1c0,0.4,0.3,0.7,0.7,0.7h42c0.4,0,0.7-0.3,0.7-0.7V14.1c0-0.4-0.3-0.7-0.7-0.7
		C48.6,13.4,6.6,13.4,6.6,13.4z"/>
	<path class="st1" d="M49.9,24.2H5.1c-0.9,0-1.7-0.7-1.7-1.7s0.7-1.7,1.7-1.7h44.8c0.9,0,1.7,0.7,1.7,1.7S50.9,24.2,49.9,24.2z"/>
	<path class="st1" d="M37,35.9c0,0.1,0,0.2,0,0.3c-0.1,0.1-0.2,0.2-0.4,0.3c-1.4,1.2-2.8,2.4-4.2,3.6c-0.2,0.2-0.3,0.3-0.2,0.6
		c0.4,1.8,0.8,3.6,1.2,5.4c0,0.2,0,0.5-0.1,0.7c-0.2,0.3-0.5,0.1-0.7-0.1c-1.6-1-3.2-1.9-4.8-2.9c-0.2-0.1-0.3-0.1-0.5,0
		c-1.6,1-3.2,1.9-4.8,2.9c-0.2,0.1-0.5,0.3-0.7,0.1c-0.1-0.2-0.2-0.5-0.1-0.7c0.4-1.8,0.8-3.6,1.2-5.4c0.1-0.3,0-0.4-0.2-0.6
		c-1.5-1.3-3-2.7-4.6-4c0-0.1,0-0.2,0-0.3c0.2-0.1,0.4-0.3,0.6-0.3c0.5-0.1,1-0.1,1.5-0.2c1.4-0.1,2.7-0.2,4.1-0.4
		c0.3,0,0.5-0.1,0.6-0.4c0.7-1.7,1.4-3.4,2.2-5.1c0.1-0.2,0.3-0.4,0.5-0.5c0.3-0.1,0.4,0.2,0.6,0.5c0.7,1.6,1.4,3.2,2.1,4.9
		c0.2,0.5,0.5,0.6,1,0.7c1.8,0.1,3.5,0.3,5.3,0.5C36.6,35.6,36.8,35.8,37,35.9z"/>
</g>
</svg>
