<svg xmlns="http://www.w3.org/2000/svg" viewBox="0 0 54.35 62.11"><defs><style>.cls-1{fill:#fff;}</style></defs><title>calendar-check</title><g id="Capa_2" data-name="Capa 2"><g id="Capa_1-2" data-name="Capa 1"><path class="cls-1" d="M52.89,19.41H1.46A1.46,1.46,0,0,1,0,18V13.59A5.83,5.83,0,0,1,5.82,7.76h5.83V1.46A1.45,1.45,0,0,1,13.1,0H18a1.46,1.46,0,0,1,1.46,1.46v6.3H34.94V1.46A1.46,1.46,0,0,1,36.4,0h4.85A1.45,1.45,0,0,1,42.7,1.46v6.3h5.83a5.83,5.83,0,0,1,5.82,5.83V18A1.46,1.46,0,0,1,52.89,19.41ZM1.46,23.29H52.89a1.46,1.46,0,0,1,1.46,1.46V56.29a5.82,5.82,0,0,1-5.82,5.82H5.82A5.82,5.82,0,0,1,0,56.29V24.75A1.46,1.46,0,0,1,1.46,23.29ZM41.89,34.93l-3.42-3.44a1.45,1.45,0,0,0-2.06,0L23.55,44.24,18,38.62a1.45,1.45,0,0,0-2.06,0L12.47,42a1.44,1.44,0,0,0,0,2l10,10.11a1.45,1.45,0,0,0,2.06,0L41.88,37a1.45,1.45,0,0,0,0-2.06Z"/></g></g></svg>