<svg xmlns="http://www.w3.org/2000/svg" viewBox="0 0 54.07 61.97"><defs><style>.cls-1{fill:#fff;}</style></defs><title>calendar-exclamation</title><g id="Capa_2" data-name="Capa 2"><g id="Capa_1-2" data-name="Capa 1"><path class="cls-1" d="M27,23.28H51.75c2,0,2.31.26,2.31,2.34q0,15,0,30c0,4-2.34,6.31-6.35,6.31H6.37C2.35,62,0,59.66,0,55.66q0-15,0-30c0-2.08.26-2.34,2.32-2.34ZM22.58,37h0c.15,2.25.31,4.5.42,6.75.07,1.33.63,2,2,1.88a38.7,38.7,0,0,1,4,0c1.36.08,2-.49,2-1.84.24-4.24.52-8.47.8-12.71.09-1.34-.46-2-1.84-2h-6c-1.36,0-2,.64-1.87,2C22.34,33,22.45,35,22.58,37Zm4.48,20.25a4.89,4.89,0,1,0,0-9.78,4.89,4.89,0,1,0,0,9.78Z"/><path class="cls-1" d="M34.91,7.67c0-2,0-3.85,0-5.72,0-1.36.53-2,1.92-1.95s2.48.05,3.72,0,1.93.62,1.9,2c0,1.87,0,3.74,0,5.81h5.29c4,0,6.32,2.32,6.34,6.32,0,1.24,0,2.47,0,3.71a1.38,1.38,0,0,1-1.51,1.51c-.38,0-.75,0-1.13,0H2.64C.15,19.31,0,19.17,0,16.65c0-1,0-2,0-3.07a5.73,5.73,0,0,1,5.87-5.8c1.83,0,3.65,0,5.75,0,0-1.91,0-3.71,0-5.51,0-2,.28-2.23,2.24-2.25H17c1.92,0,2.19.3,2.2,2.28,0,1.77,0,3.53,0,5.38Z"/></g></g></svg>