<?xml version="1.0" encoding="utf-8"?>
<!-- Generator: Adobe Illustrator 22.0.0, SVG Export Plug-In . SVG Version: 6.00 Build 0)  -->
<svg version="1.1" id="Capa_1" xmlns="http://www.w3.org/2000/svg" xmlns:xlink="http://www.w3.org/1999/xlink" x="0px" y="0px"
	 viewBox="0 0 54.3 62.1" style="enable-background:new 0 0 54.3 62.1;" xml:space="preserve">
<style type="text/css">
	.st0{fill:#FFFFFF;stroke:#FFFFFF;stroke-width:0.6821;stroke-miterlimit:10;}
	.st1{fill:#FFFFFF;}
</style>
<title>calendar-cancel</title>
<g>
	<path class="st0" d="M26.2,8.1L26.2,8.1c-0.2,0-0.3-0.1-0.3-0.3V5.1c0-0.2,0.1-0.3,0.3-0.3l0,0c0.2,0,0.3,0.1,0.3,0.3v2.7
		C26.5,8,26.4,8.1,26.2,8.1z"/>
	<path class="st0" d="M24.5,6.4L24.5,6.4c0-0.2,0.1-0.3,0.3-0.3h2.7c0.2,0,0.3,0.1,0.3,0.3l0,0c0,0.2-0.1,0.3-0.3,0.3h-2.7
		C24.6,6.7,24.5,6.6,24.5,6.4z"/>
</g>
<path class="st1" d="M16.7,16.2L16.7,16.2c-1.4,0-2.5-1.1-2.5-2.5V7.2c0-1.4,1.1-2.5,2.5-2.5l0,0c1.4,0,2.5,1.1,2.5,2.5v6.5
	C19.2,15.1,18.1,16.2,16.7,16.2z"/>
<path class="st1" d="M37.7,16.2L37.7,16.2c-1.4,0-2.5-1.1-2.5-2.5V7.2c0-1.4,1.1-2.5,2.5-2.5l0,0c1.4,0,2.5,1.1,2.5,2.5v6.5
	C40.3,15.1,39.1,16.2,37.7,16.2z"/>
<path class="st1" d="M48.2,54.8h-42c-2.2,0-4-1.8-4-4V13.6c0-2.2,1.8-4,4-4h42c2.2,0,4,1.8,4,4v37.2C52.2,53,50.4,54.8,48.2,54.8z
	 M6.2,12.9c-0.4,0-0.7,0.3-0.7,0.7v37.2c0,0.4,0.3,0.7,0.7,0.7h42c0.4,0,0.7-0.3,0.7-0.7V13.6c0-0.4-0.3-0.7-0.7-0.7
	C48.2,12.9,6.2,12.9,6.2,12.9z"/>
<path class="st1" d="M49.6,23.7H4.7C3.8,23.7,3,22.9,3,22s0.8-1.7,1.7-1.7h44.9c0.9,0,1.7,0.8,1.7,1.7S50.5,23.7,49.6,23.7z"/>
<path class="st1" d="M25.7,41.5l-0.5-12.4c0-1.1,0.8-2.1,2-2.1c1.1,0,2.1,0.8,2.1,2c0,0.1,0,0.1,0,0.2l-0.5,12.4
	c0,0.8-0.8,1.5-1.6,1.5C26.3,43,25.7,42.3,25.7,41.5z"/>
<circle class="st1" cx="27.1" cy="45.9" r="1.6"/>
</svg>
