<svg xmlns="http://www.w3.org/2000/svg" viewBox="0 0 54.32 62.29"><defs><style>.cls-1{fill:#fff;}</style></defs><title>calendar-favorite</title><g id="Capa_2" data-name="Capa 2"><g id="Capa_1-2" data-name="Capa 1"><path class="cls-1" d="M0,23.47H54.31v1.79q0,15.26,0,30.52c0,4.23-2.29,6.51-6.54,6.51H6.54C2.3,62.29,0,60,0,55.78V23.47Zm33.26,31.1c1.6,0,2.19-.63,2-1.88-.24-1.77-.65-3.52-.8-5.29a3.07,3.07,0,0,1,.71-2.07c1.1-1.25,2.42-2.31,3.6-3.51s.83-2.59-.88-2.93-3.63-.54-5.42-.92a2.32,2.32,0,0,1-1.4-1c-.85-1.5-1.49-3.13-2.36-4.62a2.31,2.31,0,0,0-1.55-1.11,2.31,2.31,0,0,0-1.58,1.08c-.84,1.44-1.44,3-2.29,4.46A2.83,2.83,0,0,1,21.71,38c-1.73.41-3.53.53-5.26.93A2.26,2.26,0,0,0,15,40.1a2.08,2.08,0,0,0,.61,1.64c1.17,1.28,2.51,2.4,3.66,3.68a2.67,2.67,0,0,1,.61,1.81c-.18,1.77-.57,3.52-.81,5.29s.88,2.51,2.48,1.8A11.07,11.07,0,0,0,24,53c2.17-1.69,4.21-1.64,6.4,0A18.14,18.14,0,0,0,33.26,54.57Z"/><path class="cls-1" d="M.06,19.32c0-2.21-.15-4.32,0-6.41A5.62,5.62,0,0,1,5.86,7.84c1.88,0,3.75,0,5.83,0,0-1.89,0-3.6,0-5.31S12.32.09,14.12,0c5.13-.15,5.13-.15,5.13,5V7.71H35.07c0-1.73,0-3.44,0-5.14C35.1.66,35.7.07,37.61,0c5-.1,5-.1,5,4.91V7.83h4.86c4.67,0,6.82,2.16,6.82,6.87,0,1.5,0,3,0,4.62Z"/></g></g></svg>