<?xml version="1.0" encoding="utf-8"?>
<!-- Generator: Adobe Illustrator 22.0.0, SVG Export Plug-In . SVG Version: 6.00 Build 0)  -->
<svg version="1.1" id="Capa_1" xmlns="http://www.w3.org/2000/svg" xmlns:xlink="http://www.w3.org/1999/xlink" x="0px" y="0px"
	 viewBox="0 0 66 64.1" style="enable-background:new 0 0 66 64.1;" xml:space="preserve">
<style type="text/css">
	.st0{fill:none;stroke:#005EB6;stroke-width:2;stroke-miterlimit:10;}
	.st1{fill:#486D92;}
	.st2{fill:#476D90;}
	.st3{fill:#FFFFFF;}
	.st4{fill:#005EAE;}
	.st5{fill:none;stroke:#005EAE;stroke-miterlimit:10;}
	.st6{fill:#2FA600;}
	.st7{fill:#B18607;}
	.st8{fill:#6C757D;}
	.st9{fill:#D9D9D9;}
	.st10{fill:#E03545;}
	.st11{fill:#F8F9FA;}
	.st12{fill:#00AAFF;}
	.st13{fill:#FFFFFF;stroke:#B3B3B3;stroke-width:3;stroke-miterlimit:10;}
	.st14{fill:none;stroke:#E45647;stroke-linecap:round;stroke-miterlimit:10;}
	.st15{fill:none;stroke:#CCCCCC;stroke-linecap:round;stroke-miterlimit:10;}
	.st16{fill:#E6E6E6;}
	.st17{fill:none;stroke:#FFFFFF;stroke-width:2;stroke-linecap:round;stroke-miterlimit:10;}
	.st18{fill:none;stroke:#005EAE;stroke-width:3;stroke-miterlimit:10;}
	.st19{fill:#005EB2;}
	.st20{fill:#005EB6;}
	.st21{fill:#8A8A8A;}
	.st22{fill:#185BA9;stroke:#B3B3B3;stroke-width:4;stroke-miterlimit:10;}
	.st23{fill:#898989;}
	.st24{fill:none;stroke:#898989;stroke-width:3;stroke-miterlimit:10;}
	.st25{fill:none;stroke:#898989;stroke-width:2;stroke-miterlimit:10;}
	.st26{fill:none;stroke:#185BA9;stroke-width:4;stroke-miterlimit:10;}
	.st27{fill:none;stroke:#2FA600;stroke-width:2;stroke-miterlimit:10;}
	.st28{fill:#CCCCCC;}
	.st29{fill:#B3B3B3;}
	.st30{fill:#185BA9;}
	.st31{fill:#107AB2;}
	.st32{fill:#0189BC;}
	.st33{fill:#486D92;stroke:#FFFFFF;stroke-miterlimit:10;}
	.st34{fill:#FEFEFE;}
	.st35{fill:#FCFDFD;}
	.st36{fill:#FDFDFE;}
	.st37{fill:#FDFEFE;}
	.st38{fill:none;stroke:#FFFFFF;stroke-miterlimit:10;}
	.st39{fill:#FEFEFE;stroke:#486D92;stroke-miterlimit:10;}
	.st40{fill:#FAFBFD;}
	.st41{fill:none;}
	.st42{fill:#999999;}
	.st43{fill:none;stroke:#999999;stroke-width:2;stroke-miterlimit:10;}
	.st44{fill:none;stroke:#999999;stroke-miterlimit:10;}
	.st45{fill:#F2F2F2;}
	.st46{fill:none;stroke:#FFFFFF;stroke-width:2;stroke-miterlimit:10;}
	.st47{fill:#FFFFFF;stroke:#FFFFFF;stroke-miterlimit:10;}
	.st48{fill:#FEFEFE;stroke:#005EB6;stroke-miterlimit:10;}
	.st49{fill:#B4B4B4;}
	.st50{fill:#F7F7F7;}
	.st51{fill:#FBFBFB;}
	.st52{fill:#FCFCFC;}
	.st53{fill:#F9F9F9;}
	.st54{fill:#F3F3F3;}
	.st55{fill:#C3C3C3;}
	.st56{fill:#DDDDDD;}
	.st57{fill:#B5B5B5;}
	.st58{fill:#B7B7B7;}
	.st59{fill:#BCBCBC;}
	.st60{fill:#CFCFCF;}
	.st61{fill:#EBEBEB;}
	.st62{fill:#B8B8B8;}
	.st63{fill:#00BA9A;}
	.st64{fill:#0066D0;}
	.st65{opacity:0.89;}
	.st66{fill:#303030;}
	.st67{fill:none;stroke:#303030;stroke-miterlimit:10;}
	.st68{fill:url(#SVGID_1_);}
	.st69{fill:none;stroke:url(#SVGID_2_);stroke-miterlimit:10;}
	.st70{fill:url(#SVGID_3_);}
	.st71{fill:none;stroke:url(#SVGID_4_);stroke-miterlimit:10;}
	.st72{fill:url(#SVGID_5_);}
	.st73{fill:none;stroke:url(#SVGID_6_);stroke-miterlimit:10;}
	.st74{fill:url(#SVGID_7_);}
	.st75{fill:none;stroke:url(#SVGID_8_);stroke-miterlimit:10;}
	.st76{fill:url(#SVGID_9_);}
	.st77{fill:none;stroke:url(#SVGID_10_);stroke-miterlimit:10;}
	.st78{fill:url(#SVGID_11_);}
	.st79{fill:none;stroke:url(#SVGID_12_);stroke-miterlimit:10;}
	.st80{fill:none;stroke:#0066D0;stroke-width:3;stroke-linejoin:round;}
	.st81{fill:none;stroke:#0066D0;stroke-width:3;stroke-miterlimit:10;}
	.st82{fill:none;stroke:#0066D0;stroke-width:3;stroke-linecap:round;stroke-miterlimit:10;}
	.st83{fill:none;stroke:#339933;stroke-width:6;stroke-miterlimit:10;}
	.st84{fill:#339933;}
	.st85{fill:none;stroke:#339933;stroke-width:5;stroke-miterlimit:10;}
	.st86{fill:none;stroke:#000000;stroke-width:2;stroke-miterlimit:10;}
	.st87{fill:none;stroke:#000000;stroke-width:5;stroke-miterlimit:10;}
	.st88{fill:none;stroke:#000000;stroke-width:3;stroke-miterlimit:10;}
	.st89{fill:#7BC846;}
	.st90{fill:#9D9EA0;}
	.st91{fill:none;stroke:#185BA9;stroke-width:3;stroke-miterlimit:10;}
	.st92{fill:#005BAD;}
	.st93{fill:none;stroke:#185BA9;stroke-width:3;stroke-linecap:round;stroke-miterlimit:10;}
	.st94{fill:#185BA9;stroke:#185BA9;stroke-linecap:round;stroke-miterlimit:10;}
	.st95{fill:none;stroke:#185BA9;stroke-width:2;stroke-miterlimit:10;}
	.st96{fill:none;stroke:#FFFFFF;stroke-width:3;stroke-linejoin:round;}
	.st97{fill:none;stroke:#FFFFFF;stroke-width:3;stroke-miterlimit:10;}
	.st98{fill:none;stroke:#FFFFFF;stroke-width:3;stroke-linecap:round;stroke-miterlimit:10;}
	.st99{fill:none;stroke:#FFFFFF;stroke-width:6;stroke-miterlimit:10;}
	.st100{fill:none;stroke:#FFFFFF;stroke-width:5;stroke-miterlimit:10;}
	.st101{fill:url(#SVGID_13_);}
	.st102{fill:url(#SVGID_14_);}
	.st103{fill:url(#SVGID_15_);}
	.st104{fill:url(#SVGID_16_);}
	.st105{fill:url(#SVGID_17_);}
	.st106{fill:url(#SVGID_18_);}
	.st107{fill:url(#SVGID_19_);}
	.st108{fill:url(#SVGID_20_);}
	.st109{fill:url(#SVGID_21_);}
	.st110{fill:url(#SVGID_22_);}
	.st111{fill:url(#SVGID_23_);}
	.st112{fill:url(#SVGID_24_);}
	.st113{fill:url(#SVGID_25_);}
	.st114{fill:url(#SVGID_26_);}
	.st115{fill:url(#SVGID_27_);}
	.st116{fill:url(#SVGID_28_);}
	.st117{fill:url(#SVGID_29_);}
	.st118{fill:url(#SVGID_30_);}
	.st119{fill:#D68A2D;}
	.st120{fill:#E0A761;}
	.st121{fill:#EAC495;}
	.st122{fill:#DFDFDF;}
	.st123{fill:#848384;}
	.st124{fill:#858485;}
	.st125{fill:#262425;}
	.st126{fill:#2A2929;}
	.st127{fill:#246990;}
	.st128{fill:#3085AA;}
	.st129{fill:#FFFFFF;stroke:#28729F;stroke-width:1.9847;stroke-miterlimit:10;}
	.st130{fill:#008CC4;}
	.st131{fill:#00B2CA;}
	.st132{fill:#909195;}
	.st133{fill:#007CA6;}
	.st134{fill:#F8FCFD;}
	.st135{fill:#017DA6;}
	.st136{fill:none;stroke:#FFFFFF;stroke-width:0.25;stroke-miterlimit:10;}
	.st137{fill:none;stroke:#FFFFFF;stroke-width:0.25;stroke-linecap:round;stroke-linejoin:round;stroke-miterlimit:10;}
	.st138{fill:#F2F4F6;}
	.st139{fill:none;stroke:#000000;stroke-miterlimit:10;}
	.st140{fill:none;stroke:#000000;stroke-width:0.25;stroke-miterlimit:10;}
	.st141{fill:#FAFBFD;stroke:#000000;stroke-miterlimit:10;}
	.st142{stroke:#000000;stroke-width:0.75;stroke-miterlimit:10;}
	.st143{fill:#2FA600;stroke:#2FA600;stroke-width:1.5;stroke-miterlimit:10;}
	.st144{fill:#046AB5;}
	.st145{fill:#299D94;}
	.st146{fill:#066696;}
	.st147{fill:#808080;}
	.st148{fill:#080808;}
	.st149{fill:#FFFF00;}
	.st150{fill:none;stroke:#000000;stroke-width:10;stroke-miterlimit:10;}
	.st151{fill:#F5F2F0;}
	.st152{fill:#FF8A27;}
	.st153{fill:#292929;}
	.st154{fill:#919397;stroke:#FFFFFF;stroke-width:0.25;stroke-miterlimit:10;}
	.st155{fill:#FFFFFF;stroke:#FFFFFF;stroke-width:0.6289;stroke-miterlimit:10;}
</style>
<path class="st154" d="M58.4,10H8c-2.8,0-5,2.3-5,5v1.7h60.4V15C63.4,12.3,61.2,10,58.4,10z M3,52c0,2.8,2.3,5,5,5h50.4
	c2.8,0,5-2.3,5-5V20.1H3V52z M41.6,39.9H55c0.9,0,1.7,0.6,1.7,1.2c0,0.6-0.7,1.2-1.7,1.2H41.6c-0.9,0-1.7-0.6-1.7-1.2
	S40.7,39.9,41.6,39.9z M41.6,34.8H55c0.9,0,1.7,0.6,1.7,1.2c0,0.6-0.7,1.2-1.7,1.2H41.6c-0.9,0-1.7-0.6-1.7-1.2
	C39.9,35.4,40.7,34.8,41.6,34.8z M41.6,29.6H55c0.9,0,1.7,0.6,1.7,1.2S56,32,55,32H41.6c-0.9,0-1.7-0.6-1.7-1.2
	C39.9,30.2,40.7,29.6,41.6,29.6z"/>
<g>
	<path class="st155" d="M21.1,53.2L21.1,53.2c-0.4,0-0.8-0.4-0.8-0.8V46c0-0.4,0.4-0.8,0.8-0.8l0,0c0.4,0,0.8,0.4,0.8,0.8v6.4
		C21.9,52.8,21.5,53.2,21.1,53.2z"/>
	<path class="st155" d="M17.1,49.2L17.1,49.2c0-0.4,0.4-0.8,0.8-0.8h6.4c0.4,0,0.8,0.4,0.8,0.8l0,0c0,0.4-0.4,0.8-0.8,0.8h-6.4
		C17.5,50,17.1,49.6,17.1,49.2z"/>
</g>
<path class="st3" d="M31.4,53.5c-0.6,0-1-0.5-1-1c0-5.1-4.2-9.2-9.2-9.2S12,47.4,12,52.5c0,0.6-0.5,1-1,1c-0.6,0-1-0.5-1-1
	c0-6.2,5.1-11.3,11.3-11.3s11.3,5.1,11.3,11.3C32.4,53.1,32,53.5,31.4,53.5z"/>
<path class="st3" d="M21.1,39c-3.7,0-6.7-3-6.7-6.7v-2c0-3.7,3-6.7,6.7-6.7s6.7,3,6.7,6.7v2C27.8,36,24.8,39,21.1,39z M21.1,25.5
	c-2.6,0-4.8,2.1-4.8,4.8v2c0,2.6,2.1,4.8,4.8,4.8c2.6,0,4.8-2.1,4.8-4.8v-2C25.9,27.7,23.8,25.5,21.1,25.5z"/>
</svg>
