<?xml version="1.0" encoding="utf-8"?>
<!-- Generator: Adobe Illustrator 22.0.0, SVG Export Plug-In . SVG Version: 6.00 Build 0)  -->
<svg version="1.1" id="Capa_1" xmlns="http://www.w3.org/2000/svg" xmlns:xlink="http://www.w3.org/1999/xlink" x="0px" y="0px"
	 viewBox="0 0 80 79" style="enable-background:new 0 0 80 79;" xml:space="preserve">
<style type="text/css">
	.st0{fill:none;stroke:#FFFFFF;stroke-width:6;stroke-miterlimit:10;}
	.st1{fill:#FFFFFF;}
	.st2{fill:#CCCCCC;}
	.st3{fill:#B3B3B3;}
	.st4{fill:none;stroke:#185BA9;stroke-width:4;stroke-miterlimit:10;}
	.st5{fill:none;stroke:#B3B3B3;stroke-width:3;stroke-miterlimit:10;}
	.st6{fill:#606060;}
	.st7{fill:#FFFFFF;stroke:#FF00FF;stroke-width:3;stroke-miterlimit:10;}
	.st8{display:none;}
	.st9{display:inline;fill:#365BC1;}
	.st10{display:inline;fill:#A5BADD;}
	.st11{display:inline;fill:#213E89;}
	.st12{display:inline;fill:#89B6FE;}
	.st13{display:inline;fill:#C9D7EA;}
	.st14{display:inline;fill:#C8D4EA;}
	.st15{display:inline;fill:#4885E4;}
	.st16{display:inline;fill:#15295A;}
	.st17{display:inline;fill:#80ADEA;}
	.st18{display:inline;fill:#385EC3;}
	.st19{display:inline;fill:#152859;}
	.st20{display:inline;fill:#E74D72;}
	.st21{display:inline;fill:#CD3E61;}
	.st22{display:inline;fill:#ECB1A1;}
	.st23{display:inline;fill:#152959;}
	.st24{display:inline;fill:#EAF2FE;}
	.st25{display:inline;fill:#D8E9FE;}
	.st26{display:inline;fill:#3861C3;}
	.st27{display:inline;fill:#FCFCFD;}
	.st28{display:inline;fill:#AE3456;}
	.st29{display:inline;fill:#B6D3F6;}
	.st30{display:inline;fill:#ECB2A2;}
	.st31{display:inline;fill:#C9D6EB;}
	.st32{display:inline;fill:#4C86E0;}
	.st33{display:inline;fill:#D9DFE7;}
	.st34{display:inline;fill:#9B3252;}
	.st35{display:inline;fill:#E6AEA0;}
	.st36{display:inline;fill:#F7F6F9;}
	.st37{display:inline;fill:#E4ADA0;}
	.st38{display:inline;fill:#FBFCFD;}
	.st39{display:inline;fill:#21396F;}
	.st40{display:inline;fill:#E4E5EC;}
	.st41{display:inline;fill:#182C5D;}
	.st42{display:inline;fill:#E6F5FC;}
	.st43{display:inline;fill:#DAEAFC;}
	.st44{display:inline;fill:#F9EBEF;}
	.st45{display:inline;fill:#ECEEF3;}
	.st46{display:inline;fill:#BEC7E3;}
	.st47{display:inline;fill:#CBE2FA;}
	.st48{display:inline;fill:#CADFF8;}
	.st49{display:inline;fill:#CF4767;}
	.st50{display:inline;fill:#E1A38B;}
	.st51{display:inline;fill:#243462;}
	.st52{display:inline;fill:#BED8F7;}
	.st53{display:inline;fill:#D1E4FC;}
	.st54{display:inline;fill:#F3D5DD;}
	.st55{display:inline;fill:#B4CCE9;}
	.st56{display:inline;fill:#DAE8FD;}
	.st57{display:inline;fill:#C4CDE6;}
	.st58{display:inline;fill:#CFDBF1;}
	.st59{display:inline;fill:#EEA481;}
	.st60{display:inline;fill:#F8FBFE;}
	.st61{display:inline;fill:#637192;}
	.st62{display:inline;fill:#D3E3F9;}
	.st63{display:inline;fill:#CCDCF5;}
	.st64{display:inline;fill:#CDDFF8;}
	.st65{display:inline;fill:#606F95;}
	.st66{display:inline;fill:#D3E2F8;}
	.st67{display:inline;fill:#CBDDF8;}
	.st68{display:inline;fill:#DAEAFE;}
	.st69{display:inline;fill:#142859;}
	.st70{display:inline;fill:#6AA0FA;}
	.st71{display:inline;fill:#1E2E59;}
	.st72{display:inline;fill:#293762;}
	.st73{display:inline;fill:#253460;}
	.st74{display:inline;fill:#23325E;}
	.st75{display:inline;fill:#2A3964;}
	.st76{display:inline;fill:#21315B;}
	.st77{display:inline;fill:#457CE2;}
	.st78{display:inline;fill:#DFE8F9;}
	.st79{display:inline;fill:#D8E3F7;}
	.st80{display:inline;fill:#D9E3F7;}
	.st81{display:inline;fill:#D4DFF6;}
	.st82{display:inline;fill:#D4E0F6;}
	.st83{display:inline;fill:#DCE6F8;}
	.st84{display:inline;fill:#D5E1F6;}
	.st85{display:inline;fill:#D5E0F6;}
	.st86{display:inline;fill:#DAE5F7;}
	.st87{display:inline;fill:#DAE5F8;}
	.st88{display:inline;fill:#DEE8F9;}
	.st89{display:inline;fill:#172A5B;}
	.st90{display:inline;fill:#162A5B;}
	.st91{display:inline;fill:#FAFBFC;}
	.st92{display:inline;fill:#172C60;}
	.st93{display:inline;fill:#EBF0F7;}
	.st94{display:inline;fill:#FDFDFE;}
	.st95{display:inline;fill:#3C66C6;}
	.st96{display:inline;fill:#5AC6F8;}
	.st97{display:inline;fill:#D3EAFD;}
	.st98{display:inline;fill:#57C2F6;}
	.st99{display:inline;fill:#E0F4FE;}
	.st100{display:inline;fill:#B8D2F4;}
	.st101{display:inline;fill:#CDE1FA;}
	.st102{display:inline;fill:#ECEEF6;}
	.st103{display:inline;fill:#FBFBFC;}
	.st104{display:inline;fill:#ECB5C3;}
	.st105{display:inline;fill:#F6E4E9;}
	.st106{display:inline;fill:#EDD1D9;}
	.st107{display:inline;fill:#FBEBF0;}
	.st108{display:inline;fill:#EFCDD6;}
	.st109{display:inline;fill:#4E87E1;}
	.st110{display:inline;fill:#59C0F4;}
	.st111{display:inline;fill:#A3E2FE;}
	.st112{display:inline;fill:#4C86E1;}
	.st113{display:inline;fill:#3D4469;}
	.st114{display:inline;fill:#E5E5EC;}
	.st115{display:inline;fill:#4D65A0;}
	.st116{display:inline;fill:#FEC1B0;}
	.st117{display:inline;fill:#4C5585;}
	.st118{display:inline;fill:#FDFDFD;}
	.st119{display:inline;fill:#2D3B67;}
	.st120{display:inline;fill:#213C82;}
	.st121{display:inline;fill:#F8FAFD;}
	.st122{display:inline;fill:#374471;}
	.st123{display:inline;fill:#45507E;}
	.st124{display:inline;fill:#34416E;}
	.st125{display:inline;fill:#3D4A77;}
	.st126{display:inline;fill:#3A4674;}
	.st127{display:inline;fill:#313F6B;}
	.st128{display:inline;fill:#424E7B;}
	.st129{display:inline;fill:#313F6C;}
	.st130{display:inline;fill:#404C79;}
	.st131{display:inline;fill:#495383;}
	.st132{display:inline;fill:#72A7FD;}
	.st133{display:inline;fill:#39508F;}
	.st134{display:inline;fill:#F5F7FC;}
	.st135{display:inline;fill:#264084;}
	.st136{display:inline;fill:#6DA4FD;}
	.st137{display:inline;fill:#F6F8FC;}
	.st138{display:inline;fill:#6EA5FD;}
	.st139{display:inline;fill:#F7F8FC;}
	.st140{display:inline;fill:#FEF9F8;}
	.st141{display:inline;fill:#49517C;}
	.st142{display:inline;fill:#3B4778;}
	.st143{display:inline;fill:#325089;}
	.st144{display:inline;fill:#D6917E;}
	.st145{display:inline;fill:#D28C79;}
	.st146{display:inline;fill:#716987;}
	.st147{display:inline;fill:#414B79;}
	.st148{display:inline;fill:#D99582;}
	.st149{display:inline;fill:#8FBCFC;}
	.st150{display:inline;fill:#7BABFA;}
	.st151{display:inline;fill:#80B1FA;}
	.st152{display:inline;fill:#233C81;}
	.st153{display:inline;fill:#6288F3;}
	.st154{display:inline;fill:#1F3263;}
	.st155{display:inline;fill:#597FEA;}
	.st156{display:inline;fill:#ECEFF6;}
	.st157{display:inline;fill:#5C82EF;}
	.st158{display:inline;fill:#6A91F3;}
	.st159{display:inline;fill:#FCFDFE;}
	.st160{display:inline;fill:#E1E4EF;}
	.st161{display:inline;fill:#709AF7;}
	.st162{display:inline;fill:#6C95F6;}
	.st163{display:inline;fill:#25459C;}
	.st164{display:inline;fill:#E2E7F6;}
	.st165{display:inline;fill:#507FD5;}
	.st166{display:inline;fill:#BBC6E2;}
	.st167{display:inline;fill:#4573C5;}
	.st168{display:inline;fill:#6990F6;}
	.st169{display:inline;fill:#7CAEFB;}
	.st170{display:inline;fill:#5C81ED;}
	.st171{display:inline;fill:#28407E;}
	.st172{display:inline;fill:#253C79;}
	.st173{display:inline;fill:#223A76;}
	.st174{display:inline;fill:#73A0F8;}
	.st175{display:inline;fill:#7AAAFA;}
	.st176{display:inline;fill:#77A5F9;}
	.st177{fill:#B8B8B8;}
	.st178{fill:#28A745;}
	.st179{fill:#0071BC;}
	.st180{opacity:0.53;}
	.st181{fill:#070707;}
	.st182{fill:none;stroke:#B3B3B3;stroke-miterlimit:10;}
	.st183{fill:#F2F2F2;}
	.st184{fill:#185BA9;}
	.st185{fill:#005EAA;}
	.st186{fill:#2FA600;}
	.st187{fill:none;stroke:#B3B3B3;stroke-width:2;stroke-miterlimit:10;}
	.st188{fill:none;stroke:#185BA9;stroke-width:3;stroke-miterlimit:10;}
	.st189{fill:none;stroke:#185BA9;stroke-miterlimit:10;}
	.st190{fill:#185BA9;stroke:#185BA9;stroke-miterlimit:10;}
	.st191{fill:#185BA9;stroke:#185BA9;stroke-width:3;stroke-miterlimit:10;}
	.st192{fill:#6C757D;}
	.st193{fill:#185BA9;stroke:#B3B3B3;stroke-width:4;stroke-miterlimit:10;}
	.st194{fill:none;stroke:#2FA600;stroke-width:2;stroke-miterlimit:10;}
	.st195{fill:none;stroke:#2FA600;stroke-width:6;stroke-miterlimit:10;}
	.st196{fill:#999999;}
	.st197{fill:none;stroke:#999999;stroke-width:3;stroke-miterlimit:10;}
	.st198{fill:none;stroke:#999999;stroke-miterlimit:10;}
	.st199{fill:none;stroke:#999999;stroke-width:0.5;stroke-miterlimit:10;}
	.st200{fill:none;}
	.st201{fill:#005EAA;stroke:#FFFFFF;stroke-miterlimit:10;}
	.st202{fill:none;stroke:#0000FF;stroke-width:6;stroke-miterlimit:10;}
	.st203{fill:#FFFFFF;stroke:#FFFFFF;stroke-miterlimit:10;}
	.st204{fill:#E6E6E6;}
	.st205{fill:#00A99D;}
	.st206{fill:#299543;}
	.st207{fill:#00A800;}
	.st208{fill:none;stroke:#CCCCCC;stroke-width:8;stroke-linecap:round;stroke-miterlimit:10;}
	.st209{fill:none;stroke:#999999;stroke-width:4;stroke-miterlimit:10;}
	.st210{fill:#999999;stroke:#FF00FF;stroke-width:3;stroke-miterlimit:10;}
</style>
<circle class="st209" cx="40.5" cy="39.5" r="35.5"/>
<g>
	<g>
		<path class="st196" d="M55.8,27.8h-6.1c-1,0-2.7-0.6-2.7-1.6v-2.8c0-1.2-0.1-2.1-1.2-2.1H28.1c-1.2,0-2.2,1-2.2,2.1v33.9
			c0,0.9,0.8,1.7,1.7,1.7h27.9c1,0,1.9-0.9,1.9-1.9V29.5C57.4,28.6,56.7,27.8,55.8,27.8z M53.6,56.3H29.7c-0.6,0-1-0.5-1-1v-0.1
			c0-0.6,0.5-1,1-1h23.8c0.6,0,1,0.5,1,1v0C54.6,55.8,54.1,56.3,53.6,56.3z M53.6,52.1H29.6c-0.5,0-0.9-0.4-0.9-0.9v-0.2
			c0-0.5,0.4-0.9,0.9-0.9h23.9c0.6,0,1,0.5,1,1v0.1C54.6,51.6,54.1,52.1,53.6,52.1z M53.7,47.9h-24c-0.6,0-1-0.5-1-1v0
			c0-0.6,0.5-1.1,1.1-1.1h23.7c0.6,0,1.1,0.5,1.1,1.1V47C54.6,47.5,54.2,47.9,53.7,47.9z M53.5,43.7l-23.7,0c-0.5,0-1-0.3-1.1-0.8
			c-0.1-0.7,0.4-1.3,1.1-1.3l23.7,0c0.5,0,1,0.3,1.1,0.8C54.7,43.1,54.2,43.7,53.5,43.7z M53.5,39.5H29.8c-0.6,0-1-0.5-1-1
			c0-0.6,0.5-1,1-1h23.8c0.6,0,1,0.5,1,1C54.6,39,54.1,39.5,53.5,39.5z M53.5,35.3H29.8c-0.6,0-1-0.5-1-1c0-0.6,0.5-1,1-1h23.8
			c0.6,0,1,0.5,1,1C54.6,34.8,54.1,35.3,53.5,35.3z"/>
	</g>
	<g>
		<g>
			<g>
				<g>
					<path class="st196" d="M61.1,24.1L50.3,16c-0.9-0.7-1.9-1-3-1H25.9c-2.7,0-4.9,2.2-4.9,4.9v39.2c0,2.7,2.2,4.9,4.9,4.9h32.2
						c2.7,0,4.9-2.2,4.9-4.9V28C63,26.5,62.3,25.1,61.1,24.1z M51.1,19.9L51.1,19.9l6.4,4.9h-6.4V19.9z M58.8,58.4
						c0,1.1-0.9,2.1-2.1,2.1H26.3c-1,0-1.8-0.8-1.8-1.8V22.2c0-1.3,1.1-2.3,2.4-2.3H46c1.3,0,2.3,1,2.3,2.3v2.7c0,1.1,0.9,2,2,2H57
						c1,0,1.8,0.8,1.8,1.8V58.4z"/>
				</g>
			</g>
		</g>
	</g>
</g>
</svg>
