<?xml version="1.0" encoding="utf-8"?>
<!-- Generator: Adobe Illustrator 23.0.0, SVG Export Plug-In . SVG Version: 6.00 Build 0)  -->
<svg version="1.1" id="Capa_1" xmlns="http://www.w3.org/2000/svg" xmlns:xlink="http://www.w3.org/1999/xlink" x="0px" y="0px"
	 viewBox="0 0 80 79" style="enable-background:new 0 0 80 79;" xml:space="preserve">
<style type="text/css">
	.st0{fill:#FFFFFF;}
</style>
<path class="st0" d="M29.5,24.9L29.5,24.9c-1.4,0-2.5-1.1-2.5-2.5v-6.5c0-1.4,1.1-2.5,2.5-2.5h0c1.4,0,2.5,1.1,2.5,2.5v6.5
	C32,23.8,30.9,24.9,29.5,24.9z"/>
<path class="st0" d="M50.5,24.9L50.5,24.9c-1.4,0-2.5-1.1-2.5-2.5v-6.5c0-1.4,1.1-2.5,2.5-2.5h0c1.4,0,2.5,1.1,2.5,2.5v6.5
	C53.1,23.8,51.9,24.9,50.5,24.9z"/>
<path class="st0" d="M61,63.5H19c-2.2,0-4-1.8-4-4V22.3c0-2.2,1.8-4,4-4h42c2.2,0,4,1.8,4,4v37.2C65,61.7,63.2,63.5,61,63.5z
	 M19,21.6c-0.4,0-0.7,0.3-0.7,0.7v37.2c0,0.4,0.3,0.7,0.7,0.7h42c0.4,0,0.7-0.3,0.7-0.7V22.3c0-0.4-0.3-0.7-0.7-0.7H19z"/>
<path class="st0" d="M62.4,33.8H17.5c-0.9,0-1.7-0.8-1.7-1.7s0.8-1.7,1.7-1.7h44.9c0.9,0,1.7,0.8,1.7,1.7S63.3,33.8,62.4,33.8z"/>
<path class="st0" d="M32,49.3h-8.9c-0.9,0-1.6-0.7-1.6-1.6v-8.9c0-0.9,0.7-1.6,1.6-1.6H32c0.9,0,1.6,0.7,1.6,1.6v8.9
	C33.6,48.6,32.9,49.3,32,49.3z M24.7,46.2h5.8v-5.8h-5.8V46.2z"/>
</svg>
