<svg id="Capa_1" data-name="Capa 1" xmlns="http://www.w3.org/2000/svg" viewBox="0 0 66 64.13"><defs><style>.cls-1,.cls-3{fill:none;stroke:#185ba9;stroke-miterlimit:10;}.cls-1{stroke-width:3px;}.cls-2{fill:#005bad;}.cls-3{stroke-width:2px;}</style></defs><title>covid_adulto</title><g id="Capa_2" data-name="Capa 2"><g id="Capa_1-2" data-name="Capa 1-2"><path class="cls-1" d="M33.25,2.5A29.75,29.75,0,1,0,63,32.25,29.75,29.75,0,0,0,33.25,2.5Z"/></g></g><path class="cls-2" d="M42.58,25c-.26-.55-.17-.59.51-1,.32-.2.52-.24.77.09a2.56,2.56,0,0,0,.68.59c.52.35,1.08.7,1.7.3a1.54,1.54,0,0,0,.54-1.66,6,6,0,0,0-1.84-3.6,3,3,0,0,0-1.26-.78,1,1,0,0,0-1.41.8,3.7,3.7,0,0,0,.1,1.78c.08.31.4.64.25.9s-.55.34-.81.53-.44.15-.64-.12a15,15,0,0,0-5.76-4.64c-.87-.41-.87-.41-.59-1.35.07-.22.15-.32.41-.29a2.27,2.27,0,0,0,1.18-.19.74.74,0,0,0,.35-1.16,1.94,1.94,0,0,0-.42-.48,4.22,4.22,0,0,0-3.1-.89,1.51,1.51,0,0,0-.61.2.73.73,0,0,0-.31,1.06,2.64,2.64,0,0,0,.82.81c.22.16.63.15.67.45a2.92,2.92,0,0,1-.21.82c-.05.21-.11.27-.35.2a15.21,15.21,0,0,0-8.51,0c-.26.08-.32,0-.39-.21-.19-.54-.38-1.09-.59-1.61-.1-.25,0-.36.18-.48a3.6,3.6,0,0,0,1.18-1,1.13,1.13,0,0,0-.67-1.92,4,4,0,0,0-2.16,0,5.21,5.21,0,0,0-3.16,1.84,1.13,1.13,0,0,0,.67,1.94,3.92,3.92,0,0,0,2,0c.28-.07.41,0,.5.28.15.5.34,1,.54,1.49.09.24.06.35-.18.45a15.23,15.23,0,0,0-6.35,5.3c-.12.17-.21.21-.41.12-.81-.36-1.62-.71-2.44-1-.22-.09-.26-.19-.2-.42a3.51,3.51,0,0,0,0-1.82,1.05,1.05,0,0,0-1.59-.75,1.78,1.78,0,0,0-.48.28,5.63,5.63,0,0,0-2.14,4.74c.06,1.18,1,1.61,2,1a4.18,4.18,0,0,0,1.33-1.38c.15-.26.28-.33.57-.19.68.33,1.38.62,2.08.9.28.11.32.2.18.48a15.28,15.28,0,0,0-.23,13c.12.26.13.39-.18.5a13.43,13.43,0,0,0-1.29.58c-.22.11-.37.13-.52-.12a2.1,2.1,0,0,0-.77-.74A.77.77,0,0,0,11,39a2.53,2.53,0,0,0,0,1.31,3.81,3.81,0,0,0,1.42,2.38.81.81,0,0,0,1.39-.56,2.69,2.69,0,0,0-.07-1.32c-.08-.25,0-.35.22-.45.45-.2.91-.42,1.35-.65.25-.13.38-.12.53.15A11.1,11.1,0,0,0,17,41.56a15.15,15.15,0,0,0,7.18,5c.37.12.44.26.32.59a4.44,4.44,0,0,0-.22.87c0,.3-.16.42-.47.39a3.31,3.31,0,0,0-1.36.16c-1.18.37-1.45,1.35-.53,2.18A5.45,5.45,0,0,0,27,52.08c1.2-.29,1.42-1.29.56-2.17a4.32,4.32,0,0,0-1.66-1c-.21-.08-.26-.16-.19-.37a7.49,7.49,0,0,0,.25-1c.05-.31.17-.36.46-.31a15.56,15.56,0,0,0,1.78.18C31,39.26,32.27,24.45,42.58,25ZM19.36,34.22a2.18,2.18,0,1,1,0-4.36A2.21,2.21,0,0,1,21.52,32,2.19,2.19,0,0,1,19.36,34.22Zm0-10.54a2.79,2.79,0,0,1,5.58,0,2.79,2.79,0,1,1-5.58,0Zm6.22,20.45a2.79,2.79,0,0,1-2.78-2.78,2.79,2.79,0,0,1,5.58,0A2.8,2.8,0,0,1,25.55,44.13ZM29.62,30.8a2.19,2.19,0,1,1,2.16-2.21A2.2,2.2,0,0,1,29.62,30.8ZM34,23.21a1.91,1.91,0,0,1,3.82,0,1.91,1.91,0,0,1-3.82,0Z"/><path class="cls-3" d="M50,45.18a8.44,8.44,0,0,0-.2-1.81,4.48,4.48,0,0,0-4.23-3.8c-2.69-.08-5.38,0-8.08,0a4,4,0,0,0-2.43.85,5.41,5.41,0,0,0-2,4.39C33,47,33,49.25,33,51.48a.59.59,0,0,0,.21.52H35.8c.27-.16.27-.42.26-.69v-5.1c0-.28,0-.59.28-.74s.82.06.83.62c0,1,0,1.91,0,2.87s0,1.65,0,2.48c0,.22,0,.43.22.56h8.13c.28-.15.3-.4.3-.68,0-1.73,0-3.47,0-5.21,0-.52.24-.77.66-.67s.43.4.43.73v5.21c0,.23,0,.46.2.62h2.68c.23-.15.21-.39.21-.62C50,49.31,50,47.25,50,45.18Z"/><path class="cls-3" d="M43,29.88c-.24-.08-.51-.05-.72-.21H40.86c-.12.17-.32.13-.48.17a4.49,4.49,0,0,0-3.18,5.1A4.47,4.47,0,0,0,46,34.81,4.53,4.53,0,0,0,43,29.88Z"/></svg>