<?xml version="1.0" encoding="utf-8"?>
<!-- Generator: Adobe Illustrator 22.0.0, SVG Export Plug-In . SVG Version: 6.00 Build 0)  -->
<svg version="1.1" id="Capa_1" xmlns="http://www.w3.org/2000/svg" xmlns:xlink="http://www.w3.org/1999/xlink" x="0px" y="0px"
	 viewBox="0 0 80 79" style="enable-background:new 0 0 80 79;" xml:space="preserve">
<style type="text/css">
	.st0{fill:#185BA9;}
</style>
<g>
	<path class="st0" d="M38.4,33.4L38.4,33.4c-0.5,0-0.9-0.4-0.9-0.9v-7.3c0-0.5,0.4-0.9,0.9-0.9l0,0c0.5,0,0.9,0.4,0.9,0.9v7.3
		C39.3,33,38.9,33.4,38.4,33.4z"/>
	<path class="st0" d="M33.8,28.9L33.8,28.9c0-0.5,0.4-0.9,0.9-0.9H42c0.5,0,0.9,0.4,0.9,0.9l0,0c0,0.5-0.4,0.9-0.9,0.9h-7.3
		C34.2,29.8,33.8,29.4,33.8,28.9z"/>
</g>
<path class="st0" d="M51.5,63.5H25.3c-0.7,0-1.3-0.6-1.3-1.3V14.6c0-0.7,0.6-1.3,1.3-1.3h26.2c0.7,0,1.3,0.6,1.3,1.3v47.7
	C52.7,63,52.2,63.5,51.5,63.5z M26.6,61h23.6V15.9H26.6V61z"/>
<path class="st0" d="M49.6,63.5c-0.7,0-1.3-0.6-1.3-1.3s0.6-1.3,1.3-1.3H65V36.3H51.5c-0.7,0-1.3-0.6-1.3-1.3s0.6-1.3,1.3-1.3h14.8
	c0.7,0,1.3,0.6,1.3,1.3v27.2c0,0.7-0.6,1.3-1.3,1.3H49.6L49.6,63.5z"/>
<path class="st0" d="M26.8,63.5L26.8,63.5l-16.7-0.1c-0.7,0-1.3-0.6-1.3-1.3V35c0-0.7,0.6-1.3,1.3-1.3h14.8c0.7,0,1.3,0.6,1.3,1.3
	s-0.6,1.3-1.3,1.3H11.4v24.6L26.8,61c0.7,0,1.3,0.6,1.3,1.3C28.1,63,27.5,63.5,26.8,63.5z"/>
<path class="st0" d="M32.2,63.5c-0.7,0-1.3-0.6-1.3-1.3V48.1c0-0.7,0.6-1.3,1.3-1.3H46c0.7,0,1.3,0.6,1.3,1.3v13.5
	c0,0.7-0.6,1.3-1.3,1.3s-1.3-0.6-1.3-1.3V49.4H33.5v12.9C33.5,63,32.9,63.5,32.2,63.5z"/>
<path class="st0" d="M20.3,54H15c-0.6,0-1-0.5-1-1v-8.9c0-0.6,0.5-1,1-1h5.3c0.6,0,1,0.5,1,1V53C21.3,53.5,20.8,54,20.3,54z
	 M16,51.9h3.2V45H16V51.9z"/>
<path class="st0" d="M61.7,54.1h-5.3c-0.6,0-1-0.5-1-1v-8.9c0-0.6,0.5-1,1-1h5.3c0.6,0,1,0.5,1,1v8.9C62.7,53.6,62.3,54.1,61.7,54.1
	z M57.5,52.1h3.2v-6.9h-3.2V52.1z"/>
</svg>
