<?xml version="1.0" encoding="utf-8"?>
<!-- Generator: Adobe Illustrator 22.0.0, SVG Export Plug-In . SVG Version: 6.00 Build 0)  -->
<svg version="1.1" id="Capa_1" xmlns="http://www.w3.org/2000/svg" xmlns:xlink="http://www.w3.org/1999/xlink" x="0px" y="0px"
	 viewBox="0 0 576 512" style="enable-background:new 0 0 576 512;" xml:space="preserve">
<style type="text/css">
	.st0{fill:#B4B4B4;}
</style>
<path class="st0" d="M528,32H48C21.5,32,0,53.5,0,80v16h576V80C576,53.5,554.5,32,528,32z M0,128v304c0,26.5,21.5,48,48,48h480
	c26.5,0,48-21.5,48-48V128H0z M336.7,242.5c6.7-18,13.4-36.1,20-54.1c3.1-8.3,6.1-16.6,9.3-24.9c2-5,6.4-7.6,11.4-7.3
	c4.7,0.3,8.7,3.6,10,8.3c0.3,1,0.4,2,0.6,3.4c-0.4,1.4-0.7,3.2-1.3,4.9c-9.5,25.8-19,51.6-28.6,77.3c-2.7,7.3-9.2,10.6-15.5,8
	C336.6,255.7,334.1,249.4,336.7,242.5z M301.7,429.7c-4.2,5-11.2,6-16.6,2c-3-2.2-5.7-4.8-8.5-7.3c-2.5-2.3-5.3-3.4-8.7-3.6
	c-4-0.3-8-0.9-11.9-1.8c-4.5-1.2-7.7-4.3-9.9-8.3c-3.3,1.7-6.4,3.5-9.7,5c-12.8,5.5-22.4-1-27.3-11.8c-2.6-5.9-1.9-12-0.9-18.2
	c0.2-1.1,0.4-2.2,0.7-3.9c-1.6,1-2.6,1.7-3.7,2.3c-7.4,4.3-14.5,9.3-22.3,12.6c-12,5.2-24.1,4.3-34.9-3.8
	c-7-5.2-10.5-12.6-12.6-20.8c-3.7-14.3-2.8-28.7-0.4-42.9c2.7-15.9,6.3-31.6,11.9-46.8c5.1-13.7,11.7-26.6,22.6-36.8
	c7.5-6.9,15.7-12.7,25.9-15c13.1-3,24.4,0.3,33.9,9.7c11.2,11,16.2,25,18.2,40.2c0.3,2.3,0.7,4.7,0.4,6.9c-0.9,6.1-6,10.2-12.1,10
	c-6.1-0.1-10.6-4.3-11.8-10.5c-0.9-5-1.6-10.2-3.3-15c-1.5-4.4-3.9-8.7-6.6-12.4c-4.7-6.3-11-7.3-17.9-3.5
	c-7.8,4.3-13.9,10.3-18.4,17.9c-7.9,13.5-12.2,28.2-15.5,43.3c-2.8,12.6-5.5,25.3-4.7,38.3c0.3,4.2,1,8.4,2.1,12.5
	c1.8,6.4,6.2,9,12.5,6.9c4.1-1.3,7.9-3.5,11.6-5.7c8.1-4.6,15.9-10,24.3-13.9c4.7-2.2,10.5-2.7,15.8-3c6.8-0.4,11.4,4.4,12.2,11.2
	c1,8.4-1.8,16.1-3.4,24.1c-0.1,0.8-0.3,1.5-0.4,2c4.7-1.6,9.1-3.6,13.7-4.7c6.5-1.6,17.3,2.3,20.3,9.9c0.4,0.9,1.9,1.8,2.9,1.8
	c9.6,0.2,17.6,3.9,24.4,10.4c2.2,2.1,4.6,4,6.8,6C305.3,417.6,305.8,424.8,301.7,429.7z M405.3,282.8c-12.3,33.5-24.3,67-37,100.3
	c-6.8,17.7-17.7,33.1-32.1,45.5c-4.2,3.6-7.1,7.2-8.7,12.3c-1.2,3.8-4.3,5.3-7.5,4.1c-3-1.1-4.6-4.4-3-7.8c2.2-4.9,2.1-9.4,0.9-14.7
	c-2.8-12.8-1.3-25.9,0.1-38.8c1.5-14.5,7.6-27.5,12.5-40.9c9.3-25.9,18.9-51.6,28.4-77.4c0.3-0.9,0.7-1.8,1.2-3
	c15.5,5.7,30.9,11.4,46.4,17.1C406,280.7,405.7,281.7,405.3,282.8z M443,181.1c-6.5,17.8-12.9,35.5-19.4,53.3
	c-3.2,8.8-6.5,17.6-9.8,26.6c-15.6-5.7-30.9-11.4-46.5-17.1c0.3-1.1,0.6-2,0.9-2.9c8.8-24,17.6-48,26.4-72
	c3.5-9.5,10-16.1,19.8-18.7c11-2.9,19.9,1.3,24.6,11.6c1.7,3.8,2.7,8,4,12V181.1z"/>
</svg>
