<svg xmlns="http://www.w3.org/2000/svg" viewBox="0 0 47.6 62.56"><defs><style>.cls-1{fill:#b4b4b4;}</style></defs><title>fnacimiento_1</title><g id="Capa_2" data-name="Capa 2"><g id="Capa_1-2" data-name="Capa 1"><path class="cls-1" d="M0,31.25V3.65A3.45,3.45,0,0,1,2.6.12,4.71,4.71,0,0,1,3.73,0H35.08a2.1,2.1,0,0,1,1.59.68q5.09,5.11,10.22,10.21a2.24,2.24,0,0,1,.71,1.71q0,23.08,0,46.16a3.47,3.47,0,0,1-3.79,3.8h-40A3.49,3.49,0,0,1,0,58.72ZM33.62,2.9c-.29,0-.46,0-.63,0H3.8c-.79,0-.95.18-.95,1q0,27.39,0,54.79c0,.92.16,1.08,1.1,1.08H43.64c1,0,1.11-.15,1.11-1.14V13.87H35.39c-1.31,0-1.77-.46-1.77-1.77,0-2.76,0-5.52,0-8.27Zm2.9,8h6.09L36.52,4.84Z"/><path class="cls-1" d="M23.81,22.44H38.47c.24,0,.48,0,.72,0a1.4,1.4,0,0,1,.39,2.7,2.79,2.79,0,0,1-.91.13q-14.85,0-29.68,0c-.12,0-.24,0-.36,0A1.48,1.48,0,0,1,7.1,23.81a1.42,1.42,0,0,1,1.54-1.36H23.81Z"/><path class="cls-1" d="M23.79,16.22H38.88c1,0,1.64.61,1.62,1.45a1.49,1.49,0,0,1-1.67,1.41c-3.38,0-6.75,0-10.13,0q-9.89,0-19.77,0c-1,0-1.53-.32-1.75-1a1.36,1.36,0,0,1,1.09-1.77,5.74,5.74,0,0,1,.93-.05Z"/><path class="cls-1" d="M23.72,31.49H8.77c-1.26,0-2-1-1.52-2a1.5,1.5,0,0,1,1.54-.83c4.31,0,8.62,0,12.94,0H38.61a5.56,5.56,0,0,1,.58,0A1.44,1.44,0,0,1,40.5,30a1.49,1.49,0,0,1-1.19,1.43,4.56,4.56,0,0,1-.64,0Z"/><path class="cls-1" d="M22.21,11.65H17.4c-1,0-1.62-.52-1.62-1.4s.6-1.43,1.61-1.43H27c1,0,1.61.54,1.62,1.41S28,11.64,27,11.65Z"/><path class="cls-1" d="M40.74,38.76c-.41.27-.67.56-.91.55s-.55-.41-.52-.57a.87.87,0,0,1,.6-.56C40.11,38.15,40.35,38.47,40.74,38.76Z"/><path class="cls-1" d="M41.1,40.61c-.22-.29-.47-.46-.46-.62a.63.63,0,0,1,.43-.42c.14,0,.41.24.43.41S41.3,40.31,41.1,40.61Z"/><path class="cls-1" d="M6.79,42c1.28-.78,1.66-1.88.69-3.44,1.71-.15,2.87-.76,2.73-2.76,1.56.82,2.77.71,3.6-.84a8.55,8.55,0,0,1,.9.87,1.12,1.12,0,0,0,1.59.4c.8-.41,1.41-.32,1.42.72,0,1.57,1.5,1.1,2.32,1.7a5,5,0,0,0-.35,2c.13.56.79,1,1.26,1.52a5,5,0,0,1-.68.74,1.2,1.2,0,0,0-.46,1.7c.4.79.27,1.35-.76,1.39s-1.2.65-1.38,1.45c-.06.31-.41.78-.64.79-.6,0-1.26-.39-1.77-.24s-.9.77-1.39,1.23a4,4,0,0,1-.67-.59,1.33,1.33,0,0,0-1.9-.53c-.69.37-1.24.19-1.28-.67S9.43,46.11,8.55,46c-.3-.06-.78-.43-.79-.67C7.68,43.35,7.71,43.35,6.79,42Z"/><path class="cls-1" d="M19.78,48.59c.78,1.64,1.53,3.14,2.21,4.67.31.68.09,1.23-.75,1-1.35-.41-2.22-.16-2.8,1.25-.37.91-.86.85-1.32-.05C16.55,54.3,16,53.15,15.47,52s-.06-1.7,1.07-1.56A2.81,2.81,0,0,0,19.78,48.59Z"/><path class="cls-1" d="M12.76,51C12,52.6,11.35,54,10.66,55.42c-.46.92-.94,1-1.33,0a1.92,1.92,0,0,0-2.77-1.27c-.67.22-1.26.07-.85-.83.68-1.53,1.42-3,2.23-4.71a3,3,0,0,0,3.43,1.8C11.77,50.37,12.23,50.75,12.76,51Z"/><path class="cls-1" d="M42.16,45.78c.23,3.89-1.08,5.69-4.68,6.14A19.16,19.16,0,0,1,32,51.74c-2.34-.39-3.5-1.94-3.68-4.33a15.38,15.38,0,0,1,0-1.92c.07-1.12,0-2.06-1.53-1.91-.21,0-.46-.44-.69-.67.26-.26.48-.68.79-.74a2.33,2.33,0,0,1,3,2.29c0,.41,0,.81.07,1.32Z"/><path class="cls-1" d="M42.11,44.33H36.35c.29-1.59.55-3.11.84-4.62.13-.69.49-.85,1.18-.6A5.77,5.77,0,0,1,42.11,44.33Z"/><path class="cls-1" d="M32,56c-.38-.55-1-1.07-1.1-1.67-.14-.87.5-1.43,1.41-1.43s1.56.58,1.44,1.42c-.09.6-.72,1.12-1.11,1.68"/><path class="cls-1" d="M38.09,56c-.4-.54-1-1-1.16-1.64-.16-.86.45-1.44,1.37-1.47s1.57.53,1.48,1.38c-.06.6-.68,1.14-1.05,1.71"/></g></g></svg>