<svg id="Capa_1" data-name="Capa 1" xmlns="http://www.w3.org/2000/svg" viewBox="0 0 40 40"><defs><style>.cls-1{fill:#2fa600;}.cls-2{fill:#fff;}</style></defs><title>h_episodios</title><path class="cls-1" d="M36.7,7.1H3.3A2.3,2.3,0,0,0,1,9.39V35.44a2.3,2.3,0,0,0,2.3,2.3H36.7a2.3,2.3,0,0,0,2.3-2.3v-26A2.3,2.3,0,0,0,36.7,7.1Z"/><rect class="cls-1" x="4.68" y="1.58" width="19" height="8.58" rx="3.75" ry="3.75"/><polygon class="cls-2" points="4.68 12 4.68 8.25 35.32 8.25 35.32 10.16 20.84 10.13 4.68 12"/><path class="cls-2" d="M10.24,23.47v.07l1-1a1.48,1.48,0,0,1,2.1,2.1L10,28.06a1.49,1.49,0,0,1-2.07,0l-3.46-3a1.49,1.49,0,0,1,2-2.23l.89.79h0a12,12,0,0,1,1.78-6.89,11.66,11.66,0,0,1,5.33-4.61,13.18,13.18,0,0,1,2.45-.78,11.69,11.69,0,0,1,13.36,6.91A13.15,13.15,0,0,1,31,20.7a11.6,11.6,0,0,1-.29,6,11.89,11.89,0,0,1-3.23,5,12.82,12.82,0,0,1-5,2.91,10.82,10.82,0,0,1-9-1.31A1.49,1.49,0,0,1,15,30.84a7.28,7.28,0,0,0,1.23.66,7,7,0,0,0,1.27.42,8,8,0,0,0,4-.12,9.87,9.87,0,0,0,3.84-2.25,8.82,8.82,0,0,0,2.43-3.8,8.66,8.66,0,0,0,.22-4.46,9.63,9.63,0,0,0-.59-1.89,8.72,8.72,0,0,0-10-5.16,9.66,9.66,0,0,0-1.89.6,8.68,8.68,0,0,0-4,3.43A9.07,9.07,0,0,0,10.24,23.47Zm7.2-4.86a1.36,1.36,0,0,1,2.72,0v4.22l3.31,1.84A1.36,1.36,0,1,1,22.14,27h0l-3.9-2.17a1.35,1.35,0,0,1-.8-1.24Z"/><path class="cls-2" d="M33.35,35.49v-2.2h-2v2.2H30.3v-5.3h1.08v2.17h2V30.19h1.07v5.3Z"/></svg>