<svg id="Capa_1" data-name="Capa 1" xmlns="http://www.w3.org/2000/svg" viewBox="0 0 40 40"><defs><style>.cls-1{fill:#2fa600;}.cls-2{fill:#fff;}</style></defs><title>h_inicial</title><path class="cls-1" d="M36.7,7.1H3.3A2.3,2.3,0,0,0,1,9.39V35.44a2.3,2.3,0,0,0,2.3,2.3H36.7a2.3,2.3,0,0,0,2.3-2.3v-26A2.3,2.3,0,0,0,36.7,7.1Z"/><rect class="cls-1" x="4.68" y="1.58" width="19" height="8.58" rx="3.75" ry="3.75"/><path class="cls-2" d="M24.47,34.87V25.34H15.92v9.53H11.26v-23h4.66v9.39h8.55V11.89h4.67v23Z"/><polygon class="cls-2" points="4.68 12 4.68 8.25 35.32 8.25 35.32 10.16 20.84 10.13 4.68 12"/></svg>