<svg xmlns="http://www.w3.org/2000/svg" viewBox="0 0 37 37"><defs><style>.cls-1{fill:#999;}.cls-2{fill:#ccc;}.cls-3,.cls-4,.cls-6{fill:#2fa600;}.cls-4,.cls-5,.cls-6,.cls-7{stroke:#2fa600;}.cls-4,.cls-5,.cls-6,.cls-7,.cls-8{stroke-miterlimit:10;}.cls-4{stroke-width:1.5px;}.cls-5,.cls-7{fill:none;}.cls-7{stroke-width:3px;}.cls-8{fill:#fff;stroke:#fff;}</style></defs><title>Recurso 122</title><g id="Capa_2" data-name="Capa 2"><g id="Capa_1-2" data-name="Capa 1"><rect class="cls-1" x="29.6" y="14.8" width="7.4" height="6.47" rx="2.4" ry="2.4"/><rect class="cls-2" x="29.6" y="4.63" width="7.4" height="6.48" rx="2.4" ry="2.4"/><rect class="cls-3" width="31.45" height="37" rx="5.32" ry="5.32"/><rect class="cls-3" x="29.6" y="24.98" width="7.4" height="6.47" rx="2.4" ry="2.4"/><line class="cls-4" x1="17.5" y1="2.5" x2="10" y2="10"/><polyline class="cls-5" points="4 22 19.5 22 19.5 25.5 2 25.5"/><polyline class="cls-6" points="22.5 14.5 14.54 24.5 11.54 24.5 20.5 13.5"/><line class="cls-7" x1="9.71" y1="22" x2="7.5" y2="16.5"/><path class="cls-8" d="M9,9.08h3.25l-.11,18.09H8.89Zm1.46,7.48,10,.07v3.28l-10-.06Zm8-7.42h3.25L21.6,27.23H18.35Z"/></g></g></svg>