<svg xmlns="http://www.w3.org/2000/svg" viewBox="0 0 80 80"><defs><style>.cls-1{fill:#2fa600;stroke:#fff;stroke-miterlimit:10;stroke-width:2px;}.cls-2{fill:#fff;}</style></defs><title>Paciente-icon</title><g id="Layer_2" data-name="Layer 2"><g id="Layer_1-2" data-name="Layer 1"><circle class="cls-1" cx="40" cy="40" r="39"/><circle class="cls-2" cx="40" cy="16" r="10.67"/><path class="cls-2" d="M41.33,29.33H38.67a12.72,12.72,0,0,1-5.33-2.67A12.07,12.07,0,0,1,32,25.33l-1.33,1.33c-5.59,7.41-21,28.61-15.82,34.49a5.1,5.1,0,0,0,3.65,1.51h43a5.1,5.1,0,0,0,3.65-1.51c5.16-5.88-10.23-27.08-15.82-34.49L48,25.33a12.07,12.07,0,0,1-1.33,1.33A12.72,12.72,0,0,1,41.33,29.33Z"/></g></g></svg>