<?xml version="1.0" encoding="utf-8"?>
<!-- Generator: Adobe Illustrator 22.0.0, SVG Export Plug-In . SVG Version: 6.00 Build 0)  -->
<svg version="1.1" id="Capa_1" xmlns="http://www.w3.org/2000/svg" xmlns:xlink="http://www.w3.org/1999/xlink" x="0px" y="0px"
	 viewBox="0 0 80 80" style="enable-background:new 0 0 80 80;" xml:space="preserve">
<style type="text/css">
	.st0{fill:#919397;stroke:#FFFFFF;stroke-width:2;stroke-miterlimit:10;}
	.st1{fill:#FFFFFF;stroke:#FFFFFF;stroke-width:0.6289;stroke-miterlimit:10;}
	.st2{fill:#FFFFFF;}
</style>
<title>Paciente-icon</title>
<g id="Layer_2">
	<g id="Layer_1-2">
		<circle class="st0" cx="40" cy="40" r="39"/>
	</g>
</g>
<g>
	<path class="st1" d="M40.9,63.3L40.9,63.3c-0.7,0-1.3-0.6-1.3-1.3V51.2c0-0.7,0.6-1.3,1.3-1.3l0,0c0.7,0,1.3,0.6,1.3,1.3V62
		C42.2,62.7,41.6,63.3,40.9,63.3z"/>
	<path class="st1" d="M34.2,56.6L34.2,56.6c0-0.7,0.6-1.3,1.3-1.3h10.8c0.7,0,1.3,0.6,1.3,1.3l0,0c0,0.7-0.6,1.3-1.3,1.3H35.5
		C34.8,57.9,34.2,57.3,34.2,56.6z"/>
</g>
<path class="st2" d="M58.2,63.8c-1,0-1.7-0.8-1.7-1.7c0-8.6-7-15.5-15.5-15.5s-15.5,7-15.5,15.5c0,1-0.8,1.7-1.7,1.7
	c-1,0-1.7-0.8-1.7-1.7c0-10.5,8.5-19,19-19s19,8.5,19,19C59.9,63.1,59.2,63.8,58.2,63.8z"/>
<path class="st2" d="M40.9,39.4c-6.2,0-11.2-5-11.2-11.2v-3.4c0-6.2,5-11.2,11.2-11.2s11.2,5,11.2,11.2v3.4
	C52.1,34.4,47.1,39.4,40.9,39.4z M40.9,16.8c-4.4,0-8.1,3.6-8.1,8.1v3.4c0,4.4,3.6,8.1,8.1,8.1c4.4,0,8.1-3.6,8.1-8.1v-3.4
	C49,20.4,45.4,16.8,40.9,16.8z"/>
</svg>
