<?xml version="1.0" encoding="utf-8"?>
<!-- Generator: Adobe Illustrator 22.0.0, SVG Export Plug-In . SVG Version: 6.00 Build 0)  -->
<svg version="1.1" id="Capa_1" xmlns="http://www.w3.org/2000/svg" xmlns:xlink="http://www.w3.org/1999/xlink" x="0px" y="0px"
	 viewBox="0 0 80 79" style="enable-background:new 0 0 80 79;" xml:space="preserve">
<style type="text/css">
	.st0{fill:#2FA600;}
	.st1{fill:#185BA9;}
</style>
<g>
	<g>
		<g>
			<ellipse class="st0" cx="40" cy="19.4" rx="6" ry="6"/>
		</g>
	</g>
	<g>
		<g>
			<path class="st0" d="M35.6,24.7c0,0-2.6,1.3-4.4,4.4c-1.7,3.1-6.1,8.6-6.1,13.5c0,0-0.5,3.5,3.9,3h23.1c0,0,3,0,2.6-4.4
				s-7.9-15.7-10.5-16.5C44.3,24.7,40,29.5,35.6,24.7z"/>
		</g>
	</g>
</g>
<g>
	<path class="st1" d="M46.3,53.4c1-0.8,1.6-1.7,0.9-2.9c-0.6-1.1-1.8-1.5-3.3-1.5c-3.1,0-6.2,0.1-9.3-0.2c-1.8-0.2-3.7-0.8-5.4-1.4
		c-3.5-1.3-6.9-0.9-10.3,0.3c-0.3,0.1-0.5,0.4-0.5,0.7c0,3.1,0,6.2,0,9.3c4.4-1.3,8.3,0.2,12.2,1.4c2.1,0.6,4.2,1.5,6.4,1.8
		c3.6,0.6,7.1-0.4,10.3-1.7c5.1-2,9.4-5,13.3-8.3c1.1-0.9,1.1-2.1,0.2-3c-1-0.9-2.4-1.1-3.8-0.3C53.4,49.6,49.9,51.5,46.3,53.4
		c-0.5,0.2-1,0.5-1.6,0.5c-1.2,0-2.3-0.1-3.5-0.1c-1.9-0.1-3.8-0.1-5.6-0.2c1.6-0.1,3.1-0.1,4.7-0.1C42.3,53.5,44.3,53.4,46.3,53.4z
		"/>
</g>
</svg>
