<svg xmlns="http://www.w3.org/2000/svg" viewBox="0 0 80 80"><defs><style>.cls-1,.cls-3{fill:#185ba9;}.cls-1{stroke:#fff;stroke-miterlimit:10;stroke-width:2px;}.cls-2{fill:#fff;}</style></defs><title>Medico-icon</title><g id="Layer_2" data-name="Layer 2"><g id="Layer_1-2" data-name="Layer 1"><circle class="cls-1" cx="40" cy="40" r="39"/><circle class="cls-2" cx="40" cy="16" r="10.67"/><path class="cls-2" d="M41.33,29.33H38.67a12.72,12.72,0,0,1-5.33-2.67A12.07,12.07,0,0,1,32,25.33c-.44.44-3.56,2.22-4,2.67C22.41,35.41,9.69,55.28,14.85,61.15a5.1,5.1,0,0,0,3.65,1.51h43a5.1,5.1,0,0,0,3.65-1.51C70.31,55.28,57.59,35.41,52,28c-.44-.44-3.56-2.22-4-2.67a12.07,12.07,0,0,1-1.33,1.33A12.72,12.72,0,0,1,41.33,29.33Z"/><rect class="cls-3" x="30.34" y="29.14" width="1.81" height="24.77" transform="translate(-20.21 34.26) rotate(-45)"/><rect class="cls-3" x="39.39" y="49.34" width="1.61" height="24.77" transform="translate(80.39 123.45) rotate(180)"/><rect class="cls-3" x="48.34" y="29.14" width="1.81" height="24.77" transform="translate(45.1 -22.76) rotate(46.17)"/><rect class="cls-3" x="49" y="48" width="8" height="8"/></g></g></svg>