<svg xmlns="http://www.w3.org/2000/svg" viewBox="0 0 32.15 35.02"><defs><style>.cls-1{fill:#185ba9;}</style></defs><title>icono-medico-color-6</title><g id="Capa_2" data-name="Capa 2"><g id="Capa_1-2" data-name="Capa 1"><circle class="cls-1" cx="16.08" cy="6.53" r="6.53"/><path class="cls-1" d="M15.68,27.8h0V35H3A3.16,3.16,0,0,1,.74,34C-1.68,31.26,2.32,23.5,5.88,18Z"/><path class="cls-1" d="M26.46,18.3l-9.79,9.4V35H29.19a3.1,3.1,0,0,0,2.22-.94C33.79,31.36,30,23.79,26.46,18.3Zm0,12.62H21.57V26h4.89Z"/><path class="cls-1" d="M25.87,17.31,20,23l-3.85,3.71-3.42-3.41L6.53,17.07c.84-1.29,1.63-2.38,2.27-3.22.2-.2,1.44-.94,2.08-1.33h0a3,3,0,0,0,.3-.2l.05-.05h0c0,.05.1.15.2.2a14.51,14.51,0,0,0,1,4.4,8.13,8.13,0,0,0-.54.69,1.32,1.32,0,0,0,.25,1.58,1.43,1.43,0,0,0,1.58.25A1.35,1.35,0,0,0,14.44,18a1.42,1.42,0,0,0-1.13-1.24c-.3-.05-.4-.15-.5-.45A18.56,18.56,0,0,1,12,13h0a8.09,8.09,0,0,0,3.26,1.63h1.64a7.62,7.62,0,0,0,2.87-1.33.38.38,0,0,1-.05.2c-.1.64-.3,1.33-.45,2-.05.2-.1.3-.35.25A1.88,1.88,0,0,0,17.16,17c-.14.29-.19.59-.34.89a.5.5,0,0,1-.2.25.79.79,0,0,0-.4.79.74.74,0,0,0,.7.54.62.62,0,0,0,.64-.59,3.07,3.07,0,0,0-.15-.55c0-.1-.1-.19-.05-.29a4.65,4.65,0,0,1,.5-1.14,1.33,1.33,0,0,1,1.73-.5,1,1,0,0,1,.54.65,3.59,3.59,0,0,1,.05,1.63c0,.1-.1.15-.15.2a.7.7,0,0,0-.29,1,.68.68,0,0,0,1,.2.67.67,0,0,0,.14-1c-.09-.1-.05-.3-.09-.45a8.7,8.7,0,0,0-.05-1.53,1.42,1.42,0,0,0-.85-1.19.44.44,0,0,1-.09-.25c.19-.94.39-1.88.59-2.87v-.1a3.93,3.93,0,0,0,.54-.54c.15.15.8.54,1.39.94a9.89,9.89,0,0,1,1,.69Q24.46,15.24,25.87,17.31Z"/></g></g></svg>