<?xml version="1.0" encoding="utf-8"?>
<!-- Generator: Adobe Illustrator 23.0.0, SVG Export Plug-In . SVG Version: 6.00 Build 0)  -->
<svg version="1.1" id="Capa_1" xmlns="http://www.w3.org/2000/svg" xmlns:xlink="http://www.w3.org/1999/xlink" x="0px" y="0px"
	 viewBox="0 0 80 79" style="enable-background:new 0 0 80 79;" xml:space="preserve">
<style type="text/css">
	.st0{fill:#2FA602;stroke:#2FA602;stroke-width:0.6289;stroke-miterlimit:10;}
	.st1{fill:#2FA602;}
</style>
<g>
	<path class="st0" d="M38,63L38,63c-0.7,0-1.3-0.6-1.3-1.3V50.9c0-0.7,0.6-1.3,1.3-1.3l0,0c0.7,0,1.3,0.6,1.3,1.3v10.8
		C39.3,62.4,38.7,63,38,63z"/>
	<path class="st0" d="M31.3,56.3L31.3,56.3c0-0.7,0.6-1.3,1.3-1.3h10.8c0.7,0,1.3,0.6,1.3,1.3v0c0,0.7-0.6,1.3-1.3,1.3H32.6
		C31.9,57.6,31.3,57,31.3,56.3z"/>
</g>
<path class="st1" d="M55.3,63.5c-1,0-1.7-0.8-1.7-1.7c0-8.6-7-15.5-15.5-15.5s-15.5,7-15.5,15.5c0,1-0.8,1.7-1.7,1.7
	c-1,0-1.7-0.8-1.7-1.7c0-10.5,8.5-19,19-19s19,8.5,19,19C57,62.8,56.3,63.5,55.3,63.5z"/>
<path class="st1" d="M38,39.1c-6.2,0-11.2-5-11.2-11.2v-3.4c0-6.2,5-11.2,11.2-11.2c6.2,0,11.2,5,11.2,11.2v3.4
	C49.2,34.1,44.2,39.1,38,39.1z M38,16.5c-4.4,0-8.1,3.6-8.1,8.1v3.4c0,4.4,3.6,8.1,8.1,8.1c4.4,0,8.1-3.6,8.1-8.1v-3.4
	C46.1,20.1,42.5,16.5,38,16.5z"/>
</svg>
