<?xml version="1.0" encoding="utf-8"?>
<!-- Generator: Adobe Illustrator 23.0.0, SVG Export Plug-In . SVG Version: 6.00 Build 0)  -->
<svg version="1.1" id="Capa_1" xmlns="http://www.w3.org/2000/svg" xmlns:xlink="http://www.w3.org/1999/xlink" x="0px" y="0px"
	 viewBox="0 0 80 79" style="enable-background:new 0 0 80 79;" xml:space="preserve">
<style type="text/css">
	.st0{fill:#175CAA;}
</style>
<path class="st0" d="M34.4,53.4c-0.7,0-1.3-0.6-1.3-1.3l0-4.9c0-0.7,0.6-1.3,1.3-1.3c0,0,0,0,0,0c0.7,0,1.3,0.6,1.3,1.3l0,4.9
	C35.7,52.9,35.1,53.4,34.4,53.4C34.4,53.4,34.4,53.4,34.4,53.4z"/>
<path class="st0" d="M34.4,59c-2,0-3.6-1.6-3.6-3.6s1.6-3.6,3.6-3.6c2,0,3.6,1.6,3.6,3.6S36.4,59,34.4,59z M34.4,54.2
	c-0.6,0-1.1,0.5-1.1,1.1c0,0.6,0.5,1.1,1.1,1.1c0.6,0,1.1-0.5,1.1-1.1C35.6,54.7,35.1,54.2,34.4,54.2z"/>
<path class="st0" d="M47.5,53.6c-0.7,0-1.3-0.6-1.3-1.3v-5.1c0-0.7,0.6-1.3,1.3-1.3s1.3,0.6,1.3,1.3v5.1
	C48.7,53,48.2,53.6,47.5,53.6z"/>
<path class="st0" d="M50.7,63.2c-0.7,0-1.3-0.6-1.3-1.3v-5.5c0-1.1-0.9-2-2-2c-1.1,0-2,0.9-2,2v5.5c0,0.7-0.6,1.3-1.3,1.3
	s-1.3-0.6-1.3-1.3v-5.5c0-2.5,2-4.5,4.5-4.5c2.5,0,4.5,2,4.5,4.5v5.5C51.9,62.6,51.4,63.2,50.7,63.2z"/>
<path class="st0" d="M58,63.5c-1,0-1.7-0.8-1.7-1.7c0-8.6-7-15.5-15.5-15.5s-15.5,7-15.5,15.5c0,1-0.8,1.7-1.7,1.7
	c-1,0-1.7-0.8-1.7-1.7c0-10.5,8.5-19,19-19s19,8.5,19,19C59.7,62.8,58.9,63.5,58,63.5z"/>
<path class="st0" d="M40.7,39.1c-6.2,0-11.2-5-11.2-11.2v-3.4c0-6.2,5-11.2,11.2-11.2c6.2,0,11.2,5,11.2,11.2v3.4
	C51.9,34.1,46.9,39.1,40.7,39.1z M40.7,16.5c-4.4,0-8.1,3.6-8.1,8.1v3.4c0,4.4,3.6,8.1,8.1,8.1c4.4,0,8.1-3.6,8.1-8.1v-3.4
	C48.8,20.1,45.2,16.5,40.7,16.5z"/>
</svg>
