<svg xmlns="http://www.w3.org/2000/svg" viewBox="0 0 37 37"><defs><style>.cls-1{fill:#999;}.cls-2{fill:#ccc;}.cls-3{fill:#005eae;}.cls-4{fill:#fff;}</style></defs><title>Recurso 123</title><g id="Capa_2" data-name="Capa 2"><g id="Capa_1-2" data-name="Capa 1"><rect class="cls-1" x="29.6" y="14.8" width="7.4" height="6.47" rx="2.4" ry="2.4"/><rect class="cls-2" x="29.6" y="4.63" width="7.4" height="6.48" rx="2.4" ry="2.4"/><rect class="cls-3" width="31.45" height="37" rx="5.32" ry="5.32"/><rect class="cls-3" x="29.6" y="24.98" width="7.4" height="6.47" rx="2.4" ry="2.4"/><path class="cls-4" d="M22.41,25l1.14-.13.08,3.31a41.94,41.94,0,0,1-8.25.94c-3,0-5.2-.83-6.52-2.49s-2-4.31-2-8q0-10.88,8.87-10.87,8.58,0,8.58,9.35L24,20.29H11.38A5.56,5.56,0,0,0,12.48,24c.71.79,2,1.18,4,1.18S20.36,25.11,22.41,25ZM20,16.86q0-3-1-4.23a3.92,3.92,0,0,0-3.24-1.2,4.07,4.07,0,0,0-3.33,1.26,6.75,6.75,0,0,0-1.09,4.17Z"/></g></g></svg>