<?xml version="1.0" encoding="utf-8"?>
<!-- Generator: Adobe Illustrator 22.0.0, SVG Export Plug-In . SVG Version: 6.00 Build 0)  -->
<svg version="1.1" id="Capa_1" xmlns="http://www.w3.org/2000/svg" xmlns:xlink="http://www.w3.org/1999/xlink" x="0px" y="0px"
	 viewBox="0 0 80 79" style="enable-background:new 0 0 80 79;" xml:space="preserve">
<style type="text/css">
	.st0{fill:#B18607;}
	.st1{fill:#FFFFFF;}
	.st2{fill:none;}
</style>
<circle class="st0" cx="40" cy="22.8" r="9.3"/>
<path class="st0" d="M63,56.7c-0.6-6.8-12.2-24.3-16.3-25.6l-0.3,0.3c1.4,0.7,2.5,1.9,2.9,3.5c0.2,0.4,0.4,0.8,0.8,1.1
	c1.1,0.7,1.6,2,1.2,3.3c-0.4,1.2-1.5,2-2.8,2c-1.2-0.1-2.3-1-2.6-2.2c-0.3-1.3,0.3-2.6,1.5-3.1c0.2-0.1,0.4-0.2,0.7-0.3
	c-0.3-1.5-1.3-2.7-2.7-3.3l0.1-0.2c-2,1.6-6.3,4-10.9,0.3c-1.1,0.3-2.1,1-2.7,2c-0.7,1.1-0.6,1.4,0.4,2.2c0.9,0.6,1.7,1.4,2.2,2.4
	c1.1,2.2,1.5,4.7,1.1,7.1c-0.2,1.2-2.4,2.1-3.5,1.5c-0.4-0.2-0.5-0.6-0.3-1c0.1-0.1,0.2-0.2,0.3-0.3c0.2-0.1,0.4-0.1,0.6-0.1
	c1.7-0.1,1.7-0.1,1.7-1.9c-0.1-2.1-0.9-4.1-2.4-5.5c-0.5-0.8-1.5-1-2.3-0.5c-0.2,0.1-0.4,0.3-0.5,0.5c-1.7,1.8-2.8,3.9-2.5,6.6
	c0.1,0.7,0.3,1,1,0.9c0.3-0.1,0.7-0.1,1.1,0c0.3,0.1,0.7,0.5,0.7,0.7c-0.1,0.3-0.3,0.6-0.7,0.7c-1.9,0.2-3.4-0.3-3.4-2.6
	c-0.1-2.3,0.5-4.5,1.6-6.5c0.5-0.6,1.1-1.2,1.7-1.8c0.6-0.6,1.1-1.2,1.4-1.9c0.6-1.6,1.8-2.8,3.3-3.4l-0.3-0.3
	c-2.9,1.6-5.2,3.9-6.8,6.8C23.7,42.7,17,51.3,17,58.8c0,0-0.7,5.4,6.1,4.7h35.8C58.9,63.5,63.6,63.5,63,56.7z M40.7,41.1
	c-0.2,0.4-0.5,0.9-0.9,1.4c-0.8-1.4-1.6-2.6-2.4-3.8c-0.3-0.4-0.7-0.8-1.2-1c-1.4-0.4-2.6-1.3-3.5-2.5L36,36
	c-0.4-0.9-0.7-1.7-1.2-2.8c3.3,2.7,6.5,2.9,9.9,0.2c-0.2,0.6-0.4,1-0.6,1.5l3-0.3c-0.1,1.2-1,2.3-2.2,2.6
	C42.7,37.7,41.7,39.3,40.7,41.1z M53.2,45c-1,0.1-2.1,0.1-3.1,0c-1,0.1-2,0.1-3,0c-0.5-0.1-0.9-0.4-1.1-0.8c-0.2-0.7,0.4-1,1.1-1
	c2,0,4.1,0,6.1,0c0.4,0,0.7,0.6,1.1,0.9C54,44.4,53.6,44.9,53.2,45z"/>
<path class="st0" d="M46.7,6.8c1.1,0.3,1.8,1.3,1.7,2.5c0,1.9,0,3.7,0,5.6c-0.1,0.3-0.2,0.7-0.3,1c-0.3-0.1-0.6-0.2-0.9-0.4
	c-4.7-3.5-9.8-3.5-14.3,0c-0.3,0.2-0.6,0.3-0.9,0.4c-0.1-0.3-0.2-0.6-0.3-1c-0.1-1-0.1-1.9-0.1-2.9c0-0.9,0-1.8,0-2.7
	c-0.1-1.1,0.7-2.1,1.7-2.5"/>
<polyline class="st1" points="39.2,6.9 39.1,8.3 37.7,8.5 37.7,9.9 39.1,10 39.2,11.5 40.8,11.4 40.9,10 42.2,9.9 42.2,8.5 
	40.9,8.3 40.8,6.9 "/>
<path class="st2" d="M35.2,31.2v1.2l-0.5,0.1c-0.4-0.3-0.7-0.6-1.1-1C34.1,31.3,34.6,31.2,35.2,31.2z"/>
<path class="st0" d="M48.8,37c-0.8,0-1.4,0.6-1.4,1.4c0,0,0,0,0,0.1c0.1,0.8,0.8,1.3,1.5,1.2c0.7-0.1,1.2-0.7,1.2-1.4
	C50.1,37.6,49.6,37,48.8,37z M45.9,31.2c-0.1,0.4-0.2,0.7-0.3,1c0.4-0.3,0.7-0.6,0.9-0.8C46.3,31.3,46.1,31.3,45.9,31.2z"/>
</svg>
