<?xml version="1.0" encoding="utf-8"?>
<!-- Generator: Adobe Illustrator 22.0.0, SVG Export Plug-In . SVG Version: 6.00 Build 0)  -->
<svg version="1.1" id="Capa_1" xmlns="http://www.w3.org/2000/svg" xmlns:xlink="http://www.w3.org/1999/xlink" x="0px" y="0px"
	 viewBox="0 0 80 80" style="enable-background:new 0 0 80 80;" xml:space="preserve">
<style type="text/css">
	.st0{fill:#919397;stroke:#FFFFFF;stroke-width:2;stroke-miterlimit:10;}
	.st1{fill:#FFFFFF;}
</style>
<title>Paciente-icon</title>
<g id="Layer_2">
	<g id="Layer_1-2">
		<circle class="st0" cx="40" cy="40" r="39"/>
		<circle class="st1" cx="40" cy="16" r="10.7"/>
		<path class="st1" d="M41.3,29.3h-2.7c-2-0.5-3.8-1.4-5.3-2.7c-0.5-0.4-0.9-0.9-1.3-1.3l-1.3,1.3c-5.6,7.4-21,28.6-15.8,34.5
			c1,1,2.3,1.5,3.6,1.5h43c1.4,0,2.7-0.5,3.7-1.5c5.2-5.9-10.2-27.1-15.8-34.5L48,25.3c-0.4,0.5-0.9,0.9-1.3,1.3
			C45.1,28,43.3,28.9,41.3,29.3z"/>
	</g>
</g>
</svg>
