<?xml version="1.0" encoding="utf-8"?>
<!-- Generator: Adobe Illustrator 22.0.0, SVG Export Plug-In . SVG Version: 6.00 Build 0)  -->
<svg version="1.1" id="Capa_1" xmlns="http://www.w3.org/2000/svg" xmlns:xlink="http://www.w3.org/1999/xlink" x="0px" y="0px"
	 viewBox="0 0 80 79" style="enable-background:new 0 0 80 79;" xml:space="preserve">
<style type="text/css">
	.st0{fill:#FFC107;}
	.st1{fill:#FFC107;stroke:#FFC107;stroke-width:0.6821;stroke-miterlimit:10;}
</style>
<path class="st0" d="M56.6,65.1c-1,0-1.8-0.8-1.8-1.8c0-8.8-7.2-16-16-16s-16,7.2-16,16c0,1-0.8,1.8-1.8,1.8s-1.8-0.8-1.8-1.8
	c0-10.8,8.8-19.6,19.6-19.6s19.6,8.8,19.6,19.6C58.4,64.3,57.6,65.1,56.6,65.1z"/>
<g>
	<path class="st1" d="M39,16.8L39,16.8c-0.2,0-0.3-0.1-0.3-0.3v-2.7c0-0.2,0.1-0.3,0.3-0.3l0,0c0.2,0,0.3,0.1,0.3,0.3v2.7
		C39.3,16.7,39.2,16.8,39,16.8z"/>
	<path class="st1" d="M37.3,15.1L37.3,15.1c0-0.2,0.1-0.3,0.3-0.3h2.7c0.2,0,0.3,0.1,0.3,0.3l0,0c0,0.2-0.1,0.3-0.3,0.3h-2.7
		C37.4,15.4,37.3,15.3,37.3,15.1z"/>
</g>
<path class="st0" d="M47.2,21.9H30.4c-0.7,0-1.3-0.6-1.4-1.3l-0.6-8.8c0-0.6,0.3-1.1,0.8-1.4l0.9-0.4c5.6-2.3,11.7-2.3,17.3,0
	l0.9,0.4c0.5,0.2,0.9,0.8,0.8,1.4l-0.6,8.8C48.6,21.3,48,21.9,47.2,21.9z M31.6,19.1H46l0.4-6.6c-4.9-2-10.3-2-15.2,0L31.6,19.1z"/>
<path class="st0" d="M46.8,16.4c0,1.2-0.6,2.4-1.7,2.9c1.2,1.4,2,3.3,2,5.4v3.5c0,4.6-3.7,8.3-8.3,8.3s-8.3-3.7-8.3-8.3v-3.5
	c0-1.9,0.7-3.7,1.8-5.1c-1.2-0.4-1.8-1.6-1.9-2.7c-1.9,2.1-3.1,4.8-3.1,7.8v3.5c0,6.4,5.2,11.5,11.5,11.5c6.4,0,11.5-5.2,11.5-11.5
	v-3.5C50.4,21.4,49,18.5,46.8,16.4z"/>
</svg>
