<svg id="Capa_1" data-name="Capa 1" xmlns="http://www.w3.org/2000/svg" viewBox="0 0 80 79"><defs><style>.cls-1{fill:none;stroke:#185ba9;stroke-miterlimit:10;stroke-width:3px;}.cls-2{fill:#005bad;}</style></defs><title>Mesa de trabajo 89 copia 5</title><path class="cls-1" d="M69.87,16.82,53.67,4.51A7.39,7.39,0,0,0,49.2,3H16.77a7.4,7.4,0,0,0-7.4,7.4V69.6a7.4,7.4,0,0,0,7.4,7.4H65.4a7.4,7.4,0,0,0,7.4-7.4V22.71A7.38,7.38,0,0,0,69.87,16.82Z"/><g id="Layer_2" data-name="Layer 2"><g id="Layer_1-2" data-name="Layer 1-2"><path class="cls-2" d="M57.82,30.09H25.44A5.45,5.45,0,0,0,20,35.53v21A5.45,5.45,0,0,0,25.44,62H57.82a5.45,5.45,0,0,0,5.44-5.44v-21A5.45,5.45,0,0,0,57.82,30.09ZM41.63,56a9.93,9.93,0,1,1,9.92-9.92A9.93,9.93,0,0,1,41.63,56Zm15.6-15.6a2.84,2.84,0,1,1,2.83-2.83A2.84,2.84,0,0,1,57.23,40.37Z"/><path class="cls-2" d="M49.84,23H34.18c-5,.71-2.12,6.38-5,8.51H53.33C52.71,28.43,52.62,24.83,49.84,23Z"/></g></g></svg>