<?xml version="1.0" encoding="utf-8"?>
<!-- Generator: Adobe Illustrator 22.0.0, SVG Export Plug-In . SVG Version: 6.00 Build 0)  -->
<svg version="1.1" id="Capa_1" xmlns="http://www.w3.org/2000/svg" xmlns:xlink="http://www.w3.org/1999/xlink" x="0px" y="0px"
	 viewBox="0 0 80 79" style="enable-background:new 0 0 80 79;" xml:space="preserve">
<style type="text/css">
	.st0{fill:#2FA6EC;}
	.st1{fill:#FFFFFF;}
	.st2{fill:none;}
</style>
<g>
	<g>
		<g>
			<ellipse class="st0" cx="40" cy="22.8" rx="9.3" ry="9.3"/>
		</g>
	</g>
	<path class="st1" d="M54,52.9c0,2.1-1.7,3.8-3.8,3.8s-3.8-1.7-3.8-3.8s1.7-3.8,3.8-3.8C52.3,49.1,54,50.8,54,52.9z"/>
	<path class="st0" d="M57.7,51.7c-0.2-1.3-0.7-2.5-1.5-3.4l1.2-1.2L56,45.5l-1.3,1.2c-1-0.8-2.2-1.3-3.6-1.4v-1.8H49v1.8
		c-1.3,0.2-2.5,0.7-3.5,1.5l-1.3-1.3L42.8,47l1.3,1.3c-0.7,1-1.2,2.1-1.4,3.3l-0.1,0.2h-1.8v2.1h1.9c0.2,1.3,0.7,2.5,1.4,3.4
		l-1.3,1.3l1.5,1.5l1.3-1.3c1,0.8,2.2,1.3,3.5,1.5v1.8h2.1v-1.8c1.3-0.2,2.6-0.7,3.6-1.5L56,60l1.5-1.5l-1.2-1.2
		c0.8-1,1.3-2.2,1.4-3.5h1.8v-2.1H57.7z M50.2,57.5c-2.5,0-4.7-2.1-4.7-4.7c0-2.6,2.1-4.6,4.7-4.6c2.6,0,4.7,2.1,4.7,4.6
		C54.9,55.4,52.7,57.5,50.2,57.5z"/>
	<path class="st0" d="M63,56.7c-0.6-6.8-12.2-24.3-16.3-25.6c0,0-6.7,7.4-13.5,0c0,0-4.1,2-6.8,6.8S17,51.3,17,58.8
		c0,0-0.7,5.4,6.1,4.7h35.8C58.9,63.5,63.6,63.5,63,56.7z M60.3,54.7h-1.9c-0.2,0.9-0.6,1.8-1.1,2.6l1.3,1.3L56,61.3L54.7,60
		c-0.8,0.5-1.7,0.8-2.7,1v2h-3.8v-2c-0.9-0.2-1.7-0.6-2.5-1l-1.4,1.4l-2.7-2.7l1.5-1.5c-0.3-0.5-0.6-1.1-0.8-1.7l0,0c0,0,0,0,0-0.1
		c-0.1-0.3-0.2-0.5-0.2-0.7H40V51h2c0.2-0.7,0.4-1.3,0.7-1.9c0.1-0.2,0.2-0.4,0.3-0.6l-1.5-1.4l2.7-2.7l1.4,1.4
		c0.8-0.5,1.6-0.9,2.5-1.1v-2H52v2c0.9,0.2,1.8,0.5,2.5,1l1.4-1.4l2.7,2.7l-1.4,1.3c0.5,0.8,0.9,1.6,1.1,2.6h1.9L60.3,54.7
		L60.3,54.7z"/>
	<path class="st2" d="M42.6,42.5c-1.7,0-3.1,1.3-3.1,3c0,1.7,1.5,3.1,3.1,3.1c1.7,0,3.1-1.4,3.1-3.1C45.7,43.9,44.4,42.5,42.6,42.5z
		 M42.6,48.1c-1.4,0-2.5-1.1-2.5-2.5c0-1.4,1.1-2.5,2.5-2.5c1.4,0,2.5,1.1,2.5,2.5C45.1,47,44,48.1,42.6,48.1z"/>
	<path class="st1" d="M46.1,46.1l0.6,0c-0.2-1.4-1.5-2.6-3.1-2.6c-1.7,0-3.1,1.3-3.1,3c0,1.5,1.1,2.8,2.5,3.1l0.1-0.5"/>
	<path class="st1" d="M48.9,44.8c-0.1-0.4-0.3-0.8-0.6-1.2l0.9-0.9l-1.8-1.8l-0.9,0.9c-0.5-0.3-1.1-0.5-1.6-0.7v-1.3h-2.6v1.3
		c-0.6,0.1-1.1,0.4-1.7,0.7L39.7,41l-1.8,1.8l1,0.9c-0.1,0.1-0.1,0.3-0.2,0.4c-0.2,0.4-0.3,0.8-0.5,1.3h-1.3v2.5h1.4
		c0,0.1,0.1,0.3,0.1,0.5c0,0.1,0,0.1,0,0.1c0.1,0.4,0.3,0.8,0.5,1.1l-1,1l1.8,1.8l0.9-0.9c0.4,0.2,0.8,0.4,1.3,0.6l0.1-0.6
		c-0.6-0.2-1.1-0.4-1.5-0.8l-0.9,0.9l-1-1l0.9-0.9c-0.5-0.6-0.8-1.4-0.9-2.3h-1.3v-1.4h1.2l0.1-0.1c0.1-0.8,0.5-1.5,0.9-2.2
		l-0.9-0.9l0.9-1l0.9,0.9c0.7-0.5,1.5-0.9,2.3-1v-1.2h1.4v1.2c0.9,0.1,1.7,0.4,2.4,0.9l0.9-0.8l0.9,1.1l-0.8,0.8
		c0.3,0.4,0.6,0.8,0.8,1.3L48.9,44.8z"/>
</g>
</svg>
