<svg id="Capa_1" data-name="Capa 1" xmlns="http://www.w3.org/2000/svg" viewBox="0 0 66 64.13"><defs><style>.cls-1{fill:none;stroke:#185ba9;stroke-miterlimit:10;stroke-width:3px;}.cls-2{fill:#005bad;}</style></defs><title>infectologia</title><g id="Capa_2" data-name="Capa 2"><g id="Capa_1-2" data-name="Capa 1-2"><path class="cls-1" d="M33.25,2.5A29.75,29.75,0,1,0,63,32.25,29.75,29.75,0,0,0,33.25,2.5Z"/></g></g><path class="cls-2" d="M39.21,44.29a21.24,21.24,0,0,1,.23-2.39c.1-1.2-.47-1.68-1.62-1.34-1.42.42-1.57.58-1.33,2.15.27,1.78.7,3.54,1,5.32A4.24,4.24,0,0,1,37,51.44a3.5,3.5,0,0,1-3.4,1.39,3.43,3.43,0,0,1-2.64-2.72,3.25,3.25,0,0,1,1.45-3.42l.07,0c2.54-1.19,2.32-2.8.62-5.27-.37-.53-1.21-.52-1.88-.43-2.07.27-3.36,1.74-3.7,4.15a3.49,3.49,0,0,1-.57,1.74,2.56,2.56,0,0,1-2.83.88A2.61,2.61,0,0,1,22.4,45a2.25,2.25,0,0,1,1.94-2,3.51,3.51,0,0,0,3-3.22c0-1.13-.82-1.8-1.43-2.57-.19-.24-.53-.1-.81,0A6.33,6.33,0,0,0,22,39.64a3.41,3.41,0,0,1-5,.79A3.37,3.37,0,0,1,20,34.58c.59.23,1,.74,1.75.76a7.15,7.15,0,0,0,1.31,0c1.33-.25,1.46-.45,1.2-1.75a3.75,3.75,0,0,0-4.55-3.14,12,12,0,0,0-2.23.61,2.56,2.56,0,0,1-3.31-1.6,2.42,2.42,0,0,1,1.06-2.87,2.45,2.45,0,0,1,3,.16,5.83,5.83,0,0,0,4,1.48,3,3,0,0,0,3.1-2.29,1.8,1.8,0,0,0-.3-1.54,9.06,9.06,0,0,0-3.82-3.3,3.48,3.48,0,0,1-2.16-2.8A3.19,3.19,0,0,1,20.65,15,3.16,3.16,0,0,1,24.3,15a3.19,3.19,0,0,1,1.43,3.43,4.17,4.17,0,0,0,1.36,3.83,1.38,1.38,0,0,0,1.95.16,9.61,9.61,0,0,1,2.56-1.08,1.52,1.52,0,0,0,1.25-2,15.49,15.49,0,0,0-1.67-4.71A3.47,3.47,0,0,1,33,9.62,3.29,3.29,0,0,1,37,11.11a3.13,3.13,0,0,1-.53,4,4.41,4.41,0,0,0-1,5.54c.06.11.11.3.2.32,1.07.31,2.08,1,3.22.88.75-.1.51-.81.38-1.33a3.42,3.42,0,0,1,.62-3.21A3.37,3.37,0,0,1,44,16.5a3.37,3.37,0,0,1-1.41,6.36,4.63,4.63,0,0,0-.92.1c-.56.18-.75.74-.37,1.11a8.92,8.92,0,0,1,1.84,2.56,1,1,0,0,0,.65.49,3.58,3.58,0,0,0,4.12-1.66,2.54,2.54,0,0,1,3-.84,2.17,2.17,0,0,1,1.51,2.26,2.61,2.61,0,0,1-2.65,2.32,18.3,18.3,0,0,0-3.55-.08c-.12,0-.25,0-.38.06-1.53.33-1.61.41-1.75,2A3.74,3.74,0,0,1,44,32.22c-.35.88,0,1.38.75,1.79A11.52,11.52,0,0,0,46.5,35a3.22,3.22,0,0,0,2.61-.15c2.22-1,4.81.18,5.17,3.21A3.43,3.43,0,0,1,48,39.8a8.09,8.09,0,0,0-3.2-3.18c-1.73-.87-2.05-.29-2.79,1.16a4.44,4.44,0,0,0-.19,2.52,1.1,1.1,0,0,0,1.14,1,3.29,3.29,0,0,1,3,3.3,3.35,3.35,0,0,1-6.61.82A8.77,8.77,0,0,1,39.21,44.29ZM32.37,31.06a3.26,3.26,0,0,0,3.32-3.24,3.33,3.33,0,0,0-3.25-3.27,3.22,3.22,0,0,0-3.28,3.27A3.18,3.18,0,0,0,32.37,31.06ZM39,35.48A2.57,2.57,0,0,0,36.58,33,2.47,2.47,0,1,0,39,35.48Zm-9.83-1A1.49,1.49,0,0,0,30.7,36.1a1.61,1.61,0,0,0,1.7-1.62,1.7,1.7,0,0,0-1.65-1.63A1.54,1.54,0,0,0,29.16,34.46Z"/></svg>