<svg id="Capa_1" data-name="Capa 1" xmlns="http://www.w3.org/2000/svg" viewBox="0 0 66 64.13"><defs><style>.cls-1{fill:none;stroke:#185ba9;stroke-miterlimit:10;stroke-width:3px;}.cls-2{fill:#005bad;}</style></defs><title>infectologia_pediatrica</title><g id="Capa_2" data-name="Capa 2"><g id="Capa_1-2" data-name="Capa 1-2"><path class="cls-1" d="M33.25,2.5A29.75,29.75,0,1,0,63,32.25,29.75,29.75,0,0,0,33.25,2.5Z"/></g></g><path class="cls-2" d="M34.12,45.3a3.55,3.55,0,0,1-1.66,1.34l-.07,0a3.25,3.25,0,0,0-1.45,3.42,3.43,3.43,0,0,0,2.64,2.72A3.5,3.5,0,0,0,37,51.44a3.16,3.16,0,0,0,.56-1.3A11.64,11.64,0,0,1,34.12,45.3Z"/><path class="cls-2" d="M50.91,24.62a2.54,2.54,0,0,0-3,.84,3.58,3.58,0,0,1-4.12,1.66,1,1,0,0,1-.65-.49,8.92,8.92,0,0,0-1.84-2.56c-.38-.37-.19-.93.37-1.11a4.63,4.63,0,0,1,.92-.1A3.37,3.37,0,0,0,44,16.5a3.37,3.37,0,0,0-4.14.83,3.42,3.42,0,0,0-.62,3.21c.13.52.37,1.23-.38,1.33-1.14.15-2.15-.57-3.22-.88-.09,0-.14-.21-.2-.32a4.41,4.41,0,0,1,1-5.54,3.13,3.13,0,0,0,.53-4A3.29,3.29,0,0,0,33,9.62a3.47,3.47,0,0,0-1.85,5.08,15.49,15.49,0,0,1,1.67,4.71,1.52,1.52,0,0,1-1.25,2A9.61,9.61,0,0,0,29,22.46a1.38,1.38,0,0,1-1.95-.16,4.17,4.17,0,0,1-1.36-3.83A3.19,3.19,0,0,0,24.3,15,3.16,3.16,0,0,0,20.65,15a3.19,3.19,0,0,0-1.54,3.29,3.48,3.48,0,0,0,2.16,2.8,9.06,9.06,0,0,1,3.82,3.3,1.8,1.8,0,0,1,.3,1.54,3,3,0,0,1-3.1,2.29,5.83,5.83,0,0,1-4-1.48,2.45,2.45,0,0,0-3-.16,2.42,2.42,0,0,0-1.06,2.87A2.56,2.56,0,0,0,17.49,31a12,12,0,0,1,2.23-.61,3.75,3.75,0,0,1,4.55,3.14c.26,1.3.13,1.5-1.2,1.75a7.15,7.15,0,0,1-1.31,0c-.71,0-1.16-.53-1.75-.76A3.38,3.38,0,1,0,22,39.64a6.33,6.33,0,0,1,3.18-2.47c.28-.09.62-.23.81,0,.61.77,1.42,1.44,1.43,2.57a3.51,3.51,0,0,1-3,3.22,2.25,2.25,0,0,0-1.94,2,2.61,2.61,0,0,0,1.7,2.74,2.56,2.56,0,0,0,2.83-.88,3.49,3.49,0,0,0,.57-1.74c.34-2.41,1.63-3.88,3.7-4.15.67-.09,1.51-.1,1.88.43l.27.41c1.3-1,1-3.05,2-4.23A2.45,2.45,0,0,1,36.58,33a2.42,2.42,0,0,1,1.56.66c1-2.22,3.92-1.89,5.94-2.36,0,0,0-.11,0-.16.14-1.56.22-1.64,1.75-2,.13,0,.26,0,.38-.06a18.3,18.3,0,0,1,3.55.08,2.61,2.61,0,0,0,2.65-2.32A2.17,2.17,0,0,0,50.91,24.62ZM30.7,36.1a1.49,1.49,0,0,1-1.54-1.64,1.54,1.54,0,0,1,1.59-1.61,1.7,1.7,0,0,1,1.65,1.63A1.61,1.61,0,0,1,30.7,36.1Zm1.67-5a3.18,3.18,0,0,1-3.21-3.24,3.22,3.22,0,0,1,3.28-3.27,3.33,3.33,0,0,1,3.25,3.27A3.26,3.26,0,0,1,32.37,31.06Z"/><path class="cls-2" d="M53.79,42.38a2,2,0,0,0-.83-.91.09.09,0,0,1-.05-.09l0-.34a3.27,3.27,0,0,1,0-.44,3.5,3.5,0,0,1-.07-.45,3.12,3.12,0,0,1-.09-.44.41.41,0,0,1,0-.16c0-.13-.07-.26-.11-.39s-.17-.55-.25-.83l-.35-.84-.46-.89-.15-.24a.67.67,0,0,1-.11-.18l-.33-.47-.35-.45a.36.36,0,0,1-.1-.11l-.29-.33a.77.77,0,0,1-.18-.18l-.26-.24a1.14,1.14,0,0,1-.16-.15l-.37-.32a.12.12,0,0,1-.07,0c-.29-.21-.58-.41-.89-.6l-.38-.22-.06,0-.47-.22c-.28-.11-.56-.22-.84-.31L46,32.37l-.25-.06h0l-.17,0-.9-.11s0,0,0,0h-.93a2.7,2.7,0,0,1-.41.06l-.85.12-.43.11-.45.15h0l-.06,0-.4.16-.4.18c-.3.16-.6.32-.89.5l0,0-.41.28-.15.16a.87.87,0,0,0-.1.45.7.7,0,0,0,.23.44l0,0a.71.71,0,0,0,.45.1,1.43,1.43,0,0,0,.43-.25,4.43,4.43,0,0,1,.46-.29l.06,0a1.72,1.72,0,0,1,.38-.2,2.53,2.53,0,0,1,.44-.21,4.91,4.91,0,0,1,.89-.3l.16,0h0a1,1,0,0,1,.24,0,3.85,3.85,0,0,1,.47-.08l.23,0h.13a2.24,2.24,0,0,1,.52,0,1.41,1.41,0,0,1,.41,0h.05a2.18,2.18,0,0,1,.44,0,2.39,2.39,0,0,1,.45.09,1.85,1.85,0,0,1,.5.13,7,7,0,0,1,1.74.8,2.49,2.49,0,0,1,.43.29l0,0A7.16,7.16,0,0,1,49.47,36a5.69,5.69,0,0,1,.52.65v0a2.7,2.7,0,0,1,.27.39,6.4,6.4,0,0,1,.52.92,5.5,5.5,0,0,1,.36.87,2.51,2.51,0,0,1,.16.46s0,.05,0,.07v0a.08.08,0,0,1,0,.07,7.24,7.24,0,0,1,.22.92,2,2,0,0,1,0,.26c0,.14,0,.29.06.44a3.4,3.4,0,0,1,0,.45,2.13,2.13,0,0,1,0,.44.67.67,0,0,0,.49.6.7.7,0,0,1,.39.26.84.84,0,0,1,.11.94.73.73,0,0,1-.75.47l-.17,0a.71.71,0,0,0-.43.52,1.51,1.51,0,0,1-.1.3,5,5,0,0,1-.38,1,.59.59,0,0,1-.06.14s0,0,0,0a.37.37,0,0,1-.07.14,6,6,0,0,1-.53.92,1.37,1.37,0,0,1-.2.29.41.41,0,0,1-.1.13,4.58,4.58,0,0,1-.34.43l0,0a3,3,0,0,1-.43.44,2.49,2.49,0,0,1-.44.42l0,0a3.39,3.39,0,0,1-.42.33.66.66,0,0,1-.17.12l-.24.16a3.1,3.1,0,0,1-.47.26l0,0a1.73,1.73,0,0,1-.41.2,2.05,2.05,0,0,1-.41.16,5.09,5.09,0,0,1-.92.27,1.51,1.51,0,0,1-.36.06h0a.08.08,0,0,1-.07,0,2.18,2.18,0,0,1-.44,0,1.36,1.36,0,0,1-.45,0h-.44a2.85,2.85,0,0,1-.42,0,3.54,3.54,0,0,1-.47-.07,2.09,2.09,0,0,1-.36-.08h0s-.05,0-.08,0a1.81,1.81,0,0,1-.31-.09.35.35,0,0,1-.13,0,2.64,2.64,0,0,1-.47-.17,5.31,5.31,0,0,1-.86-.43,2.19,2.19,0,0,1-.41-.26l0,0a6.62,6.62,0,0,1-1-.82,8,8,0,0,1-1.09-1.3.56.56,0,0,1-.05-.08.46.46,0,0,1-.08-.13,1.5,1.5,0,0,1-.19-.32,2.7,2.7,0,0,1-.24-.44s0,0,0,0a3,3,0,0,1-.19-.41,2.39,2.39,0,0,1-.18-.44c-.09-.2-.15-.42-.22-.63l-.07-.24a1,1,0,0,0-.25-.26.67.67,0,0,0-.42-.07.56.56,0,0,1-.44,0,.47.47,0,0,1-.25-.13.88.88,0,0,1-.3-1,.82.82,0,0,1,.74-.59,1,1,0,0,0,.25-.06.65.65,0,0,0,.34-.64,1.61,1.61,0,0,1,0-.31,7,7,0,0,1,.1-1,3.54,3.54,0,0,1,.08-.45,3.13,3.13,0,0,1,.1-.44,2.54,2.54,0,0,1,.13-.45,1.6,1.6,0,0,1,.12-.37l0-.07a4.13,4.13,0,0,1,.17-.45c.07-.19.17-.37.25-.55l.15-.33a1,1,0,0,0-.07-.45l-.07-.11a.64.64,0,0,0-.48-.22.71.71,0,0,0-.4.19l-.1.14-.22.45a1.28,1.28,0,0,1-.11.24.7.7,0,0,1-.08.2l-.36,1a1.58,1.58,0,0,1-.09.31,2.26,2.26,0,0,1-.1.45l-.08.44c-.06.4-.12.81-.14,1.21,0,0,0,.1-.06.1h0l-.07,0-.33.19-.27.24-.17.19-.16.26a2.17,2.17,0,0,0-.27.86l0,0v.45a.64.64,0,0,1,0,.24,2.54,2.54,0,0,0,.24.65l.15.24.18.2.27.24.38.21h0l.47.12a.38.38,0,0,1,.15,0h0a1,1,0,0,1,.1.29,3,3,0,0,1,.18.45h0l.19.43.23.44,0,0,.22.39c.2.31.41.62.63.91l0,.06.33.39.11.13.3.31a.52.52,0,0,1,.1.11l0,0s0,0,0,0l.33.3.11.1.44.35c.3.21.61.4.92.59s.57.29.86.42l.91.32a3.39,3.39,0,0,1,.43.11l.44.08a.55.55,0,0,1,.18,0s0,0,0,0h.13l.54.05h.44l.45,0H45s0,0,0,0a.1.1,0,0,1,.09,0l.45-.07.44-.09.89-.27.41-.17c.31-.14.62-.3.92-.47l.1-.06.34-.22A11,11,0,0,0,50,49.48l0,0c.26-.28.51-.57.75-.86a.61.61,0,0,1,.12-.16l.19-.26,0,0c.07-.12.15-.24.23-.35a.22.22,0,0,1,.05-.08l.5-.92.19-.41a1.27,1.27,0,0,1,.13-.32.35.35,0,0,1,0-.13c0-.14.09-.28.14-.43a.1.1,0,0,1,.08-.07,2.07,2.07,0,0,0,.64-.29l.16-.12.28-.31a.5.5,0,0,1,.08-.12,2.14,2.14,0,0,0,.33-.88s0,0,0,0v-.51c0-.13,0-.26-.07-.39A2.83,2.83,0,0,0,53.79,42.38Z"/><path class="cls-2" d="M46.55,35.86a1.12,1.12,0,0,0-1-.41,1.23,1.23,0,0,0-.44.19.22.22,0,0,1-.09.07,1.41,1.41,0,0,0-.27.44,1.36,1.36,0,0,0,0,.45.63.63,0,0,0,.47.41.51.51,0,0,0,.43-.12s.08-.09.13-.07.05.09.05.14a.25.25,0,0,1,0,.08.89.89,0,0,1,0,.43v0h0a.83.83,0,0,1-.24.44,1.2,1.2,0,0,1-.45.39s0,0-.07,0a2.06,2.06,0,0,1-.37.23A7.6,7.6,0,0,1,44,39a.08.08,0,0,1-.11,0,2.57,2.57,0,0,1-.59-.55,5.45,5.45,0,0,1-.68-1h0s0,0,0,0a.72.72,0,0,1-.12-.21,1,1,0,0,1-.11-.23c-.07-.2,0-.31.23-.31a.34.34,0,0,0,.25-.09.56.56,0,0,0,.16-.41v-.05a1.28,1.28,0,0,0-.07-.28.63.63,0,0,0-.46-.36,1,1,0,0,0-.44.08l-.18.11-.26.27-.12.17a3.47,3.47,0,0,0-.17.45l0,.44c0,.15.05.3.09.45l.18.44a.21.21,0,0,1,.06.1l.24.35a4,4,0,0,1,.64.88.49.49,0,0,1,0,.11c0,.06,0,.1,0,.14s-.13.13-.18.2a.74.74,0,0,0-.06.44.61.61,0,0,0,.7.51,8.75,8.75,0,0,0,.88-.23l.45-.18.89-.43a1.67,1.67,0,0,1,.23-.12l.21-.13.43-.32a3,3,0,0,0,.7-.88,4.14,4.14,0,0,0,.27-.91L47,37l0-.44A1.8,1.8,0,0,0,46.55,35.86Z"/><path class="cls-2" d="M47.33,45.86a.75.75,0,0,0-.44-.07,1.47,1.47,0,0,0-.28.14l-.16.16a4.25,4.25,0,0,1-.89.69.15.15,0,0,1-.09,0,1.17,1.17,0,0,1-.36.16,1.81,1.81,0,0,1-.47.13,1.93,1.93,0,0,1-.42,0,1.09,1.09,0,0,1-.44,0,1.38,1.38,0,0,1-.45,0,1.13,1.13,0,0,1-.44-.1,1.49,1.49,0,0,1-.45-.19,1.25,1.25,0,0,1-.4-.24l0,0,0,0a.82.82,0,0,1-.2-.17,1.88,1.88,0,0,1-.25-.24l-.2-.2-.24-.1a.83.83,0,0,0-.44.06.1.1,0,0,1-.07,0,.89.89,0,0,0-.29.47,1.2,1.2,0,0,0,0,.42,2.61,2.61,0,0,0,.61.67,4.55,4.55,0,0,0,1.06.73l.42.16a6.74,6.74,0,0,0,.89.2h.12l.33,0h.44a6.9,6.9,0,0,0,.78-.09s0,0,0,0h.07l.46-.14.45-.19h0l.41-.24a7.8,7.8,0,0,0,.95-.77,1.23,1.23,0,0,0,.27-.34,1,1,0,0,0,0-.42,1,1,0,0,0-.22-.43Z"/><path class="cls-2" d="M40.67,42.27l-.09.11a1,1,0,0,0-.17.48.05.05,0,0,1,0,0l.07.35a.92.92,0,0,0,.69.62,1,1,0,0,0,.42,0,1,1,0,0,0,.54-.58l0-.09v-.33a.94.94,0,0,0-.43-.69A.82.82,0,0,0,40.67,42.27Z"/><path class="cls-2" d="M46.89,42.1a1,1,0,0,0-.45,0,1,1,0,0,0-.62.71,1.29,1.29,0,0,0,0,.44,1,1,0,0,0,.62.67,1.3,1.3,0,0,0,.44,0,1,1,0,0,0,.63-.67,1.3,1.3,0,0,0,0-.44A1,1,0,0,0,46.89,42.1Z"/></svg>