<svg id="Capa_1" data-name="Capa 1" xmlns="http://www.w3.org/2000/svg" viewBox="0 0 66 64.13"><defs><style>.cls-1{fill:none;stroke:#185ba9;stroke-miterlimit:10;stroke-width:3px;}.cls-2{fill:#005bad;}</style></defs><title>innovacion</title><g id="Capa_2" data-name="Capa 2"><g id="Capa_1-2" data-name="Capa 1-2"><path class="cls-1" d="M33.25,2.5A29.75,29.75,0,1,0,63,32.25,29.75,29.75,0,0,0,33.25,2.5Z"/></g></g><path class="cls-2" d="M10.32,28.69c-.07-.09-.15-.17-.22-.25s0-.17-.16-.14l-.46-.39-.24-.84.33-.3c.31,0,.6,0,.56-.46l0-.06a.56.56,0,0,0,.69-.58c6.78-5.39,14.43-8.5,23.16-8.39,8.95.11,16.66,3.54,23.42,9.29.67.57.78,1,0,1.59-1.51,1.27-3,2.58-4.39,4-.67.67-1.07.57-1.69,0a26,26,0,0,0-11.81-6.23c-8.59-2-16.2.29-23.05,5.56-1.68,1.3-1.64,1.36-3.23,0-.43-.38-.85-.79-1.27-1.18a.94.94,0,0,0-.91-.85l-.05,0C11.07,28.86,10.79,28.67,10.32,28.69Z"/><path class="cls-2" d="M33.71,28.22a23,23,0,0,1,15.34,5.85c.78.67.81,1.12,0,1.79C47.6,37,46.24,38.33,44.88,39.6c-.44.41-.73.55-1.22,0-5-5.31-15.43-4.6-19.84,0-.43.45-.74.37-1.16,0-1.51-1.4-3-2.77-4.58-4.14-.47-.43-.56-.72,0-1.19A24.92,24.92,0,0,1,33.71,28.22Z"/><path class="cls-2" d="M33.35,39.35a10.78,10.78,0,0,1,7.26,2.57c.65.54.76.93.06,1.54-2.13,1.87-4.22,3.78-6.3,5.71-.53.49-.89.53-1.45,0q-3.17-2.92-6.41-5.75c-.69-.6-.75-1,0-1.63A9.65,9.65,0,0,1,33.35,39.35Z"/><path class="cls-2" d="M11.13,29.4a.94.94,0,0,1,.91.85A1.24,1.24,0,0,1,11.13,29.4Z"/><path class="cls-2" d="M10.32,28.69c.47,0,.75.17.76.67A1.09,1.09,0,0,1,10.32,28.69Z"/><path class="cls-2" d="M10.87,25.67a.56.56,0,0,1-.69.58A.78.78,0,0,1,10.87,25.67Z"/><path class="cls-2" d="M9.24,27.07l.24.84C9,27.74,8.8,27.49,9.24,27.07Z"/><path class="cls-2" d="M10.13,26.31c0,.43-.25.46-.56.46A.67.67,0,0,1,10.13,26.31Z"/><path class="cls-2" d="M9.94,28.3c.12,0,.17,0,.16.14A.18.18,0,0,1,9.94,28.3Z"/></svg>