<svg width="280" height="278" viewBox="0 0 280 278" fill="none" xmlns="http://www.w3.org/2000/svg">
<path d="M264.681 178.244C278.321 197.754 284.101 218.674 276.871 241.704C274.891 248.014 271.211 254.274 266.831 259.254C254.081 273.754 234.251 273.554 221.231 259.284C217.671 255.384 214.851 250.804 211.461 246.224C201.321 261.734 188.471 273.424 168.291 273.234C148.781 273.054 134.631 263.424 124.051 247.604C95.881 285.434 54.011 284.674 30.151 261.544C3.83102 236.034 4.05101 196.044 37.011 169.374C18.991 160.094 4.87102 147.584 2.27102 126.164C-0.358984 104.464 10.161 89.2335 27.491 77.6535C23.011 74.5435 18.691 71.9935 14.891 68.8335C-7.95899 49.8736 -3.919 18.6835 22.941 6.02355C39.711 -1.87645 56.721 -1.58645 73.941 4.45355C75.831 5.11355 78.201 5.58355 80.041 5.06355C93.801 1.22355 107.061 2.82355 120.141 7.97355C121.911 8.67355 124.071 9.30355 125.841 8.94355C139.651 6.10355 152.181 9.68355 164.361 15.8435C166.381 16.8635 169.061 17.3435 171.291 17.0335C182.981 15.4335 193.261 19.0436 203.191 24.6835C205.201 25.8235 207.771 26.4435 210.101 26.4935C223.211 26.7335 233.801 32.6835 243.141 41.1335C253.931 50.8935 261.631 62.6236 263.151 77.4636C264.261 88.3236 262.981 91.4235 255.951 99.4735C266.591 110.344 274.611 122.874 277.271 138.074C280.011 153.534 278.471 168.034 264.681 178.244ZM37.181 212.884C37.111 234.364 56.061 253.684 77.391 253.894C100.601 254.114 120.071 234.774 120.081 211.494C120.091 189.754 101.221 171.044 79.161 170.944C56.491 170.834 37.261 190.044 37.181 212.884ZM192.561 178.984C183.431 171.904 171.061 170.304 160.361 174.664C159.521 175.004 158.701 175.394 157.901 175.824C133.311 189.364 131.661 227.204 154.721 243.634C171.211 255.384 191.401 251.644 202.511 234.694C208.741 225.194 210.501 214.884 208.101 203.744C205.941 193.644 200.161 184.884 192.561 178.984ZM126.211 80.0035C103.331 79.6535 87.611 97.9136 91.031 117.734C94.281 136.554 114.851 152.484 133.931 150.944C159.541 148.874 173.101 124.564 160.661 102.454C152.621 88.1736 139.791 81.1035 126.211 80.0035ZM239.331 131.094C238.191 113.334 226.381 97.0235 210.881 91.7935C197.321 87.2235 184.281 94.5235 181.081 108.474C177.061 126.014 190.571 149.254 208.241 155.184C226.251 161.224 240.561 150.134 239.331 131.094ZM229.051 190.834C224.151 201.804 223.581 214.304 227.311 225.724C229.441 232.254 232.671 237.794 237.621 242.574C247.911 252.514 261.811 250.634 269.341 238.514C279.281 222.534 275.031 195.454 260.671 183.174C250.621 174.584 236.971 176.254 230.501 187.934C229.961 188.874 229.481 189.844 229.051 190.834ZM81.431 83.5336C67.521 75.4636 47.901 77.9536 34.441 91.8136C24.101 102.464 22.801 119.314 31.451 132.794C40.781 147.334 62.691 155.254 77.911 149.494C62.341 126.634 61.441 104.494 81.431 83.5336ZM145.291 15.1635C126.521 15.0035 117.311 29.9535 126.191 46.3935C127.831 49.4335 129.871 52.4135 132.311 54.8335C143.811 66.2435 157.081 72.8236 173.711 68.2036C183.061 65.6036 187.991 57.3035 186.371 47.8835C183.501 31.1435 163.631 15.3235 145.291 15.1635ZM69.251 10.3835C56.181 4.22355 38.411 7.22355 27.851 16.9735C19.961 24.2535 18.251 33.5035 23.001 43.2335C29.681 56.9235 51.081 66.2335 67.501 62.1535C60.691 54.3335 55.881 45.6535 55.451 35.3735C55.001 24.6135 60.101 16.3635 69.251 10.3835ZM231.461 100.204C243.881 116.944 251.121 134.524 243.931 155.384C243.571 156.424 245.011 159.114 246.111 159.464C258.921 163.544 267.451 161.974 271.321 147.644C276.121 129.884 261.531 105.924 246.831 100.184C241.981 98.2835 237.031 97.0836 231.461 100.204ZM117.131 65.1236C110.211 56.9536 105.001 48.5935 103.671 38.3035C102.231 27.1935 107.351 19.2135 116.331 12.7135C106.381 8.72355 97.081 9.02355 88.101 12.8935C77.411 17.5035 72.611 26.8535 74.671 36.8435C78.211 54.0635 101.071 67.1536 117.131 65.1236ZM178.361 25.6435C180.791 28.5035 183.051 30.9135 185.041 33.5335C192.881 43.8535 198.211 54.7735 193.661 68.2935C193.231 69.5635 194.931 72.7935 196.221 73.1835C201.251 74.7035 206.471 75.8635 211.701 76.3635C218.941 77.0635 225.141 72.4735 225.761 65.2935C226.171 60.5335 225.541 55.1235 223.561 50.8335C217.821 38.3735 208.071 29.6835 195.061 25.1235C189.761 23.2635 184.151 22.9935 178.361 25.6435ZM215.411 33.3935C218.681 37.2035 221.171 39.6735 223.161 42.4935C230.751 53.2235 238.181 64.0236 232.741 78.3536C232.361 79.3536 233.491 81.5335 234.551 82.3635C238.311 85.3135 248.861 85.9036 252.281 83.6736C256.621 80.8536 258.301 74.8736 256.661 67.8536C256.321 66.4036 255.881 64.9535 255.301 63.5835C249.641 50.0335 240.101 40.2135 226.471 34.7335C223.501 33.5435 219.901 33.8835 215.411 33.3935Z" fill="white"/>
</svg>
