<svg width="1094" height="531" viewBox="0 0 1094 531" fill="none" xmlns="http://www.w3.org/2000/svg">
<path d="M206.394 124.607C214.453 124.607 219.106 121.699 219.106 116.381C219.106 102.008 186.121 113.307 186.121 89.7109C186.121 80.3222 194.097 72.2629 207.225 72.2629C221.1 72.2629 228.412 80.7376 228.661 91.788H218.774C218.691 85.972 214.786 81.3192 207.225 81.3192C200.329 81.3192 196.092 84.2272 196.092 89.4616C196.092 102.423 229.326 92.3696 229.326 115.966C229.326 126.684 220.02 133.663 205.896 133.663C190.192 133.663 184.127 123.693 183.795 114.055H193.765C194.181 120.369 198.418 124.607 206.394 124.607ZM244.26 82.1501C240.604 82.1501 238.028 79.6575 238.028 76.0848C238.028 72.4291 240.604 69.8534 244.26 69.8534C247.832 69.8534 250.408 72.4291 250.408 76.0848C250.408 79.6575 247.832 82.1501 244.26 82.1501ZM239.275 132.5V89.3785H249.162V132.5H239.275ZM275.89 133.497C263.261 133.497 258.11 126.601 257.611 118.708H267.166C267.415 122.447 270.406 125.355 276.472 125.355C281.623 125.355 284.448 123.444 284.448 120.453C284.448 111.313 259.688 119.456 259.688 101.924C259.688 94.696 266.169 88.3815 276.804 88.3815C289.184 88.3815 293.338 96.8562 293.754 102.672H284.282C283.949 99.5981 281.623 96.4408 276.555 96.4408C271.653 96.4408 269.16 98.4349 269.16 101.592C269.16 109.984 293.92 102.589 293.92 120.037C293.92 127.349 287.938 133.497 275.89 133.497ZM314.272 97.2717V132.5H304.385V97.2717H297.821V89.3785H304.385V78.162H314.272V89.3785H321.5V97.2717H314.272ZM367.025 113.806H334.206C334.954 120.619 339.357 125.022 346.253 125.022C350.823 125.022 354.728 122.696 356.307 118.874H366.277C363.701 127.432 356.057 133.497 346.004 133.497C332.96 133.497 324.485 123.776 324.485 110.898C324.485 98.3518 333.126 88.3815 345.921 88.3815C358.716 88.3815 367.108 98.1025 367.108 110.732C367.108 112.31 367.025 113.806 367.025 113.806ZM345.921 96.4408C339.523 96.4408 335.369 100.595 334.372 106.494H357.304C356.473 100.512 352.319 96.4408 345.921 96.4408ZM413.71 107.74V132.5H403.823V106.66C403.823 101.011 401.579 96.8562 395.68 96.8562C389.781 96.8562 386.042 100.844 386.042 107.408V132.5H376.155V89.3785H385.294V95.1114C387.122 91.7049 391.277 88.3815 398.173 88.3815C404.404 88.3815 408.725 91.0402 411.134 95.1945C414.458 91.0402 419.11 88.3815 425.757 88.3815C436.143 88.3815 441.46 95.61 441.46 105.414V132.5H431.573V106.66C431.573 101.094 429.413 96.8562 423.431 96.8562C417.532 96.8562 413.71 100.761 413.71 107.74ZM484.649 89.4616H493.788V132.5H484.649V126.352C481.907 130.838 476.839 133.497 470.109 133.497C457.397 133.497 450.168 123.277 450.168 110.981C450.168 98.6841 457.397 88.4646 470.109 88.4646C476.839 88.4646 481.907 91.1233 484.649 95.61V89.4616ZM460.055 110.981C460.055 118.708 464.708 124.773 472.186 124.773C479.747 124.773 484.316 118.708 484.316 110.981C484.316 103.254 479.747 97.1886 472.186 97.1886C464.708 97.1886 460.055 103.254 460.055 110.981ZM558.224 95.0284V70.1857H568.111V132.5H558.971V126.352C556.23 130.838 551.161 133.497 544.431 133.497C531.719 133.497 524.491 123.277 524.491 110.981C524.491 98.601 531.719 88.3815 544.431 88.3815C551.161 88.3815 555.814 91.3726 558.224 95.0284ZM558.639 110.981C558.639 103.088 554.069 97.1055 546.509 97.1055C539.031 97.1055 534.378 103.088 534.378 110.981C534.378 118.708 539.031 124.773 546.509 124.773C554.069 124.773 558.639 118.708 558.639 110.981ZM619.852 113.806H587.033C587.781 120.619 592.184 125.022 599.08 125.022C603.65 125.022 607.555 122.696 609.134 118.874H619.104C616.528 127.432 608.885 133.497 598.831 133.497C585.787 133.497 577.312 123.776 577.312 110.898C577.312 98.3518 585.953 88.3815 598.748 88.3815C611.543 88.3815 619.935 98.1025 619.935 110.732C619.935 112.31 619.852 113.806 619.852 113.806ZM598.748 96.4408C592.35 96.4408 588.196 100.595 587.199 106.494H610.131C609.3 100.512 605.146 96.4408 598.748 96.4408ZM36.258 235.859C45.9791 235.859 53.1244 231.04 54.9523 221.402H40.1631V212.263H65.6704C65.6704 212.263 65.7534 213.592 65.7534 214.921C65.7534 233.117 53.0413 245.497 36.1749 245.497C19.3086 245.497 6.67953 233.117 6.67953 214.921C6.67953 196.809 19.5578 184.263 36.7565 184.263C51.0473 184.263 62.6793 192.488 65.4211 205.948H54.5369C52.3767 198.221 45.2313 193.901 36.7565 193.901C24.9584 193.901 17.3145 202.209 17.3145 214.921C17.3145 227.634 25.3738 235.859 36.258 235.859ZM115.171 225.806H82.3524C83.1002 232.619 87.5037 237.022 94.3998 237.022C98.9695 237.022 102.875 234.696 104.453 230.874H114.423C111.848 239.432 104.204 245.497 94.1506 245.497C81.1061 245.497 72.6314 235.776 72.6314 222.898C72.6314 210.352 81.2723 200.382 94.0675 200.382C106.863 200.382 115.254 210.103 115.254 222.732C115.254 224.31 115.171 225.806 115.171 225.806ZM94.0675 208.441C87.6699 208.441 83.5156 212.595 82.5186 218.494H105.45C104.619 212.512 100.465 208.441 94.0675 208.441ZM139.091 245.497C126.462 245.497 121.311 238.601 120.812 230.708H130.367C130.616 234.447 133.607 237.355 139.672 237.355C144.824 237.355 147.649 235.444 147.649 232.453C147.649 223.313 122.889 231.456 122.889 213.924C122.889 206.696 129.37 200.382 140.005 200.382C152.385 200.382 156.539 208.856 156.954 214.672H147.482C147.15 211.598 144.824 208.441 139.756 208.441C134.853 208.441 132.361 210.435 132.361 213.592C132.361 221.984 157.12 214.589 157.12 232.037C157.12 239.349 151.138 245.497 139.091 245.497ZM177.473 209.272V244.5H167.585V209.272H161.022V201.379H167.585V190.162H177.473V201.379H184.701V209.272H177.473ZM196.388 194.15C192.732 194.15 190.157 191.658 190.157 188.085C190.157 184.429 192.732 181.853 196.388 181.853C199.961 181.853 202.536 184.429 202.536 188.085C202.536 191.658 199.961 194.15 196.388 194.15ZM191.403 244.5V201.379H201.29V244.5H191.403ZM232.754 245.497C219.045 245.497 210.404 235.111 210.404 222.981C210.404 210.85 219.045 200.382 232.754 200.382C246.547 200.382 255.187 210.85 255.187 222.981C255.187 235.111 246.547 245.497 232.754 245.497ZM220.292 222.981C220.292 231.289 225.609 236.773 232.754 236.773C239.983 236.773 245.3 231.289 245.3 222.981C245.3 214.589 239.983 209.105 232.754 209.105C225.609 209.105 220.292 214.589 220.292 222.981ZM233.17 181.355H243.389L236.826 195.563H227.935L233.17 181.355ZM273.486 201.379V207.111C275.314 203.705 279.717 200.382 286.78 200.382C297.248 200.382 302.815 207.361 302.815 217.414V244.5H292.928V218.66C292.928 212.761 290.269 208.856 284.37 208.856C278.139 208.856 274.234 212.761 274.234 219.491V244.5H264.346V201.379H273.486ZM346.211 185.509L364.822 209.936L383.517 185.509H392.739V244.5H382.852V201.379L364.988 224.476H364.656L346.876 201.379V244.5H336.989V185.509H346.211ZM445.404 225.806H412.586C413.333 232.619 417.737 237.022 424.633 237.022C429.203 237.022 433.108 234.696 434.686 230.874H444.657C442.081 239.432 434.437 245.497 424.384 245.497C411.339 245.497 402.865 235.776 402.865 222.898C402.865 210.352 411.505 200.382 424.301 200.382C437.096 200.382 445.487 210.103 445.487 222.732C445.487 224.31 445.404 225.806 445.404 225.806ZM424.301 208.441C417.903 208.441 413.749 212.595 412.752 218.494H435.683C434.852 212.512 430.698 208.441 424.301 208.441ZM424.633 181.355H434.852L428.289 195.563H419.399L424.633 181.355ZM485.443 207.028V182.186H495.33V244.5H486.19V238.352C483.449 242.838 478.38 245.497 471.65 245.497C458.938 245.497 451.71 235.277 451.71 222.981C451.71 210.601 458.938 200.382 471.65 200.382C478.38 200.382 483.033 203.373 485.443 207.028ZM485.858 222.981C485.858 215.088 481.288 209.105 473.727 209.105C466.25 209.105 461.597 215.088 461.597 222.981C461.597 230.708 466.25 236.773 473.727 236.773C481.288 236.773 485.858 230.708 485.858 222.981ZM512.341 194.15C508.685 194.15 506.109 191.658 506.109 188.085C506.109 184.429 508.685 181.853 512.341 181.853C515.914 181.853 518.489 184.429 518.489 188.085C518.489 191.658 515.914 194.15 512.341 194.15ZM507.356 244.5V201.379H517.243V244.5H507.356ZM526.357 222.981C526.357 210.435 535.164 200.382 547.876 200.382C560.671 200.382 567.152 209.272 568.315 216.999H558.179C557.016 212.346 553.111 209.105 547.793 209.105C540.731 209.105 536.244 214.838 536.244 222.981C536.244 231.04 540.731 236.773 547.793 236.773C553.111 236.773 557.016 233.533 558.179 228.88H568.315C567.152 236.607 560.671 245.497 547.876 245.497C535.164 245.497 526.357 235.444 526.357 222.981ZM607.898 201.462H617.037V244.5H607.898V238.352C605.156 242.838 600.088 245.497 593.358 245.497C580.646 245.497 573.417 235.277 573.417 222.981C573.417 210.684 580.646 200.465 593.358 200.465C600.088 200.465 605.156 203.123 607.898 207.61V201.462ZM583.305 222.981C583.305 230.708 587.957 236.773 595.435 236.773C602.996 236.773 607.566 230.708 607.566 222.981C607.566 215.254 602.996 209.189 595.435 209.189C587.957 209.189 583.305 215.254 583.305 222.981ZM347.379 326.921C347.379 308.809 359.676 296.263 376.875 296.263C391.498 296.263 402.798 304.987 405.207 319.028H394.489C392.495 310.72 385.765 305.901 376.875 305.901C365.077 305.901 358.014 314.209 358.014 326.921C358.014 339.634 365.077 348.025 376.875 348.025C385.765 348.025 392.495 343.206 394.489 334.898H405.207C402.798 348.939 391.498 357.663 376.875 357.663C359.676 357.663 347.379 345.117 347.379 326.921ZM424.591 297.509L443.202 321.936L461.896 297.509H471.119V356.5H461.232V313.379L443.368 336.476H443.036L425.255 313.379V356.5H415.368V297.509H424.591ZM505.09 356.5H485.066V297.509H505.09C525.446 297.509 536.745 309.64 536.745 327.005C536.745 344.369 525.446 356.5 505.09 356.5ZM526.11 327.005C526.11 314.791 519.297 306.815 504.757 306.815H495.119V347.194H504.757C519.297 347.194 526.11 339.218 526.11 327.005ZM584.931 347.194V356.5H547.543V297.509H557.596V347.194H584.931ZM622.427 297.509V307.064H605.311V356.5H595.258V307.064H578.142V297.509H622.427Z" fill="white"/>
<path d="M737.732 248.682C729.718 243.015 721.167 238.062 713.891 231.655C682.606 204.094 683.803 159.853 716.214 133.511C719.302 131.002 722.684 128.866 726.25 126.324C724.588 125.499 722.959 124.693 721.33 123.88C708.193 117.323 696.94 108.642 690.47 95.0418C681.186 75.5125 686.629 53.8016 704.333 41.2822C723.81 27.5114 745.576 24.2162 768.651 29.182C774.428 30.4268 779.917 33.781 785.668 34.1479C791.353 34.5147 797.157 31.9991 802.979 31.3243C817.746 29.6144 831.74 32.8638 845.302 38.5438C846.519 39.0548 848.056 39.533 849.26 39.2447C868.573 34.5802 886.042 39.8343 902.914 48.8489C904.733 49.8185 907.298 50.2377 909.319 49.8643C925.479 46.9097 939.709 51.9935 953.186 60.1563C955.731 61.6959 958.087 62.4427 961.103 62.2855C973.226 61.6631 983.994 65.9804 993.834 72.5382C1013.45 85.5949 1027.17 102.975 1031.56 126.671C1032.96 134.251 1033.1 142.008 1029.41 149.07C1027.6 152.529 1024.69 155.412 1022.25 158.602C1035.85 172.045 1045.62 188.22 1050.15 207.376C1052.57 217.609 1052.58 227.882 1050.03 238.121C1047.5 248.269 1042.86 256.956 1033 262.335C1041.39 272.404 1046.91 283.698 1050.25 296.034C1056.17 317.935 1055.69 339.351 1044.38 359.64C1038.46 370.266 1029.94 378.023 1017.66 380.244C1002.68 382.956 990.367 377.165 980.691 366.178C975.129 359.863 970.883 352.382 966.225 345.68C955.627 369.199 938.466 384.863 910.7 384.941C883.699 385.02 864.884 370.856 851.158 348.372C837.432 372.736 816.614 386.481 789.6 390.267C767.991 393.294 748.697 386.848 732.145 372.677C719.662 361.999 711.117 348.674 706.492 332.826C701.768 316.644 703.254 300.843 709.279 285.388C715.233 270.091 725.125 257.703 737.732 248.682ZM842.652 306.667C842.823 278.483 818.04 253.399 790.209 252.796C758.452 252.108 733.793 278.85 733.506 308.089C733.218 336.973 758.105 362.405 786.636 362.543C817.51 362.693 842.469 337.805 842.652 306.667ZM867.239 304.728C867.226 319.258 871.4 331.725 880.84 342.234C901.959 365.74 935.522 362.824 952.44 336.18C968.724 310.545 958.132 278.883 938.669 263.782C919.715 249.081 894.324 251.833 879.035 270.288C870.667 280.383 867.402 292.32 867.239 304.728ZM858.204 226.611C860.395 226.466 862.639 226.584 864.759 226.119C868.534 225.287 872.296 224.305 875.94 223.034C894.05 216.718 905.342 197.346 901.887 178.629C897.569 155.235 882.594 141.621 860.821 134.762C846.028 130.104 832.198 132.738 819.996 142.473C807.592 152.372 801.933 165.35 804.288 181.132C808.037 206.223 832.368 226.453 858.204 226.611ZM971.858 234.38C981.142 234.505 988.738 231.105 994.161 223.394C998.525 217.19 1001.03 210.193 1000.66 202.666C999.474 178.701 988.254 160.659 966.775 150.066C941.75 137.723 922.659 157.619 922.542 176.965C922.417 197.071 931.308 213.102 946.722 225.543C953.952 231.38 962.476 234.302 971.858 234.38ZM1047.41 314.227C1047.23 312.353 1047.08 309.635 1046.69 306.955C1044.64 292.818 1039.87 279.898 1029.17 269.927C1021.78 263.042 1012.93 260.12 1003.11 263.16C994.449 265.839 988.797 272.43 985.558 280.645C976.117 304.597 979.99 326.753 996.517 346.171C1009.48 361.409 1030.18 358.933 1040.35 341.71C1045.21 333.494 1047.02 324.46 1047.41 314.227ZM901.03 119.144C902.45 119.144 903.876 119.229 905.296 119.131C924.177 117.834 934.868 102.943 929.45 85.5228C922.306 62.5606 893.179 43.9289 869.444 47.7352C852.996 50.3753 841.095 63.3796 848.41 83.0595C855.835 103.06 879.355 119.157 901.03 119.144ZM787.572 224.514C777.379 211.418 771.543 196.691 772.112 180.044C772.688 163.109 779.492 148.782 792.361 137.356C791.694 136.885 791.314 136.531 790.869 136.321C769.201 126.35 742.312 132.816 727.467 151.546C713.309 169.412 716.234 196.625 733.924 210.848C733.924 210.855 757.052 229.932 787.572 224.514ZM773.754 109.428C764.654 99.1887 758.308 87.8026 757.726 73.7502C757.111 58.9968 764.078 48.3968 776.326 40.1095C758.628 34.6261 742.318 35.3402 726.924 44.9836C707.781 56.9855 706.086 80.2883 723.162 95.1793C723.162 95.1793 746.028 113.739 773.754 109.428ZM839.205 113.176C831.668 104.777 825.78 95.9065 822.737 85.3656C818.099 69.2822 822.175 53.9785 836.607 45.0295C837.039 44.7609 837.471 44.5054 838.472 43.9092C824.242 39.1465 810.909 38.7403 798.23 45.4488C785.701 52.0786 781.036 61.3749 782.894 74.0122C784 81.5527 787.664 87.9009 792.806 93.4039C792.806 93.4105 807.716 108.812 839.205 113.176ZM1006.81 240.421L1013.96 241.325C1020.81 243.729 1031.62 238.442 1031.62 238.442C1036.27 236.378 1040.09 231.269 1042 224.036C1046.4 207.389 1041.49 192.596 1032.41 178.878C1026.23 169.543 1018.34 161.989 1007.34 158.484C1001.55 156.637 995.751 156.335 989.837 159.486C1002.92 178.524 1005.77 184.401 1009.2 199.285C1012.16 210.115 1006.81 240.421 1006.81 240.421ZM974.194 124.981C981.306 121.293 985.349 111.557 982.431 102.176C975.437 79.6922 960.03 65.5873 937.504 59.2916C931.466 57.6013 925.42 58.1451 919.257 61.0932C931.479 72.6496 940.291 85.7324 943.203 102.602C943.203 102.602 944.302 117.401 939.1 124.981C939.107 124.981 965.676 128.827 974.194 124.981ZM1017.54 137.376C1024.33 131.421 1025.28 123.671 1022.87 115.809C1016.52 95.1269 1002.73 81.0221 982.823 72.8985C978.603 71.1755 974.109 71.0969 969.169 72.3089C977.956 80.6749 985.028 89.7942 989.935 100.578C993.128 107.594 994.076 115.455 992.506 123.003C991.669 127.012 990.314 130.884 988.116 132.535C988.11 132.521 1002.91 144.071 1017.54 137.376Z" fill="white"/>
<path d="M23.472 455.85V502H15.607V455.85H23.472ZM40.766 468.265V472.75C42.196 470.085 45.641 467.485 51.166 467.485C59.356 467.485 63.711 472.945 63.711 480.81V502H55.976V481.785C55.976 477.17 53.896 474.115 49.281 474.115C44.406 474.115 41.351 477.17 41.351 482.435V502H33.616V468.265H40.766ZM79.9311 468.265V472.75C81.3611 470.085 84.8061 467.485 90.3311 467.485C98.5211 467.485 102.876 472.945 102.876 480.81V502H95.1411V481.785C95.1411 477.17 93.0611 474.115 88.4461 474.115C83.5711 474.115 80.5161 477.17 80.5161 482.435V502H72.7811V468.265H79.9311ZM127.221 502.78C116.496 502.78 109.736 494.655 109.736 485.165C109.736 475.675 116.496 467.485 127.221 467.485C138.011 467.485 144.771 475.675 144.771 485.165C144.771 494.655 138.011 502.78 127.221 502.78ZM117.471 485.165C117.471 491.665 121.631 495.955 127.221 495.955C132.876 495.955 137.036 491.665 137.036 485.165C137.036 478.6 132.876 474.31 127.221 474.31C121.631 474.31 117.471 478.6 117.471 485.165ZM163.859 492.835L173.219 468.265H181.214L167.434 502H160.154L146.439 468.265H154.629L163.859 492.835ZM209.836 468.33H216.986V502H209.836V497.19C207.691 500.7 203.726 502.78 198.461 502.78C188.516 502.78 182.861 494.785 182.861 485.165C182.861 475.545 188.516 467.55 198.461 467.55C203.726 467.55 207.691 469.63 209.836 473.14V468.33ZM190.596 485.165C190.596 491.21 194.236 495.955 200.086 495.955C206.001 495.955 209.576 491.21 209.576 485.165C209.576 479.12 206.001 474.375 200.086 474.375C194.236 474.375 190.596 479.12 190.596 485.165ZM224.121 485.165C224.121 475.35 231.011 467.485 240.956 467.485C250.966 467.485 256.036 474.44 256.946 480.485H249.016C248.106 476.845 245.051 474.31 240.891 474.31C235.366 474.31 231.856 478.795 231.856 485.165C231.856 491.47 235.366 495.955 240.891 495.955C245.051 495.955 248.106 493.42 249.016 489.78H256.946C256.036 495.825 250.966 502.78 240.956 502.78C231.011 502.78 224.121 494.915 224.121 485.165ZM267.428 462.61C264.568 462.61 262.553 460.66 262.553 457.865C262.553 455.005 264.568 452.99 267.428 452.99C270.223 452.99 272.238 455.005 272.238 457.865C272.238 460.66 270.223 462.61 267.428 462.61ZM263.528 502V468.265H271.263V502H263.528ZM295.878 502.78C285.153 502.78 278.393 494.655 278.393 485.165C278.393 475.675 285.153 467.485 295.878 467.485C306.668 467.485 313.428 475.675 313.428 485.165C313.428 494.655 306.668 502.78 295.878 502.78ZM286.128 485.165C286.128 491.665 290.288 495.955 295.878 495.955C301.533 495.955 305.693 491.665 305.693 485.165C305.693 478.6 301.533 474.31 295.878 474.31C290.288 474.31 286.128 478.6 286.128 485.165ZM296.203 452.6H304.198L299.063 463.715H292.108L296.203 452.6ZM327.744 468.265V472.75C329.174 470.085 332.619 467.485 338.144 467.485C346.334 467.485 350.689 472.945 350.689 480.81V502H342.954V481.785C342.954 477.17 340.874 474.115 336.259 474.115C331.384 474.115 328.329 477.17 328.329 482.435V502H320.594V468.265H327.744ZM385.158 502H377.488V453.25H385.158V502ZM442.672 455.85V463.325H429.282V502H421.417V463.325H408.027V455.85H442.672ZM473.856 487.375H448.181C448.766 492.705 452.211 496.15 457.606 496.15C461.181 496.15 464.236 494.33 465.471 491.34H473.271C471.256 498.035 465.276 502.78 457.411 502.78C447.206 502.78 440.576 495.175 440.576 485.1C440.576 475.285 447.336 467.485 457.346 467.485C467.356 467.485 473.921 475.09 473.921 484.97C473.921 486.205 473.856 487.375 473.856 487.375ZM457.346 473.79C452.341 473.79 449.091 477.04 448.311 481.655H466.251C465.601 476.975 462.351 473.79 457.346 473.79ZM478.789 485.165C478.789 475.35 485.679 467.485 495.624 467.485C505.634 467.485 510.704 474.44 511.614 480.485H503.684C502.774 476.845 499.719 474.31 495.559 474.31C490.034 474.31 486.524 478.795 486.524 485.165C486.524 491.47 490.034 495.955 495.559 495.955C499.719 495.955 502.774 493.42 503.684 489.78H511.614C510.704 495.825 505.634 502.78 495.624 502.78C485.679 502.78 478.789 494.915 478.789 485.165ZM525.346 468.265V472.75C526.776 470.085 530.221 467.485 535.746 467.485C543.936 467.485 548.291 472.945 548.291 480.81V502H540.556V481.785C540.556 477.17 538.476 474.115 533.861 474.115C528.986 474.115 525.931 477.17 525.931 482.435V502H518.196V468.265H525.346ZM572.636 502.78C561.911 502.78 555.151 494.655 555.151 485.165C555.151 475.675 561.911 467.485 572.636 467.485C583.426 467.485 590.186 475.675 590.186 485.165C590.186 494.655 583.426 502.78 572.636 502.78ZM562.886 485.165C562.886 491.665 567.046 495.955 572.636 495.955C578.291 495.955 582.451 491.665 582.451 485.165C582.451 478.6 578.291 474.31 572.636 474.31C567.046 474.31 562.886 478.6 562.886 485.165ZM605.086 502H597.351V453.25H605.086V502ZM629.702 502.78C618.977 502.78 612.217 494.655 612.217 485.165C612.217 475.675 618.977 467.485 629.702 467.485C640.492 467.485 647.252 475.675 647.252 485.165C647.252 494.655 640.492 502.78 629.702 502.78ZM619.952 485.165C619.952 491.665 624.112 495.955 629.702 495.955C635.357 495.955 639.517 491.665 639.517 485.165C639.517 478.6 635.357 474.31 629.702 474.31C624.112 474.31 619.952 478.6 619.952 485.165ZM678.987 473.075V468.265H686.137V500.57C686.137 509.475 680.417 516.235 670.017 516.235C659.877 516.235 655.262 509.735 654.547 504.47H662.282C662.997 507.07 665.272 509.605 670.147 509.605C675.477 509.605 678.402 506.355 678.402 501.61V496.345C676.517 499.27 672.942 501.545 667.742 501.545C658.122 501.545 652.207 493.81 652.207 484.515C652.207 475.22 658.122 467.485 667.742 467.485C672.942 467.485 676.777 469.565 678.987 473.075ZM678.727 484.515C678.727 478.6 675.022 474.31 669.302 474.31C663.712 474.31 659.942 478.6 659.942 484.515C659.942 490.365 663.712 494.72 669.302 494.72C675.022 494.72 678.727 490.365 678.727 484.515ZM699.717 452.6H707.712L702.577 463.715H695.622L699.717 452.6ZM702.967 468.265V502H695.232V468.265H702.967ZM737.072 468.33H744.222V502H737.072V497.19C734.927 500.7 730.962 502.78 725.697 502.78C715.752 502.78 710.097 494.785 710.097 485.165C710.097 475.545 715.752 467.55 725.697 467.55C730.962 467.55 734.927 469.63 737.072 473.14V468.33ZM717.832 485.165C717.832 491.21 721.472 495.955 727.322 495.955C733.237 495.955 736.812 491.21 736.812 485.165C736.812 479.12 733.237 474.375 727.322 474.375C721.472 474.375 717.832 479.12 717.832 485.165ZM778.967 502H771.297V453.25H778.967V502ZM821.726 495.825C828.031 495.825 831.671 493.55 831.671 489.39C831.671 478.145 805.866 486.985 805.866 468.525C805.866 461.18 812.106 454.875 822.376 454.875C833.231 454.875 838.951 461.505 839.146 470.15H831.411C831.346 465.6 828.291 461.96 822.376 461.96C816.981 461.96 813.666 464.235 813.666 468.33C813.666 478.47 839.666 470.605 839.666 489.065C839.666 497.45 832.386 502.91 821.336 502.91C809.051 502.91 804.306 495.11 804.046 487.57H811.846C812.171 492.51 815.486 495.825 821.726 495.825ZM851.349 462.61C848.489 462.61 846.474 460.66 846.474 457.865C846.474 455.005 848.489 452.99 851.349 452.99C854.144 452.99 856.159 455.005 856.159 457.865C856.159 460.66 854.144 462.61 851.349 462.61ZM847.449 502V468.265H855.184V502H847.449ZM876.094 502.78C866.214 502.78 862.184 497.385 861.794 491.21H869.269C869.464 494.135 871.804 496.41 876.549 496.41C880.579 496.41 882.789 494.915 882.789 492.575C882.789 485.425 863.419 491.795 863.419 478.08C863.419 472.425 868.489 467.485 876.809 467.485C886.494 467.485 889.744 474.115 890.069 478.665H882.659C882.399 476.26 880.579 473.79 876.614 473.79C872.779 473.79 870.829 475.35 870.829 477.82C870.829 484.385 890.199 478.6 890.199 492.25C890.199 497.97 885.519 502.78 876.094 502.78ZM906.121 474.44V502H898.386V474.44H893.251V468.265H898.386V459.49H906.121V468.265H911.776V474.44H906.121ZM947.391 487.375H921.716C922.301 492.705 925.746 496.15 931.141 496.15C934.716 496.15 937.771 494.33 939.006 491.34H946.806C944.791 498.035 938.811 502.78 930.946 502.78C920.741 502.78 914.111 495.175 914.111 485.1C914.111 475.285 920.871 467.485 930.881 467.485C940.891 467.485 947.456 475.09 947.456 484.97C947.456 486.205 947.391 487.375 947.391 487.375ZM930.881 473.79C925.876 473.79 922.626 477.04 921.846 481.655H939.786C939.136 476.975 935.886 473.79 930.881 473.79ZM983.914 482.63V502H976.179V481.785C976.179 477.365 974.424 474.115 969.809 474.115C965.194 474.115 962.269 477.235 962.269 482.37V502H954.534V468.265H961.684V472.75C963.114 470.085 966.364 467.485 971.759 467.485C976.634 467.485 980.014 469.565 981.899 472.815C984.499 469.565 988.139 467.485 993.339 467.485C1001.46 467.485 1005.62 473.14 1005.62 480.81V502H997.889V481.785C997.889 477.43 996.199 474.115 991.519 474.115C986.904 474.115 983.914 477.17 983.914 482.63ZM1039.41 468.33H1046.56V502H1039.41V497.19C1037.27 500.7 1033.3 502.78 1028.04 502.78C1018.09 502.78 1012.44 494.785 1012.44 485.165C1012.44 475.545 1018.09 467.55 1028.04 467.55C1033.3 467.55 1037.27 469.63 1039.41 473.14V468.33ZM1020.17 485.165C1020.17 491.21 1023.81 495.955 1029.66 495.955C1035.58 495.955 1039.15 491.21 1039.15 485.165C1039.15 479.12 1035.58 474.375 1029.66 474.375C1023.81 474.375 1020.17 479.12 1020.17 485.165ZM1067.48 502.78C1057.6 502.78 1053.57 497.385 1053.18 491.21H1060.65C1060.85 494.135 1063.19 496.41 1067.93 496.41C1071.96 496.41 1074.17 494.915 1074.17 492.575C1074.17 485.425 1054.8 491.795 1054.8 478.08C1054.8 472.425 1059.87 467.485 1068.19 467.485C1077.88 467.485 1081.13 474.115 1081.45 478.665H1074.04C1073.78 476.26 1071.96 473.79 1068 473.79C1064.16 473.79 1062.21 475.35 1062.21 477.82C1062.21 484.385 1081.58 478.6 1081.58 492.25C1081.58 497.97 1076.9 502.78 1067.48 502.78Z" fill="white"/>
</svg>
