<svg xmlns="http://www.w3.org/2000/svg" viewBox="0 0 78.5 15.7"><defs><style>.cls-1{fill:#00ba9a;}.cls-2{fill:#fefefe;}.cls-3{fill:#ddd;}.cls-4{fill:#cfcfcf;}.cls-5{fill:#ebebeb;}.cls-6{font-size:9.5px;fill:#6c757d;}.cls-6,.cls-7{font-family:Arial-BoldMT, Arial;font-weight:700;}.cls-7{font-size:0.79px;fill:#fff;letter-spacing:1.36em;}.cls-8{letter-spacing:0.96em;}</style></defs><title>Recurso 85</title><g id="Capa_2" data-name="Capa 2"><g id="Capa_1-2" data-name="Capa 1"><path class="cls-1" d="M63.28,0a26,26,0,0,1,4.4.36,35.54,35.54,0,0,1,5.57,1.33,13.45,13.45,0,0,1,3.3,1.55A4.69,4.69,0,0,1,78.17,5a3.34,3.34,0,0,1,0,2.91,11.65,11.65,0,0,1-1.92,3,14.63,14.63,0,0,1-3.38,2.94,12.18,12.18,0,0,1-4.68,1.81A7.79,7.79,0,0,1,63.68,15,13.59,13.59,0,0,1,60,12.53a13,13,0,0,1-3-4,7.77,7.77,0,0,1-.84-3.85,6,6,0,0,1,.7-2.55A2.91,2.91,0,0,1,58.11,1,8.19,8.19,0,0,1,60.8.17,14.57,14.57,0,0,1,63.28,0Z"/><path class="cls-2" d="M60.58,5.91c-.13-.67-.25-1.34-.38-2A8.36,8.36,0,0,1,60,2.51a1.58,1.58,0,0,1,0-.43c.12-.43.32-.56.79-.51a4.54,4.54,0,0,1,2,.77,9.92,9.92,0,0,1,1.89,1.52A2,2,0,0,1,65.41,5a1.58,1.58,0,0,1-.67,1.39,4.47,4.47,0,0,1-.72.51c-.12.06-.14.12-.1.25.12.31.21.63.31,1,0,.1.07.15.2.1a6.61,6.61,0,0,1,1.29-.46c.09,0,.14-.06.12-.16V7.44c0-.11,0-.25.15-.3a.37.37,0,0,1,.37.09,1,1,0,0,1,.3.82c0,.41,0,.82.09,1.22.11,0,.12-.08.15-.14.16-.3.28-.6.41-.91,0-.14.13-.27.34-.19a.73.73,0,0,0-.19-.28c-.22-.27-.22-.56.08-.74a3.81,3.81,0,0,1,2.81-.75,1.42,1.42,0,0,1,.61.29c0-.4,0-.76-.06-1.12A5.08,5.08,0,0,1,71.31,3a.88.88,0,0,1,.24-.33c.17-.14.3-.11.38.1a1.89,1.89,0,0,1,.09.52,7.66,7.66,0,0,1-.58,3,1.11,1.11,0,0,0,0,.57,11.88,11.88,0,0,0,.68,2.81A2,2,0,0,0,73.74,11a5.92,5.92,0,0,0,.93.12h0c.07,0,.2,0,.2.12s-.11.1-.19.11c-1.39.1-2.5-.15-3.1-1.62a9,9,0,0,1-.45-1.55c-.11.27-.19.51-.29.74a7.1,7.1,0,0,1-1,1.7,1.08,1.08,0,0,1-.5.37c-.2.06-.3,0-.31-.23a1.63,1.63,0,0,1,.08-.44,12.92,12.92,0,0,1,1-2.14q.3-.55.63-1.08a.18.18,0,0,0-.05-.28,1.52,1.52,0,0,0-1.29-.23,4.6,4.6,0,0,0-1.54.67c-.14.1-.18.18,0,.34a3.66,3.66,0,0,1,.73,1.13,1.91,1.91,0,0,1,0,1.25.46.46,0,0,1-.4.38.52.52,0,0,1-.47-.36,3.22,3.22,0,0,1-.25-1.17.53.53,0,0,0-.14.25,2,2,0,0,1-.35.55.39.39,0,0,1-.36.16c-.17,0-.19-.2-.23-.33a.49.49,0,0,1,0-.12c0-.3,0-.6,0-.9,0-.1,0-.21,0-.32a2.43,2.43,0,0,1-.11-.4,1.45,1.45,0,0,0,.11.42c0,.14.08.28,0,.42A5.13,5.13,0,0,0,66.08,10a.32.32,0,0,1-.09.23.26.26,0,0,1-.32.08c-.12-.06-.12-.18-.1-.29.13-.53.18-1.08.26-1.62,0-.22,0-.24-.19-.18a11,11,0,0,0-1.08.42c-.11,0-.15.1-.11.24a12.31,12.31,0,0,1,.39,1.7c0,.13.08.3-.06.4s-.24-.06-.34-.13l-1-.73c-.22-.16-.23-.16-.29.12L63,11c0,.09-.05.18-.17.17s-.14-.09-.16-.19a.76.76,0,0,1,0-.42,2,2,0,0,1,.1-.42.38.38,0,0,0-.17-.57c-.17-.1-.15-.27,0-.41l.05,0c.5-.12.52-.54.58-.94a7.61,7.61,0,0,1,.16-.89l-.73.37c-.43.22-.88.4-1.33.58a.18.18,0,0,0-.14.21c0,.43,0,.87,0,1.3a12.46,12.46,0,0,1-.11,1.36.62.62,0,0,1-.07.19c-.05.07-.11.14-.21.1a.2.2,0,0,1-.16-.2c0-.19,0-.38,0-.57,0-.69,0-1.39-.07-2.11l-.77.22-.51.11c-.07,0-.17,0-.19,0s.07-.11.13-.13l.95-.37c.33-.12.34-.12.31-.46a15.94,15.94,0,0,0-.22-1.69.24.24,0,0,1,0-.24c.06-.06.11,0,.15,0s0,.15.07.21a.18.18,0,0,1,0,.12.13.13,0,0,0,0-.14C60.58,6.06,60.6,6,60.58,5.91Z"/><path class="cls-2" d="M72.51,7.05c-.24-.1-.42,0-.54.29,0,.08-.1.18-.22.11s-.08-.17,0-.26a.73.73,0,0,1,0-.09c.1-.14.08-.22-.09-.26a.22.22,0,0,1-.18-.14.14.14,0,0,1,.16-.2l.09,0c.32.11.31.11.51-.17a4.29,4.29,0,0,1,.53-.68.94.94,0,0,1,.83-.25.49.49,0,0,1,.4.69,1.56,1.56,0,0,1-1.28.93Z"/><path class="cls-2" d="M72.21,7.91a.7.7,0,0,1,.05-.35c0-.07,0-.19.15-.17a.2.2,0,0,1,.16.23,2.08,2.08,0,0,0,0,.43,2,2,0,0,0,.18.54c0,.1.11.23,0,.3s-.22-.05-.27-.15A2,2,0,0,1,72.21,7.91Z"/><path class="cls-1" d="M66.32,8.55a1.29,1.29,0,0,0,0-.44s0,0,0,0a2.49,2.49,0,0,1,.07.86v.41a1.56,1.56,0,0,1,0-.48C66.34,8.75,66.39,8.64,66.32,8.55Z"/><path class="cls-3" d="M60.61,6.14c-.06,0,0-.14-.07-.2l0,0c.06.07,0,.16,0,.23Z"/><path class="cls-1" d="M61.21,7.91a26.16,26.16,0,0,0-.5-3.7c-.1-.56-.2-1.12-.25-1.68,0-.38.08-.5.45-.47a3.63,3.63,0,0,1,1.59.57,9,9,0,0,1,1.55,1.2,5.73,5.73,0,0,1,.56.54,1.08,1.08,0,0,1-.13,1.69A12.22,12.22,0,0,1,62,7.55Z"/><path class="cls-1" d="M69.47,10.49A11.51,11.51,0,0,1,71,7.4,5.71,5.71,0,0,1,69.47,10.49Z"/><path class="cls-1" d="M64.38,10.31c-.32-.24-.65-.48-1-.73-.09-.07-.05-.29.07-.37s.33-.19.5-.28.09,0,.1.08l.33,1.27Z"/><path class="cls-1" d="M67.83,8.25a1.73,1.73,0,0,1,.45,1.22.65.65,0,0,1,0,.13c0,.06,0,.11-.12.12S68,9.66,68,9.61a1.53,1.53,0,0,1-.13-.51A4,4,0,0,1,67.83,8.25Z"/><path class="cls-1" d="M71.34,5a3.5,3.5,0,0,1,.24-1.43,12.36,12.36,0,0,1-.2,1.82C71.27,5.27,71.34,5.13,71.34,5Z"/><path class="cls-1" d="M63.74,7.83a4.25,4.25,0,0,1,.18.54c0,.07,0,.11-.06.14l-.29.15Z"/><path class="cls-1" d="M66.32,8.06l0,0a.56.56,0,0,1-.1-.51A.91.91,0,0,1,66.32,8.06Z"/><path class="cls-4" d="M71.34,5c0,.13,0,.27,0,.39l0,.2A1.47,1.47,0,0,1,71.34,5Z"/><path class="cls-5" d="M60.68,6.6a.26.26,0,0,1,0-.21A.38.38,0,0,1,60.68,6.6Z"/><path class="cls-3" d="M60.61,6.14a.15.15,0,0,1,0,.17c0-.06,0-.11,0-.17Z"/><path class="cls-1" d="M72.39,6.71a2.94,2.94,0,0,1,.76-.85.48.48,0,0,1,.46-.08c.09,0,.15.09.12.2A1.12,1.12,0,0,1,72.39,6.71Z"/><text class="cls-6" transform="translate(0 11.6)">Powered by</text><text class="cls-7" transform="translate(60.61 12.27)">SOLUTION<tspan class="cls-8" x="12.65" y="0">S </tspan></text></g></g></svg>