<svg xmlns="http://www.w3.org/2000/svg" viewBox="0 0 76.09 16.36"><defs><style>.cls-1{font-size:11.53px;fill:gray;font-family:TitilliumWeb-Bold, Titillium Web;}.cls-2{font-weight:700;}.cls-3{font-size:14.47px;font-family:TitilliumWeb-Regular, Titillium Web;}.cls-4{fill:#7bc846;}.cls-5{fill:#9d9ea0;}</style></defs><title>Recurso 84</title><g id="Capa_2" data-name="Capa 2"><g id="Capa_1-2" data-name="Capa 1"><text class="cls-1" transform="translate(12.95 12.24)"><tspan class="cls-2">PS</tspan><tspan class="cls-3" x="13.06" y="0">telemed</tspan></text><path class="cls-4" d="M.34,6.66.28,6.6s0,0,0,0L.12,6.46.06,6.25l.09-.08c.08,0,.15,0,.14-.12h0a.15.15,0,0,0,.18-.15A9.15,9.15,0,0,1,6.43,3.73a9.27,9.27,0,0,1,6,2.39c.18.15.2.25,0,.41-.39.32-.77.66-1.13,1-.17.17-.27.15-.43,0a6.68,6.68,0,0,0-3-1.6A6.8,6.8,0,0,0,1.94,7.38c-.43.33-.42.35-.83,0L.78,7.06a.24.24,0,0,0-.23-.21h0A.17.17,0,0,0,.34,6.66Z"/><path class="cls-4" d="M6.35,6.54a5.91,5.91,0,0,1,4,1.51c.19.17.2.28,0,.46-.37.3-.72.63-1.07,1-.11.1-.19.14-.31,0a3.87,3.87,0,0,0-5.1,0c-.11.12-.19.1-.3,0L2.33,8.41c-.12-.1-.14-.18,0-.3A6.46,6.46,0,0,1,6.35,6.54Z"/><path class="cls-4" d="M6.26,9.4a2.76,2.76,0,0,1,1.87.67c.16.13.19.23,0,.39-.55.48-1.08,1-1.62,1.47-.14.13-.23.14-.37,0-.54-.5-1.09-1-1.65-1.48-.18-.15-.19-.25,0-.41A2.47,2.47,0,0,1,6.26,9.4Z"/><path class="cls-5" d="M.55,6.85a.24.24,0,0,1,.23.21A.29.29,0,0,1,.55,6.85Z"/><path class="cls-5" d="M.34,6.66a.17.17,0,0,1,.2.18A.26.26,0,0,1,.34,6.66Z"/><path class="cls-5" d="M.48,5.89A.15.15,0,0,1,.3,6,.2.2,0,0,1,.48,5.89Z"/><path class="cls-5" d="M.06,6.25l.06.21C0,6.42,0,6.36.06,6.25Z"/><path class="cls-5" d="M.29,6.05c0,.11-.06.12-.14.12A.17.17,0,0,1,.29,6.05Z"/><path class="cls-5" d="M.24,6.57s0,0,0,0S.25,6.59.24,6.57Z"/></g></g></svg>