<svg xmlns="http://www.w3.org/2000/svg" viewBox="0 0 507.5 156.51"><defs><style>.cls-1{fill:#299d94;}.cls-2{fill:#066696;}</style></defs><title>logo-cmdlt-color</title><g id="Capa_2" data-name="Capa 2"><g id="Capa_1-2" data-name="Capa 1"><path class="cls-1" d="M125.31,62.07c.41-3.19.8-6.15,1.17-9.12q.81-6.57,1.61-13.13a9.14,9.14,0,0,1,.21-1.39,1.84,1.84,0,0,1,1.63-1.34,1.66,1.66,0,0,1,1.67,1.25,16.18,16.18,0,0,1,.45,2.2c.78,5.67,1.54,11.34,2.32,17a10.73,10.73,0,0,0,.32,1.23,60.35,60.35,0,0,0,.74-7.43c.12-1.49.12-3,.22-4.5a9,9,0,0,1,.34-1.93,1.74,1.74,0,0,1,1.72-1.18,1.64,1.64,0,0,1,1.49,1.12,23.79,23.79,0,0,1,.67,2.74c.62,3.13,1.21,6.26,1.83,9.39.2,1,.45,2,.67,3,.06.25.19.35.38.25s.36-.2.39-.33c.3-1.28.56-2.56.84-3.84a30.69,30.69,0,0,1,.68-3,1.73,1.73,0,0,1,2.76-.75,8.22,8.22,0,0,1,1.21,1.54c.84,1.25,1.67,2.5,2.44,3.79a2,2,0,0,0,2.08,1.1c4.75-.62,9.48-1.34,13.91-3.32.6-.26,1.17-.59,1.76-.88A4.1,4.1,0,0,0,171,51.79c1.74-6.33,3.49-12.66,5-19.06a14.26,14.26,0,0,0-4.22-14.38,14.18,14.18,0,0,0-9.14-3.87,1.65,1.65,0,0,0-1.83.95,10.48,10.48,0,0,1-2.3,3.18,9.93,9.93,0,0,1-11,2.17,9.74,9.74,0,0,1-6.64-9.25c-.2-6,3.47-10.31,9.4-11a10,10,0,0,1,9.85,4.73c.6,2.07,2.16,2.42,4.07,2.59,9.42.88,18.1,8.32,19,20.12a19.88,19.88,0,0,1-.64,6.15c-3.33,13.58-6.89,27.1-12.05,40.13a102.29,102.29,0,0,1-5.73,12.23A49.53,49.53,0,0,1,161,92.4,20.62,20.62,0,0,1,150,99.93a43.52,43.52,0,0,1-8.53,1.76c-1.12.09-2.24.23-3.35.38a.93.93,0,0,0-.87.94q0,.7,0,1.41c0,8.73,0,17.46-.11,26.19-.11,10.1,8.36,18.18,17.28,19.06a19.49,19.49,0,0,0,21-15.65,21,21,0,0,0,.25-4.21c0-3.66.08-7.31.38-11,1-11.31,10.85-21.1,21.59-22.45,6.09-.76,11.78,0,17.07,3.21a18.45,18.45,0,0,1,2.75,2,3.76,3.76,0,0,0,3.31.91,22.55,22.55,0,0,1,19.22,6A23.17,23.17,0,1,1,201,123.71a22.48,22.48,0,0,1,8.23-16.1c.28-.24.56-.49.87-.71,1.5-1.11,1.22-1.46-.38-2.23a19.11,19.11,0,0,0-27.23,17.42c0,3.29,0,6.58-.2,9.85-.5,9.38-5.05,16.38-13,21.1a26,26,0,0,1-38.91-23.11q0-10.7.08-21.41c0-1.59.1-3.19.09-4.78s0-1.57-1.52-1.8c-2-.31-4.08-.57-6.12-.9a38.62,38.62,0,0,1-5.7-1.52,20.64,20.64,0,0,1-10.45-7.76,58.93,58.93,0,0,1-5.76-10,173.66,173.66,0,0,1-9.87-28.12c-1.81-6.7-3.39-13.46-5-20.21A20.15,20.15,0,0,1,88,18.72,20.73,20.73,0,0,1,104.85,7.48a3.64,3.64,0,0,1,.56-.05,3.19,3.19,0,0,0,3.31-2C111.26.81,117-.43,120.62.65A10.63,10.63,0,0,1,128,13a10.41,10.41,0,0,1-11.16,8.25,10,10,0,0,1-8.22-5.15,10.52,10.52,0,0,1-.53-1,1.63,1.63,0,0,0-1.82-1A14.88,14.88,0,0,0,92.6,25.5,15.79,15.79,0,0,0,92.88,33c1.45,5.83,3,11.63,4.5,17.44.45,1.72,1,3.42,1.33,5.17a3.3,3.3,0,0,0,2.75,2.77,40.76,40.76,0,0,0,7.72,1.54c2.8.21,5.61.3,8.42.47a1.34,1.34,0,0,0,1.51-1,9.09,9.09,0,0,1,.55-1.29,1.79,1.79,0,0,1,3.31,0c.34.56.56,1.19.85,1.78s.6,1.16.91,1.74C124.76,61.72,124.86,61.75,125.31,62.07Zm5-6.67c-1.05,3.25-1.19,6.63-1.6,10-.22,1.76-.4,3.53-.59,5.3a1.94,1.94,0,0,1-1.46,1.85c-.84.23-1.65-.26-2.16-1.39s-.91-2.25-1.36-3.39l-1.23-3.07c-.6,0-.62.46-.85.7-1.17,1.31-2.2,1.44-3.21.1a4.08,4.08,0,0,0-3.67-1.61,28.85,28.85,0,0,1-6.15-.48c-2.12-.41-4.25-.73-6.38-1.08-.47-.07-.69.26-.63.67a9.22,9.22,0,0,0,.43,1.62c1.43,4.27,3,8.48,4.86,12.59a72.86,72.86,0,0,0,5.17,9.66,15.93,15.93,0,0,0,9.85,7,54.94,54.94,0,0,0,7.19,1.27,50.28,50.28,0,0,0,19-1.38,14.65,14.65,0,0,0,8.56-6,59.38,59.38,0,0,0,3.54-5.74,133.42,133.42,0,0,0,8.72-21.61c.14-.43.46-.85-.06-1.36a60.54,60.54,0,0,1-15.52,3.46c-1.87.18-3.3-.09-4.26-1.86-.34-.61-.61-1.4-1.66-1.59-.41,2-.8,4-1.21,6-.32,1.55-.64,3.11-1,4.66A1.61,1.61,0,0,1,143,71a1.78,1.78,0,0,1-1.73-1.23,19.82,19.82,0,0,1-.63-2.16c-.44-1.72-.86-3.45-1.29-5.18-.14-.53-.2-1.1-.8-1.39a1.66,1.66,0,0,0-.2.43c-.41,3.54-.8,7.08-1.23,10.61a6.42,6.42,0,0,1-.44,1.9,1.66,1.66,0,0,1-2.95.18,3.79,3.79,0,0,1-.46-1.31c-.23-1.19-.4-2.4-.61-3.6Zm112.93,70c.34-9.82-8-19.17-19.05-19.27a19.37,19.37,0,0,0-19.34,19.35c0,11.29,9.91,19.12,19.29,19.13C234.11,144.61,243.6,136,243.27,125.4ZM155.26,11a4.29,4.29,0,0,0-3.54-4,4.34,4.34,0,0,0-4.4,3.86,4,4,0,1,0,7.94.18Zm-37.58,3.41c2,.32,3.89-1.69,3.88-3.76a3.94,3.94,0,0,0-3.91-3.81,3.87,3.87,0,0,0-3.71,3.7C114,12.88,115.32,14.35,117.68,14.36Z"/><path class="cls-1" d="M62.24,32.67c-1,1.25-1.6,2-2.19,2.87Q52.63,45.8,45.21,56.08l-.84,1.14a7.6,7.6,0,0,1-12.13,0c-1.28-1.86-2.62-3.66-3.94-5.49q-6-8.36-12-16.7a4.91,4.91,0,0,0-1.65-1.9c-.65.5-.35,1.2-.35,1.79q0,15.5,0,31,0,9,0,18a10.77,10.77,0,0,1-.47,3.61A7.08,7.08,0,0,1,0,85.93c-.06-.65,0-1.31,0-2V11.84c0-.37,0-.75,0-1.13.08-3.6,1.82-6.16,4.84-7.15A7.53,7.53,0,0,1,13.3,6.41c1.61,2.42,3.39,4.73,5.1,7.09Q27.72,26.4,37,39.3c.37.51.65,1.14,1.4,1.41a9.49,9.49,0,0,0,1.92-2.34q11-15.16,22-30.35c.5-.68,1-1.37,1.52-2a6.82,6.82,0,0,1,7.53-2.48,7.28,7.28,0,0,1,5.41,6.18,16.87,16.87,0,0,1,.07,2.25q0,35.91,0,71.84a10.86,10.86,0,0,1-.5,3.88,7.28,7.28,0,0,1-7.52,4.73,7,7,0,0,1-6.24-6.57c-.06-.84,0-1.69,0-2.53q0-23.52,0-47.05A11.13,11.13,0,0,0,62.24,32.67Z"/><path class="cls-2" d="M417.71,50.88A12.43,12.43,0,0,1,419.16,52a23.55,23.55,0,0,1,7.08,16.37c.07,1.69.07,3.38.08,5.07a4.45,4.45,0,0,0,2.36,4.33c2.7,1.63,3.38,4.44,2.62,7.43a6.56,6.56,0,0,1-5.47,5.07,9.57,9.57,0,0,1-9.39-3.2,17.2,17.2,0,0,1-3.63-8.13,52.57,52.57,0,0,1-.81-8.67c-.05-1-.15-2.06-.29-3.07a9,9,0,0,0-3.28-5.73,22,22,0,0,0-7.93-4.13,5,5,0,0,0-1.39-.18q-6.62,0-13.24,0c-1.15,0-1.3.16-1.31,1.31,0,2.91,0,5.82,0,8.73,0,5.73,0,11.45,0,17.18a7,7,0,0,1-3.5,6.34c-3.73,2.27-9.94.65-10.64-5.17a21.15,21.15,0,0,1-.1-2.52q0-35.91,0-71.82c0-.65,0-1.31,0-2a6.83,6.83,0,0,1,7-6.68H400.4a27,27,0,0,1,26.86,23.68,26.1,26.1,0,0,1-7.35,22.47C419.28,49.33,418.61,50,417.71,50.88Zm-33.17-21h0c0,3.84,0,7.68,0,11.53,0,1.29.18,1.47,1.46,1.48,4.59,0,9.18,0,13.77,0a14.36,14.36,0,0,0,7-1.86,13,13,0,0,0-6.22-24.21c-4.78-.1-9.56,0-14.34,0h-.28c-1.15.07-1.33.22-1.38,1.28,0,.66,0,1.31,0,2Z"/><path class="cls-2" d="M451.69,46.94v-36a17.78,17.78,0,0,1,.08-2.53,7,7,0,0,1,6.34-5.83c.56,0,1.12,0,1.69,0h39.42a9.37,9.37,0,0,1,3.6.48,7.11,7.11,0,0,1,4.55,7.35,7.16,7.16,0,0,1-5.67,6.21,20.14,20.14,0,0,1-3.64.26q-14.51,0-29,0c-3.35,0-3.12-.13-3.12,3,0,5.73,0,11.45,0,17.18,0,.56,0,1.13,0,1.69.05.83.34,1.1,1.25,1.15.74,0,1.5,0,2.25,0H494c.66,0,1.32,0,2,0a7.09,7.09,0,0,1,1.06,14,15.82,15.82,0,0,1-3.63.31H469.14c-.75,0-1.5,0-2.25,0a.84.84,0,0,0-.91.85c0,.56-.05,1.12-.05,1.69v18.3c0,.47,0,.94,0,1.41,0,.71.45,1,1.09,1l2.25,0h29.85a14.21,14.21,0,0,1,2.53.09,7.35,7.35,0,0,1,5.72,6.52,7.27,7.27,0,0,1-4.8,7.21,9.08,9.08,0,0,1-3.07.27H459.81c-5.6,0-8.12-2.47-8.12-8Q451.68,65.25,451.69,46.94Z"/><path class="cls-2" d="M235.5,0c11.76,0,21.21,3.08,29.69,9.22a7.65,7.65,0,0,1,3.49,6.68,6.62,6.62,0,0,1-3.7,6.18,7.33,7.33,0,0,1-7.52-.16,9.44,9.44,0,0,1-.91-.65,31.57,31.57,0,0,0-20.18-6.59,32.2,32.2,0,0,0-20.31,7.13A29.9,29.9,0,0,0,204.7,42.17,29.59,29.59,0,0,0,209,61.85a30.9,30.9,0,0,0,20.66,14.37c9.77,2.08,18.84.26,26.87-5.84a7.75,7.75,0,0,1,7.19-1.29c6.09,1.77,6.11,9.08,3,12.07a17.9,17.9,0,0,1-2,1.59,47.26,47.26,0,0,1-26.25,8.85,45.91,45.91,0,0,1-27.24-7.35c-11.56-7.49-18.74-18.06-20.85-31.68-2.14-13.79,1.78-26,10.87-36.54C210.09,5.77,223.58-.25,235.5,0Z"/><path class="cls-2" d="M348.14,91.65a6.68,6.68,0,0,1-6.54-4.45c-1.69-4.37-3.27-8.78-5-13.14-1.58-4-.54-3.31-4.94-3.34-8.07,0-16.15,0-24.22,0-.57,0-1.13,0-1.69,0a1.5,1.5,0,0,0-1.65,1.2c-.22.61-.45,1.23-.68,1.84-1.51,4-3,8.08-4.56,12.11a12,12,0,0,1-1.19,2.54,7,7,0,0,1-7.3,3.15A6.47,6.47,0,0,1,285,87.1a7.84,7.84,0,0,1,.17-5.77c1.32-3.41,2.56-6.85,3.84-10.28Q300.73,40,312.41,8.91a19.91,19.91,0,0,1,.95-2.35A6.91,6.91,0,0,1,320,2.67a6.74,6.74,0,0,1,6.53,4.07c.83,1.78,1.45,3.66,2.14,5.5q12.85,34.24,25.7,68.48a10.28,10.28,0,0,1,.87,4.09A7,7,0,0,1,348.14,91.65ZM320,30.16c-1.27,2.23-9.48,24.05-9.91,26.21,2.17.32,17.13.34,19.62,0C329.27,54.17,322.61,36.15,320,30.16Z"/><path class="cls-2" d="M338.63,120.18a4.48,4.48,0,0,0-.29,2.38c0,3.94,0,7.88,0,11.81a9.79,9.79,0,0,1-.13,2,2.21,2.21,0,0,1-2.11,1.57,2.23,2.23,0,0,1-2.07-1.62,7.74,7.74,0,0,1-.11-1.67q0-10.41,0-20.82c0-.38,0-.75,0-1.13a2.26,2.26,0,0,1,1.52-2.15,2.14,2.14,0,0,1,2.5.77c.43.5.79,1,1.17,1.58,1.77,2.42,3.52,4.86,5.3,7.27.44.59.74,1.33,1.72,1.58l6.4-8.82a18.28,18.28,0,0,1,1.37-1.78,2,2,0,0,1,2.29-.59,2,2,0,0,1,1.49,1.85c0,.56,0,1.12,0,1.68q0,10.13,0,20.26a11.66,11.66,0,0,1-.11,2,2.12,2.12,0,0,1-2,1.66,2.08,2.08,0,0,1-2.06-1.59,11.94,11.94,0,0,1-.14-2.24c0-3.94,0-7.87,0-11.81a9.34,9.34,0,0,0-.15-1.67.36.36,0,0,0-.62-.18,15.07,15.07,0,0,0-1.24,1.53c-1.16,1.59-2.26,3.23-3.48,4.77-1.33,1.69-2.83,1.68-4.18,0-1.21-1.55-2.31-3.19-3.47-4.77A4.69,4.69,0,0,0,338.63,120.18Z"/><path class="cls-2" d="M410.14,124.25c0,3.28,0,6.57,0,9.85a11.77,11.77,0,0,1-.07,2,2.07,2.07,0,0,1-3.19,1.51,2.7,2.7,0,0,1-.64-.53c-.48-.5-.94-.39-1.5-.1a8.52,8.52,0,0,1-4.9,1,9.87,9.87,0,0,1-6.48-16.14,9,9,0,0,1,10.1-3.06c.54.15,1.05.39,1.6.52a.49.49,0,0,0,.61-.4c.08-.84.12-1.68.14-2.52,0-1.4,0-2.82.11-4.21a2.06,2.06,0,0,1,1.95-1.74,2.19,2.19,0,0,1,2.2,1.78,6,6,0,0,1,.07.84c0,.56,0,1.13,0,1.69ZM405.82,128a5.24,5.24,0,1,0-10.47.16,5.46,5.46,0,0,0,5.3,5.44A5.53,5.53,0,0,0,405.82,128Z"/><path class="cls-2" d="M507.49,128.31v5.9a13.63,13.63,0,0,1,0,1.69c-.21,1.75-1.84,2.61-3.25,1.52a2,2,0,0,0-2.46-.28,9.19,9.19,0,0,1-12.11-4.52,10.2,10.2,0,0,1,3.74-13.07,8.53,8.53,0,0,1,8.33-.48,1.84,1.84,0,0,0,2.42-.21c1.43-1.27,3.25-.36,3.32,1.58.11,2.62,0,5.25,0,7.87Zm-4.17-.07a5.54,5.54,0,0,0-5-5.76,5.18,5.18,0,0,0-5.3,4.12,5.82,5.82,0,0,0,2.61,6.53C498.49,134.68,503,133.27,503.32,128.24Z"/><path class="cls-2" d="M318.69,129.55c-1.78,0-3.57,0-5.35,0-1,0-1.24.67-.72,1.53a6.13,6.13,0,0,0,7.68,2.25,7.86,7.86,0,0,1,2.29-1,1.86,1.86,0,0,1,1.86,1,1.67,1.67,0,0,1-.38,2.06,5.88,5.88,0,0,1-.85.72,9.89,9.89,0,1,1-6.89-17.79,9.35,9.35,0,0,1,10.22,8.65c.14,1.68-.51,2.46-2.23,2.55-1.88.09-3.76,0-5.63,0Zm-1.45-3.43v0c1.58,0,3.16,0,4.74,0,.51,0,.72-.55.44-1a6.17,6.17,0,0,0-2.94-2.47,5.43,5.43,0,0,0-7,2.1,1.52,1.52,0,0,0-.31,1c.08.39.55.41.93.41Z"/><path class="cls-2" d="M377.31,129.55c-1.78,0-3.57,0-5.35,0-1,0-1.26.66-.74,1.52a6.13,6.13,0,0,0,7.68,2.26c.77-.31,1.4-.94,2.29-1a1.82,1.82,0,0,1,1.86,1,1.67,1.67,0,0,1-.36,2.06,6.55,6.55,0,0,1-.85.73,9.89,9.89,0,1,1-6.91-17.79,9.36,9.36,0,0,1,10.23,8.64c.14,1.68-.5,2.47-2.22,2.56-1.88.09-3.76,0-5.63,0Zm-1.7-3.43h0c1.57,0,3.15,0,4.73,0a1,1,0,0,0,.71-.31.74.74,0,0,0-.19-1,10.12,10.12,0,0,0-1.59-1.55,5.57,5.57,0,0,0-8.38,1.71c-.39.66-.19,1.12.53,1.14C372.82,126.14,374.21,126.12,375.61,126.12Z"/><path class="cls-2" d="M281.49,129.56c-1.78,0-3.56,0-5.35,0-.84,0-1.1.58-.67,1.34a6,6,0,0,0,7.59,2.5c.43-.17.82-.45,1.25-.63a4.64,4.64,0,0,1,1.32-.43,1.65,1.65,0,0,1,1.69.78,1.73,1.73,0,0,1-.17,2.08,6.14,6.14,0,0,1-1.06.92,9.9,9.9,0,0,1-15.46-6.06c-1.1-5,2.37-11.35,8.76-11.78a9.29,9.29,0,0,1,10.1,8.79c.1,1.51-.54,2.33-2.08,2.41-2,.1-4,0-5.92,0Zm-1.21-3.48v0c1.49,0,3,0,4.47,0a.92.92,0,0,0,.69-.33.89.89,0,0,0-.1-.75,6.48,6.48,0,0,0-4-2.78,5.33,5.33,0,0,0-6.21,3c-.17.39-.05.79.43.8C277.12,126.1,278.7,126.08,280.28,126.08Z"/><path class="cls-2" d="M257.59,125.84c0-2.25,0-4.5,0-6.76,0-5.1.54-4.32-4.27-4.4a21.13,21.13,0,0,1-2.25-.06,2.13,2.13,0,0,1-.2-4.16,7.74,7.74,0,0,1,1.67-.14c4.79,0,9.57,0,14.36,0a7.85,7.85,0,0,1,1.94.2,1.94,1.94,0,0,1,1.47,2.12,2.12,2.12,0,0,1-1.71,2,13.41,13.41,0,0,1-1.68.07c-1.13,0-2.25,0-3.38,0-1.38,0-1.55.22-1.6,1.69,0,.85,0,1.69,0,2.54v14.92a16.72,16.72,0,0,1-.08,2.24,2.13,2.13,0,0,1-2.14,1.85,2.16,2.16,0,0,1-2.05-2,16.15,16.15,0,0,1-.06-2Z"/><path class="cls-2" d="M465.78,128c0-2.06,0-4.13,0-6.19a11.84,11.84,0,0,1,.05-1.69,1.93,1.93,0,0,1,2.89-1.6,3,3,0,0,0,2.84.11,8.15,8.15,0,0,1,10.69,7.56c.06,3.1,0,6.2,0,9.3a3.84,3.84,0,0,1-.09.83,1.92,1.92,0,0,1-1.78,1.55,2,2,0,0,1-1.85-1,3.4,3.4,0,0,1-.36-1.9c0-2.35,0-4.69,0-7a14.36,14.36,0,0,0-.05-2,4.13,4.13,0,0,0-4.17-3.45,3.87,3.87,0,0,0-3.81,3.46,16.15,16.15,0,0,0-.05,2c0,2.16,0,4.32,0,6.48a8.57,8.57,0,0,1-.1,1.68,2.23,2.23,0,0,1-2.18,1.85,2.16,2.16,0,0,1-2-2,13.62,13.62,0,0,1,0-1.69Z"/><path class="cls-2" d="M439.26,118.19A10.88,10.88,0,0,1,445,120a5.32,5.32,0,0,1,.86.71,2,2,0,0,1,.14,2.57,2,2,0,0,1-2.49.68c-.69-.3-1.32-.73-2-1a5.79,5.79,0,0,0-7.37,2.83,5.1,5.1,0,0,0,.67,5.79,5.59,5.59,0,0,0,6,2,10.16,10.16,0,0,0,1.8-.77c.34-.15.65-.39,1-.51a2,2,0,0,1,2.44.87,1.87,1.87,0,0,1-.17,2.34,3,3,0,0,1-.6.58c-3.41,2.22-7,2.63-10.63.72a9.27,9.27,0,0,1-5.35-8.89,9.62,9.62,0,0,1,5.76-8.67A11.88,11.88,0,0,1,439.26,118.19Z"/><path class="cls-2" d="M296.71,123.93v-9.85a11.65,11.65,0,0,1,.1-2,2.22,2.22,0,0,1,2.26-1.74,2.25,2.25,0,0,1,2,1.74,9.42,9.42,0,0,1,.09,1.68q0,10.41,0,20.83a7.83,7.83,0,0,1-.11,1.68,2.17,2.17,0,0,1-4.19,0,10.54,10.54,0,0,1-.12-2C296.7,130.87,296.71,127.4,296.71,123.93Z"/><path class="cls-2" d="M419,128q0-3.22,0-6.45a4.69,4.69,0,0,1,.21-1.93,2.17,2.17,0,0,1,1.95-1.35,1.94,1.94,0,0,1,1.89,1.39,4.59,4.59,0,0,1,.24,1.37q0,7,0,14a5,5,0,0,1-.2,1.38,2,2,0,0,1-1.82,1.49,2.14,2.14,0,0,1-2.12-1.52,6.66,6.66,0,0,1-.15-1.67C419,132.48,419,130.24,419,128Z"/><path class="cls-2" d="M453.94,128.2v-7a3.58,3.58,0,0,1,.38-1.89,2,2,0,0,1,1.86-1,1.85,1.85,0,0,1,1.75,1.18,4.52,4.52,0,0,1,.32,1.92c0,4.49,0,9,0,13.46a5.77,5.77,0,0,1-.23,1.65,2,2,0,0,1-1.86,1.43,2,2,0,0,1-1.95-1.34,5.3,5.3,0,0,1-.25-1.64C453.93,132.69,453.94,130.45,453.94,128.2Z"/><path class="cls-2" d="M454,112.77a2.34,2.34,0,0,1,.68-1.72,2,2,0,0,1,3.27.48,3.38,3.38,0,0,1,.32,1.33,2.25,2.25,0,0,1-2,2.52C454.87,115.45,453.92,114.38,454,112.77Z"/><path class="cls-2" d="M419,112.79a2.35,2.35,0,0,1,.66-1.72,2,2,0,0,1,3.28.44,3.62,3.62,0,0,1,.33,1.33,2.26,2.26,0,0,1-2,2.54C419.94,115.46,419,114.4,419,112.79Z"/><path class="cls-2" d="M155.26,11a4,4,0,1,1-7.94-.18,4.34,4.34,0,0,1,4.4-3.86A4.29,4.29,0,0,1,155.26,11Z"/><path class="cls-2" d="M117.68,14.36c-2.36,0-3.65-1.48-3.74-3.87a3.87,3.87,0,0,1,3.71-3.7,3.94,3.94,0,0,1,3.91,3.81C121.57,12.67,119.72,14.68,117.68,14.36Z"/><path class="cls-2" d="M229.16,138.89a6.87,6.87,0,0,1-4.88-1.75c-5.19-4.42-8.54-9.88-9.15-16.8a9.44,9.44,0,0,1,.47-4.15,5.18,5.18,0,0,1,4.57-3.6,1.87,1.87,0,0,1,2.25,1.58c.39,1.35.69,2.72,1,4.09a1.55,1.55,0,0,1-.88,1.86c-.42.22-.84.41-1.25.65-1.33.8-1.49,1.08-1.16,2.47A16.93,16.93,0,0,0,224.4,131a1.63,1.63,0,0,0,2.23.45c.32-.19.67-.34,1-.5a2.29,2.29,0,0,1,2.39.19c1.08.75,2.16,1.49,3.25,2.21a2.05,2.05,0,0,1,.84,2.22,3.22,3.22,0,0,1-1.48,2.28A5.71,5.71,0,0,1,229.16,138.89Z"/></g></g></svg>