<svg xmlns="http://www.w3.org/2000/svg" viewBox="0 0 506.69 155.7"><defs><style>.cls-1{fill:#fff;}</style></defs><title>logo-pstelemed-blanco</title><g id="Capa_2" data-name="Capa 2"><g id="Capa_1-2" data-name="Capa 1"><path class="cls-1" d="M211.29,105.6c-.29-1-1.13-1.32-1.88-1.67a19.73,19.73,0,0,0-8.45-1.82,19.53,19.53,0,0,0-19.4,16.62,45,45,0,0,0-.39,5.33c-.09,2.53,0,5.07-.13,7.6-.38,9-4.74,15.65-12.19,20.37a23.56,23.56,0,0,1-13.39,3.66,24.93,24.93,0,0,1-14.7-4.95A24.33,24.33,0,0,1,131.09,136a23.45,23.45,0,0,1-.59-8.1,19.39,19.39,0,0,0,.09-2.53l.09-20.57c0-3.21-.29-3.47-3.43-3.79a42.88,42.88,0,0,1-12.51-3.08,19,19,0,0,1-7.94-6.57,53.67,53.67,0,0,1-3.61-5.7A104.62,104.62,0,0,1,96.3,69.94a290,290,0,0,1-8.93-31.39q-.66-2.88-1.28-5.77a19.78,19.78,0,0,1,2.1-14.43A19.84,19.84,0,0,1,104,7.91l.28,0a4.55,4.55,0,0,0,4.53-2.62c1.84-3.2,4.89-4.54,8.51-4.58a9.9,9.9,0,0,1,2.26,19.49,9.65,9.65,0,0,1-10.09-3.37,22.75,22.75,0,0,1-1.33-2.16,2.53,2.53,0,0,0-2.78-1.44A15.68,15.68,0,0,0,91.51,24.7a15,15,0,0,0,.06,7.79c1.29,5.19,2.62,10.37,4,15.55.63,2.46,1.38,4.88,2,7.35a4.07,4.07,0,0,0,3.32,3.37c1.93.42,3.82,1,5.76,1.29a53.4,53.4,0,0,0,9.54.77c1.43,0,2.59-.33,3.14-1.83a3.32,3.32,0,0,1,.61-.93,1.14,1.14,0,0,1,1.74,0c.56.86,1,1.8,1.47,2.7.39.72.58,1.61,1.63,1.83a4.46,4.46,0,0,0,1-2.87q.77-6.28,1.54-12.56.38-3.22.73-6.43a10.54,10.54,0,0,1,.08-1.13c.16-.82.27-1.72,1.29-2,.61-.14,1.22.65,1.44,1.81,0,.1,0,.19,0,.28q1.16,8.79,2.31,17.57a4.15,4.15,0,0,0,1.16,3,7.89,7.89,0,0,0,.66-1.62c.17-1.21.23-2.43.31-3.65.2-3,.39-6,.59-9a1.65,1.65,0,0,1,.15-.82c.25-.36.6-.83.95-.87A1.25,1.25,0,0,1,138,45c.5,1.8.91,3.63,1.29,5.47.61,2.94,1.17,5.88,1.75,8.83a3.08,3.08,0,0,0,1.22,2.28c.28-.34.68-.64.79-1,.3-1.08.48-2.19.7-3.3s.4-2,.61-3c.16-.77.41-1.49,1.31-1.64a1.63,1.63,0,0,1,1.61.92c.69,1,1.35,2,2,3.05.31.48.59,1,.92,1.43a2.52,2.52,0,0,0,2.43,1.12c5-.59,10-1.46,14.69-3.65.34-.16.66-.37,1-.54a5.25,5.25,0,0,0,2.82-3.65c.95-3.73,2-7.43,3-11.15.68-2.63,1.24-5.29,1.93-7.93a15.11,15.11,0,0,0-12.57-18.4c-.37-.06-.75,0-1.13-.08a2.47,2.47,0,0,0-2.76,1.46,7.63,7.63,0,0,1-.42.73,9.46,9.46,0,0,1-8.45,4.66,9.34,9.34,0,0,1-8.29-4.45c-2.12-3.16-2.05-6.59-.47-9.93a8.81,8.81,0,0,1,7.84-5.12c4.29-.34,7.55,1.27,9.6,5a3.79,3.79,0,0,0,3.34,2.15A19.32,19.32,0,0,1,169,9.59a20.48,20.48,0,0,1,12.6,15.46,21.54,21.54,0,0,1-.42,9.46,314,314,0,0,1-9.84,34.06,99.33,99.33,0,0,1-8,18c-1,1.69-2.13,3.31-3.25,4.93a19.84,19.84,0,0,1-11.36,7.84,40,40,0,0,1-9.94,1.75,5.83,5.83,0,0,0-.84.07,1.94,1.94,0,0,0-1.87,1.78,12.94,12.94,0,0,0-.1,2c0,8.45,0,16.91-.09,25.36a19.89,19.89,0,0,0,39.35,4.09,30.2,30.2,0,0,0,.51-5c.1-2.53.08-5.07.09-7.61,0-9.31,4.14-16.4,11.82-21.46,5.07-3.35,10.78-4.18,16.73-3.55a22.44,22.44,0,0,1,12,5.06,4.49,4.49,0,0,0,3.88,1.09,20.79,20.79,0,0,1,9.21.57c8.8,2.63,14.45,8.49,16.07,17.47,2.2,12.12-4.2,21.29-13.51,25.17a22.39,22.39,0,0,1-30.68-16.61c-1.52-8.41.9-15.81,7.56-21.55C209.78,107.16,210.87,106.67,211.29,105.6ZM168.53,58.22a13.76,13.76,0,0,0-1.81.22c-1.89.55-3.73,1.3-5.65,1.69-2.93.61-5.9,1-8.86,1.45a3.68,3.68,0,0,1-4-1.91,5.25,5.25,0,0,0-1.31-1.43c-.18-.13-.74,0-1,.22a2.06,2.06,0,0,0-.43,1c-.38,1.83-.73,3.67-1.11,5.51-.29,1.38-.54,2.76-.93,4.1a1.37,1.37,0,0,1-1,.78,1.47,1.47,0,0,1-1.1-.64,5.46,5.46,0,0,1-.54-1.58c-.53-2-1-4-1.56-6-.19-.72-.33-1.48-1.13-1.81-.89.33-.91,1.11-1,1.85l-1.17,10.06a5.82,5.82,0,0,1-.15,1.11c-.17.58-.55,1.08-1.18,1a1.64,1.64,0,0,1-1.05-.74,6.93,6.93,0,0,1-.5-1.89c-.8-4.8-1.56-9.62-2.39-14.42a5.71,5.71,0,0,0-.91-2.8.84.84,0,0,0-1.06.8c-.24,1.86-.44,3.72-.65,5.58-.37,3.17-.72,6.34-1.11,9.51-.13,1.09-.58,1.7-1.15,1.69-.78,0-1.13-.58-1.41-1.19s-.43-1-.64-1.57c-.53-1.3-1-2.62-1.59-3.91a6,6,0,0,0-.89-1.16c-.31,0-.42,0-.48.08a5.39,5.39,0,0,0-.58.59c-1.12,1.31-1.38,1.36-2.67.19a4.11,4.11,0,0,0-2.69-1.33,79.2,79.2,0,0,1-12.26-1.55,18,18,0,0,0-2.44-.13,4.4,4.4,0,0,0,.18,2.85,118.42,118.42,0,0,0,6.16,15.41,82,82,0,0,0,4.35,7.55,14.72,14.72,0,0,0,8.13,6.19,35.37,35.37,0,0,0,4.63,1.2c1.93.36,3.89.65,5.85.82a47,47,0,0,0,18.63-2,14.3,14.3,0,0,0,7.61-5.54,60.11,60.11,0,0,0,3.75-6,136.28,136.28,0,0,0,8.89-21.88A11.13,11.13,0,0,0,168.53,58.22Zm54.84,86.72a19.69,19.69,0,0,0,19.95-19.5c.18-13-11-20.3-19.1-19.91-10.48-.92-20.42,8-20.59,19.62C203.48,135.77,212.69,144.89,223.37,144.94Z"/><path class="cls-1" d="M37.74,41a4.76,4.76,0,0,0,2.1-2L61.62,8.88c.72-1,1.41-2,2.19-2.94,2-2.46,4.75-2.44,7.49-1.78,2.34.55,4.09,3.06,4.28,5.73,0,.65,0,1.31,0,2V83.12a19.35,19.35,0,0,1-.06,2.53,6.59,6.59,0,0,1-10,4.94,5.9,5.9,0,0,1-3-4.83c-.08-.94,0-1.88,0-2.82q0-23.52,0-47a8.19,8.19,0,0,0-.41-3.77c-.4.09-.92.07-1.19.32a10.44,10.44,0,0,0-1.43,1.73L44.2,55.41c-.33.46-.68.9-1,1.35C40.37,60.64,34.36,60,32,56.54c-2.81-4.1-5.81-8.08-8.71-12.12-2.52-3.51-5-7-7.55-10.53-.51-.71-.93-1.65-2.24-1.73a5.63,5.63,0,0,0-.41,1.24c-.07.94-.06,1.88-.06,2.82V82.69a20,20,0,0,1-.09,3.1,6.55,6.55,0,0,1-10,4.73A5.94,5.94,0,0,1,.05,85.91a21.07,21.07,0,0,1,0-2.25V11.55a21.07,21.07,0,0,1,0-2.25A6.08,6.08,0,0,1,5.85,3.83,6.94,6.94,0,0,1,12.57,7c4.18,5.9,8.46,11.72,12.69,17.58L35.66,39A4.8,4.8,0,0,0,37.74,41Z"/><path class="cls-1" d="M417,50.47c.52.55.82.89,1.15,1.21a22.53,22.53,0,0,1,7.13,16.59,43.54,43.54,0,0,0,.64,8c.63.42,1.34.86,2,1.36a6.5,6.5,0,0,1,2.44,7.48,6.86,6.86,0,0,1-6.29,4.8,9.41,9.41,0,0,1-8.37-3.73A15.11,15.11,0,0,1,413,80.63a41.16,41.16,0,0,1-1.27-10.3c0-1-.14-2.06-.27-3.08a9.92,9.92,0,0,0-4.31-7,22.34,22.34,0,0,0-6.77-3.36,6.68,6.68,0,0,0-1.93-.28c-4.41,0-8.83,0-13.24,0a6,6,0,0,0-1.06.17c-.82,1-.55,2.21-.55,3.31,0,7,0,14.08,0,21.12,0,1.22,0,2.44,0,3.66a6.78,6.78,0,0,1-13,2.2,6.47,6.47,0,0,1-.47-1.89c-.09-.93-.1-1.88-.1-2.81V11.17c0-.94,0-1.88.1-2.81a6.24,6.24,0,0,1,6-5.67c.47,0,.94,0,1.41,0,7.6,0,15.21-.09,22.81,0,9.67.14,17.16,4.48,22.25,12.6a26.79,26.79,0,0,1-3.06,32.57C418.72,48.67,417.93,49.47,417,50.47Zm-33.08-7.93a4.61,4.61,0,0,0,1,.27c5.16,0,10.32,0,15.49,0a12.23,12.23,0,0,0,6.1-1.93,13.19,13.19,0,0,0,6-14.81,13.61,13.61,0,0,0-12.67-9.84c-2.34-.07-4.69,0-7,0-2.16,0-4.32,0-6.48,0-2.4,0-2.67.26-2.68,2.53q0,10.85,0,21.68A15.29,15.29,0,0,0,383.89,42.54Z"/><path class="cls-1" d="M465.38,53.78a8.78,8.78,0,0,0-.26,1.42q0,10.56,0,21.12a3,3,0,0,0,.23.78c1,.73,2.21.5,3.31.5q14.37,0,28.73,0c.85,0,1.69,0,2.54,0a6.46,6.46,0,0,1,6.15,4.5c.77,2.81.36,5.47-2.3,7.58a5.49,5.49,0,0,1-3.62,1.34c-.47,0-.94,0-1.41,0q-20,0-40,0a9,9,0,0,1-3-.37,6.37,6.37,0,0,1-4.35-5.7,16.16,16.16,0,0,1,0-2q0-36.2,0-72.39a9.31,9.31,0,0,1,.51-3.88,6.17,6.17,0,0,1,5.32-4c.75-.06,1.5-.06,2.25-.06h38.88c.75,0,1.5,0,2.25.06a6.4,6.4,0,0,1,5.84,6.44,6.62,6.62,0,0,1-5.69,6.92,27,27,0,0,1-3.37.12c-9.58,0-19.16,0-28.74,0-1.09,0-2.27-.28-3.3.58a5.59,5.59,0,0,0-.19,1.05q0,10.42,0,20.84a3.48,3.48,0,0,0,.24.8c.92.72,2,.47,3,.47q12.39,0,24.78,0c.76,0,1.51,0,2.26,0a6.73,6.73,0,0,1,.82,13.33,25.7,25.7,0,0,1-4.2.36c-7.79,0-15.58,0-23.38,0C467.64,53.7,466.62,53.75,465.38,53.78Z"/><path class="cls-1" d="M237,91.16c-13.79-.11-24.68-4.55-33.73-13.26A42.72,42.72,0,0,1,190,52.1c-2.29-18.1,4.41-32.52,18.9-43.38a42.67,42.67,0,0,1,18.75-8C240.82-1.45,253,1.15,264,8.93a12.91,12.91,0,0,1,1.55,1.21c3.77,3.62,2.76,9.93-1.85,11.71a7.12,7.12,0,0,1-7-.6l-.68-.5a33.65,33.65,0,0,0-40.78.67,30.21,30.21,0,0,0-11.65,23.71c-.34,12.78,7.65,26.63,24.33,30.89a31.87,31.87,0,0,0,28-5.56A7.64,7.64,0,0,1,262.53,69c5.85,1.4,6.69,8.11,3.44,11.59a14.33,14.33,0,0,1-2.16,1.8,45.17,45.17,0,0,1-20.42,8.19C240.88,90.89,238.35,91,237,91.16Z"/><path class="cls-1" d="M334.64,70.39c-.57-.06-1.21-.16-1.86-.18-10.69-.24-26.1-.12-28.73.23a4.83,4.83,0,0,0-1.28,2.41c-1.66,4.38-3.28,8.78-5,13.15a10.71,10.71,0,0,1-1.66,2.9c-2.74,3.32-9.34,3.23-11.34-2a7.91,7.91,0,0,1,.1-5.78q1.38-3.69,2.77-7.38Q299.8,41.41,312,9c.23-.61.44-1.24.7-1.84,1.35-3.11,3.41-4.39,6.81-4.4a6.4,6.4,0,0,1,6.45,4.49c1.33,3.41,2.61,6.83,3.9,10.25q11.71,31.21,23.44,62.41a12.89,12.89,0,0,1,1,5.2,6.66,6.66,0,0,1-6.34,6c-3.32-.07-5.5-1.32-6.74-4.47-1.67-4.28-3.24-8.6-4.88-12.89A9.2,9.2,0,0,0,334.64,70.39Zm-25.78-14a24.7,24.7,0,0,0,2.57.35c2.06,0,4.12,0,6.18,0,3.28,0,6.56,0,9.84,0,.72,0,1.54.13,2.05-.86-.27-.77-.57-1.65-.9-2.52q-2.85-7.62-5.73-15.24c-.92-2.45-1.86-4.9-2.79-7.35-.17-.43-.31-.9-1.28-.82C315.53,38.51,312.23,47.22,308.86,56.39Z"/><path class="cls-1" d="M345.29,122.06c.86-1.1,1.45-1.81,2-2.56,1.61-2.2,3.2-4.41,4.81-6.61.38-.53.76-1.07,1.19-1.57a1.9,1.9,0,0,1,2.23-.74,2.12,2.12,0,0,1,1.34,2c0,.38,0,.75,0,1.13q0,10.28,0,20.56a7.83,7.83,0,0,1-.13,1.68,1.8,1.8,0,0,1-1.91,1.34,1.61,1.61,0,0,1-1.63-1.6,23.58,23.58,0,0,1-.09-2.53c0-3.85,0-7.7,0-11.55,0-.71.16-1.51-.68-2.16a11.5,11.5,0,0,0-1.15,1.17c-1.18,1.57-2.32,3.18-3.48,4.78a13.55,13.55,0,0,1-1,1.33,2.05,2.05,0,0,1-3,0,9.73,9.73,0,0,1-1.06-1.32c-1.16-1.6-2.29-3.21-3.46-4.8a11.85,11.85,0,0,0-1.09-1.14c-1,.55-.74,1.38-.75,2.08,0,3.85,0,7.7,0,11.55a23.58,23.58,0,0,1-.09,2.53,1.62,1.62,0,0,1-1.6,1.63,1.84,1.84,0,0,1-2-1.58,10.52,10.52,0,0,1-.08-1.69q0-10.14,0-20.28a7.83,7.83,0,0,1,.1-1.68,1.87,1.87,0,0,1,3.25-1,14.14,14.14,0,0,1,1.4,1.77c1.71,2.35,3.41,4.71,5.14,7C344,120.57,344.52,121.16,345.29,122.06Z"/><path class="cls-1" d="M405,136.17c-5.62,2-9.15,1.42-12-2.06a9.56,9.56,0,0,1-.84-11.28,9.35,9.35,0,0,1,5.7-4.3c2.46-.66,4.77.14,7.25,1a11.17,11.17,0,0,0,.39-1.75c0-1.31,0-2.62,0-3.94a12.92,12.92,0,0,1,.14-2,1.65,1.65,0,0,1,1.52-1.4,1.69,1.69,0,0,1,1.8,1.07,6,6,0,0,1,.3,1.92c0,6.94,0,13.88,0,20.83,0,1.05,0,2.15-1,2.74s-2,.1-2.77-.69C405.39,136.24,405.17,136.23,405,136.17Zm-10.54-8.37a5.67,5.67,0,0,0,6.18,5.78,5.82,5.82,0,0,0,4.81-5.12,6,6,0,0,0-4.19-6.22,5.36,5.36,0,0,0-6.18,3.15A15.76,15.76,0,0,0,394.45,127.8Z"/><path class="cls-1" d="M502.52,119.73a13.12,13.12,0,0,1,1.41-1.13,1.61,1.61,0,0,1,2.35.78,5.16,5.16,0,0,1,.39,1.9c0,4.41,0,8.82,0,13.23a5.26,5.26,0,0,1-.12,1.12c-.36,1.58-1.48,2-3,1.22a8.57,8.57,0,0,1-1-.75l-2.07.73a9,9,0,0,1-12.14-8,9.36,9.36,0,0,1,4.77-9.47,8.19,8.19,0,0,1,7.31-.53C501.11,119.11,501.7,119.38,502.52,119.73Zm-4.92,13.91a4.63,4.63,0,0,0,3.48-1.32,6.22,6.22,0,0,0-.61-9.38,5.24,5.24,0,0,0-6.71.57,6,6,0,0,0-1.64,5.44A5.16,5.16,0,0,0,497.6,133.64Z"/><path class="cls-1" d="M274.28,129.07a5,5,0,0,0,3.49,4.41,6.6,6.6,0,0,0,4.94-.11c.44-.16.82-.46,1.25-.65,1-.44,1.93-.34,2.33.21.55.76.24,1.9-.84,2.62a10.13,10.13,0,0,1-2.49,1.28c-6.13,1.88-10.55-1.24-12.19-5.55a9.54,9.54,0,0,1,2.71-10.74,9.18,9.18,0,0,1,15.15,6.21,1.72,1.72,0,0,1-1.71,2.1,18.44,18.44,0,0,1-2,.06c-2.53,0-5.06,0-7.59,0C276.43,128.93,275.51,129,274.28,129.07Zm.07-3.15a6.82,6.82,0,0,0,1.32.25q4.47,0,9-.11c.14,0,.27-.22.51-.44.07-1.22-.86-1.93-1.71-2.59a6.38,6.38,0,0,0-4.42-1.48,5.65,5.65,0,0,0-3.7,1.8A2.49,2.49,0,0,0,274.35,125.92Z"/><path class="cls-1" d="M316.54,137.37c-4.36.18-8.71-3.22-9.38-8.71a9.62,9.62,0,0,1,7.21-10.13,9.09,9.09,0,0,1,11.27,8.11,1.75,1.75,0,0,1-1.86,2.22c-2.72.08-5.44,0-8.16.06-1,0-2.07,0-3.1.07s-1.39.74-.85,1.77a6.09,6.09,0,0,0,6.14,3.1,13.91,13.91,0,0,0,2.41-.73c.44-.15.82-.45,1.26-.61a1.65,1.65,0,0,1,2,.6,1.6,1.6,0,0,1-.44,2,8.38,8.38,0,0,1-4.52,2.1C317.86,137.32,317.2,137.33,316.54,137.37Zm5.5-11.54c.41-1.1-.38-1.72-1-2.34a6.55,6.55,0,0,0-4.78-1.94,5.33,5.33,0,0,0-3.93,1.87c-.59.67-1.35,1.36-.8,2.43A38.28,38.28,0,0,0,322,125.83Z"/><path class="cls-1" d="M370.18,129.25a2.26,2.26,0,0,0,.59,2.3,6,6,0,0,0,5.74,2.27,12.17,12.17,0,0,0,2.9-1c1.38-.56,2.33-.46,2.72.38s0,1.63-1.23,2.51A9.62,9.62,0,1,1,372,118.83a9.15,9.15,0,0,1,12.27,7.9,1.73,1.73,0,0,1-1.68,2.12,18.6,18.6,0,0,1-2,.06H373A6.62,6.62,0,0,0,370.18,129.25Zm10.49-3.45c.37-1.09-.41-1.71-1.06-2.33a6.52,6.52,0,0,0-4.79-1.92,5.47,5.47,0,0,0-4.11,2.09c-.51.63-1.12,1.31-.56,2.24A37.73,37.73,0,0,0,380.67,125.8Z"/><path class="cls-1" d="M469.21,119.21a31.44,31.44,0,0,1,3.22-.83,7.8,7.8,0,0,1,8.92,7.3c.26,3.17.07,6.38,0,9.57a2.57,2.57,0,0,1-.27,1.07,1.49,1.49,0,0,1-1.29.94,1.46,1.46,0,0,1-1.61-.87,5.34,5.34,0,0,1-.37-1.89c0-2.25,0-4.5,0-6.76a16,16,0,0,0,0-2,4.39,4.39,0,0,0-3.68-3.73,4.07,4.07,0,0,0-4.64,2.79,7.06,7.06,0,0,0-.34,2.19c-.05,2.25,0,4.51,0,6.76a16.05,16.05,0,0,1-.07,2,1.71,1.71,0,0,1-1.72,1.53,1.74,1.74,0,0,1-1.78-1.48,6,6,0,0,1-.08-1.12V121.17a7.85,7.85,0,0,1,0-.84c.21-1.76,1.29-2.31,3-1.55A7.55,7.55,0,0,1,469.21,119.21Z"/><path class="cls-1" d="M256.71,114.22l-3.95-.06c-.66,0-1.32,0-2,0a1.75,1.75,0,0,1-1.8-1.77,1.77,1.77,0,0,1,1.68-1.89,8.39,8.39,0,0,1,1.12,0h14.92a7,7,0,0,1,1.12.06,1.82,1.82,0,0,1-.11,3.63c-1,.07-2.06,0-3.09,0-.85,0-1.69.06-2.53.11a1.89,1.89,0,0,0-.56.23c-.7.75-.45,1.73-.45,2.64,0,5.44,0,10.88,0,16.32a15.34,15.34,0,0,1-.09,2.25,1.8,1.8,0,0,1-2,1.55,1.62,1.62,0,0,1-1.59-1.63c-.08-.84-.08-1.69-.08-2.53,0-5.16,0-10.32,0-15.48A6.19,6.19,0,0,0,256.71,114.22Z"/><path class="cls-1" d="M438.92,137.35a9.71,9.71,0,0,1-9.93-9.06c-.31-4.84,3.84-9.52,8.8-9.94a9.46,9.46,0,0,1,6.85,1.93,1.87,1.87,0,0,1,.74,2A1.76,1.76,0,0,1,443,123.4c-.68-.31-1.32-.72-2-1a6.08,6.08,0,0,0-8.11,4.24,5.82,5.82,0,0,0,4.85,7,6.71,6.71,0,0,0,4.1-.63,6.25,6.25,0,0,1,1.55-.61,1.7,1.7,0,0,1,1.92.82,1.83,1.83,0,0,1-.4,2.07,8.39,8.39,0,0,1-4.27,2A11.71,11.71,0,0,1,438.92,137.35Z"/><path class="cls-1" d="M296.38,123.84c0-3.27,0-6.55,0-9.82a11.65,11.65,0,0,1,.1-2,1.88,1.88,0,0,1,2-1.57,1.73,1.73,0,0,1,1.58,1.68,15.9,15.9,0,0,1,.08,2q0,9.83,0,19.64a16,16,0,0,1-.09,2,1.63,1.63,0,0,1-1.68,1.54,1.77,1.77,0,0,1-1.86-1.38,10.54,10.54,0,0,1-.14-1.95C296.37,130.57,296.38,127.21,296.38,123.84Z"/><path class="cls-1" d="M422.33,127.86c0,2.15,0,4.31,0,6.46a7.83,7.83,0,0,1-.12,1.68,1.54,1.54,0,0,1-1.35,1.25,1.61,1.61,0,0,1-1.85-.93,4.54,4.54,0,0,1-.32-1.62c0-4.59,0-9.18,0-13.77a4.85,4.85,0,0,1,.22-1.37,1.73,1.73,0,0,1,1.73-1.19,1.71,1.71,0,0,1,1.58,1.35,10.47,10.47,0,0,1,.12,1.68C422.34,123.55,422.33,125.71,422.33,127.86Z"/><path class="cls-1" d="M457.27,127.79c0,2.16,0,4.31,0,6.46a11.75,11.75,0,0,1-.1,1.68,1.62,1.62,0,0,1-1.58,1.34,1.68,1.68,0,0,1-1.75-1.14,4.51,4.51,0,0,1-.21-1.37c0-4.59,0-9.17,0-13.76a4.55,4.55,0,0,1,.32-1.63,1.68,1.68,0,0,1,3.18.29,6.19,6.19,0,0,1,.13,1.67C457.28,123.48,457.27,125.64,457.27,127.79Z"/><path class="cls-1" d="M422.31,112.76c0,1.3-.69,2-1.82,2a1.89,1.89,0,0,1-1.79-2.08,2,2,0,0,1,2-2.17C421.74,110.63,422.34,111.48,422.31,112.76Z"/><path class="cls-1" d="M457.25,112.76c0,1.3-.69,2-1.82,2a1.89,1.89,0,0,1-1.79-2.08,2,2,0,0,1,2-2.17C456.68,110.63,457.28,111.47,457.25,112.76Z"/><path class="cls-1" d="M222.62,118.48c-.48,1.26-1.49,1.46-2.27,1.92a2.1,2.1,0,0,0-1.07,2.59,16.41,16.41,0,0,0,4.4,8,1.78,1.78,0,0,0,2.5.42,7.89,7.89,0,0,1,1-.48,1.88,1.88,0,0,1,1.88.11c1.17.78,2.35,1.56,3.48,2.39a1.84,1.84,0,0,1,.53,2.29c-.61,1.75-2.09,2.32-3.71,2.57a6.46,6.46,0,0,1-5.27-1.45c-4.55-3.75-7.78-8.35-8.92-14.25-.16-.82-.27-1.66-.38-2.5a8.84,8.84,0,0,1,.4-3.89,4.68,4.68,0,0,1,3.42-3.43c1.94-.42,2.69-.07,3.09,1.81C222,116,222.35,117.34,222.62,118.48Z"/></g></g></svg>