<?xml version="1.0" encoding="utf-8"?>
<!-- Generator: Adobe Illustrator 22.0.0, SVG Export Plug-In . SVG Version: 6.00 Build 0)  -->
<svg version="1.1" id="Capa_1" xmlns="http://www.w3.org/2000/svg" xmlns:xlink="http://www.w3.org/1999/xlink" x="0px" y="0px"
	 viewBox="0 0 80 80" style="enable-background:new 0 0 80 80;" xml:space="preserve">
<style type="text/css">
	.st0{fill:#919397;}
	.st1{fill:#FFFFFF;}
</style>
<title>Paciente-icon</title>
<g>
	<g id="Layer_2">
		<g id="Layer_1-2">
			<circle class="st0" cx="40" cy="40" r="39"/>
		</g>
	</g>
	<path class="st1" d="M33.6,54.1c-0.7,0-1.3-0.6-1.3-1.3v-4.9c0-0.7,0.6-1.3,1.3-1.3l0,0c0.7,0,1.3,0.6,1.3,1.3v4.9
		C34.9,53.6,34.3,54.1,33.6,54.1L33.6,54.1z"/>
	<path class="st1" d="M33.6,59.7c-2,0-3.6-1.6-3.6-3.6s1.6-3.6,3.6-3.6s3.6,1.6,3.6,3.6S35.6,59.7,33.6,59.7z M33.6,54.9
		c-0.6,0-1.1,0.5-1.1,1.1s0.5,1.1,1.1,1.1s1.1-0.5,1.1-1.1C34.8,55.4,34.3,54.9,33.6,54.9z"/>
	<path class="st1" d="M46.7,54.3c-0.7,0-1.3-0.6-1.3-1.3v-5.1c0-0.7,0.6-1.3,1.3-1.3s1.3,0.6,1.3,1.3V53
		C47.9,53.7,47.4,54.3,46.7,54.3z"/>
	<path class="st1" d="M49.9,63.9c-0.7,0-1.3-0.6-1.3-1.3v-5.5c0-1.1-0.9-2-2-2s-2,0.9-2,2v5.5c0,0.7-0.6,1.3-1.3,1.3
		S42,63.3,42,62.6v-5.5c0-2.5,2-4.5,4.5-4.5s4.5,2,4.5,4.5v5.5C51.1,63.3,50.6,63.9,49.9,63.9z"/>
	<path class="st1" d="M57.2,64.2c-1,0-1.7-0.8-1.7-1.7c0-8.6-7-15.5-15.5-15.5s-15.5,7-15.5,15.5c0,1-0.8,1.7-1.7,1.7
		c-1,0-1.7-0.8-1.7-1.7c0-10.5,8.5-19,19-19s19,8.5,19,19C58.9,63.5,58.1,64.2,57.2,64.2z"/>
	<path class="st1" d="M39.9,39.8c-6.2,0-11.2-5-11.2-11.2v-3.4c0-6.2,5-11.2,11.2-11.2s11.2,5,11.2,11.2v3.4
		C51.1,34.8,46.1,39.8,39.9,39.8z M39.9,17.2c-4.4,0-8.1,3.6-8.1,8.1v3.4c0,4.4,3.6,8.1,8.1,8.1c4.4,0,8.1-3.6,8.1-8.1v-3.4
		C48,20.8,44.4,17.2,39.9,17.2z"/>
</g>
</svg>
