<svg id="Capa_1" data-name="Capa 1" xmlns="http://www.w3.org/2000/svg" viewBox="0 0 66 64.13"><defs><style>.cls-1{fill:none;stroke:#185ba9;stroke-miterlimit:10;stroke-width:3px;}.cls-2{fill:#005bad;}</style></defs><title>oncologia</title><g id="Capa_2" data-name="Capa 2"><g id="Capa_1-2" data-name="Capa 1-2"><path class="cls-1" d="M33.25,2.5A29.75,29.75,0,1,0,63,32.25,29.75,29.75,0,0,0,33.25,2.5Z"/></g></g><path class="cls-2" d="M20.7,41.81a7.41,7.41,0,1,1,4.2-13.53,1.21,1.21,0,0,1,.53.72,5.88,5.88,0,0,0,1.72,2.82,2.84,2.84,0,0,1,1,2.34A7.42,7.42,0,0,1,20.7,41.81Z"/><path class="cls-2" d="M26.27,26.61a6.28,6.28,0,1,1,6.16,6.3A6.28,6.28,0,0,1,26.27,26.61Z"/><path class="cls-2" d="M12.51,37.17a8.51,8.51,0,0,0,6.38,5.65,8.33,8.33,0,0,0,8.57-3c.32-.39.52-.37.89-.15a5.24,5.24,0,0,1-1.68,9.62,5.15,5.15,0,0,1-5.5-2.47c-.27-.46-.46-.46-.89-.29a6.4,6.4,0,0,1-7.11-1.8,6.55,6.55,0,0,1-.89-7.14Z"/><path class="cls-2" d="M25,26.89a8.8,8.8,0,0,0-4.72-1.11,6,6,0,0,0-1.64.26.52.52,0,0,1-.73-.3,7.41,7.41,0,0,1,13.06-7c.11.22.43.5-.13.61A7.48,7.48,0,0,0,25,26.67,1.78,1.78,0,0,1,25,26.89Z"/><path class="cls-2" d="M42.53,31.14a5.23,5.23,0,1,1,5.19,5.22A5.2,5.2,0,0,1,42.53,31.14Z"/><path class="cls-2" d="M42.32,50.17a5.23,5.23,0,1,1,0-10.46,5.23,5.23,0,0,1,0,10.46Z"/><path class="cls-2" d="M27.47,50.33A6.55,6.55,0,0,0,30.81,48a6.37,6.37,0,0,0,1.3-4c0-.39.08-.48.47-.48a6.68,6.68,0,0,0,3.16-.74.72.72,0,0,1,.53-.14,6.58,6.58,0,0,0,.18,5.06A6.43,6.43,0,0,0,40.13,51C37.31,54.43,30.66,54.65,27.47,50.33Z"/><path class="cls-2" d="M29.32,33.53c.2-.09.34,0,.49.09a7.34,7.34,0,0,0,7-.85c.38-.26.53-.18.74.16a6.05,6.05,0,0,1-5.18,9.33c-.31,0-.56,0-.71-.41a6.27,6.27,0,0,0-2.88-3.37c-.21-.12-.38-.19-.24-.5A8.43,8.43,0,0,0,29.32,33.53Z"/><path class="cls-2" d="M35,19.54c2.49-2.86,8-2.77,10.36.13a6.59,6.59,0,0,0-2.52,4.59A5.07,5.07,0,0,0,43,26a1.06,1.06,0,0,1-.24,1.05,6,6,0,0,0-1.4,4.44c.05.53-.14.67-.61.7a8.18,8.18,0,0,1-2-.13c-.55-.11-.65-.38-.33-.81a7.45,7.45,0,0,0-3.13-11.62Z"/><path class="cls-2" d="M53.45,28a6.53,6.53,0,0,0-4.68-3.28,6.16,6.16,0,0,0-4.18.75c-.36.21-.47.17-.51-.26A5.24,5.24,0,0,1,54.5,24.18,5.39,5.39,0,0,1,53.45,28Z"/><path class="cls-2" d="M39.24,39.23c.15-.63.35-1.25.45-1.89a6.87,6.87,0,0,0-.32-3.48c-.13-.35-.1-.48.32-.41.64.1,1.36-.26,1.89,0s.58,1,1,1.52a6.43,6.43,0,0,0,7.63,2.16l.71-.29a7.51,7.51,0,0,1-2.49,5.69c-.18-.1-.21-.27-.28-.4a6.44,6.44,0,0,0-8.54-3l-.35.12Z"/><path class="cls-2" d="M39.39,16.21A8.71,8.71,0,0,0,33.76,19a1,1,0,0,1-1.37-.18,8.74,8.74,0,0,0-4.22-4.36C31.19,11.52,37.18,12.27,39.39,16.21Z"/><path class="cls-2" d="M51.49,40.21a8.88,8.88,0,0,0,.57-4c0-.25.11-.36.26-.51a6.37,6.37,0,0,0,1.73-6c-.06-.26-.11-.51.16-.65s.36.14.48.27A6.47,6.47,0,0,1,51.86,40.2a.63.63,0,0,1-.19,0S51.6,40.22,51.49,40.21Z"/><path class="cls-2" d="M15.88,21.16a9.82,9.82,0,0,0,.33,3.61,8.44,8.44,0,0,0,.6,1.49c.12.24.16.37-.12.52a8.4,8.4,0,0,0-3.12,2.77A6.32,6.32,0,0,1,15.88,21.16Z"/><path class="cls-2" d="M39.22,39.22l0,0h0Z"/></svg>