<?xml version="1.0" encoding="utf-8"?>
<!-- Generator: Adobe Illustrator 22.0.0, SVG Export Plug-In . SVG Version: 6.00 Build 0)  -->
<svg version="1.1" id="Capa_1" xmlns="http://www.w3.org/2000/svg" xmlns:xlink="http://www.w3.org/1999/xlink" x="0px" y="0px"
	 viewBox="0 0 45.3 13.1" style="enable-background:new 0 0 45.3 13.1;" xml:space="preserve">
<style type="text/css">
	.st0{fill:#1B008A;}
	.st1{fill:#00BA9A;}
	.st2{fill:#FFFFFF;}
	.st3{fill:#6C757D;}
	.st4{fill:none;}
</style>
<title>Recurso 85</title>
<g>
	<path class="st0" d="M14.8-33.1L14.8-33.1c-0.1-0.1-0.1-0.2-0.1-0.4C14.7-33.3,14.8-33.2,14.8-33.1z"/>
	<path class="st1" d="M14.8-32.7V-33C14.8-32.9,14.9-32.8,14.8-32.7z"/>
	<path class="st2" d="M11.3-29.6h-0.1h-0.1v0.1c0,0.1,0,0.1,0,0.1h0.1h0.1v-0.1C11.3-29.5,11.3-29.5,11.3-29.6z M11.3-29.6h-0.1
		h-0.1v0.1c0,0.1,0,0.1,0,0.1h0.1h0.1v-0.1C11.3-29.5,11.3-29.5,11.3-29.6z M11.3-29.6h-0.1h-0.1v0.1c0,0.1,0,0.1,0,0.1h0.1h0.1
		v-0.1C11.3-29.5,11.3-29.5,11.3-29.6z M11.3-29.6h-0.1h-0.1v0.1c0,0.1,0,0.1,0,0.1h0.1h0.1v-0.1C11.3-29.5,11.3-29.5,11.3-29.6z
		 M11.3-29.6h-0.1h-0.1v0.1c0,0.1,0,0.1,0,0.1h0.1h0.1v-0.1C11.3-29.5,11.3-29.5,11.3-29.6z M11.3-29.6h-0.1h-0.1v0.1
		c0,0.1,0,0.1,0,0.1h0.1h0.1v-0.1C11.3-29.5,11.3-29.5,11.3-29.6z M11.3-29.6h-0.1h-0.1v0.1c0,0.1,0,0.1,0,0.1h0.1h0.1v-0.1
		C11.3-29.5,11.3-29.5,11.3-29.6z M18.6-29.6h-0.1h-0.1v0.1c0,0.1,0,0.1,0,0.1h0.1h0.1v-0.1C18.6-29.5,18.6-29.5,18.6-29.6z
		 M18.6-29.6h-0.1h-0.1v0.1c0,0.1,0,0.1,0,0.1h0.1h0.1v-0.1C18.6-29.5,18.6-29.5,18.6-29.6z M11.3-29.6h-0.1h-0.1v0.1
		c0,0.1,0,0.1,0,0.1h0.1h0.1v-0.1C11.3-29.5,11.3-29.5,11.3-29.6z M25.9-36c-0.4-0.7-0.9-1.2-1.5-1.7c-1-0.6-2-1.1-3.1-1.5
		c-1.7-0.6-3.5-1-5.2-1.3c-1.4-0.2-2.8-0.3-4.1-0.3c-0.8,0-1.6,0-2.3,0.2c-0.9,0.1-1.7,0.4-2.5,0.8c-0.5,0.2-0.9,0.6-1.2,1.1
		c-0.4,0.7-0.6,1.6-0.7,2.4c-0.1,1.3,0.2,2.5,0.8,3.6c0.7,1.4,1.6,2.7,2.8,3.8c1,1,2.2,1.7,3.5,2.3c1.3,0.6,2.8,0.8,4.2,0.6
		c1.6-0.3,3.1-0.8,4.4-1.7c1.2-0.8,2.3-1.7,3.2-2.8c0.7-0.8,1.4-1.8,1.8-2.8C26.3-34.1,26.3-35.1,25.9-36z M20.3-34.8
		c0.1-0.2,0.3-0.4,0.5-0.6c0.2-0.2,0.5-0.3,0.8-0.2c0.3,0,0.4,0.2,0.4,0.5c0,0.1,0,0.1,0,0.2c-0.2,0.5-0.7,0.8-1.2,0.9h-0.2
		c-0.2-0.1-0.4,0-0.5,0.3c0,0.1-0.1,0.2-0.2,0.1s-0.1-0.2,0-0.2V-34c0.1-0.1,0.1-0.2-0.1-0.2c-0.1,0-0.1-0.1-0.2-0.1
		c0-0.1,0-0.1,0.1-0.2h0.1h0.1C20.1-34.5,20.1-34.5,20.3-34.8z M20.8-32.6c0,0.1,0.1,0.2,0,0.3s-0.2,0-0.3-0.1
		c-0.1-0.2-0.2-0.5-0.3-0.8c0-0.1,0-0.2,0-0.3s0-0.2,0.1-0.2s0.2,0.1,0.2,0.2c0,0.1,0,0.3,0,0.4C20.7-33,20.7-32.8,20.8-32.6z
		 M9.8-29.2L9.8-29.2c-0.1,0.1-0.1,0.1-0.2,0.1c-0.1,0-0.1,0-0.2,0l-0.1-0.1h0.1v0.1c0,0,0,0,0.1,0h0.1C9.7-29.3,9.7-29.3,9.8-29.2
		c-0.1-0.1-0.1-0.1-0.1-0.1l0,0c0,0,0,0-0.1,0s-0.1,0-0.1,0v-0.1c0,0,0,0,0-0.1c0,0,0,0,0.1-0.1h0.1c0.1,0,0.1,0,0.2,0v0.1H9.7
		c0,0,0,0,0-0.1c0,0,0,0-0.1,0H9.5l0,0l0,0c0,0,0,0,0.1,0s0.1,0,0.1,0s0,0,0.1,0C9.8-29.4,9.8-29.3,9.8-29.2
		C9.8-29.3,9.8-29.3,9.8-29.2z M11.4-29.2c0,0-0.1,0.1-0.2,0.1c-0.1,0-0.1,0-0.2-0.1c0,0-0.1-0.1-0.1-0.2s0-0.1,0-0.1v-0.1
		c0,0,0,0,0.1,0h0.1c0.1,0,0.1,0,0.2,0.1c0,0,0.1,0.1,0.1,0.2C11.4-29.3,11.4-29.3,11.4-29.2z M12.9-29.2h-0.4v-0.5h0.1v0.4
		L12.9-29.2L12.9-29.2z M14.4-29.3C14.4-29.3,14.4-29.2,14.4-29.3c0,0.1-0.1,0.1-0.1,0.1h-0.1c-0.1,0-0.1,0-0.1,0s0,0-0.1,0
		c0,0,0,0,0-0.1v-0.1v-0.3h0.1v0.4c0,0,0,0,0,0.1c0,0,0,0,0.1,0h0.1l0,0v-0.4h0.1V-29.3z M15.9-29.6h-0.2v0.4h-0.1v-0.4h-0.2v-0.1
		L15.9-29.6L15.9-29.6z M17.1-29.2H17v-0.5h0.1V-29.2z M18.6-29.2c0,0-0.1,0.1-0.2,0.1s-0.1,0-0.2-0.1c0,0-0.1-0.1-0.1-0.2
		s0-0.1,0-0.1s0-0.1,0.1-0.1c0,0,0,0,0.1,0h0.1c0.1,0,0.1,0,0.2,0.1c0,0,0.1,0.1,0.1,0.2C18.7-29.3,18.7-29.3,18.6-29.2z M20.2-29.2
		h-0.1l-0.2-0.3v0.3h-0.1v-0.5h0.1l0.2,0.4v-0.4h0.1V-29.2z M21.7-29.2L21.7-29.2c-0.1,0.1-0.1,0.1-0.2,0.1s-0.1,0-0.2,0l-0.1-0.1
		h0.1v0.1c0,0,0,0,0.1,0h0.1C21.6-29.3,21.6-29.3,21.7-29.2c-0.1-0.1-0.1-0.1-0.1-0.1l0,0c0,0,0,0-0.1,0s-0.1,0-0.1,0v-0.1
		c0,0,0,0,0-0.1c0,0,0,0,0.1-0.1h0.1c0.1,0,0.1,0,0.2,0v0.1h-0.1c0,0,0,0,0-0.1c0,0,0,0-0.1,0c0,0,0,0-0.1,0s0,0,0,0l0,0
		c0,0,0,0,0.1,0s0.1,0,0.1,0s0,0,0.1,0C21.7-29.4,21.7-29.3,21.7-29.2C21.7-29.3,21.7-29.3,21.7-29.2z M22.6-30
		c-1.3,0.1-2.4-0.1-2.9-1.5c-0.2-0.5-0.3-1-0.4-1.5c-0.1,0.3-0.2,0.5-0.3,0.7c-0.2,0.6-0.6,1.1-0.9,1.6c-0.1,0.2-0.3,0.3-0.5,0.3
		c-0.2,0.1-0.3,0-0.3-0.2c0-0.1,0-0.3,0.1-0.4c0.3-0.7,0.6-1.4,0.9-2c0.2-0.3,0.4-0.7,0.6-1c0.1-0.1,0.1-0.2,0-0.2l0,0
		c-0.3-0.3-0.8-0.3-1.2-0.2c-0.5,0.1-1,0.3-1.5,0.6c-0.1,0.1-0.2,0.2,0,0.3c0.3,0.3,0.5,0.7,0.7,1.1c0.1,0.4,0.1,0.8,0,1.2
		c0,0.2-0.2,0.3-0.4,0.4c-0.2,0-0.4-0.1-0.4-0.3c-0.2-0.3-0.2-0.7-0.2-1.1c-0.1,0.1-0.1,0.2-0.1,0.2c-0.1,0.2-0.2,0.4-0.3,0.5
		s-0.2,0.2-0.3,0.2c-0.2,0-0.2-0.2-0.2-0.3v-0.8c-0.2,0.4-0.3,0.9-0.3,1.4c0,0.1,0,0.2-0.1,0.2C14.4-31,14.2-31,14.1-31
		C14-31.1,14-31.2,14-31.3c0.1-0.5,0.2-1,0.2-1.5c0-0.2,0-0.2-0.2-0.2c-0.3,0.1-0.7,0.2-1,0.4c-0.1,0-0.1,0.1-0.1,0.2
		c0.2,0.5,0.3,1.1,0.4,1.6c0,0.1,0.1,0.3-0.1,0.4c-0.1,0.1-0.2-0.1-0.3-0.1L12-31.2c-0.2-0.2-0.2-0.2-0.3,0.1l-0.1,0.7
		c0,0.1,0,0.2-0.2,0.2c-0.1,0-0.1-0.1-0.2-0.2c0-0.1,0-0.3,0-0.4s0-0.3,0.1-0.4c0.1-0.2,0.1-0.4-0.1-0.5c0,0,0,0-0.1,0
		c-0.2-0.1-0.1-0.3,0-0.4l0,0c0.5-0.1,0.5-0.5,0.5-0.9c0-0.3,0.1-0.6,0.2-0.8l-0.7,0.3c-0.4,0.2-0.8,0.4-1.3,0.5
		c-0.1,0-0.2,0.1-0.1,0.2v1.2c0,0.4,0,0.9-0.1,1.3c0,0.1,0,0.1-0.1,0.2C9.5-30,9.4-30,9.3-30c-0.1,0-0.2-0.1-0.2-0.2v-0.5
		c0-0.6,0-1.3-0.1-2l-0.7,0.2l-0.5,0.1h0.1L8-32.5l1-0.3c0.3-0.1,0.3-0.1,0.3-0.4c0-0.5-0.1-1.1-0.2-1.6c0-0.1,0-0.2,0-0.2
		c0.1-0.1,0.1,0,0.1,0s0,0.1,0.1,0.2c0.1-0.1,0.1-0.2,0.1-0.3C9.2-35.8,9.1-36.4,9-37c-0.1-0.4-0.2-0.9-0.2-1.3c0-0.1,0-0.3,0-0.4
		c0.1-0.4,0.3-0.5,0.7-0.5c0.7,0.1,1.3,0.3,1.9,0.7c0.6,0.4,1.2,0.9,1.8,1.4c0.3,0.3,0.6,0.6,0.7,1.1c0,0.5-0.2,1-0.6,1.3
		c-0.2,0.2-0.4,0.3-0.7,0.5c-0.1,0.1-0.1,0.1-0.1,0.2c0.1,0.3,0.2,0.6,0.3,0.9c0,0.1,0.1,0.1,0.2,0.1c0.4-0.2,0.8-0.3,1.2-0.4
		c0.1,0,0.1-0.1,0.1-0.2v-0.2c0-0.1,0-0.2,0.1-0.3c0.1,0,0.3,0,0.3,0.1c0.2,0.2,0.3,0.5,0.3,0.8c0,0.4,0,0.8,0.1,1.1
		c0.1,0,0.1-0.1,0.1-0.1c0.2-0.3,0.3-0.6,0.4-0.9c0-0.1,0.1-0.3,0.3-0.2c0-0.1-0.1-0.2-0.2-0.3c-0.2-0.3-0.2-0.5,0.1-0.7
		c0.8-0.6,1.7-0.8,2.6-0.7c0.2,0,0.4,0.1,0.6,0.3c0-0.4,0-0.7-0.1-1.1c-0.1-0.8,0.1-1.6,0.4-2.3c0-0.1,0.1-0.2,0.2-0.3
		c0.2-0.1,0.3-0.1,0.4,0.1c0,0.2,0.1,0.3,0.1,0.5c0,1-0.2,1.9-0.5,2.8c0,0.2,0,0.4,0,0.5c0.1,0.9,0.3,1.8,0.6,2.6
		c0.2,0.7,0.8,1.2,1.5,1.3c0.3,0.1,0.6,0.1,0.9,0.1c0.1,0,0.2,0,0.2,0.1S22.7-30,22.6-30z M18.5-29.6h-0.1v0.1c0,0.1,0,0.1,0,0.1
		h0.1h0.1v-0.1c0-0.1,0-0.1,0-0.1C18.5-29.6,18.5-29.6,18.5-29.6z M11.2-29.6h-0.1v0.1c0,0.1,0,0.1,0,0.1h0.1h0.1v-0.1
		c0-0.1,0-0.1,0-0.1C11.2-29.6,11.2-29.6,11.2-29.6z M11.3-29.6h-0.1h-0.1v0.1c0,0.1,0,0.1,0,0.1h0.1h0.1v-0.1
		C11.3-29.5,11.3-29.5,11.3-29.6z M18.6-29.6h-0.1h-0.1v0.1c0,0.1,0,0.1,0,0.1h0.1h0.1v-0.1C18.6-29.5,18.6-29.5,18.6-29.6z
		 M18.6-29.6h-0.1h-0.1v0.1c0,0.1,0,0.1,0,0.1h0.1h0.1v-0.1C18.6-29.5,18.6-29.5,18.6-29.6z M11.3-29.6h-0.1h-0.1v0.1
		c0,0.1,0,0.1,0,0.1h0.1h0.1v-0.1C11.3-29.5,11.3-29.5,11.3-29.6z M11.3-29.6h-0.1h-0.1v0.1c0,0.1,0,0.1,0,0.1h0.1h0.1v-0.1
		C11.3-29.5,11.3-29.5,11.3-29.6z M11.3-29.6h-0.1h-0.1v0.1c0,0.1,0,0.1,0,0.1h0.1h0.1v-0.1C11.3-29.5,11.3-29.5,11.3-29.6z
		 M11.3-29.6h-0.1h-0.1v0.1c0,0.1,0,0.1,0,0.1h0.1h0.1v-0.1C11.3-29.5,11.3-29.5,11.3-29.6z M11.3-29.6h-0.1h-0.1v0.1
		c0,0.1,0,0.1,0,0.1h0.1h0.1v-0.1C11.3-29.5,11.3-29.5,11.3-29.6z"/>
	<path class="st0" d="M14.8-32.7V-33C14.8-32.9,14.9-32.8,14.8-32.7z"/>
	<path class="st0" d="M14.7-32.7c0-0.1,0-0.3,0-0.4l0,0c0.1,0.3,0.1,0.5,0.1,0.8v0.4c0-0.1,0-0.3,0-0.5
		C14.8-32.5,14.8-32.6,14.7-32.7z"/>
	<path class="st0" d="M9.4-34.9c-0.1,0,0-0.1-0.1-0.2l0,0C9.4-35.1,9.3-35,9.4-34.9L9.4-34.9z"/>
	<path class="st2" d="M9.9-33.3c-0.1-1.2-0.2-2.3-0.5-3.5c-0.1-0.5-0.2-1.1-0.2-1.6c0-0.4,0.1-0.5,0.4-0.4c0.5,0.1,1,0.2,1.5,0.5
		s1,0.7,1.5,1.1c0.2,0.2,0.4,0.3,0.5,0.5c0.4,0.4,0.4,1,0.1,1.4c-0.1,0.1-0.1,0.1-0.2,0.2c-0.7,0.6-1.5,1-2.3,1.4L9.9-33.3z"/>
	<path class="st2" d="M17.7-30.8c0.3-1,0.8-2,1.4-2.9C19-32.7,18.5-31.6,17.7-30.8z"/>
	<path class="st2" d="M12.9-31c-0.3-0.2-0.6-0.5-0.9-0.7c-0.1-0.1,0-0.3,0.1-0.3c0.1-0.1,0.3-0.2,0.5-0.3s0.1,0,0.1,0.1L12.9-31
		L12.9-31z"/>
	<path class="st2" d="M16.2-32.9c0.3,0.3,0.4,0.7,0.4,1.1v0.1c0,0.1,0,0.1-0.1,0.1s-0.2-0.1-0.2-0.1c-0.1-0.2-0.1-0.3-0.1-0.5
		C16.2-32.4,16.1-32.7,16.2-32.9z"/>
	<path class="st2" d="M19.5-36c0-0.5,0.1-0.9,0.2-1.3c0,0.6-0.1,1.1-0.2,1.7C19.4-35.8,19.5-35.9,19.5-36z"/>
	<path class="st2" d="M12.3-33.3c0.1,0.2,0.1,0.3,0.2,0.5c0,0.1,0,0.1-0.1,0.1l-0.3,0.1L12.3-33.3z"/>
	<path class="st0" d="M14.7-33.1L14.7-33.1c-0.1-0.1-0.1-0.3-0.1-0.5C14.7-33.5,14.8-33.3,14.7-33.1z"/>
	<path class="st3" d="M19.5-36c0,0.1,0,0.3,0,0.4v0.2C19.4-35.6,19.4-35.8,19.5-36z"/>
	<path class="st0" d="M9.4-34.5c0-0.1,0-0.1,0-0.2C9.4-34.6,9.4-34.6,9.4-34.5z"/>
	<path class="st0" d="M9.4-34.9c0,0,0,0.1,0,0.2C9.4-34.8,9.4-34.9,9.4-34.9z"/>
	<path class="st2" d="M20.5-34.4c0.2-0.3,0.4-0.6,0.7-0.8c0.1-0.1,0.3-0.1,0.4-0.1s0.1,0.1,0.1,0.2C21.5-34.6,21-34.3,20.5-34.4z"/>
</g>
<g>
	<path class="st4" d="M35,6.6L35,6.6c0-0.1-0.1-0.2-0.1-0.3C34.9,6.4,34.9,6.5,35,6.6z"/>
	<path class="st4" d="M35,6.9V6.6C35,6.7,35,6.8,35,6.9z"/>
	<path class="st2" d="M32.1,9.4L32.1,9.4c-0.1,0-0.1,0-0.2,0v0.1v0.1c0,0,0,0,0.1,0h0.1V9.5C32.2,9.5,32.2,9.4,32.1,9.4z M32.1,9.4
		L32.1,9.4c-0.1,0-0.1,0-0.2,0v0.1v0.1c0,0,0,0,0.1,0h0.1V9.5C32.2,9.5,32.2,9.4,32.1,9.4z M32.1,9.4L32.1,9.4c-0.1,0-0.1,0-0.2,0
		v0.1v0.1c0,0,0,0,0.1,0h0.1V9.5C32.2,9.5,32.2,9.4,32.1,9.4z M32.1,9.4L32.1,9.4c-0.1,0-0.1,0-0.2,0v0.1v0.1c0,0,0,0,0.1,0h0.1V9.5
		C32.2,9.5,32.2,9.4,32.1,9.4z M32.1,9.4L32.1,9.4c-0.1,0-0.1,0-0.2,0v0.1v0.1c0,0,0,0,0.1,0h0.1V9.5C32.2,9.5,32.2,9.4,32.1,9.4z
		 M32.1,9.4L32.1,9.4c-0.1,0-0.1,0-0.2,0v0.1v0.1c0,0,0,0,0.1,0h0.1V9.5C32.2,9.5,32.2,9.4,32.1,9.4z M32.1,9.4L32.1,9.4
		c-0.1,0-0.1,0-0.2,0v0.1v0.1c0,0,0,0,0.1,0h0.1V9.5C32.2,9.5,32.2,9.4,32.1,9.4z M38,9.4C38,9.4,37.9,9.4,38,9.4
		c-0.1,0-0.2,0-0.2,0v0.1v0.1h0.1H38V9.5C38,9.5,38,9.4,38,9.4z M38,9.4C38,9.4,37.9,9.4,38,9.4c-0.1,0-0.2,0-0.2,0v0.1v0.1h0.1H38
		V9.5C38,9.5,38,9.4,38,9.4z M32.1,9.4L32.1,9.4c-0.1,0-0.1,0-0.2,0v0.1v0.1c0,0,0,0,0.1,0h0.1V9.5C32.2,9.5,32.2,9.4,32.1,9.4z
		 M43.9,4.3c-0.3-0.5-0.7-1-1.2-1.3c-0.8-0.5-1.6-0.9-2.5-1.2c-1.4-0.4-2.8-0.8-4.2-1c-1.1-0.2-2.2-0.3-3.3-0.3
		c-0.6,0-1.3,0-1.9,0.1c-0.7,0.1-1.4,0.3-2,0.6c-0.4,0.2-0.7,0.5-0.9,0.9c-0.3,0.6-0.5,1.3-0.5,1.9c0,1,0.2,2,0.6,2.9
		c0.6,1.1,1.3,2.2,2.3,3c0.8,0.8,1.8,1.4,2.8,1.9c1.1,0.5,2.2,0.7,3.4,0.5c1.3-0.2,2.5-0.7,3.5-1.4c1-0.6,1.8-1.4,2.6-2.2
		c0.6-0.7,1.1-1.4,1.5-2.3C44.2,5.8,44.2,5,43.9,4.3z M39.4,5.3c0.1-0.2,0.2-0.4,0.4-0.5c0.2-0.2,0.4-0.2,0.6-0.2
		c0.2,0,0.4,0.2,0.3,0.4v0.1c-0.2,0.4-0.5,0.7-1,0.7h-0.2c-0.2-0.1-0.3,0-0.4,0.2c0,0.1-0.1,0.1-0.2,0.1c-0.1-0.1-0.1-0.1,0-0.2V5.8
		c0.2-0.1,0.2-0.1,0.1-0.2c-0.1,0-0.1,0-0.1-0.1s0-0.1,0-0.1H39h0.1C39.3,5.5,39.3,5.5,39.4,5.3z M39.8,7c0,0.1,0.1,0.2,0,0.2
		c-0.1,0.1-0.2,0-0.2-0.1c-0.1-0.2-0.2-0.4-0.2-0.6c0-0.1,0-0.2,0-0.3c0-0.1,0-0.1,0.1-0.1s0.1,0.1,0.1,0.2s0,0.2,0,0.3
		C39.7,6.7,39.7,6.8,39.8,7z M31,9.7C30.9,9.7,30.9,9.7,31,9.7c-0.1,0.1-0.1,0.1-0.2,0.1c-0.1,0-0.1,0-0.1,0s0-0.1-0.1-0.1h0.1
		c0,0,0,0,0,0.1c0,0,0,0,0.1,0C30.8,9.7,30.9,9.7,31,9.7C30.9,9.7,30.9,9.6,31,9.7C30.9,9.6,30.9,9.6,31,9.7
		c-0.1-0.1-0.1-0.1-0.1-0.1s0,0-0.1,0h-0.1V9.5c0,0,0,0,0-0.1c0,0,0,0,0.1,0h0.1c0.1,0,0.1,0,0.1,0v0.1h-0.1l0,0c0,0,0,0-0.1,0
		c0,0,0,0-0.1,0l0,0l0,0c0,0,0,0,0.1,0h0.1c0,0,0,0,0.1,0C31,9.6,31,9.6,31,9.7L31,9.7z M32.2,9.7c0,0-0.1,0.1-0.2,0.1
		c-0.1,0-0.1,0-0.2-0.1s-0.1-0.1-0.1-0.2V9.4c0,0,0,0,0-0.1c0,0,0,0,0.1,0h0.1c0.1,0,0.1,0,0.2,0.1c0,0,0.1,0.1,0.1,0.2
		C32.3,9.6,32.2,9.7,32.2,9.7z M33.4,9.8h-0.3V9.3h0.1v0.4L33.4,9.8L33.4,9.8z M34.7,9.7C34.7,9.7,34.6,9.7,34.7,9.7
		C34.6,9.7,34.6,9.7,34.7,9.7c-0.1,0.1-0.1,0.1-0.2,0.1h-0.1l0,0l0,0V9.7V9.3h0.1v0.3l0,0c0,0,0,0,0.1,0C34.6,9.6,34.6,9.6,34.7,9.7
		C34.6,9.7,34.6,9.6,34.7,9.7l-0.1-0.4h0.1V9.7z M35.9,9.4L35.9,9.4l-0.1,0.4h-0.1V9.4h-0.1V9.3L35.9,9.4L35.9,9.4z M36.8,9.8
		L36.8,9.8l-0.1-0.4h0.1V9.8z M38.1,9.7c0,0-0.1,0.1-0.2,0.1c-0.1,0-0.1,0-0.2-0.1s-0.1-0.1-0.1-0.2V9.4c0,0,0,0,0-0.1
		c0,0,0,0,0.1,0h0.1c0.1,0,0.1,0,0.2,0.1c0,0,0.1,0.1,0.1,0.2C38.1,9.6,38.1,9.7,38.1,9.7z M39.3,9.8L39.3,9.8L39,9.5v0.3h-0.1V9.3
		H39l0.2,0.3V9.3h0.1V9.8z M40.5,9.7L40.5,9.7c-0.1,0.1-0.1,0.1-0.2,0.1c-0.1,0-0.1,0-0.1,0s0-0.1-0.1-0.1h0.1c0,0,0,0,0,0.1
		c0,0,0,0,0.1,0C40.4,9.7,40.4,9.7,40.5,9.7C40.4,9.7,40.5,9.6,40.5,9.7C40.5,9.6,40.5,9.6,40.5,9.7c-0.1-0.1-0.1-0.1-0.1-0.1
		s0,0-0.1,0h-0.1V9.5c0,0,0,0,0-0.1c0,0,0,0,0.1,0h0.1c0.1,0,0.1,0,0.1,0v0.1h-0.1l0,0c0,0,0,0-0.1,0c0,0,0,0-0.1,0l0,0l0,0
		c0,0,0,0,0.1,0h0.1c0,0,0,0,0.1,0C40.5,9.6,40.5,9.6,40.5,9.7L40.5,9.7z M41.2,9.1c-1,0.1-1.9-0.1-2.3-1.2
		c-0.1-0.4-0.3-0.8-0.3-1.2c-0.1,0.2-0.1,0.4-0.2,0.6c-0.2,0.4-0.5,0.8-0.8,1.2c-0.1,0.1-0.2,0.2-0.4,0.3c-0.2,0-0.2,0-0.2-0.2
		c0-0.1,0-0.2,0.1-0.3c0.1-0.6,0.4-1.1,0.7-1.6c0.2-0.3,0.3-0.6,0.5-0.8c0.1-0.1,0-0.1,0-0.2l0,0c-0.3-0.2-0.6-0.3-1-0.2
		c-0.4,0.1-0.8,0.3-1.2,0.5c-0.1,0.1-0.1,0.1,0,0.3c0.2,0.2,0.4,0.5,0.6,0.9c0.1,0.3,0.1,0.6,0,0.9c0,0.2-0.2,0.3-0.3,0.3
		c-0.2,0-0.3-0.1-0.4-0.3c-0.1-0.3-0.2-0.6-0.2-0.9c-0.1,0.1-0.1,0.1-0.1,0.2c-0.1,0.2-0.2,0.3-0.3,0.4s-0.2,0.1-0.3,0.1
		S35,7.7,34.9,7.7V6.9c-0.1,0.3-0.2,0.7-0.2,1.1c0,0.1,0,0.1-0.1,0.2c-0.1,0.1-0.2,0.1-0.2,0.1c-0.1,0-0.1-0.1-0.1-0.2
		c0.2-0.4,0.2-0.9,0.3-1.3c0-0.1,0-0.2-0.2-0.1c-0.3,0.1-0.6,0.2-0.8,0.3c-0.1,0-0.1,0.1-0.1,0.2c0.1,0.4,0.2,0.8,0.3,1.3
		c0,0.1,0.1,0.2,0,0.3c-0.1,0.1-0.2-0.1-0.3-0.1l-0.8-0.6C32.6,8,32.6,8,32.5,8.2l-0.1,0.6c0,0.1,0,0.1-0.1,0.1s-0.1-0.1-0.1-0.1
		c0-0.1,0-0.2,0-0.3s0-0.2,0.1-0.3s0.1-0.3-0.1-0.4c0,0,0,0-0.1,0c-0.1-0.1-0.1-0.2,0-0.3l0,0c0.4-0.2,0.5-0.5,0.5-0.8
		c0-0.2,0.1-0.5,0.1-0.7l-0.6,0.3c-0.3,0.2-0.7,0.3-1,0.4C31,6.7,31,6.8,31,6.9v1c0,0.3,0,0.7-0.1,1c0,0.1,0,0.1-0.1,0.1
		c0,0.1-0.1,0.1-0.2,0.1c-0.1,0-0.1-0.1-0.1-0.2V8.5c0-0.5,0-1-0.1-1.6l-0.6,0.2l-0.2,0.1h-0.1l0.1-0.1l0.7-0.3
		c0.2-0.1,0.2-0.1,0.2-0.3c0-0.4-0.1-0.9-0.2-1.3c0-0.1,0-0.1,0-0.2h0.1c0,0,0,0.1,0.1,0.1c0.1,0,0.1-0.1,0.1-0.2
		c-0.1-0.5-0.2-1-0.3-1.5c-0.1-0.3-0.1-0.7-0.2-1.1c0-0.1,0-0.2,0-0.3c0.1-0.3,0.3-0.4,0.7-0.3c0.5,0.1,1.1,0.3,1.5,0.6
		c0.5,0.3,1,0.7,1.4,1.1c0.3,0.2,0.5,0.5,0.6,0.9c0,0.4-0.2,0.8-0.5,1c-0.2,0.2-0.4,0.3-0.6,0.4c-0.1,0-0.1,0.1-0.1,0.2
		c0.1,0.2,0.2,0.5,0.2,0.8c0,0.1,0.1,0.1,0.2,0.1c0.3-0.2,0.6-0.3,1-0.3c0.1,0,0.1,0,0.1-0.1V6.1c0-0.1,0-0.2,0.1-0.2s0.2,0,0.3,0.1
		c0.2,0.2,0.2,0.4,0.2,0.6c0,0.3,0,0.6,0.1,0.9c0.1,0,0.1-0.1,0.1-0.1c0.1-0.2,0.2-0.5,0.3-0.7c0-0.1,0.1-0.2,0.3-0.1
		c0-0.1-0.1-0.2-0.1-0.2c-0.3-0.3-0.3-0.5,0-0.6c0.6-0.5,1.4-0.7,2.1-0.6c0.2,0,0.3,0.1,0.5,0.2c0-0.3,0-0.6,0-0.8
		c0-0.6,0.1-1.3,0.3-1.8c0-0.1,0.1-0.2,0.2-0.2c0.1-0.1,0.2-0.1,0.3,0.1c0,0.1,0.1,0.3,0.1,0.4c0,0.8-0.1,1.5-0.4,2.3
		c0,0.1,0,0.3,0,0.4c0.1,0.7,0.3,1.4,0.5,2.1c0.2,0.5,0.7,0.9,1.2,1c0.2,0,0.5,0.1,0.7,0.1c0.1,0,0.2,0,0.2,0.1S41.3,9,41.2,9.1z
		 M37.9,9.4C37.9,9.4,37.8,9.4,37.9,9.4c-0.1,0.1-0.1,0.1-0.1,0.2v0.1h0.1H38V9.6C38,9.5,38,9.4,37.9,9.4C38,9.4,37.9,9.4,37.9,9.4z
		 M32.1,9.4C32,9.4,32,9.4,32.1,9.4C32,9.5,32,9.5,32,9.6v0.1c0,0,0,0,0.1,0h0.1V9.6C32.2,9.5,32.2,9.4,32.1,9.4L32.1,9.4z
		 M32.1,9.4L32.1,9.4c-0.1,0-0.1,0-0.2,0v0.1v0.1c0,0,0,0,0.1,0h0.1V9.5C32.2,9.5,32.2,9.4,32.1,9.4z M38,9.4
		C38,9.4,37.9,9.4,38,9.4c-0.1,0-0.2,0-0.2,0v0.1v0.1h0.1H38V9.5C38,9.5,38,9.4,38,9.4z M38,9.4C38,9.4,37.9,9.4,38,9.4
		c-0.1,0-0.2,0-0.2,0v0.1v0.1h0.1H38V9.5C38,9.5,38,9.4,38,9.4z M32.1,9.4L32.1,9.4c-0.1,0-0.1,0-0.2,0v0.1v0.1c0,0,0,0,0.1,0h0.1
		V9.5C32.2,9.5,32.2,9.4,32.1,9.4z M32.1,9.4L32.1,9.4c-0.1,0-0.1,0-0.2,0v0.1v0.1c0,0,0,0,0.1,0h0.1V9.5
		C32.2,9.5,32.2,9.4,32.1,9.4z M32.1,9.4L32.1,9.4c-0.1,0-0.1,0-0.2,0v0.1v0.1c0,0,0,0,0.1,0h0.1V9.5C32.2,9.5,32.2,9.4,32.1,9.4z
		 M32.1,9.4L32.1,9.4c-0.1,0-0.1,0-0.2,0v0.1v0.1c0,0,0,0,0.1,0h0.1V9.5C32.2,9.5,32.2,9.4,32.1,9.4z M32.1,9.4L32.1,9.4
		c-0.1,0-0.1,0-0.2,0v0.1v0.1c0,0,0,0,0.1,0h0.1V9.5C32.2,9.5,32.2,9.4,32.1,9.4z"/>
	<path class="st4" d="M34.9,6.9c0-0.1,0-0.2,0-0.3l0,0C35,6.8,35,7,35,7.2v0.3c0-0.1,0-0.2,0-0.4C34.9,7.1,35,7,34.9,6.9z"/>
	<path class="st2" d="M31.1,6.5c-0.1-0.9-0.2-1.9-0.4-2.8c-0.1-0.4-0.2-0.8-0.2-1.3c0-0.3,0.1-0.4,0.3-0.4c0.4,0,0.8,0.2,1.2,0.4
		c0.4,0.3,0.8,0.6,1.2,0.9c0.2,0.1,0.3,0.3,0.4,0.4c0.3,0.3,0.4,0.8,0,1.2L33.5,5c-0.6,0.4-1.2,0.8-1.9,1.1L31.1,6.5z"/>
	<path class="st2" d="M37.3,8.4c0.3-0.8,0.7-1.6,1.2-2.3C38.3,7,37.9,7.8,37.3,8.4z"/>
	<path class="st2" d="M33.5,8.3c-0.2-0.2-0.5-0.4-0.8-0.6c-0.1-0.1,0-0.2,0.1-0.3s0.2-0.1,0.4-0.2c0.1-0.1,0.1,0,0.1,0.1L33.5,8.3
		L33.5,8.3z"/>
	<path class="st2" d="M36.1,6.7c0.2,0.3,0.4,0.6,0.3,0.9v0.1c0,0,0,0.1-0.1,0.1s-0.1,0-0.1-0.1c-0.1-0.1-0.1-0.3-0.1-0.4
		C36.1,7.1,36.1,6.9,36.1,6.7z"/>
	<path class="st2" d="M38.7,4.3c0-0.4,0-0.7,0.2-1.1c0,0.5-0.1,0.9-0.2,1.4C38.7,4.5,38.7,4.4,38.7,4.3z"/>
	<path class="st2" d="M33,6.4c0.1,0.1,0.1,0.3,0.1,0.4s0,0.1,0,0.1L32.9,7L33,6.4z"/>
	<path class="st4" d="M34.9,6.6L34.9,6.6c-0.1-0.1-0.1-0.3-0.1-0.4C34.9,6.3,34.9,6.4,34.9,6.6z"/>
	<path class="st4" d="M38.7,4.3c0,0.1,0,0.2,0,0.3v0.1C38.7,4.6,38.7,4.4,38.7,4.3z"/>
	<path class="st2" d="M39.5,5.6c0.1-0.2,0.3-0.5,0.6-0.6c0.1-0.1,0.2-0.1,0.3-0.1s0.1,0.1,0.1,0.2C40.4,5.4,39.9,5.7,39.5,5.6z"/>
</g>
<g>
	<path class="st2" d="M1.7,7H0.9v1.2H0.4V4.7h1.3c0.4,0,0.6,0.1,0.8,0.3c0.2,0.2,0.3,0.4,0.3,0.8C2.8,6.7,2.4,7,1.7,7z M0.9,6.7h0.9
		c0.5,0,0.7-0.3,0.7-0.8c0-0.3-0.1-0.4-0.2-0.6C2.1,5.1,2,5.1,1.7,5.1H0.9V6.7z"/>
	<path class="st2" d="M3.3,7c0-0.4,0.1-0.8,0.3-1C3.7,5.8,4,5.6,4.3,5.6S5,5.8,5.2,6c0.1,0.2,0.3,0.6,0.3,1c0,0.4-0.1,0.8-0.3,1
		C5,8.2,4.7,8.3,4.3,8.3C3.9,8.3,3.7,8.2,3.5,8C3.3,7.7,3.3,7.4,3.3,7z M3.7,6.9c0,0.4,0.1,0.6,0.1,0.8C3.8,7.9,4,7.9,4.3,7.9
		c0.3,0,0.4-0.1,0.6-0.2C5,7.6,5,7.4,5,7C5,6.6,5,6.3,4.9,6.2C4.8,6.1,4.7,6,4.3,6C4.1,6,3.9,6.1,3.8,6.2C3.7,6.3,3.7,6.6,3.7,6.9z"
		/>
	<path class="st2" d="M5.8,5.7h0.4l0.5,2.2h0.1l0.6-2.2h0.4l0.6,2.2h0.1L9,5.7h0.4L8.7,8.3H8.1l-0.5-2l-0.5,2H6.4L5.8,5.7z"/>
	<path class="st2" d="M11.6,7.9h0.1v0.3c-0.4,0.1-0.7,0.1-1,0.1c-0.4,0-0.6-0.1-0.8-0.3C9.8,7.8,9.7,7.4,9.7,7
		c0-0.9,0.4-1.3,1.1-1.3c0.3,0,0.6,0.1,0.8,0.3c0.2,0.2,0.3,0.5,0.3,0.9v0.3h-1.7c0,0.3,0.1,0.5,0.1,0.6C10.4,7.9,10.5,8,10.8,8
		S11.3,7.9,11.6,7.9z M11.5,6.8c0-0.3-0.1-0.5-0.1-0.6C11.2,6,11.1,6,10.8,6S10.5,6,10.3,6.2c-0.1,0.1-0.2,0.4-0.2,0.6H11.5z"/>
	<path class="st2" d="M12.4,8.3V5.7h0.4V6c0.3-0.2,0.6-0.3,1-0.4V6c-0.1,0-0.3,0.1-0.4,0.1c-0.1,0.1-0.3,0.1-0.4,0.1l-0.1,0.1v1.8
		L12.4,8.3L12.4,8.3z"/>
	<path class="st2" d="M15.9,7.9H16v0.3c-0.4,0.1-0.7,0.1-1,0.1c-0.4,0-0.6-0.1-0.8-0.3C14.1,7.7,14,7.4,14,7c0-0.9,0.4-1.3,1.1-1.3
		c0.3,0,0.6,0.1,0.8,0.3c0.2,0.2,0.3,0.5,0.3,0.9v0.3h-1.7c0,0.3,0.1,0.5,0.1,0.6C14.7,7.9,14.8,8,15.1,8S15.6,7.9,15.9,7.9z
		 M15.7,6.8c0-0.3-0.1-0.5-0.1-0.6C15.5,6,15.3,6,15.1,6S14.7,6,14.6,6.2c-0.1,0.1-0.2,0.4-0.2,0.6H15.7z"/>
	<path class="st2" d="M18.7,4.6v3.6h-0.4V8.1c-0.3,0.1-0.5,0.3-0.8,0.3c-0.1,0-0.3,0-0.4-0.1c-0.1-0.1-0.2-0.1-0.3-0.2
		c-0.2-0.2-0.3-0.5-0.3-1s0.1-0.8,0.3-1.1c0.2-0.2,0.4-0.3,0.8-0.3c0.2,0,0.4,0,0.6,0.1V4.6H18.7z M17.3,7.9c0.1,0,0.1,0.1,0.3,0.1
		c0.1,0,0.2,0,0.3-0.1c0.1-0.1,0.2-0.1,0.3-0.1l0.1-0.1V6C18.1,6,17.8,6,17.6,6c-0.3,0-0.4,0.1-0.5,0.3C17.1,6.4,17,6.7,17,7
		c0,0.4,0.1,0.6,0.2,0.8C17.3,7.8,17.3,7.9,17.3,7.9z"/>
	<path class="st2" d="M21.6,5.6c0.3,0,0.6,0.1,0.7,0.3c0.1,0.2,0.2,0.5,0.2,1s-0.1,0.8-0.3,1c-0.2,0.2-0.5,0.3-1,0.3
		c-0.1,0-0.4,0-0.7-0.1h-0.1V4.6h0.4v1.2C21.1,5.7,21.4,5.6,21.6,5.6z M21.4,7.9c0.3,0,0.6-0.1,0.6-0.3c0.1-0.2,0.2-0.4,0.2-0.8
		c0-0.4-0.1-0.6-0.1-0.8C22,6,21.8,6,21.6,6S21.3,6,21,6.1l-0.1,0.1v1.8C21.1,7.9,21.3,7.9,21.4,7.9z"/>
	<path class="st2" d="M22.9,5.7h0.4l0.6,2.2h0.2l0.6-2.2h0.4l-1.1,3.7h-0.4L24,8.3h-0.4L22.9,5.7z"/>
</g>
</svg>
