<svg xmlns="http://www.w3.org/2000/svg" viewBox="0 0 996.24 163.24"><defs><style>.cls-1{fill:#fff;}</style></defs><title>Recurso 121</title><g id="Capa_2" data-name="Capa 2"><g id="Capa_1-2" data-name="Capa 1"><path class="cls-1" d="M948.61,51.77c-12.41-8.1-25.54-14.67-39.92-18.53a86,86,0,0,0-39.38-1.59,118.2,118.2,0,0,0-32.19,11.69,190.14,190.14,0,0,0-34,23.2,237.19,237.19,0,0,0-26.39,25.79,1.26,1.26,0,0,0-.12,1.89c6.59,9.63,14.8,17.71,23.78,25a228.9,228.9,0,0,0,37,24.27c5.14,2.75,10.25,5.64,15.73,7.62A93.29,93.29,0,0,0,896.58,156a111.1,111.1,0,0,0,31.61-8.81c23.36-10.29,42.84-25.87,60.12-44.41,2.75-3,5.29-6.08,7.93-9.13v-.24A235.82,235.82,0,0,0,948.61,51.77Zm-62.87,86.34a45,45,0,1,1,45-44.92A44.91,44.91,0,0,1,885.74,138.11Z"/><path class="cls-1" d="M17,163c-.33.47-.81.23-1.21.24-5.27,0-10.55,0-15.82,0V95.76a.29.29,0,0,1,.4.14,4.88,4.88,0,0,1,.23,2.24q0,31,0,62c0,2.39,0,2.39,2.44,2.39H15.2A2.52,2.52,0,0,1,17,163Z"/><path class="cls-1" d="M.21,95.74l-.21,0V51.36l.29.07A2.26,2.26,0,0,1,.63,53q0,20.5,0,41C.63,94.64.72,95.27.21,95.74Z"/><path class="cls-1" d="M229.44,0a1.27,1.27,0,0,0,0,.2,2.18,2.18,0,0,1-2.66,0V0Z"/><path class="cls-1" d="M66.7,82.35a59.1,59.1,0,0,0-3.13-16.17c-3-8.21-8.69-13.45-17.22-15.45A34.63,34.63,0,0,0,24,52.65c-2.33,1-4.56,2.23-6.92,3.54,0-1.44,0-2.71,0-4,0-.61-.17-.84-.81-.83-5.32,0-10.63,0-15.95,0q0,5,0,9.94l0,34.37c0,.52,0,1,0,1.55q0,32.13,0,64.25c0,1.17.33,1.46,1.47,1.45,5.12-.07,10.23,0,15.35,0,0-.47,0-.95,0-1.43,0-10.12.06-20.23,0-30.35,0-1.07.31-1.25,1.28-1.1,2.17.34,4.34.65,6.53.86a59.45,59.45,0,0,0,20.47-1.11c8.56-2.14,14.88-6.95,18.1-15.4a53,53,0,0,0,3-13.28A105.29,105.29,0,0,0,66.7,82.35Zm-17.09,9a51.27,51.27,0,0,1-1.81,14.09c-2.13,7-6.51,10.49-13.82,11a68.08,68.08,0,0,1-15.75-.89c-1-.15-1.11-.58-1.11-1.41,0-5.6,0-11.2,0-16.8,0-5,0-10.07,0-15.11,0-4,.09-8,.09-12a1.28,1.28,0,0,1,.85-1.36,36.57,36.57,0,0,1,15.79-3.94c5.93,0,10.88,2.29,13.64,10C49.43,80.18,49.73,85.73,49.61,91.3Z"/><path class="cls-1" d="M147.8,118.25c-4.46-1.08-6-3-6-7.61,0-6,0-12.08,0-18.12h0c0-5.92,0-11.84,0-17.76a39.66,39.66,0,0,0-1-8.55c-1.61-7.12-5.6-12.18-12.66-14.55a35.91,35.91,0,0,0-9.52-1.73,105.59,105.59,0,0,0-18,.75,155,155,0,0,0-16.14,2.9c-.55.12-1.14.1-1.07,1.05.24,3.39.38,6.78.53,10.17,0,.85.3,1.11,1.22,1,6.61-.47,13.23-.94,19.85-1.25a70.32,70.32,0,0,1,11.61,0c4.16.5,6.74,2.64,7.69,6.61.75,3.1.48,6.28.52,9.43,0,.74-.56.67-1,.71l-18.16,1.51a54.21,54.21,0,0,0-12.92,2.38c-7.21,2.41-12,7-13.33,14.71a38.2,38.2,0,0,0,.66,16.75c2.08,7.59,7,12.29,14.71,14a42.71,42.71,0,0,0,14.31.31,59.18,59.18,0,0,0,17.43-5,1.15,1.15,0,0,1,1.31.1c5.79,4.13,12.42,5.21,19.32,5.32.66,0,.9-.19.92-.88q.17-5.69.42-11.37C148.64,118.46,148.33,118.37,147.8,118.25ZM124,114.31a57.64,57.64,0,0,1-18,3.08c-6.42,0-9.7-3.18-9.93-9.67a16,16,0,0,1,.79-6.14c1.61-4.34,5.09-6.06,9.37-6.52,5.68-.61,11.37-1.1,17-1.65,1.59-.15,1.59-.15,1.59,1.39v8.88c0,3.12,0,6.24,0,9.36A1.11,1.11,0,0,1,124,114.31Z"/><path class="cls-1" d="M317.24,68.83c-2.94-8.75-8.83-14.59-17.73-17.2a45.79,45.79,0,0,0-19-1.25c-11.29,1.45-19.33,7.25-23.71,17.86A54.74,54.74,0,0,0,253.1,86.7a79.66,79.66,0,0,0,1.79,23.09c1.24,5,3.18,9.72,6.8,13.55,4.47,4.75,10.2,6.82,16.48,7.71a71.78,71.78,0,0,0,14.36.26,182.34,182.34,0,0,0,23.72-3.17c.58-.11.78-.34.77-.95-.11-3.75-.19-7.51-.25-11.26,0-.53-.17-.68-.71-.6-1.15.16-2.3.24-3.46.35-4.73.46-9.48.71-14.23.84-5.14.14-10.3.44-15.43-.37-5.85-.92-10-3.87-11.61-9.78a29.94,29.94,0,0,1-1.09-6.84c-.06-1.61,0-1.61,1.52-1.61h22.55v0c7.72,0,15.44,0,23.15,0,.92,0,1.24-.22,1.28-1.17q.18-3.42.58-6.81A48.16,48.16,0,0,0,317.24,68.83Zm-15.37,16c-5.15,0-10.31,0-15.47,0s-10.23,0-15.34,0c-.62,0-1.08,0-1-.85a37.21,37.21,0,0,1,1.84-10.82,12.7,12.7,0,0,1,10.08-8.55,25.89,25.89,0,0,1,9.41-.12c5.83,1,9.29,4.4,10.57,10.13a45.31,45.31,0,0,1,1,9.15C303,84.53,302.72,84.78,301.87,84.78Z"/><path class="cls-1" d="M353,56.49c2.19-1.16,4.21-2.2,6.29-3.11A38.86,38.86,0,0,1,384,51.07c7.22,1.65,12,6,14.38,13a54.51,54.51,0,0,1,2.85,15.62c.61,15.27.13,30.55.27,45.82,0,1.16,0,2.32,0,3.48,0,.57-.09.87-.77.87-5.12,0-10.24,0-15.36,0-.56,0-.82-.17-.78-.75,0-.32,0-.64,0-1,0-13.84,0-27.68,0-41.52a50.41,50.41,0,0,0-1.32-12.24,15,15,0,0,0-1.79-4.56c-2.13-3.27-5.43-4.32-9.06-4.55A39.77,39.77,0,0,0,353.82,69a1,1,0,0,0-.69,1.08c0,.28,0,.56,0,.84q0,28.8,0,57.6c0,1.09-.27,1.4-1.37,1.38q-7.32-.1-14.64,0c-.93,0-1.11-.27-1.11-1.14q.06-37.92,0-75.83c0-.89.21-1.17,1.13-1.16q7.38.06,14.76,0c.95,0,1.16.32,1.11,1.18C353,54,353,55.14,353,56.49Z"/><path class="cls-1" d="M166.77,87.36c0-6.64,0-13.28,0-19.92,0-1.15-.35-1.4-1.41-1.37-2.52.07-5,0-7.56,0-.84,0-1.09-.26-1.08-1.09q.06-6.24,0-12.48c0-.81.26-1,1-1,2.64,0,5.28,0,7.92,0,.89,0,1.14-.23,1.13-1.13,0-6.76,0-13.52,0-20.28,0-1,.25-1.27,1.25-1.26,4.8.06,9.6,0,14.4,0,1,0,1.29.24,1.29,1.25-.05,6.6,0,13.2,0,19.8,0,1.88-.21,1.61,1.56,1.62,6.23,0,12.47,0,18.71,0,1.11,0,1.3.33,1.29,1.34-.06,4.08,0,8.16,0,12.24,0,.84-.24,1.07-1.07,1.07-6.44,0-12.88,0-19.32,0-1,0-1.25.29-1.25,1.27,0,11.64,0,23.28,0,34.91a39.41,39.41,0,0,0,.84,8.93c.76,3.26,2.56,4.71,6.17,4.87,3.8.18,7.59-.17,11.39-.26,3-.07,3-.1,3.16,3s.34,6.38.53,9.57c0,.57,0,1-.7,1.13-5.23.93-10.46,1.91-15.8,1.86a33,33,0,0,1-11.75-2c-4.65-1.81-7.37-5.29-8.77-10a54.26,54.26,0,0,1-1.95-15.16C166.74,98.72,166.77,93,166.77,87.36Z"/><path class="cls-1" d="M425,88.11c0-6.84,0-13.68,0-20.52,0-1-.25-1.31-1.26-1.28-2.6.07-5.2,0-7.8,0-.71,0-1-.17-1-.93q.06-6.36,0-12.72c0-.79.29-.92,1-.91,2.64,0,5.28,0,7.92,0,.93,0,1.13-.31,1.12-1.17,0-6.72.05-13.43,0-20.15,0-1,.2-1.37,1.3-1.35,4.76.07,9.52.06,14.28,0,1,0,1.35.22,1.34,1.31,0,6.68,0,13.35,0,20,0,1,.24,1.34,1.31,1.33,6.36,0,12.72,0,19.08,0,1,0,1.24.29,1.22,1.26q-.07,6.06,0,12.12c0,1-.22,1.27-1.24,1.27-6.43,0-12.87,0-19.31,0-.8,0-1.09.16-1.09,1,0,12.4,0,24.79.07,37.19a33.17,33.17,0,0,0,.66,6.43c.72,3.55,2.51,5.12,6.18,5.31s7.42-.17,11.14-.25c3.42-.07,3.4-.1,3.56,3.35.14,3.07.3,6.14.51,9.21.05.76-.17,1-.93,1.17a93.23,93.23,0,0,1-14,1.8,34.3,34.3,0,0,1-13.31-1.92c-5.25-2-7.88-6.12-9.19-11.31A57.08,57.08,0,0,1,425,104.78C424.93,99.22,425,93.67,425,88.11Z"/><path class="cls-1" d="M609.32,123.83a14.64,14.64,0,0,1-3.39-.72c-3.34-1.06-6.06-3.1-6-7.47.14-7.07,0-14.15,0-21.23h0c0-6.6,0-13.2,0-19.79a38.84,38.84,0,0,0-.78-8c-1.48-7-5.12-12.24-12.17-14.63a33.09,33.09,0,0,0-9.77-1.6,113.13,113.13,0,0,0-15,.7c-5.4.55-10.77,1.37-16.11,2.37-.63.11-.77.35-.72.93.17,2,.3,4.06.42,6.1,0,.52.19.67.73.61,3.89-.42,7.78-.81,11.68-1.2a151.1,151.1,0,0,1,19-1.05c6.29.16,11.44,3.23,12.89,10.57.83,4.16.44,8.36.53,12.55,0,.6-.4.58-.81.62-1.67.16-3.34.34-5,.51-6.16.61-12.32,1.24-18.48,1.84a47.51,47.51,0,0,0-12.86,2.61c-5.77,2.23-9.78,6.11-11.34,12.22a33.64,33.64,0,0,0,.41,18.79A17.48,17.48,0,0,0,556.16,131a37.85,37.85,0,0,0,11.58.49,72.62,72.62,0,0,0,23.48-5.85,1,1,0,0,1,1.34.24,16,16,0,0,0,4.25,3.07c3.8,1.95,7.89,2.45,12.07,2.63.77,0,.86-.4.9-.94.12-2,.21-3.91.33-5.86C610.15,124.13,610,123.88,609.32,123.83ZM590.72,104v13.07c0,.56.07,1-.67,1.32a76.89,76.89,0,0,1-25.59,5.14c-7.69.13-11.6-3.14-13-10.7a24.65,24.65,0,0,1,.18-10.47c1.28-5.35,4.88-8.25,10.13-9.27,4.12-.8,8.32-1,12.48-1.44,5.08-.57,10.17-1,15.25-1.63,1-.12,1.3.11,1.28,1.14C590.69,95.48,590.72,99.76,590.72,104Z"/><path class="cls-1" d="M732.19,68.8c-2.86-9-8.83-14.86-18.06-17.14a41.8,41.8,0,0,0-19.36-.22,25.56,25.56,0,0,0-17.4,12.82c-3.42,6-4.76,12.66-5.36,19.47a98.86,98.86,0,0,0,0,16,57.81,57.81,0,0,0,3.12,15.56c2.43,6.64,6.58,11.63,13.35,14.18a37.19,37.19,0,0,0,11.85,2.19,159.88,159.88,0,0,0,18.31-.73c4-.32,8-.85,12-1.24.92-.08,1.21-.41,1.14-1.33-.14-1.87-.22-3.75-.23-5.62,0-.81-.34-.93-1-.85-3,.38-6.12.59-9.19.76a186.72,186.72,0,0,1-21.55.4,19.88,19.88,0,0,1-9.33-2.78c-4.31-2.64-6.37-6.81-7.65-11.47a51.17,51.17,0,0,1-1.56-12.45c0-1.26.3-1.39,1.39-1.39,8.36,0,16.72,0,25.07,0,5.6,0,11.2,0,16.8,0,2.92,0,5.84,0,8.76,0,.91,0,1.18-.24,1.13-1.14a25.09,25.09,0,0,1,.09-2.87A61.22,61.22,0,0,0,732.19,68.8Zm-8.05,18.34c-7,0-13.92,0-20.88,0s-13.83,0-20.75,0c-.94,0-1.22-.23-1.2-1.19.1-5.63.68-11.17,3.11-16.34,2.9-6.15,7.9-9.48,14.47-10.57a31.14,31.14,0,0,1,10.85.12c7.1,1.34,11.57,5.57,13.62,12.44a56.45,56.45,0,0,1,1.92,14.8C725.31,87.43,724.63,87.14,724.14,87.14Z"/><path class="cls-1" d="M508.26,50.34a108.75,108.75,0,0,1,16.64,1.59c.83.13,1.66.28,2.49.34.54,0,.67.31.64.78-.13,2.11-.26,4.23-.35,6.34,0,.85-.47.94-1.17.86-3.29-.38-6.58-.77-9.88-1.07-5.74-.52-11.47-.7-17.15.73-6.45,1.63-10.46,5.66-12.27,12a54.89,54.89,0,0,0-1.89,11.44,99.2,99.2,0,0,0,.69,21.16,32.3,32.3,0,0,0,2.92,10c2.26,4.48,6.25,6.56,10.89,7.66a42.5,42.5,0,0,0,14.05.63c4.41-.43,8.84-.7,13.26-1,.4,0,.7,0,.72.54.1,2.35.22,4.7.31,7,0,.52-.44.48-.79.52-4.2.48-8.4,1-12.61,1.4a65.76,65.76,0,0,1-15.55-.2c-5.46-.79-10.61-2.35-14.81-6.17-3.08-2.8-4.81-6.42-6.09-10.29a62,62,0,0,1-2.6-14.23A118.82,118.82,0,0,1,475.5,85c.29-6.56,1.11-13,3.5-19.24,3.18-8.22,9.45-12.58,17.8-14.4A50.87,50.87,0,0,1,508.26,50.34Z"/><path class="cls-1" d="M236.12,90.76q0,18.9,0,37.79c0,1-.22,1.29-1.24,1.28-4.92-.06-9.84-.05-14.76,0-.91,0-1.13-.27-1.13-1.15q.06-32.76.08-65.51c0-3.48,0-7,0-10.44,0-.86.17-1.15,1.1-1.14q7.44.08,14.88,0c.94,0,1.1.28,1.1,1.14q0,19,0,38Z"/><path class="cls-1" d="M633.44,63.2a82.43,82.43,0,0,1,7.68-4.63,81.05,81.05,0,0,1,20.27-7.82C663,50.41,663,50.4,663,52c0,2.28,0,4.56,0,6.84,0,.87-.28,1.14-1.08,1.33a104,104,0,0,0-27.1,10.65,2.31,2.31,0,0,0-1.39,2.32q.08,19,0,37.91c0,6-.05,12,0,18,0,.9-.25,1.16-1.14,1.13-2.36-.06-4.72,0-7.08,0-.8,0-1-.26-1-1q0-24.4,0-48.82c0-9,0-17.91,0-26.87,0-1.16.3-1.49,1.45-1.44,2.24.1,4.48.06,6.72,0,.85,0,1.09.28,1.08,1.1C633.42,56.36,633.44,59.63,633.44,63.2Z"/><path class="cls-1" d="M226.79.2h2.66a41.31,41.31,0,0,1,25.78,10.5,3.76,3.76,0,0,1,.64,5.43,3.81,3.81,0,0,1-5.38.28,34.72,34.72,0,0,0-45.11-.88,9.4,9.4,0,0,1-1.24.94,3.78,3.78,0,0,1-4.87-.83,3.62,3.62,0,0,1,.39-5,38,38,0,0,1,10-6.55A42.39,42.39,0,0,1,226.79.2Z"/><path class="cls-1" d="M227.62,14.62a26.74,26.74,0,0,1,17.32,6.25,3.72,3.72,0,0,1-1.42,6.61,4.17,4.17,0,0,1-3.64-1.12,19.3,19.3,0,0,0-8.15-3.85A20,20,0,0,0,216,25.58c-.5.34-1,.72-1.47,1a3.69,3.69,0,0,1-5.14-.73,3.63,3.63,0,0,1,.64-5.14,26.56,26.56,0,0,1,13.56-5.86A22.9,22.9,0,0,1,227.62,14.62Z"/><path class="cls-1" d="M227.42,29a12.87,12.87,0,0,1,6.42,1.64,3.79,3.79,0,0,1,1.81,5.09,3.68,3.68,0,0,1-5.14,1.54,6.53,6.53,0,0,0-6.19,0,3.59,3.59,0,0,1-5-1.53A3.7,3.7,0,0,1,221,30.64,12.92,12.92,0,0,1,227.42,29Z"/><path class="cls-1" d="M886.4,121a27.12,27.12,0,1,1,27.13-26.57A27.06,27.06,0,0,1,886.4,121Zm0-54.24a27.12,27.12,0,1,0,27.09,27.67A27,27,0,0,0,886.44,66.72Zm0,35.76a8.64,8.64,0,1,1,0-17.28,8.64,8.64,0,0,1,0,17.28Z"/><path class="cls-1" d="M886.44,66.72a27.12,27.12,0,1,0,27.09,27.67A27,27,0,0,0,886.44,66.72Zm0,35.76a8.64,8.64,0,1,1,0-17.28,8.64,8.64,0,0,1,0,17.28Z"/></g></g></svg>