<svg xmlns="http://www.w3.org/2000/svg" viewBox="0 0 398.76 454.13"><defs><style>.cls-1{fill:#005eae;}</style></defs><title>post_quirurgico</title><g id="Capa_2" data-name="Capa 2"><g id="Capa_1-2" data-name="Capa 1"><path class="cls-1" d="M159.9,445.68H45.22c-22.86,0-41-15.3-44.78-37.79A44.4,44.4,0,0,1,0,400.68Q0,382.86,0,365c0-22.11,17.6-41.33,39.65-43.15,6.13-.5,12.31-.41,18.48-.41q105,0,210.11,0c7.62,0,15.24-.15,22.55,2.61,12.54,4.72,21.36,13.16,26.35,25.69a46.73,46.73,0,0,1,3.14,17.62c0,11.17,0,22.33,0,33.49C320.22,423,305.24,441,283.46,445a45.34,45.34,0,0,1-8.14.69Q217.62,445.71,159.9,445.68Z"/><path class="cls-1" d="M252.91,313H223.43c0-.9-.12-1.82-.12-2.74,0-3.77,0-7.55,0-11.32,0-3.15-1.57-5-4.15-5.1-2.74-.05-4.34,1.8-4.37,5.16,0,3.85,0,7.7,0,11.55V313H193.5v-10c0-1.2,0-2.41,0-3.61-.06-3-1.63-4.6-4.59-4.62-4,0-8,0-12.25,0,0-4.08,0-7.91,0-11.74,0-3.65-1.43-5.08-5.08-5.09q-11.45,0-22.88,0c-3.7,0-5.17,1.52-5.18,5.31s0,7.5,0,11.53c-4.11,0-7.94,0-11.78,0-3.48,0-5,1.49-5,5,0,4.39,0,8.78,0,13.28H105.39v-6.41c0-2.81.06-5.62,0-8.43s-1.73-4.3-4.18-4.32A4,4,0,0,0,97,298.05c-.11,4,0,8,0,12.05v2.79H67.4a3.78,3.78,0,0,1-.21-.85c0-12.36,0-24.72,0-37.09,0-8.17,3.35-15.09,8.57-21.15,7.84-9.14,18.09-14.71,29.06-19.1,3.85-1.55,7.82-2.78,11.78-4.17,8.39,20.52,23.68,31,45.44,30.29,20-.68,33.86-11.31,41.43-30.23,15.77,5,30.95,11.11,41.89,24.42a32.24,32.24,0,0,1,7.67,20.79c0,11.81,0,23.61,0,35.42A17.07,17.07,0,0,1,252.91,313Z"/><path class="cls-1" d="M160.1,114.59c21.84,0,43.69,0,65.53-.06a7,7,0,0,1,6.24,3.26c5.57,7.7,1.76,20.27-8.75,21.11a12.34,12.34,0,0,0-3.74.71c-1.86.78-2.3,2.5-2.27,4.39.15,7.63-.07,15.22-1.86,22.71-4.75,19.92-21.73,35.58-41.87,39.17-14,2.49-27.49,1.63-40.31-4.66-16.8-8.25-26.51-21.87-29.1-40.36-.78-5.53-.7-11.19-.9-16.79-.13-3.49-1.16-4.71-4.68-5-5-.4-9.11-2.29-11.19-7.06s-2-9.69,1.15-14.18a6.85,6.85,0,0,1,6.22-3.29c10.91.16,21.84,0,32.76,0S149.18,114.59,160.1,114.59Zm0,74.24a20.79,20.79,0,0,0,20.82-19c.25-2.95-1.1-5-3.6-5.36s-4.27,1.28-4.83,4.22a19.86,19.86,0,0,1-1.14,4.63c-2.27,5-7.81,8-12.72,7.13-6.51-1.16-10.35-5.24-10.91-11.59-.23-2.58-2.25-4.65-4.4-4.5a4.63,4.63,0,0,0-4.14,5A20.91,20.91,0,0,0,160.12,188.83Zm29.18-67.21-.19.69a17.61,17.61,0,0,0-11.12,3.2c-2.33,1.61-2.86,4.24-1.41,6.26s3.85,2.26,6.35.71a11.49,11.49,0,0,1,3.94-1.56c4.52-.83,8.68.68,12.83,2.23,2.56,1,5,0,5.82-2.16a4.07,4.07,0,0,0-2.68-5.59C198.38,124,193.82,122.86,189.3,121.62Zm-58.19.67-.19-.68c-4.51,1.25-9.07,2.35-13.51,3.78A4.15,4.15,0,0,0,114.7,131c.89,2.24,3.19,3.08,5.83,2.19a54.9,54.9,0,0,1,6.16-1.94c3.55-.75,7.15-1.17,10.43,1.06,2.61,1.77,5.15,1.6,6.56-.43s.82-4.6-1.69-6.44A17.29,17.29,0,0,0,131.11,122.29Z"/><path class="cls-1" d="M304.74,321.45c-2.7-1.41-5.19-2.68-7.65-4a1.92,1.92,0,0,1-.9-1c-1.71-6.29-6.51-9.9-11.54-13.29-1.51-1-3.15-1.81-5.08-2.91V313H261.52v-2.59c0-10.44-.27-20.89.06-31.31.51-16.23-6.56-28.59-18.78-38.44C231.36,231.42,218,226,204,222.07c-2-.56-4-1.06-6.19-1.64,0-4.9,0-9.79.06-14.67a2.76,2.76,0,0,1,1.22-1.83,59.4,59.4,0,0,0,14.32-13.8,4,4,0,0,1,2.76-1.24c12-.08,23.93-.06,35.89-.06,5.28,0,6.24-1,6.24-6.35q0-18.91,0-37.82v-3h21.21v2.77q0,72,0,144a2.81,2.81,0,0,0,1.92,3,54.88,54.88,0,0,1,16.47,11.08C302.94,307.81,305.84,313.84,304.74,321.45Z"/><path class="cls-1" d="M40.84,141.69H61.9v15.46q0,13.24,0,26.49c0,3.81,1.43,5.19,5.22,5.19,12.2,0,24.41,0,36.61,0a3.58,3.58,0,0,1,3.39,1.6A55.14,55.14,0,0,0,121,203.92a3.39,3.39,0,0,1,1.45,2.19c.13,4.72.06,9.46.06,14-6.66,2.15-13.21,4-19.54,6.37-12.27,4.63-23.6,10.89-32.56,20.74-7.76,8.52-11.88,18.49-11.77,30.15.11,10.83,0,21.67,0,32.51v3.08H40.84Z"/><path class="cls-1" d="M390,8.93H351.14V126h-8.6V8.82H301.61c-2,0-3.87-.08-5.07-2-1.87-3,0-6.5,3.64-6.73,1.52-.1,3.05,0,4.58,0h87.7c4.89,0,6.3,1.4,6.29,6.28q0,93.48,0,187,0,127.32,0,254.66c0,3.89-1,5.62-3.68,6.1a4.14,4.14,0,0,1-5-3.59,17.53,17.53,0,0,1-.1-2.41q0-85.64,0-171.29,0-73.71.06-147.44,0-58.78-.06-117.56Z"/><path class="cls-1" d="M228.16,81.31l-134-14.88c7.18-28.41,37.15-53,74.22-48.56C208.71,22.66,229,57,228.16,81.31Z"/><path class="cls-1" d="M92.14,105.9V74.73c4.83.51,9.34,1,13.85,1.47q18.89,2.08,37.76,4.19l40.4,4.52Q202.68,87,221.2,89c1,.11,1.91.21,2.86.35,4.29.64,4.28.64,4.28,5.09,0,3.76,0,7.52,0,11.44Z"/><path class="cls-1" d="M376.7,183.8V229H316.87V183.8Z"/><path class="cls-1" d="M376.63,175.05H316.86V134.64h59.77Zm-29.11-21.47c-2.65,0-5.3,0-7.95,0-3,0-4.84,1.59-4.86,4.15s1.77,4.2,4.79,4.22c5.22,0,10.44,0,15.66,0,2.78,0,4.64-1.73,4.65-4.1s-1.92-4.21-4.82-4.25C352.5,153.56,350,153.59,347.52,153.58Z"/><path class="cls-1" d="M130.87,209.54a73.3,73.3,0,0,0,29.19,6.22,74,74,0,0,0,29.23-6.16c0,4,0,7.78,0,11.53,0,5.5.47,6.12,5.59,7.49-3.43,13.56-19,24-35.24,23.94-17.49-.1-31-12.1-34.26-24,5.16-1.32,5.5-1.77,5.5-7.28Z"/><path class="cls-1" d="M326.08,418.08c.61-2.65,1.09-5.16,1.82-7.61a3.22,3.22,0,0,1,1.73-1.82,18.73,18.73,0,0,0,12.82-18.17q0-32.5.08-65c0-10.34,0-20.68,0-31.18h8.6v6.22q0,45.38,0,90.77C351.11,405.2,339.53,417.64,326.08,418.08Z"/><path class="cls-1" d="M152,286.24h16.28c0,3.75,0,7.42,0,11.1,0,4.48,1.25,5.67,5.74,5.67H185V313H135.39V303c3.06,0,6.16-.13,9.25,0,6.88.35,7.6-1.82,7.38-7.5C151.9,292.51,152,289.47,152,286.24Z"/><path class="cls-1" d="M351.29,285.56h-8.86V259.74h8.86Z"/><path class="cls-1" d="M351,251.06h-8.45V237.65H351Z"/></g></g></svg>