<svg xmlns="http://www.w3.org/2000/svg" viewBox="0 0 436.96 142.82"><defs><style>.cls-1,.cls-3,.cls-7{fill:#fff;}.cls-2{fill:#f5f2f0;}.cls-3{font-size:69.06px;}.cls-3,.cls-7{font-family:MyriadPro-Regular, Myriad Pro;}.cls-4{letter-spacing:-0.01em;}.cls-5{letter-spacing:0em;}.cls-6{letter-spacing:0em;}.cls-7{font-size:40px;}.cls-8{letter-spacing:-0.04em;}</style></defs><title>salud_chacao_white</title><g id="Capa_2" data-name="Capa 2"><g id="Capa_1-2" data-name="Capa 1"><path d="M437,138.32a21.92,21.92,0,0,1-1,4.5"/><path class="cls-1" d="M365.76,0c12.23.51,24.32,2,36.11,5.39,19.42,5.65,24.32,13.47,19.28,32.88-6,23-16.84,43.5-34.14,60.25-2.72,2.63-5.26,3.54-8.95,2.12-4-1.52-8.18-2.36-12.29-3.5,0-1.64,0-3.27-.08-4.91,6.12.71,11.8,3.64,18,4.08-.25-4.25-2.45-6-6.07-6.73-4-.81-7.94-2.08-11.9-3.15l.13-4.48c4.22,1.1,8.44,2.22,12.68,3.26,1.25.3,3,1.8,3.69-.17a4.12,4.12,0,0,0-1.84-4.55,9.46,9.46,0,0,0-2.46-.88L365.81,76c0-1.44,0-2.88-.05-4.32,4.09.39,7.75,2.31,11.67,3.3.93.24,2.05,1,2.84.12s0-2.17-.21-3.27c-.37-1.81-1.9-2-3.23-2.52-3.69-1.31-7.4-2.57-11.1-3.85V61.22c4.54.59,8.43,3.5,13.08,3.94.36-3.7-1-5.78-4.39-6.71-2.95-.81-5.8-2-8.69-3l.18-4.51c4.1.46,7.43,3.57,11.66,3.77.23-4.17-1.84-6.1-5.31-7.12-2.22-.65-4.33-1.7-6.48-2.57l0-4.38c3.7.22,6.43,3.25,10.32,3.62.48-3.2-.25-5.42-3.49-6.59-2.31-.84-4.47-2.11-6.7-3.18l-.13-4.26c2.13.06,3.64,1.66,5.54,2.23,1.23.37,2.71,2.33,3.72.5a3.37,3.37,0,0,0-1.49-4.83c-2.58-1.29-5.2-2.5-7.8-3.75l0-4.52c3.13.39,5.11,3.27,8.35,3.88.68-6.24-4.31-7.55-8.26-9.72.09-1.09.18-2.17.28-3.25,1.27-.42,2.29,1.51,4,.11L365.83,3.5,366,.29Z"/><path class="cls-1" d="M365.69,19.89l0,4.52A45.47,45.47,0,0,1,361,26.76c-3.58,1.31-5.11,3.7-4.52,7.62l9.23-4.12c0,1.42.09,2.84.13,4.26a53.44,53.44,0,0,1-6.26,3.09c-3.52,1.22-4.27,3.62-3.79,7l9.92-4c0,1.46,0,2.92,0,4.38a52.09,52.09,0,0,1-6.48,2.73c-3.7,1-5.07,3.4-4.95,7.3L365.92,51l-.18,4.51c-2.86,1.06-5.66,2.3-8.58,3.12-3.68,1-4.22,3.53-4.08,6.89l12.66-4.27c0,1.41,0,2.82,0,4.24A97.78,97.78,0,0,1,355.94,69c-3.71.93-4.71,3.2-4.58,6.79l14.4-4.09c0,1.44,0,2.88.05,4.33-3.37,1-6.69,2.27-10.12,3-3.72.84-6.29,2.48-6.45,6.87,5.79-.38,11-3.25,16.64-4,0,1.5-.09,3-.13,4.48C361.83,87.56,358,89,354,89.72s-5.56,2.84-5.6,6.9l17.31-4.39c0,1.64.05,3.27.08,4.91-3.67,1-7.52,1.69-11,3.21-4.55,2-7.57.49-10.74-2.72A126,126,0,0,1,309.33,31c-2-10.67,1.16-16.67,10.95-21.59,13.44-6.74,28.13-8.1,42.81-9.29.88-.07,1.77-.07,2.65-.11l.3.26-.21,3.21c-1.27,2.55-2.55,5.1-3.82,7.64,1.7,1,2.72-.84,4.05-.34-.1,1.08-.19,2.16-.28,3.25-2.13,1.31-4.36,2.48-6.35,4-1.44,1.08-2.19,3.34-1.48,4.57.81,1.42,2.59.08,3.86-.62S364.39,20.59,365.69,19.89Z"/><path class="cls-1" d="M365.69,102.87l11.25,2.57c-4,2-7.36,3.45-11.22,3.19Z"/><path class="cls-1" d="M365.69,102.87l0,5.76c-3.45,0-6.55-1.21-10.53-3Z"/><polygon class="cls-2" points="366.04 0.29 365.74 0.03 365.76 0 366.04 0.29"/><text class="cls-3" transform="translate(0 104.2) scale(1.2 1)">CH<tspan class="cls-4" x="85.08" y="0">A</tspan><tspan class="cls-5" x="126.31" y="0">C</tspan><tspan class="cls-4" x="166.64" y="0">A</tspan><tspan class="cls-6" x="207.87" y="0">O</tspan></text><text class="cls-7" transform="translate(190 46.82)">SA<tspan class="cls-8" x="44.2" y="0">L</tspan><tspan x="61.64" y="0">UD</tspan></text></g></g></svg>