<svg xmlns="http://www.w3.org/2000/svg" viewBox="0 0 420.02 108.66"><defs><style>.cls-1{fill:#fff;}</style></defs><title>salud_chacao_mono</title><g id="Capa_2" data-name="Capa 2"><g id="Capa_1-2" data-name="Capa 1"><path class="cls-1" d="M362.78,0C375,.51,387.1,2,398.89,5.39c19.42,5.65,24.32,13.47,19.28,32.88-6,23-16.84,43.5-34.14,60.25-2.72,2.63-5.26,3.54-8.95,2.12-4-1.52-8.18-2.36-12.29-3.5,0-1.64-.05-3.27-.08-4.91,6.12.71,11.8,3.64,18,4.08-.24-4.25-2.44-6-6.07-6.73-4-.81-7.94-2.08-11.9-3.15L362.9,82c4.22,1.1,8.44,2.22,12.68,3.26,1.25.3,3,1.8,3.7-.17a4.12,4.12,0,0,0-1.85-4.55,9.53,9.53,0,0,0-2.45-.88L362.83,76c0-1.44,0-2.88-.05-4.32,4.09.39,7.75,2.31,11.67,3.3.93.24,2.05,1,2.84.12s0-2.17-.21-3.27c-.37-1.81-1.9-2-3.23-2.52-3.69-1.31-7.4-2.57-11.1-3.85V61.22c4.54.59,8.44,3.5,13.08,3.94.37-3.7-1-5.78-4.39-6.71-2.95-.81-5.79-2-8.68-3l.17-4.51c4.1.46,7.44,3.57,11.66,3.77.23-4.17-1.84-6.1-5.31-7.12-2.22-.65-4.32-1.7-6.48-2.57l0-4.38c3.7.22,6.43,3.25,10.32,3.62.48-3.2-.25-5.42-3.49-6.59-2.31-.84-4.47-2.11-6.7-3.18l-.13-4.26c2.13.06,3.64,1.66,5.54,2.23,1.23.37,2.72,2.33,3.72.5a3.37,3.37,0,0,0-1.49-4.83c-2.58-1.29-5.2-2.5-7.8-3.75l0-4.52c3.14.39,5.11,3.27,8.35,3.88.68-6.24-4.3-7.55-8.26-9.72.09-1.09.19-2.17.28-3.25,1.27-.42,2.29,1.51,4,.11L362.86,3.5l.21-3.21Z"/><path class="cls-1" d="M362.71,19.89l0,4.52a45.47,45.47,0,0,1-4.68,2.35c-3.58,1.31-5.11,3.7-4.52,7.62l9.23-4.12c.05,1.42.09,2.84.13,4.26a54.09,54.09,0,0,1-6.25,3.09c-3.53,1.22-4.28,3.62-3.8,7l9.92-4c0,1.46,0,2.92,0,4.38a52,52,0,0,1-6.47,2.73c-3.71,1-5.08,3.4-5,7.3L362.94,51l-.18,4.51c-2.85,1.06-5.66,2.3-8.58,3.12-3.68,1-4.22,3.53-4.08,6.89l12.66-4.27c0,1.41,0,2.82,0,4.24A98.51,98.51,0,0,1,353,69c-3.72.93-4.72,3.2-4.59,6.79l14.4-4.09c0,1.44,0,2.88.05,4.32-3.37,1-6.69,2.28-10.12,3-3.72.84-6.29,2.48-6.45,6.87,5.8-.38,11-3.25,16.64-4,0,1.5-.09,3-.13,4.48C358.85,87.56,355,89,351,89.72s-5.56,2.84-5.6,6.9l17.31-4.39c0,1.64.05,3.27.08,4.91-3.67,1-7.52,1.69-11,3.21-4.55,2-7.57.49-10.74-2.72A126,126,0,0,1,306.35,31c-2-10.67,1.16-16.67,11-21.59,13.43-6.74,28.12-8.1,42.8-9.29.88-.07,1.77-.07,2.65-.11l.31.26-.21,3.21L359,11.14c1.7,1,2.72-.84,4.05-.34-.09,1.08-.19,2.16-.28,3.25-2.13,1.31-4.36,2.48-6.35,4-1.44,1.08-2.19,3.34-1.48,4.57.81,1.42,2.59.08,3.86-.62S361.41,20.59,362.71,19.89Z"/><path class="cls-1" d="M362.71,102.87,374,105.44c-4,2-7.36,3.45-11.22,3.19Z"/><path class="cls-1" d="M362.71,102.87l0,5.76c-3.44,0-6.55-1.21-10.53-3Z"/><path class="cls-1" d="M42.28,102.68c-2.65,1.1-8,2.21-14.73,2.21C11.83,104.89,0,96.6,0,81.34,0,66.77,11.83,56.89,29.12,56.89c7,0,11.34,1.24,13.24,2.07l-1.74,4.91a30.56,30.56,0,0,0-11.25-1.94c-13.07,0-21.76,7-21.76,19.2,0,11.4,7.86,18.72,21.43,18.72a33.69,33.69,0,0,0,11.75-1.94Z"/><path class="cls-1" d="M58.49,57.65V77.13h27V57.65h7.28V104.2H85.46V82.37h-27V104.2h-7.2V57.65Z"/><path class="cls-1" d="M114.24,89.56l-5.79,14.64H101L120,57.65h8.69l19,46.55H140L134,89.56Zm18.29-4.7-5.46-13.4c-1.24-3-2.07-5.8-2.9-8.49H124c-.83,2.76-1.74,5.59-2.82,8.42l-5.46,13.47Z"/><path class="cls-1" d="M193.58,102.68c-2.65,1.1-7.94,2.21-14.73,2.21-15.71,0-27.55-8.29-27.55-23.55,0-14.57,11.84-24.45,29.13-24.45,6.95,0,11.33,1.24,13.23,2.07l-1.73,4.91a30.58,30.58,0,0,0-11.26-1.94c-13.07,0-21.75,7-21.75,19.2,0,11.4,7.86,18.72,21.42,18.72a33.61,33.61,0,0,0,11.75-1.94Z"/><path class="cls-1" d="M211.94,89.56l-5.79,14.64h-7.44l18.94-46.55h8.69l19,46.55h-7.7l-5.95-14.64Zm18.29-4.7-5.46-13.4c-1.25-3-2.07-5.8-2.9-8.49h-.16c-.83,2.76-1.74,5.59-2.82,8.42l-5.46,13.47Z"/><path class="cls-1" d="M300,80.44c0,16-11.67,24.52-25.9,24.52C259.34,105,249,95.43,249,81.34c0-14.78,11-24.45,25.9-24.45C290.12,56.89,300,66.63,300,80.44Zm-43.27.76c0,9.94,6.45,18.85,17.78,18.85s17.87-8.77,17.87-19.33c0-9.26-5.79-18.93-17.78-18.93S256.7,71,256.7,81.2Z"/><path class="cls-1" d="M189.58,42.58a12.33,12.33,0,0,0,6.24,1.76c3.56,0,5.64-1.88,5.64-4.6,0-2.52-1.44-4-5.08-5.35-4.4-1.57-7.12-3.84-7.12-7.64,0-4.2,3.48-7.32,8.72-7.32a12.25,12.25,0,0,1,6,1.32l-1,2.84a10.74,10.74,0,0,0-5.12-1.28c-3.68,0-5.08,2.2-5.08,4,0,2.52,1.64,3.76,5.36,5.2C202.7,33.3,205,35.5,205,39.46c0,4.16-3.08,7.76-9.44,7.76a13.93,13.93,0,0,1-6.88-1.72Z"/><path class="cls-1" d="M214.14,38.34l-2.8,8.48h-3.6l9.16-26.95h4.2l9.2,27h-3.72l-2.88-8.48ZM223,35.62l-2.64-7.75c-.6-1.76-1-3.36-1.4-4.92h-.08c-.4,1.6-.84,3.24-1.36,4.88l-2.64,7.79Z"/><path class="cls-1" d="M234.26,19.87h3.48v24h11.52v2.92h-15Z"/><path class="cls-1" d="M255.18,19.87v16c0,6,2.68,8.6,6.28,8.6,4,0,6.56-2.64,6.56-8.6V19.87h3.52V35.58c0,8.28-4.36,11.68-10.2,11.68-5.52,0-9.68-3.16-9.68-11.52V19.87Z"/><path class="cls-1" d="M277.58,20.23a49.85,49.85,0,0,1,7.4-.56c5,0,8.56,1.16,10.92,3.36s3.8,5.32,3.8,9.68-1.36,8-3.88,10.47-6.68,3.88-11.92,3.88a56.17,56.17,0,0,1-6.32-.32Zm3.48,23.83a22,22,0,0,0,3.52.2c7.44,0,11.48-4.16,11.48-11.44,0-6.35-3.56-10.39-10.92-10.39a19.77,19.77,0,0,0-4.08.36Z"/></g></g></svg>