<?xml version="1.0" encoding="utf-8"?>
<!-- Generator: Adobe Illustrator 22.0.0, SVG Export Plug-In . SVG Version: 6.00 Build 0)  -->
<svg version="1.1" id="Capa_1" xmlns="http://www.w3.org/2000/svg" xmlns:xlink="http://www.w3.org/1999/xlink" x="0px" y="0px"
	 viewBox="0 0 576 512" style="enable-background:new 0 0 576 512;" xml:space="preserve">
<style type="text/css">
	.st0{fill:#B4B4B4;}
</style>
<path class="st0" d="M528,32H48C21.5,32,0,53.5,0,80v16h576V80C576,53.5,554.5,32,528,32z M374.9,312.2
	c-16.9-9.8-33.7-19.8-50.5-29.8c-1-0.6-2-1-3.3-1.7c-2.1,3.5-4.1,6.9-6.3,10.4c19.1,11.3,37.9,22.4,56.8,33.6
	c1.6-2.7,2.9-5.2,4.5-7.5C377.8,314.8,377.3,313.6,374.9,312.2z M388.4,350.4c-31.6-18.7-63.2-37.3-94.8-56
	c-3.8-2.3-7.6-4.6-11.5-6.7c-3.5-1.9-6.3-1.2-8.5,2.2c-1.6,2.6-3.1,5.3-4.9,8.3c39.8,23.5,79.2,46.8,118.8,70.2
	c1.4-2.4,2.6-4.4,3.8-6.4C394.9,356,394.4,354,388.4,350.4z M448.1,426.1c-10-30.3-20.1-60.6-30.2-90.9c-2-6-5.3-8.4-11.7-8.5
	c-5.1-0.1-10.3,0.3-15.4-0.1c-4-0.3-6.2,1.2-7.3,5.1c4.4,2.6,8.9,5.2,13.3,7.9c10.4,6.4,13.1,17.1,7.1,27.6c-2.3,4-4.6,7.9-6.9,11.8
	c-3.7,6.3-6.6,7-12.8,3.3c-30.5-18-60.9-36-91.4-53.9c-1.8-1-4-1.7-6-1.7c-38.7-0.1-77.4-0.1-116.1-0.1c-8,0-10.9,2.1-13.5,9.8
	c-6.8,20.4-13.5,40.8-20.3,61.1c-3.2,9.6-6.5,19.2-9.5,28.8c-2.6,8.3,2.1,14.8,10.8,15.2c1,0,2,0,3.1,0h292.9c0.9,0,1.8,0,2.7,0
	C446.2,441.3,451,434.7,448.1,426.1z M189.9,344.3c14,0,28,0,42,0c13.9,0,27.8,0,41.7,0c1.3,0,2.5,0,3.7,0.2
	c3.1,0.6,5.2,3.2,5.3,6.3c0.1,3.2-1.6,5.8-4.7,6.6c-1.5,0.4-3.1,0.5-4.7,0.5c-27.4,0-54.9,0-82.3,0h-1c-5.2-0.1-8.5-2.7-8.5-6.9
	C181.4,346.8,184.6,344.3,189.9,344.3z M176,377.9c1.6-0.5,3.4-0.5,5-0.5c44,0,88.1,0,132.1,0c6.3,0,9.5,2.3,9.6,6.7
	c0.1,4.6-3.1,6.9-9.6,6.9c-22.1,0-44.2,0-66.2,0c-22,0-43.9,0-65.9,0c-1.5,0-3,0-4.4-0.3c-2.9-0.5-5.3-3.4-5.2-6.3
	C171.5,381.3,173,378.8,176,377.9z M379.5,424c-1.1,0.2-2.3,0.2-3.4,0.2H166.9c-1,0-2.1,0-3.1-0.1c-4.1-0.5-6.6-3.3-6.5-7
	c0.1-3.7,2.8-6.3,6.9-6.5c1-0.1,2,0,3.1,0h208.2c1.1,0,2.3,0,3.4,0c3.9,0.3,6.5,2.9,6.7,6.5C385.7,420.6,383.3,423.4,379.5,424z
	 M448.2,192.8c-3.8-23-24.1-37.6-47.4-34.2c-21.9,3.2-36.9,23.8-34,46.3c2.3,17-0.6,33-9.1,48c-4.2,7.4-8.3,14.9-12.4,22.4
	c-0.5,0.9-0.9,1.8-1.4,2.8c8.3,4.9,16.4,9.7,24.9,14.7c5.3-8.4,10.3-16.3,15.3-24.3c6.6-10.6,15.2-19.3,26.1-25.4
	c5-2.8,10.4-5,15.6-7.5C441.6,228.1,451,210,448.2,192.8z M401.3,177.8c-3.8,0-6.8-2.9-6.8-6.6c-0.1-3.8,3.1-6.9,6.9-6.9
	c3.7,0.1,6.7,3.1,6.7,6.8C408,174.8,405,177.7,401.3,177.8z M435.6,213.9c-2,3.5-5.7,4.7-9,3c-3.3-1.7-4.5-5.3-3-9.1
	c1.1-3,2.5-6.1,3-9.3c0.9-5.8-1.5-10.4-6.7-13.4c-0.6-0.3-1.2-0.7-1.7-1.1c-3.1-2.4-3.9-6-2.1-9c1.9-3.1,5.8-4.2,9.2-2.4
	c9.8,5.3,15.1,13.5,15.1,23C440.3,203.3,438.6,208.8,435.6,213.9z M448.2,192.8c-3.8-23-24.1-37.6-47.4-34.2
	c-21.9,3.2-36.9,23.8-34,46.3c2.3,17-0.6,33-9.1,48c-4.2,7.4-8.3,14.9-12.4,22.4c-0.5,0.9-0.9,1.8-1.4,2.8
	c8.3,4.9,16.4,9.7,24.9,14.7c5.3-8.4,10.3-16.3,15.3-24.3c6.6-10.6,15.2-19.3,26.1-25.4c5-2.8,10.4-5,15.6-7.5
	C441.6,228.1,451,210,448.2,192.8z M401.3,177.8c-3.8,0-6.8-2.9-6.8-6.6c-0.1-3.8,3.1-6.9,6.9-6.9c3.7,0.1,6.7,3.1,6.7,6.8
	C408,174.8,405,177.7,401.3,177.8z M435.6,213.9c-2,3.5-5.7,4.7-9,3c-3.3-1.7-4.5-5.3-3-9.1c1.1-3,2.5-6.1,3-9.3
	c0.9-5.8-1.5-10.4-6.7-13.4c-0.6-0.3-1.2-0.7-1.7-1.1c-3.1-2.4-3.9-6-2.1-9c1.9-3.1,5.8-4.2,9.2-2.4c9.8,5.3,15.1,13.5,15.1,23
	C440.3,203.3,438.6,208.8,435.6,213.9z M448.1,426.1c-10-30.3-20.1-60.6-30.2-90.9c-2-6-5.3-8.4-11.7-8.5
	c-5.1-0.1-10.3,0.3-15.4-0.1c-4-0.3-6.2,1.2-7.3,5.1c4.4,2.6,8.9,5.2,13.3,7.9c10.4,6.4,13.1,17.1,7.1,27.6c-2.3,4-4.6,7.9-6.9,11.8
	c-3.7,6.3-6.6,7-12.8,3.3c-30.5-18-60.9-36-91.4-53.9c-1.8-1-4-1.7-6-1.7c-38.7-0.1-77.4-0.1-116.1-0.1c-8,0-10.9,2.1-13.5,9.8
	c-6.8,20.4-13.5,40.8-20.3,61.1c-3.2,9.6-6.5,19.2-9.5,28.8c-2.6,8.3,2.1,14.8,10.8,15.2c1,0,2,0,3.1,0h292.9c0.9,0,1.8,0,2.7,0
	C446.2,441.3,451,434.7,448.1,426.1z M189.9,344.3c14,0,28,0,42,0c13.9,0,27.8,0,41.7,0c1.3,0,2.5,0,3.7,0.2
	c3.1,0.6,5.2,3.2,5.3,6.3c0.1,3.2-1.6,5.8-4.7,6.6c-1.5,0.4-3.1,0.5-4.7,0.5c-27.4,0-54.9,0-82.3,0h-1c-5.2-0.1-8.5-2.7-8.5-6.9
	C181.4,346.8,184.6,344.3,189.9,344.3z M176,377.9c1.6-0.5,3.4-0.5,5-0.5c44,0,88.1,0,132.1,0c6.3,0,9.5,2.3,9.6,6.7
	c0.1,4.6-3.1,6.9-9.6,6.9c-22.1,0-44.2,0-66.2,0c-22,0-43.9,0-65.9,0c-1.5,0-3,0-4.4-0.3c-2.9-0.5-5.3-3.4-5.2-6.3
	C171.5,381.3,173,378.8,176,377.9z M379.5,424c-1.1,0.2-2.3,0.2-3.4,0.2H166.9c-1,0-2.1,0-3.1-0.1c-4.1-0.5-6.6-3.3-6.5-7
	c0.1-3.7,2.8-6.3,6.9-6.5c1-0.1,2,0,3.1,0h208.2c1.1,0,2.3,0,3.4,0c3.9,0.3,6.5,2.9,6.7,6.5C385.7,420.6,383.3,423.4,379.5,424z
	 M388.4,350.4c-31.6-18.7-63.2-37.3-94.8-56c-3.8-2.3-7.6-4.6-11.5-6.7c-3.5-1.9-6.3-1.2-8.5,2.2c-1.6,2.6-3.1,5.3-4.9,8.3
	c39.8,23.5,79.2,46.8,118.8,70.2c1.4-2.4,2.6-4.4,3.8-6.4C394.9,356,394.4,354,388.4,350.4z M374.9,312.2
	c-16.9-9.8-33.7-19.8-50.5-29.8c-1-0.6-2-1-3.3-1.7c-2.1,3.5-4.1,6.9-6.3,10.4c19.1,11.3,37.9,22.4,56.8,33.6
	c1.6-2.7,2.9-5.2,4.5-7.5C377.8,314.8,377.3,313.6,374.9,312.2z M374.9,312.2c-16.9-9.8-33.7-19.8-50.5-29.8c-1-0.6-2-1-3.3-1.7
	c-2.1,3.5-4.1,6.9-6.3,10.4c19.1,11.3,37.9,22.4,56.8,33.6c1.6-2.7,2.9-5.2,4.5-7.5C377.8,314.8,377.3,313.6,374.9,312.2z
	 M388.4,350.4c-31.6-18.7-63.2-37.3-94.8-56c-3.8-2.3-7.6-4.6-11.5-6.7c-3.5-1.9-6.3-1.2-8.5,2.2c-1.6,2.6-3.1,5.3-4.9,8.3
	c39.8,23.5,79.2,46.8,118.8,70.2c1.4-2.4,2.6-4.4,3.8-6.4C394.9,356,394.4,354,388.4,350.4z M448.1,426.1
	c-10-30.3-20.1-60.6-30.2-90.9c-2-6-5.3-8.4-11.7-8.5c-5.1-0.1-10.3,0.3-15.4-0.1c-4-0.3-6.2,1.2-7.3,5.1c4.4,2.6,8.9,5.2,13.3,7.9
	c10.4,6.4,13.1,17.1,7.1,27.6c-2.3,4-4.6,7.9-6.9,11.8c-3.7,6.3-6.6,7-12.8,3.3c-30.5-18-60.9-36-91.4-53.9c-1.8-1-4-1.7-6-1.7
	c-38.7-0.1-77.4-0.1-116.1-0.1c-8,0-10.9,2.1-13.5,9.8c-6.8,20.4-13.5,40.8-20.3,61.1c-3.2,9.6-6.5,19.2-9.5,28.8
	c-2.6,8.3,2.1,14.8,10.8,15.2c1,0,2,0,3.1,0h292.9c0.9,0,1.8,0,2.7,0C446.2,441.3,451,434.7,448.1,426.1z M189.9,344.3
	c14,0,28,0,42,0c13.9,0,27.8,0,41.7,0c1.3,0,2.5,0,3.7,0.2c3.1,0.6,5.2,3.2,5.3,6.3c0.1,3.2-1.6,5.8-4.7,6.6
	c-1.5,0.4-3.1,0.5-4.7,0.5c-27.4,0-54.9,0-82.3,0h-1c-5.2-0.1-8.5-2.7-8.5-6.9C181.4,346.8,184.6,344.3,189.9,344.3z M176,377.9
	c1.6-0.5,3.4-0.5,5-0.5c44,0,88.1,0,132.1,0c6.3,0,9.5,2.3,9.6,6.7c0.1,4.6-3.1,6.9-9.6,6.9c-22.1,0-44.2,0-66.2,0
	c-22,0-43.9,0-65.9,0c-1.5,0-3,0-4.4-0.3c-2.9-0.5-5.3-3.4-5.2-6.3C171.5,381.3,173,378.8,176,377.9z M379.5,424
	c-1.1,0.2-2.3,0.2-3.4,0.2H166.9c-1,0-2.1,0-3.1-0.1c-4.1-0.5-6.6-3.3-6.5-7c0.1-3.7,2.8-6.3,6.9-6.5c1-0.1,2,0,3.1,0h208.2
	c1.1,0,2.3,0,3.4,0c3.9,0.3,6.5,2.9,6.7,6.5C385.7,420.6,383.3,423.4,379.5,424z M448.2,192.8c-3.8-23-24.1-37.6-47.4-34.2
	c-21.9,3.2-36.9,23.8-34,46.3c2.3,17-0.6,33-9.1,48c-4.2,7.4-8.3,14.9-12.4,22.4c-0.5,0.9-0.9,1.8-1.4,2.8
	c8.3,4.9,16.4,9.7,24.9,14.7c5.3-8.4,10.3-16.3,15.3-24.3c6.6-10.6,15.2-19.3,26.1-25.4c5-2.8,10.4-5,15.6-7.5
	C441.6,228.1,451,210,448.2,192.8z M401.3,177.8c-3.8,0-6.8-2.9-6.8-6.6c-0.1-3.8,3.1-6.9,6.9-6.9c3.7,0.1,6.7,3.1,6.7,6.8
	C408,174.8,405,177.7,401.3,177.8z M435.6,213.9c-2,3.5-5.7,4.7-9,3c-3.3-1.7-4.5-5.3-3-9.1c1.1-3,2.5-6.1,3-9.3
	c0.9-5.8-1.5-10.4-6.7-13.4c-0.6-0.3-1.2-0.7-1.7-1.1c-3.1-2.4-3.9-6-2.1-9c1.9-3.1,5.8-4.2,9.2-2.4c9.8,5.3,15.1,13.5,15.1,23
	C440.3,203.3,438.6,208.8,435.6,213.9z M448.2,192.8c-3.8-23-24.1-37.6-47.4-34.2c-21.9,3.2-36.9,23.8-34,46.3c2.3,17-0.6,33-9.1,48
	c-4.2,7.4-8.3,14.9-12.4,22.4c-0.5,0.9-0.9,1.8-1.4,2.8c8.3,4.9,16.4,9.7,24.9,14.7c5.3-8.4,10.3-16.3,15.3-24.3
	c6.6-10.6,15.2-19.3,26.1-25.4c5-2.8,10.4-5,15.6-7.5C441.6,228.1,451,210,448.2,192.8z M401.3,177.8c-3.8,0-6.8-2.9-6.8-6.6
	c-0.1-3.8,3.1-6.9,6.9-6.9c3.7,0.1,6.7,3.1,6.7,6.8C408,174.8,405,177.7,401.3,177.8z M435.6,213.9c-2,3.5-5.7,4.7-9,3
	c-3.3-1.7-4.5-5.3-3-9.1c1.1-3,2.5-6.1,3-9.3c0.9-5.8-1.5-10.4-6.7-13.4c-0.6-0.3-1.2-0.7-1.7-1.1c-3.1-2.4-3.9-6-2.1-9
	c1.9-3.1,5.8-4.2,9.2-2.4c9.8,5.3,15.1,13.5,15.1,23C440.3,203.3,438.6,208.8,435.6,213.9z M448.1,426.1
	c-10-30.3-20.1-60.6-30.2-90.9c-2-6-5.3-8.4-11.7-8.5c-5.1-0.1-10.3,0.3-15.4-0.1c-4-0.3-6.2,1.2-7.3,5.1c4.4,2.6,8.9,5.2,13.3,7.9
	c10.4,6.4,13.1,17.1,7.1,27.6c-2.3,4-4.6,7.9-6.9,11.8c-3.7,6.3-6.6,7-12.8,3.3c-30.5-18-60.9-36-91.4-53.9c-1.8-1-4-1.7-6-1.7
	c-38.7-0.1-77.4-0.1-116.1-0.1c-8,0-10.9,2.1-13.5,9.8c-6.8,20.4-13.5,40.8-20.3,61.1c-3.2,9.6-6.5,19.2-9.5,28.8
	c-2.6,8.3,2.1,14.8,10.8,15.2c1,0,2,0,3.1,0h292.9c0.9,0,1.8,0,2.7,0C446.2,441.3,451,434.7,448.1,426.1z M189.9,344.3
	c14,0,28,0,42,0c13.9,0,27.8,0,41.7,0c1.3,0,2.5,0,3.7,0.2c3.1,0.6,5.2,3.2,5.3,6.3c0.1,3.2-1.6,5.8-4.7,6.6
	c-1.5,0.4-3.1,0.5-4.7,0.5c-27.4,0-54.9,0-82.3,0h-1c-5.2-0.1-8.5-2.7-8.5-6.9C181.4,346.8,184.6,344.3,189.9,344.3z M176,377.9
	c1.6-0.5,3.4-0.5,5-0.5c44,0,88.1,0,132.1,0c6.3,0,9.5,2.3,9.6,6.7c0.1,4.6-3.1,6.9-9.6,6.9c-22.1,0-44.2,0-66.2,0
	c-22,0-43.9,0-65.9,0c-1.5,0-3,0-4.4-0.3c-2.9-0.5-5.3-3.4-5.2-6.3C171.5,381.3,173,378.8,176,377.9z M379.5,424
	c-1.1,0.2-2.3,0.2-3.4,0.2H166.9c-1,0-2.1,0-3.1-0.1c-4.1-0.5-6.6-3.3-6.5-7c0.1-3.7,2.8-6.3,6.9-6.5c1-0.1,2,0,3.1,0h208.2
	c1.1,0,2.3,0,3.4,0c3.9,0.3,6.5,2.9,6.7,6.5C385.7,420.6,383.3,423.4,379.5,424z M388.4,350.4c-31.6-18.7-63.2-37.3-94.8-56
	c-3.8-2.3-7.6-4.6-11.5-6.7c-3.5-1.9-6.3-1.2-8.5,2.2c-1.6,2.6-3.1,5.3-4.9,8.3c39.8,23.5,79.2,46.8,118.8,70.2
	c1.4-2.4,2.6-4.4,3.8-6.4C394.9,356,394.4,354,388.4,350.4z M374.9,312.2c-16.9-9.8-33.7-19.8-50.5-29.8c-1-0.6-2-1-3.3-1.7
	c-2.1,3.5-4.1,6.9-6.3,10.4c19.1,11.3,37.9,22.4,56.8,33.6c1.6-2.7,2.9-5.2,4.5-7.5C377.8,314.8,377.3,313.6,374.9,312.2z
	 M374.9,312.2c-16.9-9.8-33.7-19.8-50.5-29.8c-1-0.6-2-1-3.3-1.7c-2.1,3.5-4.1,6.9-6.3,10.4c19.1,11.3,37.9,22.4,56.8,33.6
	c1.6-2.7,2.9-5.2,4.5-7.5C377.8,314.8,377.3,313.6,374.9,312.2z M388.4,350.4c-31.6-18.7-63.2-37.3-94.8-56
	c-3.8-2.3-7.6-4.6-11.5-6.7c-3.5-1.9-6.3-1.2-8.5,2.2c-1.6,2.6-3.1,5.3-4.9,8.3c39.8,23.5,79.2,46.8,118.8,70.2
	c1.4-2.4,2.6-4.4,3.8-6.4C394.9,356,394.4,354,388.4,350.4z M448.1,426.1c-10-30.3-20.1-60.6-30.2-90.9c-2-6-5.3-8.4-11.7-8.5
	c-5.1-0.1-10.3,0.3-15.4-0.1c-4-0.3-6.2,1.2-7.3,5.1c4.4,2.6,8.9,5.2,13.3,7.9c10.4,6.4,13.1,17.1,7.1,27.6c-2.3,4-4.6,7.9-6.9,11.8
	c-3.7,6.3-6.6,7-12.8,3.3c-30.5-18-60.9-36-91.4-53.9c-1.8-1-4-1.7-6-1.7c-38.7-0.1-77.4-0.1-116.1-0.1c-8,0-10.9,2.1-13.5,9.8
	c-6.8,20.4-13.5,40.8-20.3,61.1c-3.2,9.6-6.5,19.2-9.5,28.8c-2.6,8.3,2.1,14.8,10.8,15.2c1,0,2,0,3.1,0h292.9c0.9,0,1.8,0,2.7,0
	C446.2,441.3,451,434.7,448.1,426.1z M189.9,344.3c14,0,28,0,42,0c13.9,0,27.8,0,41.7,0c1.3,0,2.5,0,3.7,0.2
	c3.1,0.6,5.2,3.2,5.3,6.3c0.1,3.2-1.6,5.8-4.7,6.6c-1.5,0.4-3.1,0.5-4.7,0.5c-27.4,0-54.9,0-82.3,0h-1c-5.2-0.1-8.5-2.7-8.5-6.9
	C181.4,346.8,184.6,344.3,189.9,344.3z M176,377.9c1.6-0.5,3.4-0.5,5-0.5c44,0,88.1,0,132.1,0c6.3,0,9.5,2.3,9.6,6.7
	c0.1,4.6-3.1,6.9-9.6,6.9c-22.1,0-44.2,0-66.2,0c-22,0-43.9,0-65.9,0c-1.5,0-3,0-4.4-0.3c-2.9-0.5-5.3-3.4-5.2-6.3
	C171.5,381.3,173,378.8,176,377.9z M379.5,424c-1.1,0.2-2.3,0.2-3.4,0.2H166.9c-1,0-2.1,0-3.1-0.1c-4.1-0.5-6.6-3.3-6.5-7
	c0.1-3.7,2.8-6.3,6.9-6.5c1-0.1,2,0,3.1,0h208.2c1.1,0,2.3,0,3.4,0c3.9,0.3,6.5,2.9,6.7,6.5C385.7,420.6,383.3,423.4,379.5,424z
	 M448.2,192.8c-3.8-23-24.1-37.6-47.4-34.2c-21.9,3.2-36.9,23.8-34,46.3c2.3,17-0.6,33-9.1,48c-4.2,7.4-8.3,14.9-12.4,22.4
	c-0.5,0.9-0.9,1.8-1.4,2.8c8.3,4.9,16.4,9.7,24.9,14.7c5.3-8.4,10.3-16.3,15.3-24.3c6.6-10.6,15.2-19.3,26.1-25.4
	c5-2.8,10.4-5,15.6-7.5C441.6,228.1,451,210,448.2,192.8z M401.3,177.8c-3.8,0-6.8-2.9-6.8-6.6c-0.1-3.8,3.1-6.9,6.9-6.9
	c3.7,0.1,6.7,3.1,6.7,6.8C408,174.8,405,177.7,401.3,177.8z M435.6,213.9c-2,3.5-5.7,4.7-9,3c-3.3-1.7-4.5-5.3-3-9.1
	c1.1-3,2.5-6.1,3-9.3c0.9-5.8-1.5-10.4-6.7-13.4c-0.6-0.3-1.2-0.7-1.7-1.1c-3.1-2.4-3.9-6-2.1-9c1.9-3.1,5.8-4.2,9.2-2.4
	c9.8,5.3,15.1,13.5,15.1,23C440.3,203.3,438.6,208.8,435.6,213.9z M384.3,268.6c6.6-10.6,15.2-19.3,26.1-25.4c5-2.8,10.4-5,15.6-7.5
	c15.6-7.5,25-25.6,22.2-42.8c-3.8-23-24.1-37.6-47.4-34.2c-21.9,3.2-36.9,23.8-34,46.3c2.3,17-0.6,33-9.1,48
	c-4.2,7.4-8.3,14.9-12.4,22.4c-0.5,0.9-0.9,1.8-1.4,2.8c8.3,4.9,16.4,9.7,24.9,14.7C374.2,284.5,379.3,276.5,384.3,268.6z M416,175
	c1.9-3.1,5.8-4.2,9.2-2.4c9.8,5.3,15.1,13.5,15.1,23c-0.1,7.8-1.8,13.2-4.8,18.3c-2,3.5-5.7,4.7-9,3c-3.3-1.7-4.5-5.3-3-9.1
	c1.1-3,2.5-6.1,3-9.3c0.9-5.8-1.5-10.4-6.7-13.4c-0.6-0.3-1.2-0.7-1.7-1.1C415,181.6,414.2,178,416,175z M401.4,164.3
	c3.7,0.1,6.7,3.1,6.7,6.8c0,3.7-3.1,6.7-6.8,6.7c-3.8,0-6.8-2.9-6.8-6.6C394.4,167.3,397.5,164.2,401.4,164.3z M448.1,426.1
	c-10-30.3-20.1-60.6-30.2-90.9c-2-6-5.3-8.4-11.7-8.5c-5.1-0.1-10.3,0.3-15.4-0.1c-4-0.3-6.2,1.2-7.3,5.1c4.4,2.6,8.9,5.2,13.3,7.9
	c10.4,6.4,13.1,17.1,7.1,27.6c-2.3,4-4.6,7.9-6.9,11.8c-3.7,6.3-6.6,7-12.8,3.3c-30.5-18-60.9-36-91.4-53.9c-1.8-1-4-1.7-6-1.7
	c-38.7-0.1-77.4-0.1-116.1-0.1c-8,0-10.9,2.1-13.5,9.8c-6.8,20.4-13.5,40.8-20.3,61.1c-3.2,9.6-6.5,19.2-9.5,28.8
	c-2.6,8.3,2.1,14.8,10.8,15.2c1,0,2,0,3.1,0h292.9c0.9,0,1.8,0,2.7,0C446.2,441.3,451,434.7,448.1,426.1z M189.9,344.3
	c14,0,28,0,42,0c13.9,0,27.8,0,41.7,0c1.3,0,2.5,0,3.7,0.2c3.1,0.6,5.2,3.2,5.3,6.3c0.1,3.2-1.6,5.8-4.7,6.6
	c-1.5,0.4-3.1,0.5-4.7,0.5c-27.4,0-54.9,0-82.3,0h-1c-5.2-0.1-8.5-2.7-8.5-6.9C181.4,346.8,184.6,344.3,189.9,344.3z M176,377.9
	c1.6-0.5,3.4-0.5,5-0.5c44,0,88.1,0,132.1,0c6.3,0,9.5,2.3,9.6,6.7c0.1,4.6-3.1,6.9-9.6,6.9c-22.1,0-44.2,0-66.2,0
	c-22,0-43.9,0-65.9,0c-1.5,0-3,0-4.4-0.3c-2.9-0.5-5.3-3.4-5.2-6.3C171.5,381.3,173,378.8,176,377.9z M379.5,424
	c-1.1,0.2-2.3,0.2-3.4,0.2H166.9c-1,0-2.1,0-3.1-0.1c-4.1-0.5-6.6-3.3-6.5-7c0.1-3.7,2.8-6.3,6.9-6.5c1-0.1,2,0,3.1,0h208.2
	c1.1,0,2.3,0,3.4,0c3.9,0.3,6.5,2.9,6.7,6.5C385.7,420.6,383.3,423.4,379.5,424z M391.4,362c3.5-5.9,3-8-3-11.5
	c-31.6-18.7-63.2-37.3-94.8-56c-3.8-2.3-7.6-4.6-11.5-6.7c-3.5-1.9-6.3-1.2-8.5,2.2c-1.6,2.6-3.1,5.3-4.9,8.3
	c39.8,23.5,79.2,46.8,118.8,70.2C389,366,390.2,364,391.4,362z M376.1,317.1c1.7-2.3,1.2-3.5-1.3-5c-16.9-9.8-33.7-19.8-50.5-29.8
	c-1-0.6-2-1-3.3-1.7c-2.1,3.5-4.1,6.9-6.3,10.4c19.1,11.3,37.9,22.4,56.8,33.6C373.2,322,374.5,319.4,376.1,317.1z M0,128v304
	c0,26.5,21.5,48,48,48h480c26.5,0,48-21.5,48-48V128H0z M462.8,434.5c-0.3,0.8-0.5,1.5-0.8,2.2c-2.8,10.5-11.5,17.7-22.4,18.4
	c-1.6,0.1-3.2,0.2-4.8,0.2c-98,0-196,0-294,0c-6,0-11.8-0.7-16.9-4.2c-9.6-6.6-13.1-17.7-9.1-29.6c8.4-25.4,16.8-50.7,25.2-76
	c1.6-4.8,3.1-9.5,4.7-14.2c4.1-12.2,12.4-18.2,25.3-18.2c30.6,0,61.2,0,91.8,0h3.6c0.1-0.3,0.2-0.5,0.2-0.7
	c-2.8-1.6-5.6-3.3-8.3-4.9c-5.2-3.1-6.1-6.5-3.1-11.7c2.9-4.9,5.6-9.9,8.9-14.6c5.4-7.9,15.3-10.5,23.9-6.2
	c5.4,2.7,10.4,5.9,15.9,9.1c1.6-2.6,3-5,4.4-7.4c5.9-9.9,13.2-11.9,23.2-6.4c0.4,0.2,0.8,0.4,1.3,0.6c0.3-0.4,0.7-0.8,1-1.3
	c4.6-8.4,9.3-16.7,13.8-25.1c6.7-12.3,8.2-25.3,6.4-39c-3.9-29.7,17.6-57.1,47.4-60.7c27.4-3.3,52.7,13.6,59.7,39.9
	c7.1,26.5-6.1,54.1-31.5,64.5c-15.4,6.3-27.3,16-35.5,30.4c-3.9,6.8-8.3,13.3-12.7,20.2c5.6,2.6,9.5,6.5,10.5,13.1H404
	c15.3,0,22.8,5.4,27.6,19.8c9.7,29.1,19.3,58.2,29,87.3c0.8,2.3,1.4,4.5,2.2,6.8V434.5z M384.3,268.6c6.6-10.6,15.2-19.3,26.1-25.4
	c5-2.8,10.4-5,15.6-7.5c15.6-7.5,25-25.6,22.2-42.8c-3.8-23-24.1-37.6-47.4-34.2c-21.9,3.2-36.9,23.8-34,46.3c2.3,17-0.6,33-9.1,48
	c-4.2,7.4-8.3,14.9-12.4,22.4c-0.5,0.9-0.9,1.8-1.4,2.8c8.3,4.9,16.4,9.7,24.9,14.7C374.2,284.5,379.3,276.5,384.3,268.6z M416,175
	c1.9-3.1,5.8-4.2,9.2-2.4c9.8,5.3,15.1,13.5,15.1,23c-0.1,7.8-1.8,13.2-4.8,18.3c-2,3.5-5.7,4.7-9,3c-3.3-1.7-4.5-5.3-3-9.1
	c1.1-3,2.5-6.1,3-9.3c0.9-5.8-1.5-10.4-6.7-13.4c-0.6-0.3-1.2-0.7-1.7-1.1C415,181.6,414.2,178,416,175z M401.4,164.3
	c3.7,0.1,6.7,3.1,6.7,6.8c0,3.7-3.1,6.7-6.8,6.7c-3.8,0-6.8-2.9-6.8-6.6C394.4,167.3,397.5,164.2,401.4,164.3z M417.9,335.2
	c-2-6-5.3-8.4-11.7-8.5c-5.1-0.1-10.3,0.3-15.4-0.1c-4-0.3-6.2,1.2-7.3,5.1c4.4,2.6,8.9,5.2,13.3,7.9c10.4,6.4,13.1,17.1,7.1,27.6
	c-2.3,4-4.6,7.9-6.9,11.8c-3.7,6.3-6.6,7-12.8,3.3c-30.5-18-60.9-36-91.4-53.9c-1.8-1-4-1.7-6-1.7c-38.7-0.1-77.4-0.1-116.1-0.1
	c-8,0-10.9,2.1-13.5,9.8c-6.8,20.4-13.5,40.8-20.3,61.1c-3.2,9.6-6.5,19.2-9.5,28.8c-2.6,8.3,2.1,14.8,10.8,15.2c1,0,2,0,3.1,0
	h292.9c0.9,0,1.8,0,2.7,0c9.1-0.3,13.9-6.9,11-15.6C438.1,395.8,428,365.5,417.9,335.2z M189.9,344.3c14,0,28,0,42,0
	c13.9,0,27.8,0,41.7,0c1.3,0,2.5,0,3.7,0.2c3.1,0.6,5.2,3.2,5.3,6.3c0.1,3.2-1.6,5.8-4.7,6.6c-1.5,0.4-3.1,0.5-4.7,0.5
	c-27.4,0-54.9,0-82.3,0h-1c-5.2-0.1-8.5-2.7-8.5-6.9C181.4,346.8,184.6,344.3,189.9,344.3z M176,377.9c1.6-0.5,3.4-0.5,5-0.5
	c44,0,88.1,0,132.1,0c6.3,0,9.5,2.3,9.6,6.7c0.1,4.6-3.1,6.9-9.6,6.9c-22.1,0-44.2,0-66.2,0c-22,0-43.9,0-65.9,0c-1.5,0-3,0-4.4-0.3
	c-2.9-0.5-5.3-3.4-5.2-6.3C171.5,381.3,173,378.8,176,377.9z M379.5,424c-1.1,0.2-2.3,0.2-3.4,0.2H166.9c-1,0-2.1,0-3.1-0.1
	c-4.1-0.5-6.6-3.3-6.5-7c0.1-3.7,2.8-6.3,6.9-6.5c1-0.1,2,0,3.1,0h208.2c1.1,0,2.3,0,3.4,0c3.9,0.3,6.5,2.9,6.7,6.5
	C385.7,420.6,383.3,423.4,379.5,424z M391.4,362c3.5-5.9,3-8-3-11.5c-31.6-18.7-63.2-37.3-94.8-56c-3.8-2.3-7.6-4.6-11.5-6.7
	c-3.5-1.9-6.3-1.2-8.5,2.2c-1.6,2.6-3.1,5.3-4.9,8.3c39.8,23.5,79.2,46.8,118.8,70.2C389,366,390.2,364,391.4,362z M376.1,317.1
	c1.7-2.3,1.2-3.5-1.3-5c-16.9-9.8-33.7-19.8-50.5-29.8c-1-0.6-2-1-3.3-1.7c-2.1,3.5-4.1,6.9-6.3,10.4c19.1,11.3,37.9,22.4,56.8,33.6
	C373.2,322,374.5,319.4,376.1,317.1z M374.9,312.2c-16.9-9.8-33.7-19.8-50.5-29.8c-1-0.6-2-1-3.3-1.7c-2.1,3.5-4.1,6.9-6.3,10.4
	c19.1,11.3,37.9,22.4,56.8,33.6c1.6-2.7,2.9-5.2,4.5-7.5C377.8,314.8,377.3,313.6,374.9,312.2z M388.4,350.4
	c-31.6-18.7-63.2-37.3-94.8-56c-3.8-2.3-7.6-4.6-11.5-6.7c-3.5-1.9-6.3-1.2-8.5,2.2c-1.6,2.6-3.1,5.3-4.9,8.3
	c39.8,23.5,79.2,46.8,118.8,70.2c1.4-2.4,2.6-4.4,3.8-6.4C394.9,356,394.4,354,388.4,350.4z M448.1,426.1
	c-10-30.3-20.1-60.6-30.2-90.9c-2-6-5.3-8.4-11.7-8.5c-5.1-0.1-10.3,0.3-15.4-0.1c-4-0.3-6.2,1.2-7.3,5.1c4.4,2.6,8.9,5.2,13.3,7.9
	c10.4,6.4,13.1,17.1,7.1,27.6c-2.3,4-4.6,7.9-6.9,11.8c-3.7,6.3-6.6,7-12.8,3.3c-30.5-18-60.9-36-91.4-53.9c-1.8-1-4-1.7-6-1.7
	c-38.7-0.1-77.4-0.1-116.1-0.1c-8,0-10.9,2.1-13.5,9.8c-6.8,20.4-13.5,40.8-20.3,61.1c-3.2,9.6-6.5,19.2-9.5,28.8
	c-2.6,8.3,2.1,14.8,10.8,15.2c1,0,2,0,3.1,0h292.9c0.9,0,1.8,0,2.7,0C446.2,441.3,451,434.7,448.1,426.1z M189.9,344.3
	c14,0,28,0,42,0c13.9,0,27.8,0,41.7,0c1.3,0,2.5,0,3.7,0.2c3.1,0.6,5.2,3.2,5.3,6.3c0.1,3.2-1.6,5.8-4.7,6.6
	c-1.5,0.4-3.1,0.5-4.7,0.5c-27.4,0-54.9,0-82.3,0h-1c-5.2-0.1-8.5-2.7-8.5-6.9C181.4,346.8,184.6,344.3,189.9,344.3z M176,377.9
	c1.6-0.5,3.4-0.5,5-0.5c44,0,88.1,0,132.1,0c6.3,0,9.5,2.3,9.6,6.7c0.1,4.6-3.1,6.9-9.6,6.9c-22.1,0-44.2,0-66.2,0
	c-22,0-43.9,0-65.9,0c-1.5,0-3,0-4.4-0.3c-2.9-0.5-5.3-3.4-5.2-6.3C171.5,381.3,173,378.8,176,377.9z M379.5,424
	c-1.1,0.2-2.3,0.2-3.4,0.2H166.9c-1,0-2.1,0-3.1-0.1c-4.1-0.5-6.6-3.3-6.5-7c0.1-3.7,2.8-6.3,6.9-6.5c1-0.1,2,0,3.1,0h208.2
	c1.1,0,2.3,0,3.4,0c3.9,0.3,6.5,2.9,6.7,6.5C385.7,420.6,383.3,423.4,379.5,424z M448.2,192.8c-3.8-23-24.1-37.6-47.4-34.2
	c-21.9,3.2-36.9,23.8-34,46.3c2.3,17-0.6,33-9.1,48c-4.2,7.4-8.3,14.9-12.4,22.4c-0.5,0.9-0.9,1.8-1.4,2.8
	c8.3,4.9,16.4,9.7,24.9,14.7c5.3-8.4,10.3-16.3,15.3-24.3c6.6-10.6,15.2-19.3,26.1-25.4c5-2.8,10.4-5,15.6-7.5
	C441.6,228.1,451,210,448.2,192.8z M401.3,177.8c-3.8,0-6.8-2.9-6.8-6.6c-0.1-3.8,3.1-6.9,6.9-6.9c3.7,0.1,6.7,3.1,6.7,6.8
	C408,174.8,405,177.7,401.3,177.8z M435.6,213.9c-2,3.5-5.7,4.7-9,3c-3.3-1.7-4.5-5.3-3-9.1c1.1-3,2.5-6.1,3-9.3
	c0.9-5.8-1.5-10.4-6.7-13.4c-0.6-0.3-1.2-0.7-1.7-1.1c-3.1-2.4-3.9-6-2.1-9c1.9-3.1,5.8-4.2,9.2-2.4c9.8,5.3,15.1,13.5,15.1,23
	C440.3,203.3,438.6,208.8,435.6,213.9z M448.2,192.8c-3.8-23-24.1-37.6-47.4-34.2c-21.9,3.2-36.9,23.8-34,46.3c2.3,17-0.6,33-9.1,48
	c-4.2,7.4-8.3,14.9-12.4,22.4c-0.5,0.9-0.9,1.8-1.4,2.8c8.3,4.9,16.4,9.7,24.9,14.7c5.3-8.4,10.3-16.3,15.3-24.3
	c6.6-10.6,15.2-19.3,26.1-25.4c5-2.8,10.4-5,15.6-7.5C441.6,228.1,451,210,448.2,192.8z M401.3,177.8c-3.8,0-6.8-2.9-6.8-6.6
	c-0.1-3.8,3.1-6.9,6.9-6.9c3.7,0.1,6.7,3.1,6.7,6.8C408,174.8,405,177.7,401.3,177.8z M435.6,213.9c-2,3.5-5.7,4.7-9,3
	c-3.3-1.7-4.5-5.3-3-9.1c1.1-3,2.5-6.1,3-9.3c0.9-5.8-1.5-10.4-6.7-13.4c-0.6-0.3-1.2-0.7-1.7-1.1c-3.1-2.4-3.9-6-2.1-9
	c1.9-3.1,5.8-4.2,9.2-2.4c9.8,5.3,15.1,13.5,15.1,23C440.3,203.3,438.6,208.8,435.6,213.9z M448.1,426.1
	c-10-30.3-20.1-60.6-30.2-90.9c-2-6-5.3-8.4-11.7-8.5c-5.1-0.1-10.3,0.3-15.4-0.1c-4-0.3-6.2,1.2-7.3,5.1c4.4,2.6,8.9,5.2,13.3,7.9
	c10.4,6.4,13.1,17.1,7.1,27.6c-2.3,4-4.6,7.9-6.9,11.8c-3.7,6.3-6.6,7-12.8,3.3c-30.5-18-60.9-36-91.4-53.9c-1.8-1-4-1.7-6-1.7
	c-38.7-0.1-77.4-0.1-116.1-0.1c-8,0-10.9,2.1-13.5,9.8c-6.8,20.4-13.5,40.8-20.3,61.1c-3.2,9.6-6.5,19.2-9.5,28.8
	c-2.6,8.3,2.1,14.8,10.8,15.2c1,0,2,0,3.1,0h292.9c0.9,0,1.8,0,2.7,0C446.2,441.3,451,434.7,448.1,426.1z M189.9,344.3
	c14,0,28,0,42,0c13.9,0,27.8,0,41.7,0c1.3,0,2.5,0,3.7,0.2c3.1,0.6,5.2,3.2,5.3,6.3c0.1,3.2-1.6,5.8-4.7,6.6
	c-1.5,0.4-3.1,0.5-4.7,0.5c-27.4,0-54.9,0-82.3,0h-1c-5.2-0.1-8.5-2.7-8.5-6.9C181.4,346.8,184.6,344.3,189.9,344.3z M176,377.9
	c1.6-0.5,3.4-0.5,5-0.5c44,0,88.1,0,132.1,0c6.3,0,9.5,2.3,9.6,6.7c0.1,4.6-3.1,6.9-9.6,6.9c-22.1,0-44.2,0-66.2,0
	c-22,0-43.9,0-65.9,0c-1.5,0-3,0-4.4-0.3c-2.9-0.5-5.3-3.4-5.2-6.3C171.5,381.3,173,378.8,176,377.9z M379.5,424
	c-1.1,0.2-2.3,0.2-3.4,0.2H166.9c-1,0-2.1,0-3.1-0.1c-4.1-0.5-6.6-3.3-6.5-7c0.1-3.7,2.8-6.3,6.9-6.5c1-0.1,2,0,3.1,0h208.2
	c1.1,0,2.3,0,3.4,0c3.9,0.3,6.5,2.9,6.7,6.5C385.7,420.6,383.3,423.4,379.5,424z M388.4,350.4c-31.6-18.7-63.2-37.3-94.8-56
	c-3.8-2.3-7.6-4.6-11.5-6.7c-3.5-1.9-6.3-1.2-8.5,2.2c-1.6,2.6-3.1,5.3-4.9,8.3c39.8,23.5,79.2,46.8,118.8,70.2
	c1.4-2.4,2.6-4.4,3.8-6.4C394.9,356,394.4,354,388.4,350.4z M374.9,312.2c-16.9-9.8-33.7-19.8-50.5-29.8c-1-0.6-2-1-3.3-1.7
	c-2.1,3.5-4.1,6.9-6.3,10.4c19.1,11.3,37.9,22.4,56.8,33.6c1.6-2.7,2.9-5.2,4.5-7.5C377.8,314.8,377.3,313.6,374.9,312.2z
	 M374.9,312.2c-16.9-9.8-33.7-19.8-50.5-29.8c-1-0.6-2-1-3.3-1.7c-2.1,3.5-4.1,6.9-6.3,10.4c19.1,11.3,37.9,22.4,56.8,33.6
	c1.6-2.7,2.9-5.2,4.5-7.5C377.8,314.8,377.3,313.6,374.9,312.2z M388.4,350.4c-31.6-18.7-63.2-37.3-94.8-56
	c-3.8-2.3-7.6-4.6-11.5-6.7c-3.5-1.9-6.3-1.2-8.5,2.2c-1.6,2.6-3.1,5.3-4.9,8.3c39.8,23.5,79.2,46.8,118.8,70.2
	c1.4-2.4,2.6-4.4,3.8-6.4C394.9,356,394.4,354,388.4,350.4z M448.1,426.1c-10-30.3-20.1-60.6-30.2-90.9c-2-6-5.3-8.4-11.7-8.5
	c-5.1-0.1-10.3,0.3-15.4-0.1c-4-0.3-6.2,1.2-7.3,5.1c4.4,2.6,8.9,5.2,13.3,7.9c10.4,6.4,13.1,17.1,7.1,27.6c-2.3,4-4.6,7.9-6.9,11.8
	c-3.7,6.3-6.6,7-12.8,3.3c-30.5-18-60.9-36-91.4-53.9c-1.8-1-4-1.7-6-1.7c-38.7-0.1-77.4-0.1-116.1-0.1c-8,0-10.9,2.1-13.5,9.8
	c-6.8,20.4-13.5,40.8-20.3,61.1c-3.2,9.6-6.5,19.2-9.5,28.8c-2.6,8.3,2.1,14.8,10.8,15.2c1,0,2,0,3.1,0h292.9c0.9,0,1.8,0,2.7,0
	C446.2,441.3,451,434.7,448.1,426.1z M189.9,344.3c14,0,28,0,42,0c13.9,0,27.8,0,41.7,0c1.3,0,2.5,0,3.7,0.2
	c3.1,0.6,5.2,3.2,5.3,6.3c0.1,3.2-1.6,5.8-4.7,6.6c-1.5,0.4-3.1,0.5-4.7,0.5c-27.4,0-54.9,0-82.3,0h-1c-5.2-0.1-8.5-2.7-8.5-6.9
	C181.4,346.8,184.6,344.3,189.9,344.3z M176,377.9c1.6-0.5,3.4-0.5,5-0.5c44,0,88.1,0,132.1,0c6.3,0,9.5,2.3,9.6,6.7
	c0.1,4.6-3.1,6.9-9.6,6.9c-22.1,0-44.2,0-66.2,0c-22,0-43.9,0-65.9,0c-1.5,0-3,0-4.4-0.3c-2.9-0.5-5.3-3.4-5.2-6.3
	C171.5,381.3,173,378.8,176,377.9z M379.5,424c-1.1,0.2-2.3,0.2-3.4,0.2H166.9c-1,0-2.1,0-3.1-0.1c-4.1-0.5-6.6-3.3-6.5-7
	c0.1-3.7,2.8-6.3,6.9-6.5c1-0.1,2,0,3.1,0h208.2c1.1,0,2.3,0,3.4,0c3.9,0.3,6.5,2.9,6.7,6.5C385.7,420.6,383.3,423.4,379.5,424z
	 M448.2,192.8c-3.8-23-24.1-37.6-47.4-34.2c-21.9,3.2-36.9,23.8-34,46.3c2.3,17-0.6,33-9.1,48c-4.2,7.4-8.3,14.9-12.4,22.4
	c-0.5,0.9-0.9,1.8-1.4,2.8c8.3,4.9,16.4,9.7,24.9,14.7c5.3-8.4,10.3-16.3,15.3-24.3c6.6-10.6,15.2-19.3,26.1-25.4
	c5-2.8,10.4-5,15.6-7.5C441.6,228.1,451,210,448.2,192.8z M401.3,177.8c-3.8,0-6.8-2.9-6.8-6.6c-0.1-3.8,3.1-6.9,6.9-6.9
	c3.7,0.1,6.7,3.1,6.7,6.8C408,174.8,405,177.7,401.3,177.8z M435.6,213.9c-2,3.5-5.7,4.7-9,3c-3.3-1.7-4.5-5.3-3-9.1
	c1.1-3,2.5-6.1,3-9.3c0.9-5.8-1.5-10.4-6.7-13.4c-0.6-0.3-1.2-0.7-1.7-1.1c-3.1-2.4-3.9-6-2.1-9c1.9-3.1,5.8-4.2,9.2-2.4
	c9.8,5.3,15.1,13.5,15.1,23C440.3,203.3,438.6,208.8,435.6,213.9z M448.2,192.8c-3.8-23-24.1-37.6-47.4-34.2
	c-21.9,3.2-36.9,23.8-34,46.3c2.3,17-0.6,33-9.1,48c-4.2,7.4-8.3,14.9-12.4,22.4c-0.5,0.9-0.9,1.8-1.4,2.8
	c8.3,4.9,16.4,9.7,24.9,14.7c5.3-8.4,10.3-16.3,15.3-24.3c6.6-10.6,15.2-19.3,26.1-25.4c5-2.8,10.4-5,15.6-7.5
	C441.6,228.1,451,210,448.2,192.8z M401.3,177.8c-3.8,0-6.8-2.9-6.8-6.6c-0.1-3.8,3.1-6.9,6.9-6.9c3.7,0.1,6.7,3.1,6.7,6.8
	C408,174.8,405,177.7,401.3,177.8z M435.6,213.9c-2,3.5-5.7,4.7-9,3c-3.3-1.7-4.5-5.3-3-9.1c1.1-3,2.5-6.1,3-9.3
	c0.9-5.8-1.5-10.4-6.7-13.4c-0.6-0.3-1.2-0.7-1.7-1.1c-3.1-2.4-3.9-6-2.1-9c1.9-3.1,5.8-4.2,9.2-2.4c9.8,5.3,15.1,13.5,15.1,23
	C440.3,203.3,438.6,208.8,435.6,213.9z M448.1,426.1c-10-30.3-20.1-60.6-30.2-90.9c-2-6-5.3-8.4-11.7-8.5
	c-5.1-0.1-10.3,0.3-15.4-0.1c-4-0.3-6.2,1.2-7.3,5.1c4.4,2.6,8.9,5.2,13.3,7.9c10.4,6.4,13.1,17.1,7.1,27.6c-2.3,4-4.6,7.9-6.9,11.8
	c-3.7,6.3-6.6,7-12.8,3.3c-30.5-18-60.9-36-91.4-53.9c-1.8-1-4-1.7-6-1.7c-38.7-0.1-77.4-0.1-116.1-0.1c-8,0-10.9,2.1-13.5,9.8
	c-6.8,20.4-13.5,40.8-20.3,61.1c-3.2,9.6-6.5,19.2-9.5,28.8c-2.6,8.3,2.1,14.8,10.8,15.2c1,0,2,0,3.1,0h292.9c0.9,0,1.8,0,2.7,0
	C446.2,441.3,451,434.7,448.1,426.1z M189.9,344.3c14,0,28,0,42,0c13.9,0,27.8,0,41.7,0c1.3,0,2.5,0,3.7,0.2
	c3.1,0.6,5.2,3.2,5.3,6.3c0.1,3.2-1.6,5.8-4.7,6.6c-1.5,0.4-3.1,0.5-4.7,0.5c-27.4,0-54.9,0-82.3,0h-1c-5.2-0.1-8.5-2.7-8.5-6.9
	C181.4,346.8,184.6,344.3,189.9,344.3z M176,377.9c1.6-0.5,3.4-0.5,5-0.5c44,0,88.1,0,132.1,0c6.3,0,9.5,2.3,9.6,6.7
	c0.1,4.6-3.1,6.9-9.6,6.9c-22.1,0-44.2,0-66.2,0c-22,0-43.9,0-65.9,0c-1.5,0-3,0-4.4-0.3c-2.9-0.5-5.3-3.4-5.2-6.3
	C171.5,381.3,173,378.8,176,377.9z M379.5,424c-1.1,0.2-2.3,0.2-3.4,0.2H166.9c-1,0-2.1,0-3.1-0.1c-4.1-0.5-6.6-3.3-6.5-7
	c0.1-3.7,2.8-6.3,6.9-6.5c1-0.1,2,0,3.1,0h208.2c1.1,0,2.3,0,3.4,0c3.9,0.3,6.5,2.9,6.7,6.5C385.7,420.6,383.3,423.4,379.5,424z
	 M388.4,350.4c-31.6-18.7-63.2-37.3-94.8-56c-3.8-2.3-7.6-4.6-11.5-6.7c-3.5-1.9-6.3-1.2-8.5,2.2c-1.6,2.6-3.1,5.3-4.9,8.3
	c39.8,23.5,79.2,46.8,118.8,70.2c1.4-2.4,2.6-4.4,3.8-6.4C394.9,356,394.4,354,388.4,350.4z M374.9,312.2
	c-16.9-9.8-33.7-19.8-50.5-29.8c-1-0.6-2-1-3.3-1.7c-2.1,3.5-4.1,6.9-6.3,10.4c19.1,11.3,37.9,22.4,56.8,33.6
	c1.6-2.7,2.9-5.2,4.5-7.5C377.8,314.8,377.3,313.6,374.9,312.2z"/>
</svg>
