<svg id="Capa_1" data-name="Capa 1" xmlns="http://www.w3.org/2000/svg" viewBox="0 0 66 64.13"><defs><style>.cls-1{fill:none;stroke:#185ba9;stroke-miterlimit:10;stroke-width:3px;}.cls-2{fill:#005bad;}</style></defs><title>traumatologia</title><g id="Capa_2" data-name="Capa 2"><g id="Capa_1-2" data-name="Capa 1-2"><path class="cls-1" d="M33.25,2.5A29.75,29.75,0,1,0,63,32.25,29.75,29.75,0,0,0,33.25,2.5Z"/></g></g><path class="cls-2" d="M32.38,3H38c.14,0,.19,0,.2.19,0,.63.08,1.25.15,1.87a37.08,37.08,0,0,0,1.25,6.17,36.67,36.67,0,0,0,3.85,8.91,4.63,4.63,0,0,0,.31.46A27,27,0,0,1,47.06,26a11.52,11.52,0,0,1,.79,2.41,5.25,5.25,0,0,1-.06,2.46,8.87,8.87,0,0,1-.71,1.92,3,3,0,0,1-2.62,1.64,11.28,11.28,0,0,1-2.78-.18,6,6,0,0,1-2.22-.9l-.77-.51A6.07,6.07,0,0,0,33.81,32a13.44,13.44,0,0,0-2.63.92c-1,.44-2,.94-3.05,1.33a10.1,10.1,0,0,1-2.15.6,4.65,4.65,0,0,1-4.28-1.46,5.28,5.28,0,0,1-1.47-3.94,9.44,9.44,0,0,1,1.1-4A15,15,0,0,1,22.16,24c1.23-1.82,2.55-3.58,3.88-5.32l.22-.3a5.1,5.1,0,0,0,1.09-3.12q0-2.28-.09-4.56c-.07-1-.13-2.08-.21-3.12C27,6.3,26.84,5,26.7,3.74l-.06-.58c0-.11,0-.16.13-.16h5.61Z"/><path class="cls-2" d="M35.65,61.3a12.85,12.85,0,0,0-2,.07,2,2,0,0,0-.52.17A4.64,4.64,0,0,1,31.1,62a1.84,1.84,0,0,1-.77-.17,1.16,1.16,0,0,1-.7-.94c-.23-1.82-.5-3.62-.8-5.42-.27-1.55-.55-3.1-1-4.62a12.57,12.57,0,0,0-1.77-3.78c-.34-.49-.68-1-1-1.47A14.45,14.45,0,0,1,23,40a5.44,5.44,0,0,1,0-1.8A1.4,1.4,0,0,1,24.15,37a3,3,0,0,1,1.15,0,2.92,2.92,0,0,0,3-1.07c.26-.34.49-.71.75-1.05a4.46,4.46,0,0,1,3.4-1.8,2.94,2.94,0,0,1,1.56.38c.71.38,1.4.8,2.09,1.23l2,1.27a6.42,6.42,0,0,0,2.51.83,17.5,17.5,0,0,0,2.29.15,1.93,1.93,0,0,1,1.85,1.22A3,3,0,0,1,45,39.58a8.55,8.55,0,0,1-1.08,3.76,45.36,45.36,0,0,0-3.47,7.36,10.1,10.1,0,0,0-.51,2.66c-.19,2.24-.26,4.49-.3,6.74a.75.75,0,0,1-.41.69,3.82,3.82,0,0,1-1.37.41A13.46,13.46,0,0,1,35.65,61.3Z"/><path class="cls-2" d="M23.88,61.51h-1.1c-.45,0-.38,0-.39-.37,0-1.21-.05-2.43-.08-3.64,0-1.51-.07-3-.11-4.53a.5.5,0,0,0-.15-.38,7,7,0,0,1-1.68-6.16,3.49,3.49,0,0,1,2.26-2.55c.34-.12.34-.12.37.24A8.35,8.35,0,0,0,24.37,48a8,8,0,0,0,1.15,1.39,4.21,4.21,0,0,0,1,.79c.11.06.18.11.18.26,0,.46,0,.93,0,1.4a.48.48,0,0,1-.09.26,4.62,4.62,0,0,0-.77,2.42c-.08,1.4-.19,2.81-.28,4.21l-.15,2.14a1.88,1.88,0,0,1,0,.34c0,.35,0,.29-.32.29Z"/></svg>