<svg xmlns="http://www.w3.org/2000/svg" viewBox="0 0 38 38"><defs><style>.cls-1{fill:#c1272d;}</style></defs><title>Recurso 120</title><g id="Capa_2" data-name="Capa 2"><g id="Capa_1-2" data-name="Capa 1"><path d="M17.5,29h-2a4.18,4.18,0,0,1-3.45-2.28C12,26.55,7,13.63,6,10.66a2.37,2.37,0,0,1,.2-2C7.4,6.7,11.25,6,11.42,6l1-.16.14,1-1,.14c-1,.17-3.72.88-4.49,2.16A1.38,1.38,0,0,0,7,10.34c1,3,5.94,15.84,6,16h0A3.21,3.21,0,0,0,15.5,28h2a2.66,2.66,0,0,0,1.65-.85c.69-.73,4.55-10.61,6.85-16.73A3.05,3.05,0,0,0,24.28,8a14.07,14.07,0,0,0-3.86-1.07l.15-1a14.8,14.8,0,0,1,4.15,1.16A4.06,4.06,0,0,1,27,10.5l0,.18c-1,2.68-6.09,16.15-7.12,17.17A3.56,3.56,0,0,1,17.5,29Z"/><path d="M16.53,24.44a2,2,0,0,1-1.38-.59L15,23.67l-4-11,.94-.34,4,10.88a.82.82,0,0,0,1.14,0l4-10.89.94.34L17.85,23.85A1.82,1.82,0,0,1,16.53,24.44Z"/><rect x="8.91" y="16.18" width="3.69" height="1" transform="translate(-4.92 4.5) rotate(-19.34)"/><rect x="21.7" y="14.86" width="1" height="3.61" transform="translate(-0.86 32.12) rotate(-70.72)"/><path d="M16.5,11A4.5,4.5,0,1,1,21,6.5,4.51,4.51,0,0,1,16.5,11Zm0-8A3.5,3.5,0,1,0,20,6.5,3.5,3.5,0,0,0,16.5,3Z"/><rect x="14.77" y="22" width="3.45" height="1"/><path d="M4.42,31.81a15.12,15.12,0,0,1,1.63-9.54L6.19,22h5.16v1H6.81a14,14,0,0,0-1.4,8.64Z"/><path d="M23.78,36H6.5V35H23.22c3.16-5.41.62-10.82,0-12h-1.8V22h2.37l.15.24c0,.07,4.11,6.84,0,13.52Z"/><path d="M5,32.07l-.3-.95A2.46,2.46,0,0,1,5.5,31h15v1H5.5A1.43,1.43,0,0,0,5,32.07Z"/><rect x="16.5" y="31.5" width="1" height="4"/><rect x="6.5" y="35" width="14" height="1"/><path d="M6.5,36H3V33.5a2.49,2.49,0,0,1,1.74-2.38l.3.95A1.49,1.49,0,0,0,4,33.5V35H6.5Z"/><path d="M30.5,35A5.5,5.5,0,1,1,36,29.5,5.51,5.51,0,0,1,30.5,35Zm0-10A4.5,4.5,0,1,0,35,29.5,4.51,4.51,0,0,0,30.5,25Z"/><polygon points="16.5 21.68 15.41 20.59 15.59 20.41 16.5 21.32 17.41 20.41 17.59 20.59 16.5 21.68"/><rect x="16.38" y="19.5" width="0.25" height="2"/><polygon points="17.41 26.59 16.5 25.68 15.59 26.59 15.41 26.41 16.5 25.32 17.59 26.41 17.41 26.59"/><line class="cls-1" x1="16.5" y1="27.5" x2="16.5" y2="25.5"/><rect x="16.38" y="25.5" width="0.25" height="2"/><rect x="14.5" y="23.5" width="4" height="1"/><path d="M19,38A19,19,0,1,1,38,19,19,19,0,0,1,19,38ZM19,2A17,17,0,1,0,31.82,7.83,17,17,0,0,0,19,2Z"/><rect x="0.94" y="18.5" width="36.12" height="2" transform="translate(-8.16 17.55) rotate(-41.64)"/></g></g></svg>