<svg xmlns="http://www.w3.org/2000/svg" viewBox="0 0 33 34"><defs><style>.cls-1{fill:#c1272d;}</style></defs><title>blue_code_1</title><g id="Capa_2" data-name="Capa 2"><g id="Capa_1-2" data-name="Capa 1"><path d="M14.5,27h-2a4.18,4.18,0,0,1-3.45-2.28C9,24.55,4,11.63,3,8.66a2.37,2.37,0,0,1,.2-2C4.4,4.7,8.25,4,8.42,4l1-.16.14,1L8.58,5c-1,.17-3.72.88-4.49,2.16A1.38,1.38,0,0,0,4,8.34c1,3,5.94,15.84,6,16h0A3.21,3.21,0,0,0,12.5,26h2a2.66,2.66,0,0,0,1.65-.85c.69-.73,4.55-10.61,6.85-16.73A3.05,3.05,0,0,0,21.28,6a14.07,14.07,0,0,0-3.86-1.07l.15-1a14.8,14.8,0,0,1,4.15,1.16A4.06,4.06,0,0,1,24,8.5l0,.18c-1,2.68-6.09,16.15-7.12,17.17A3.56,3.56,0,0,1,14.5,27Z"/><path d="M13.53,22.44a2,2,0,0,1-1.38-.59L12,21.67l-4-11L9,10.33l4,10.88a.82.82,0,0,0,1.14,0l4-10.89.94.34L14.85,21.85A1.82,1.82,0,0,1,13.53,22.44Z"/><rect x="5.91" y="14.18" width="3.69" height="1" transform="translate(-4.42 3.4) rotate(-19.34)"/><rect x="18.7" y="12.86" width="1" height="3.61" transform="translate(-0.98 27.95) rotate(-70.72)"/><path d="M13.5,9A4.5,4.5,0,1,1,18,4.5,4.51,4.51,0,0,1,13.5,9Zm0-8A3.5,3.5,0,1,0,17,4.5,3.5,3.5,0,0,0,13.5,1Z"/><rect x="11.77" y="20" width="3.45" height="1"/><path d="M1.42,29.81a15.12,15.12,0,0,1,1.63-9.54L3.19,20H8.35v1H3.81a14,14,0,0,0-1.4,8.64Z"/><path d="M20.78,34H3.5V33H20.22c3.16-5.41.62-10.82,0-12h-1.8V20h2.37l.15.24c0,.07,4.11,6.84,0,13.52Z"/><path d="M2,30.07l-.3-.95A2.46,2.46,0,0,1,2.5,29h15v1H2.5A1.43,1.43,0,0,0,2,30.07Z"/><rect x="13.5" y="29.5" width="1" height="4"/><rect x="3.5" y="33" width="14" height="1"/><path d="M3.5,34H0V31.5a2.49,2.49,0,0,1,1.74-2.38l.3.95A1.49,1.49,0,0,0,1,31.5V33H3.5Z"/><path d="M27.5,33A5.5,5.5,0,1,1,33,27.5,5.51,5.51,0,0,1,27.5,33Zm0-10A4.5,4.5,0,1,0,32,27.5,4.51,4.51,0,0,0,27.5,23Z"/><polygon points="13.5 19.68 12.41 18.59 12.59 18.41 13.5 19.32 14.41 18.41 14.59 18.59 13.5 19.68"/><rect x="13.38" y="17.5" width="0.25" height="2"/><polygon points="14.41 24.59 13.5 23.68 12.59 24.59 12.41 24.41 13.5 23.32 14.59 24.41 14.41 24.59"/><line class="cls-1" x1="13.5" y1="25.5" x2="13.5" y2="23.5"/><rect x="13.38" y="23.5" width="0.25" height="2"/><rect x="11.5" y="21.5" width="4" height="1"/></g></g></svg>