<svg xmlns="http://www.w3.org/2000/svg" viewBox="0 0 25.24 36.36"><title>doc_1</title><g id="Capa_2" data-name="Capa 2"><g id="Capa_1-2" data-name="Capa 1"><path d="M12.51,15.1a7.55,7.55,0,1,1,7.55-7.55A7.55,7.55,0,0,1,12.51,15.1Zm0-14.1a6.55,6.55,0,1,0,6.55,6.55A6.55,6.55,0,0,0,12.51,1Z"/><path d="M1,36.36H0v-12a4.68,4.68,0,0,1,.22-1.52A4.43,4.43,0,0,1,1.41,21,13.3,13.3,0,0,1,5.9,18.27a18.5,18.5,0,0,1,4-1A22.94,22.94,0,0,1,13.12,17a16.05,16.05,0,0,1,7.38,1.62A13.1,13.1,0,0,1,23.85,21a4.56,4.56,0,0,1,1.39,3.33V36.17h-1V24.36a3.53,3.53,0,0,0-1.1-2.63,11.73,11.73,0,0,0-3.09-2.21A15,15,0,0,0,13.19,18h-.06a20.9,20.9,0,0,0-3.09.24,17.38,17.38,0,0,0-3.79,1A12.39,12.39,0,0,0,2.1,21.74a3.35,3.35,0,0,0-.93,1.39A3.81,3.81,0,0,0,1,24.33Z"/><polygon points="12.6 24.66 5.66 18.8 6.3 18.04 12.59 23.34 18.41 18.21 19.07 18.96 12.6 24.66"/><rect x="5.66" y="18.74" width="1" height="6.26" transform="translate(-0.58 0.17) rotate(-1.52)"/><rect x="18.71" y="18.58" width="1" height="6.42" transform="translate(-0.19 0.17) rotate(-0.49)"/><path d="M6.24,29.5A2.5,2.5,0,1,1,8.74,27,2.5,2.5,0,0,1,6.24,29.5Zm0-4A1.5,1.5,0,1,0,7.74,27,1.5,1.5,0,0,0,6.24,25.5Z"/><path d="M21.74,29a.5.5,0,0,1-.5-.5c0-1.9-.92-3.5-2-3.5s-2,1.6-2,3.5a.5.5,0,0,1-1,0c0-2.52,1.32-4.5,3-4.5s3,2,3,4.5A.5.5,0,0,1,21.74,29Z"/></g></g></svg>