<svg xmlns="http://www.w3.org/2000/svg" viewBox="0 0 34.77 36"><title>edit_pac</title><g id="Capa_2" data-name="Capa 2"><g id="Capa_1-2" data-name="Capa 1"><path d="M8.1,6.51a2.76,2.76,0,1,1,2.75-2.75A2.76,2.76,0,0,1,8.1,6.51ZM8.1,2A1.76,1.76,0,1,0,9.85,3.76,1.76,1.76,0,0,0,8.1,2Z"/><path d="M5,13.36H4V9.77a2,2,0,0,1,.08-.57,1.76,1.76,0,0,1,.45-.68A4.37,4.37,0,0,1,6,7.63a5.54,5.54,0,0,1,1.26-.32,10.05,10.05,0,0,1,1-.08,5.13,5.13,0,0,1,2.34.52,4.32,4.32,0,0,1,1.09.78,1.72,1.72,0,0,1,.52,1.24V13.3h-1V9.77A.68.68,0,0,0,11,9.24a3,3,0,0,0-.83-.6,4.28,4.28,0,0,0-1.91-.41,6.7,6.7,0,0,0-.87.06,5.48,5.48,0,0,0-1.06.27,3.37,3.37,0,0,0-1.12.69A.59.59,0,0,0,5,9.52a.81.81,0,0,0,0,.25Z"/><path d="M25.75,36H1.5A1.5,1.5,0,0,1,0,34.5V1.5A1.5,1.5,0,0,1,1.5,0H18l6,6-.71.71L17.54,1H1.5a.5.5,0,0,0-.5.5v33a.5.5,0,0,0,.5.5H25.75a.5.5,0,0,0,.5-.5V11h1V34.5A1.5,1.5,0,0,1,25.75,36Z"/><polygon points="19.38 9.75 17.5 9.75 17.5 0.5 18.5 0.5 18.5 8.75 19.38 8.75 19.38 9.75"/><rect x="4.88" y="17.5" width="7.13" height="1"/><rect x="4.88" y="21.88" width="17.5" height="1"/><rect x="4.88" y="26.25" width="17.5" height="1"/><rect x="4.88" y="30.63" width="17.5" height="1"/><path d="M17.39,16.65l-2.66-4.23L29.11,3.35l2.66,4.23Zm-1.28-3.92,1.6,2.54,12.68-8-1.6-2.54Z"/><path d="M32.09,7.27,29.42,3l2.69-1.69,2.66,4.23ZM30.8,3.35l1.6,2.54,1-.62-1.6-2.54Z"/><path d="M15.12,18.08l-3.53-.8.76-3.36,2-1.27L17,16.88Zm-2.33-1.55,2.15.48.71-.44L14.05,14l-.81.51Z"/></g></g></svg>