<svg xmlns="http://www.w3.org/2000/svg" viewBox="0 0 34.77 36"><title>edit_use</title><g id="Capa_2" data-name="Capa 2"><g id="Capa_1-2" data-name="Capa 1"><path d="M25.75,36H1.5A1.5,1.5,0,0,1,0,34.5V1.5A1.5,1.5,0,0,1,1.5,0H18l6,6-.71.71L17.54,1H1.5a.5.5,0,0,0-.5.5v33a.5.5,0,0,0,.5.5H25.75a.5.5,0,0,0,.5-.5V11h1V34.5A1.5,1.5,0,0,1,25.75,36Z"/><polygon points="19.38 9.75 17.5 9.75 17.5 0.5 18.5 0.5 18.5 8.75 19.38 8.75 19.38 9.75"/><rect x="4.88" y="17.5" width="7.13" height="1"/><rect x="4.88" y="21.88" width="17.5" height="1"/><rect x="4.88" y="26.25" width="17.5" height="1"/><rect x="4.88" y="30.63" width="17.5" height="1"/><path d="M17.39,16.65l-2.66-4.23L29.11,3.35l2.66,4.23Zm-1.28-3.92,1.6,2.54,12.68-8-1.6-2.54Z"/><path d="M32.09,7.27,29.42,3l2.69-1.69,2.66,4.23ZM30.8,3.35l1.6,2.54,1-.62-1.6-2.54Z"/><path d="M15.12,18.08l-3.53-.8.76-3.36,2-1.27L17,16.88Zm-2.33-1.55,2.15.48.71-.44L14.05,14l-.81.51Z"/><rect x="6.25" y="4" width="2" height="8"/><rect x="3.25" y="7" width="8" height="2"/></g></g></svg>