<svg xmlns="http://www.w3.org/2000/svg" viewBox="0 0 37.44 36.46"><title>lab_1</title><g id="Capa_2" data-name="Capa 2"><g id="Capa_1-2" data-name="Capa 1"><rect x="6.13" y="6.16" width="3.92" height="1"/><rect x="6.13" y="9.7" width="3.92" height="1"/><rect x="6.13" y="13.25" width="3.92" height="1"/><path d="M16.56,36.43H6.42a6.41,6.41,0,0,1-6-8.64L5.63,13.66V1.06H17.05V8.84h-1V2.06H6.63l0,11.87L1.35,28.14a5.32,5.32,0,0,0,.63,5,5.37,5.37,0,0,0,4.44,2.32H16.56Z"/><path d="M34.71,36.46H17.15a2.74,2.74,0,0,1-2.74-2.73V11a2.74,2.74,0,0,1,2.74-2.73h4.67v1H17.15A1.74,1.74,0,0,0,15.41,11V33.73a1.74,1.74,0,0,0,1.74,1.73H34.71a1.74,1.74,0,0,0,1.73-1.73V11a1.74,1.74,0,0,0-1.73-1.73H30v-1h4.75A2.74,2.74,0,0,1,37.44,11V33.73A2.73,2.73,0,0,1,34.71,36.46Z"/><rect x="19.42" y="18.46" width="12.93" height="1"/><rect x="19.42" y="22.81" width="12.93" height="1"/><rect x="19.42" y="27.16" width="12.93" height="1"/><path d="M17.35,2.81H5.12a.46.46,0,0,1-.47-.46V.46A.47.47,0,0,1,5.12,0H17.35a.47.47,0,0,1,.47.46V2.35A.47.47,0,0,1,17.35,2.81Z"/><path d="M25.89,13.4a4.57,4.57,0,1,1,4.57-4.56A4.57,4.57,0,0,1,25.89,13.4Zm0-8.13a3.57,3.57,0,1,0,3.57,3.57A3.57,3.57,0,0,0,25.89,5.27Z"/><rect x="25.31" y="6.95" width="1.22" height="3.73"/><rect x="24.06" y="8.19" width="3.73" height="1.22"/><rect x="2.94" y="21.87" width="11.84" height="1"/></g></g></svg>