<svg xmlns="http://www.w3.org/2000/svg" viewBox="0 0 25.24 36.36"><title>pac_1</title><g id="Capa_2" data-name="Capa 2"><g id="Capa_1-2" data-name="Capa 1"><path d="M12.51,15.1a7.55,7.55,0,1,1,7.55-7.55A7.55,7.55,0,0,1,12.51,15.1Zm0-14.1a6.55,6.55,0,1,0,6.55,6.55A6.55,6.55,0,0,0,12.51,1Z"/><path d="M1,36.36H0v-12a4.68,4.68,0,0,1,.22-1.52A4.43,4.43,0,0,1,1.41,21,13.3,13.3,0,0,1,5.9,18.27a18.5,18.5,0,0,1,4-1A22.94,22.94,0,0,1,13.12,17a16.08,16.08,0,0,1,7.38,1.62A13.1,13.1,0,0,1,23.85,21a4.56,4.56,0,0,1,1.39,3.33V36.17h-1V24.36a3.53,3.53,0,0,0-1.1-2.63,11.73,11.73,0,0,0-3.09-2.21A15,15,0,0,0,13.13,18a20.9,20.9,0,0,0-3.09.24,17.38,17.38,0,0,0-3.79,1A12.39,12.39,0,0,0,2.1,21.74a3.35,3.35,0,0,0-.93,1.39A3.81,3.81,0,0,0,1,24.33Z"/></g></g></svg>