<svg xmlns="http://www.w3.org/2000/svg" viewBox="0 0 30.42 36.5"><title>que</title><g id="Capa_2" data-name="Capa 2"><g id="Capa_1-2" data-name="Capa 1"><rect x="23.5" y="29.81" width="1" height="6.69"/><path d="M1,36.5H0V24.14a4,4,0,0,1,1.17-2.86c1.38-1.4,4.6-3.79,10.69-4.09a16.67,16.67,0,0,1,6.09.75l-.31.95a15.63,15.63,0,0,0-5.73-.7c-5.75.28-8.75,2.5-10,3.79A3,3,0,0,0,1,24.14Z"/><path d="M12.27,15.1a7.55,7.55,0,1,1,7.55-7.55A7.56,7.56,0,0,1,12.27,15.1Zm0-14.1a6.55,6.55,0,1,0,6.55,6.55A6.56,6.56,0,0,0,12.27,1Z"/><rect x="5.82" y="18.5" width="1" height="6.18"/><path d="M6.37,29.3a2.8,2.8,0,1,1,2.79-2.8A2.81,2.81,0,0,1,6.37,29.3Zm0-4.59A1.8,1.8,0,1,0,8.16,26.5,1.8,1.8,0,0,0,6.37,24.71Z"/><polygon points="12.19 23.5 8.12 18.62 8.88 17.98 12.13 21.87 15.15 17.68 15.96 18.27 12.19 23.5"/><path d="M29.19,30.31H18.77a1.22,1.22,0,0,1-1.22-1.22V16.33a1.22,1.22,0,0,1,1.22-1.22h2.35v1H18.77a.22.22,0,0,0-.22.22V29.09a.22.22,0,0,0,.22.22H29.19a.23.23,0,0,0,.23-.22V16.33a.23.23,0,0,0-.23-.22H26.85v-1h2.34a1.23,1.23,0,0,1,1.23,1.22V29.09A1.23,1.23,0,0,1,29.19,30.31Z"/><rect x="20.66" y="19.92" width="6.69" height="1"/><rect x="20.61" y="22.58" width="6.74" height="1"/><rect x="20.66" y="25.23" width="6.69" height="1"/><path d="M27.35,17.34H20.62V13.69h6.73Zm-5.73-1h4.73V14.69H21.62Z"/></g></g></svg>