<svg xmlns="http://www.w3.org/2000/svg" viewBox="0 0 29.9 36.44"><title>rec_1</title><g id="Capa_2" data-name="Capa 2"><g id="Capa_1-2" data-name="Capa 1"><path d="M10,30.73H3.46A2.5,2.5,0,0,1,1,28.24v-25H12.46v8.44h-1V4.19H2v24a1.49,1.49,0,0,0,1.49,1.49H10Z"/><path d="M12.3,5.67H1.05a1,1,0,0,1-1-1V1.05A1,1,0,0,1,1.05,0H12.3a1,1,0,0,1,1,1.05V4.62A1,1,0,0,1,12.3,5.67Z"/><rect x="5.03" y="11.95" width="3.04" height="6.64"/><rect x="3.24" y="13.74" width="6.64" height="3.04"/><path d="M27.4,36.44H11.73A2.48,2.48,0,0,1,9.24,34V13.63a2.49,2.49,0,0,1,2.49-2.5H27.41a2.5,2.5,0,0,1,2.49,2.5V34A2.49,2.49,0,0,1,27.4,36.44ZM11.73,12.13a1.5,1.5,0,0,0-1.49,1.5V34a1.49,1.49,0,0,0,1.49,1.49H27.4A1.49,1.49,0,0,0,28.9,34V13.63a1.5,1.5,0,0,0-1.49-1.5Z"/><rect x="13.79" y="19.63" width="11.55" height="1"/><rect x="13.79" y="23.51" width="11.55" height="1"/><rect x="13.79" y="27.4" width="11.55" height="1"/></g></g></svg>