<svg xmlns="http://www.w3.org/2000/svg" viewBox="0 0 36 35"><title>ste_1</title><g id="Capa_2" data-name="Capa 2"><g id="Capa_1-2" data-name="Capa 1"><path d="M32.5,28H3.5A3.5,3.5,0,0,1,0,24.5V3.5A3.5,3.5,0,0,1,3.5,0h29A3.5,3.5,0,0,1,36,3.5v21A3.5,3.5,0,0,1,32.5,28ZM3.5,1A2.5,2.5,0,0,0,1,3.5v21A2.5,2.5,0,0,0,3.5,27h29A2.5,2.5,0,0,0,35,24.5V3.5A2.5,2.5,0,0,0,32.5,1Z"/><path d="M32.5,26H3.5A1.5,1.5,0,0,1,2,24.5V20H34v4.5A1.5,1.5,0,0,1,32.5,26ZM3,21v3.5a.5.5,0,0,0,.5.5h29a.5.5,0,0,0,.5-.5V21Z"/><path d="M34,19H2V3.5A1.5,1.5,0,0,1,3.5,2h29A1.5,1.5,0,0,1,34,3.5ZM3,18H33V3.5a.5.5,0,0,0-.5-.5H3.5a.5.5,0,0,0-.5.5Z"/><path d="M25,35H11V27H25ZM12,34H24V28H12Z"/><rect x="8.5" y="34" width="19" height="1"/><path d="M32,14H17V4H32ZM18,13H31V5H18Z"/><path d="M9.34,10.26a3.38,3.38,0,1,1,3.38-3.38A3.38,3.38,0,0,1,9.34,10.26Zm0-5.76a2.38,2.38,0,1,0,2.38,2.38A2.38,2.38,0,0,0,9.34,4.5Z"/><path d="M5.26,18.86h-1V14.27a2,2,0,0,1,.1-.67,1.9,1.9,0,0,1,.54-.82,5.47,5.47,0,0,1,1.81-1.11,7.55,7.55,0,0,1,1.59-.4,8,8,0,0,1,1.3-.1,6.33,6.33,0,0,1,2.92.65,5.59,5.59,0,0,1,1.36,1,2.06,2.06,0,0,1,.62,1.49v4.51h-1V14.28a1.07,1.07,0,0,0-.33-.78,4.23,4.23,0,0,0-1.1-.79,5.35,5.35,0,0,0-2.5-.54,7.57,7.57,0,0,0-1.13.09,6.48,6.48,0,0,0-1.38.35,4.38,4.38,0,0,0-1.48.9,1.09,1.09,0,0,0-.27.4,1.27,1.27,0,0,0,0,.37Z"/><path d="M18,24.5A1.5,1.5,0,1,1,19.5,23,1.5,1.5,0,0,1,18,24.5Zm0-2a.5.5,0,1,0,.5.5A.5.5,0,0,0,18,22.5Z"/><path d="M26.5,12.79H23a1.12,1.12,0,0,1-1.12-1.12V6.5A1.12,1.12,0,0,1,23,5.38h2.55l2.08,2.07v4.22A1.13,1.13,0,0,1,26.5,12.79ZM23,5.63a.87.87,0,0,0-.87.87v5.17a.87.87,0,0,0,.87.87h3.5a.88.88,0,0,0,.88-.87V7.55L25.45,5.63Z"/><rect x="22.83" y="9.38" width="3.33" height="0.25"/><rect x="22.83" y="8.38" width="3.33" height="0.25"/><rect x="22.83" y="10.21" width="3.33" height="0.25"/><rect x="22.83" y="11.04" width="3.33" height="0.25"/><polygon points="27.5 8.13 25.17 8.13 25.17 5.5 25.42 5.5 25.42 7.88 27.5 7.88 27.5 8.13"/></g></g></svg>