<svg xmlns="http://www.w3.org/2000/svg" viewBox="0 0 36 35"><title>svc</title><g id="Capa_2" data-name="Capa 2"><g id="Capa_1-2" data-name="Capa 1"><path d="M32.5,28H3.5A3.5,3.5,0,0,1,0,24.5V3.5A3.5,3.5,0,0,1,3.5,0h29A3.5,3.5,0,0,1,36,3.5v21A3.5,3.5,0,0,1,32.5,28ZM3.5,1A2.5,2.5,0,0,0,1,3.5v21A2.5,2.5,0,0,0,3.5,27h29A2.5,2.5,0,0,0,35,24.5V3.5A2.5,2.5,0,0,0,32.5,1Z"/><path d="M32.5,26H3.5A1.5,1.5,0,0,1,2,24.5V20H34v4.5A1.5,1.5,0,0,1,32.5,26ZM3,21v3.5a.5.5,0,0,0,.5.5h29a.5.5,0,0,0,.5-.5V21Z"/><path d="M34,19H2V3.5A1.5,1.5,0,0,1,3.5,2h29A1.5,1.5,0,0,1,34,3.5ZM3,18H33V3.5a.5.5,0,0,0-.5-.5H3.5a.5.5,0,0,0-.5.5Z"/><path d="M25,35H11V27H25ZM12,34H24V28H12Z"/><rect x="8.5" y="34" width="19" height="1"/><path d="M27.85,8.35a1.24,1.24,0,1,1,1.23-1.24A1.24,1.24,0,0,1,27.85,8.35Zm0-2.22a1,1,0,1,0,1,1A1,1,0,0,0,27.85,6.13Z"/><path d="M26,12h-.25V10a.73.73,0,0,1,0-.27A.75.75,0,0,1,26,9.37a2.29,2.29,0,0,1,.77-.48,2.82,2.82,0,0,1,.68-.17A5.35,5.35,0,0,1,28,8.67,2.88,2.88,0,0,1,29.22,9a2,2,0,0,1,.57.42A.78.78,0,0,1,30,10v2h-.25V10a.61.61,0,0,0-.17-.42,2.18,2.18,0,0,0-.52-.36A2.41,2.41,0,0,0,28,8.92a3.26,3.26,0,0,0-.52.05,2.42,2.42,0,0,0-.63.16,1.91,1.91,0,0,0-.69.42.44.44,0,0,0-.14.22A.5.5,0,0,0,26,10Z"/><polygon points="27.87 10.07 26.68 9.05 26.84 8.86 27.87 9.74 28.82 8.89 28.99 9.08 27.87 10.07"/><polygon points="26.68 10.08 26.65 9.01 26.9 9.01 26.93 10.07 26.68 10.08"/><rect x="28.86" y="8.98" width="0.25" height="1.09" transform="translate(-0.08 0.25) rotate(-0.49)"/><path d="M26.8,10.88a.47.47,0,1,1,.46-.47A.47.47,0,0,1,26.8,10.88Zm0-.68a.21.21,0,0,0-.21.21.21.21,0,1,0,.42,0A.21.21,0,0,0,26.8,10.2Z"/><path d="M29.53,10.67h-.25c0-.33-.15-.56-.29-.56s-.3.23-.3.56h-.25c0-.45.24-.81.55-.81S29.53,10.22,29.53,10.67Z"/><path d="M21.79,9.48H19.92a1,1,0,0,1-1-1V6.92a1,1,0,0,1,1-1h1.87a1,1,0,0,1,1,1V8.44A1,1,0,0,1,21.79,9.48ZM19.92,6.13a.79.79,0,0,0-.79.79V8.44a.79.79,0,0,0,.79.79h1.87a.79.79,0,0,0,.79-.79V6.92a.79.79,0,0,0-.79-.79Z"/><path d="M24.89,9.13,22.58,8.2v-1l2.31-.93ZM22.83,8l1.81.73V6.64l-1.81.73Z"/><path d="M32,14H17V4H32ZM18,13H31V5H18Z"/><path d="M9.34,10.26a3.38,3.38,0,1,1,3.38-3.38A3.38,3.38,0,0,1,9.34,10.26Zm0-5.76a2.38,2.38,0,1,0,2.38,2.38A2.38,2.38,0,0,0,9.34,4.5Z"/><path d="M5.26,18.86h-1V14.27a2,2,0,0,1,.1-.67,1.9,1.9,0,0,1,.54-.82,5.47,5.47,0,0,1,1.81-1.11,7.55,7.55,0,0,1,1.59-.4,8.13,8.13,0,0,1,1.3-.1,6.33,6.33,0,0,1,2.92.65,5.59,5.59,0,0,1,1.36,1,2.06,2.06,0,0,1,.62,1.49v4.51h-1V14.28a1.07,1.07,0,0,0-.33-.78,4.23,4.23,0,0,0-1.1-.79,5.38,5.38,0,0,0-2.5-.54,7.57,7.57,0,0,0-1.13.09,6.48,6.48,0,0,0-1.38.35,4.38,4.38,0,0,0-1.48.9,1.09,1.09,0,0,0-.27.4,1.27,1.27,0,0,0,0,.37Z"/><path d="M18,24.5A1.5,1.5,0,1,1,19.5,23,1.5,1.5,0,0,1,18,24.5Zm0-2a.5.5,0,1,0,.5.5A.5.5,0,0,0,18,22.5Z"/></g></g></svg>