<?xml version="1.0" encoding="utf-8"?>
<!-- Generator: Adobe Illustrator 23.0.0, SVG Export Plug-In . SVG Version: 6.00 Build 0)  -->
<svg version="1.1" id="Capa_1" xmlns="http://www.w3.org/2000/svg" xmlns:xlink="http://www.w3.org/1999/xlink" x="0px" y="0px"
	 viewBox="0 0 80 79" style="enable-background:new 0 0 80 79;" xml:space="preserve">
<style type="text/css">
	.st0{fill:#FFFFFF;}
</style>
<path class="st0" d="M36.3,63.5L36.3,63.5c-1.4-0.5-2.1-1.5-2-2.9c0-0.7,0-1.5,0-2.2c0-0.4,0-0.8,0-1.2c-1-0.4-1.9-0.7-2.8-1.1
	l-0.7-0.3l-0.8,0.8c-0.6,0.6-1.2,1.2-1.8,1.8c-0.5,0.5-1.1,0.8-1.8,0.8c-0.6,0-1.3-0.3-1.7-0.7c-1.6-1.6-3.1-3.1-4.6-4.6
	c-1-1-1-2.5,0-3.5c0.9-0.9,1.8-1.9,2.8-2.8c-0.4-1-0.9-2.2-1.4-3.5c-0.7,0-1.3,0-1.9,0c-0.6,0-1.3,0-1.9,0c-1.6,0-2.6-1-2.6-2.6
	c0-2.1,0-4.1,0-6.2c0-1.6,1-2.6,2.7-2.6l2,0c0.6,0,1.3,0,1.9,0c0.3-0.9,0.7-1.8,1.1-2.7l0.3-0.7l-0.5-0.5c-0.7-0.7-1.5-1.5-2.2-2.2
	c-1.2-1.2-1.2-2.6,0-3.8c1.4-1.4,2.9-2.9,4.3-4.3c0.6-0.6,1.2-0.8,1.9-0.8c0.7,0,1.3,0.3,1.9,0.9l0.1,0.1c1,1,1.9,1.9,2.9,2.9
	c0.8-0.4,1.7-0.7,2.6-1.1l0.6-0.3v-4c0-1.8,1-2.8,2.8-2.8l6,0c1.7,0,2.7,1,2.7,2.7l0,0.5c0,1.3,0,2.5,0,3.8c0,0,0,0,0,0
	c0.8,0.3,1.7,0.6,2.6,1l0.6,0.3l0.5-0.5c0.7-0.7,1.5-1.5,2.3-2.3c0.5-0.5,0.9-0.7,1.3-0.9c0.3-0.1,0.5-0.1,0.8-0.1
	c0.6,0,1.2,0.2,1.7,0.7l0.4,0.4c1.4,1.4,2.8,2.8,4.2,4.3c1,1,1,2.5-0.1,3.5c-1,1.1-2.1,2.1-3,3c0.5,1.1,0.9,2.1,1.3,3.1
	c0,0,0,0,0,0.1c0.3,0,0.5,0,0.8,0c0.3,0,1.7,0,1.7,0c0.4,0,0.9,0,1.3,0c0.1,0,0.1,0,0.2,0c1.4,0,2.3,0.6,2.7,1.9l0,0.1v7.5l0,0.1
	c-0.4,1.3-1.3,1.9-2.7,1.9c-0.1,0-0.1,0-0.2,0c-0.4,0-0.8,0-1.2,0c-0.3,0-1.3,0-1.6,0c-0.3,0-0.6,0-0.8,0c0,0-0.1,0-0.1,0
	c0,0,0,0.1,0,0.1c-0.3,1-0.8,2-1.3,3.3c0,0,0,0,0,0c0.9,0.8,1.7,1.7,2.8,2.8c1.1,1.1,1.1,2.5,0,3.6c-1.5,1.5-3,3-4.5,4.5
	c-0.5,0.5-1.1,0.8-1.8,0.8c-0.7,0-1.3-0.3-1.8-0.8c-0.6-0.6-1.1-1.1-1.7-1.7l-0.9-0.9l-0.7,0.3c-1,0.4-1.9,0.8-2.8,1.1
	c0,0.4,0,0.8,0,1.1c0,0.8,0,1.5,0,2.3c0.1,1.5-0.6,2.4-1.9,2.9l-0.1,0H36.3z M30.8,52.5c1.7,1.2,3.7,1.9,5.8,2.4l0.5,0.1l0,2
	c0,1.3,0,2.5,0,3.7c0.9,0,1.8,0,2.7,0l3.1,0c0,0,0-1.1,0-1.1c0-1.2,0-2.5,0-3.7c0-0.2,0-1,0.9-1.2c1.8-0.4,3.5-1.1,5-2.1
	c0.2-0.2,0.5-0.2,0.7-0.2c0.4,0,0.7,0.3,0.8,0.4c0.9,0.9,1.7,1.8,2.6,2.6c0,0,0.8,0.8,0.8,0.8c0,0,1.1-1.1,1.1-1.1
	c0.9-0.9,1.7-1.7,2.6-2.6c0.1-0.1,0.2-0.2,0.3-0.3c0,0,0.1-0.1,0.1-0.1c0,0-0.1-0.1-0.1-0.1c-0.1-0.1-0.2-0.2-0.4-0.4
	c-0.8-0.8-1.5-1.5-2.3-2.3L53.7,48l0.3-0.4c1.1-1.8,1.8-3.6,2.3-5.7l0.1-0.5h6c0,0,0-5.8,0-5.8c0,0-6,0-6,0l-0.2-0.6
	c0-0.1-0.1-0.2-0.1-0.3c-0.5-1.7-1.1-3.3-2-4.7c-0.3-0.5-0.3-1.1,0.2-1.5c0.7-0.7,1.4-1.4,2.1-2c0.5-0.5,1.1-1.1,1.6-1.6
	c-1.4-1.4-2.8-2.8-4.1-4.1c-0.2,0.3-0.5,0.5-0.8,0.8l-0.4,0.4l-3.2,3.2l-0.5-0.2c-0.1,0-0.1-0.1-0.2-0.1c-1.6-1-3.2-1.6-4.9-2
	c-0.6-0.1-0.9-0.5-0.9-1.1c0-0.8,0-1.7,0-2.5c0-0.9,0-1.9,0-2.8c-1,0-2,0-2.9,0c-1,0-2,0-2.9,0c0,0.9,0,1.8,0,2.7c0,0.9,0,1.7,0,2.6
	c0,0.6-0.3,1-0.9,1.2c-1.7,0.4-3.3,1-4.7,1.9c-0.1,0.1-0.4,0.2-0.7,0.2c-0.4,0-0.7-0.2-0.8-0.4c-0.7-0.7-1.4-1.4-2-2
	c-0.5-0.5-1.1-1.1-1.6-1.6c-1.5,1.5-2.9,2.9-4.1,4.1c0.3,0.3,0.6,0.6,0.9,0.9l0.4,0.4l2.9,2.9l-0.3,0.5c0,0.1-0.1,0.1-0.1,0.2
	c-1,1.6-1.8,3.3-2.2,5c-0.1,0.5-0.5,0.8-1.1,0.8h-2.8c-0.7,0-1.5,0-2.2,0c0,1.4,0,2.8,0,4.2l0,1.7l2.5,0c0.8,0,1.6,0,2.3,0
	c0,0,0,0,0,0c0.6,0,1,0.3,1.2,0.9c0.4,1.7,1,3.3,1.8,4.7l0.7,1.2l-0.4,0.3c-0.1,0-0.1,0.1-0.2,0.1c-0.1,0.1-0.1,0.1-0.2,0.2
	c-0.5,0.5-2.7,2.7-3.3,3.3c1.4,1.4,2.8,2.8,4.1,4.1c0.5-0.5,0.9-0.9,1.4-1.4l0.8-0.8l1.9-1.9L30.8,52.5z"/>
<path class="st0" d="M36.4,62.9c-1.1-0.4-1.5-1.1-1.5-2.3c0.1-1.2,0-2.3,0-3.5c0-0.2,0-0.4-0.3-0.5c-1.3-0.5-2.6-1-4-1.6
	c0,0-0.2,0.1-0.3,0.3c-0.9,0.9-1.7,1.8-2.6,2.6c-0.8,0.8-1.9,0.8-2.7,0c-1.5-1.5-3.1-3.1-4.6-4.6c-0.8-0.8-0.7-1.8,0-2.6
	c0.9-0.9,1.9-1.9,2.8-2.8c0.2-0.2,0.2-0.4,0.1-0.6c-0.5-1.2-1-2.3-1.4-3.5c-0.1-0.3-0.2-0.4-0.5-0.4c-1.3,0-2.6,0-3.9,0
	c-1.3,0-2-0.7-2-2c0-2.1,0-4.1,0-6.2c0-1.3,0.7-2,2-2c1.3,0,2.6,0,4,0c0.3,0,0.5-0.1,0.6-0.4c0.5-1.2,1-2.4,1.5-3.7c-1-1-2-2-3.1-3
	c-1-1-1-2,0-2.9c1.4-1.4,2.9-2.9,4.3-4.3c0.9-0.9,2-0.9,2.9,0c1,1,2,2,3,3c0.2,0.2,0.4,0.2,0.6,0.1c1.2-0.5,2.3-1,3.6-1.5
	c0-1.4,0-2.9,0-4.4c0-1.5,0.7-2.2,2.2-2.2c2,0,4,0,6,0c1.3,0,2,0.7,2,2c0,1.4,0,2.8,0,4.2c0,0.3,0.1,0.5,0.4,0.6
	c1.2,0.4,2.3,0.9,3.6,1.4c1-1,2-2,3-3.1c0.3-0.3,0.7-0.6,1.1-0.7c0.7-0.2,1.3-0.1,1.8,0.4c1.5,1.5,3.1,3.1,4.6,4.6
	c0.8,0.8,0.7,1.8-0.1,2.6c-1,1-2,2-3,3c-0.2,0.2-0.3,0.4-0.1,0.7c0.5,1,0.9,2.1,1.3,3.1c0.1,0.3,0.3,0.5,0.6,0.5c1.3,0,2.6,0,3.8,0
	c1.1,0,1.9,0.4,2.3,1.5c0,2.4,0,4.8,0,7.3c-0.4,1.1-1.1,1.5-2.3,1.5c-1.2-0.1-2.4,0-3.6,0c-0.4,0-0.6,0.1-0.7,0.5
	c-0.4,1.1-0.8,2.2-1.3,3.2c-0.1,0.3-0.1,0.5,0.1,0.7c1,0.9,1.9,1.9,2.8,2.8c0.8,0.8,0.8,1.9,0,2.7c-1.5,1.5-3,3-4.5,4.5
	c-0.8,0.8-1.9,0.8-2.7,0c-0.9-0.9-1.8-1.8-2.7-2.7c-0.1-0.1-0.2-0.2-0.2-0.2c-1.4,0.6-2.7,1.1-4,1.6c-0.3,0.1-0.3,0.2-0.3,0.5
	c0,1.2,0,2.4,0,3.5c0,1.1-0.4,1.9-1.5,2.3C41.2,62.9,38.8,62.9,36.4,62.9z M49.2,24.2c-0.1-0.1-0.2-0.1-0.2-0.1
	c-1.6-1-3.3-1.7-5-2.1c-0.3-0.1-0.4-0.2-0.4-0.5c0-1.8,0-3.6,0-5.4c0-0.5-0.1-0.6-0.6-0.6c-2,0-4,0-5.9,0c-0.5,0-0.6,0.2-0.6,0.6
	c0,1.8,0,3.5,0,5.3c0,0.3-0.1,0.5-0.4,0.5c-1.7,0.4-3.4,1.1-4.9,2c-0.3,0.2-0.5,0.2-0.7-0.1c-1.2-1.3-2.5-2.5-3.7-3.8
	c-0.3-0.3-0.5-0.3-0.8,0c-1.4,1.4-2.8,2.9-4.3,4.3c-0.3,0.3-0.3,0.5,0,0.8c0.5,0.4,0.9,0.9,1.4,1.3c0.9,0.9,1.7,1.7,2.6,2.6
	c-0.1,0.1-0.1,0.2-0.1,0.2c-1,1.6-1.8,3.4-2.3,5.2c-0.1,0.3-0.3,0.3-0.5,0.3c-1.7,0-3.4,0-5.1,0c-0.5,0-0.6,0.2-0.6,0.6
	c0,2,0,3.9,0,5.9c0,0.6,0,0.6,0.6,0.6c1.6,0,3.3,0,4.9,0c0.3,0,0.5,0.1,0.5,0.4c0.4,1.7,1,3.4,1.9,4.9c0.1,0.2,0.2,0.4,0.4,0.7
	c-0.2,0.1-0.3,0.2-0.4,0.3c-1.1,1.1-2.3,2.3-3.4,3.4c-0.2,0.2-0.4,0.4-0.1,0.7c1.5,1.5,3,2.9,4.4,4.4c0.3,0.3,0.5,0.2,0.7-0.1
	c0.7-0.7,1.5-1.5,2.2-2.2c0.5-0.5,1-1,1.5-1.5c1.9,1.2,3.9,2,6,2.5c0,1.8,0,3.5,0,5.2c0,0.5,0.2,0.6,0.6,0.6c2,0,3.9,0,5.9,0
	c0.6,0,0.6,0,0.6-0.7c0-1.6,0-3.2,0-4.7c0-0.3,0.1-0.5,0.4-0.6c1.9-0.4,3.6-1.2,5.2-2.2c0.3-0.2,0.5-0.1,0.7,0.1
	c1.1,1.1,2.2,2.3,3.4,3.4c0.5,0.5,0.5,0.5,0.9,0c1.2-1.2,2.4-2.4,3.6-3.6c1-1.1,1-0.8,0-1.8c-1.1-1.1-2.2-2.2-3.3-3.3
	c1.2-1.8,1.9-3.8,2.4-5.9c0.2,0,0.4,0,0.6,0c1.6,0,3.3,0,4.9,0c0.6,0,0.6,0,0.6-0.6c0-1.9,0-3.9,0-5.8c0-0.7,0-0.7-0.7-0.7
	c-1.8,0-3.6,0-5.5,0c0-0.2-0.1-0.3-0.1-0.4c-0.5-1.7-1.1-3.4-2.1-4.9c-0.2-0.3-0.2-0.5,0.1-0.7c1.3-1.2,2.5-2.5,3.8-3.7
	c0.3-0.3,0.3-0.5,0-0.8c-1.4-1.4-2.9-2.9-4.3-4.3c-0.3-0.3-0.5-0.3-0.8,0c-0.4,0.4-0.8,0.8-1.2,1.2C51.2,22.2,50.2,23.2,49.2,24.2z"
	/>
<path class="st0" d="M40,50.3c-6.5,0-11.8-5.3-11.8-11.8c0-6.5,5.3-11.8,11.8-11.8c3.2,0,6.2,1.2,8.4,3.5s3.5,5.2,3.5,8.4
	C51.8,45,46.5,50.3,40,50.3L40,50.3z M40,29.4c-5,0-9,4-9,9c0,2.4,0.9,4.7,2.6,6.4c1.7,1.7,4,2.7,6.4,2.7c5,0,9-4,9-9
	c0-2.4-0.9-4.7-2.6-6.4C44.7,30.3,42.4,29.4,40,29.4l0-0.6L40,29.4z"/>
<path class="st0" d="M28.8,38.4c0-6.2,5-11.2,11.2-11.2c6.2,0,11.2,5,11.2,11.2c0,6.2-5,11.2-11.2,11.2
	C33.8,49.6,28.8,44.6,28.8,38.4z M40,28.8c-5.3,0-9.7,4.3-9.7,9.7c0,5.4,4.3,9.7,9.7,9.7c5.3,0,9.7-4.3,9.7-9.7
	C49.7,33.1,45.4,28.8,40,28.8z"/>
</svg>
