<?xml version="1.0" encoding="utf-8"?>
<!-- Generator: Adobe Illustrator 23.0.0, SVG Export Plug-In . SVG Version: 6.00 Build 0)  -->
<svg version="1.1" id="Capa_1" xmlns="http://www.w3.org/2000/svg" xmlns:xlink="http://www.w3.org/1999/xlink" x="0px" y="0px"
	 viewBox="0 0 80 79" style="enable-background:new 0 0 80 79;" xml:space="preserve">
<style type="text/css">
	.st0{fill:#FFFFFF;}
</style>
<path class="st0" d="M40,33.4c-6.1,0-11.2,4.3-12.5,10c0.9-0.3,1.8-0.5,2.6-0.7c1.5-4,5.3-6.9,9.8-6.9c5.8,0,10.5,4.7,10.5,10.5
	c0,0.6,0.5,1.2,1.2,1.2s1.2-0.5,1.2-1.2C52.8,39.1,47,33.4,40,33.4z"/>
<path class="st0" d="M40,30.9c-4.2,0-7.5-3.4-7.5-7.5V21c0-4.2,3.4-7.5,7.5-7.5c4.2,0,7.5,3.4,7.5,7.5v2.3
	C47.5,27.5,44.1,30.9,40,30.9z M40,15.6c-3,0-5.4,2.4-5.4,5.4v2.3c0,3,2.4,5.4,5.4,5.4c3,0,5.4-2.4,5.4-5.4V21
	C45.4,18.1,43,15.6,40,15.6z"/>
<path class="st0" d="M39.1,63.5L39.1,63.5c-0.2,0-0.3,0-0.5-0.1c-0.3,0-0.7-0.1-1-0.2c-0.9-0.2-1.8-0.5-2.8-0.7
	c-0.7-0.2-1.3-0.4-2-0.5l-1.1-0.3c-1.7-0.4-3.4-0.9-5.1-1.3c-1.1-0.3-2.3-0.3-3.5-0.4c-0.8,0-1.6-0.1-2.4-0.1
	c-0.3,0-0.6-0.1-0.9-0.2c-0.5-0.3-0.8-1-0.6-1.6c0.2-0.6,0.6-1,1.2-1c0.5,0,1.1,0,1.6,0c1.9,0,3.5,0.1,5,0.5
	c1.9,0.4,3.8,0.9,5.7,1.4c0.7,0.2,1.4,0.4,2.1,0.6l0.3,0.1c1.1,0.3,2.3,0.6,3.5,0.8c0.6,0.1,1.1,0.1,1.7,0.1c1.2,0,2.5-0.2,3.8-0.6
	c1.7-0.5,3.4-1.3,4.9-2c1.9-0.9,3.9-1.8,5.8-2.8l1.3-0.6c0.2-0.1,0.5-0.2,0.6-0.4c0.6-0.5,0.7-1,0.6-1.7c-0.1-0.6-0.6-0.9-1.2-0.9
	c-0.1,0-0.2,0-0.4,0c-1.5,0.3-3.2,0.7-5.3,1.2c-1,0.2-2.1,0.5-3.1,0.7c-0.7,0.2-1.5,0.4-2.2,0.5c-0.2,0.5-0.5,1.1-1,1.6
	c-0.8,0.9-1.9,1.4-3,1.4c-0.2,0-0.4,0-0.7-0.1c-1.1-0.2-2.2-0.4-3.7-0.8c-1.1-0.3-2.2-0.6-3.3-0.9L33,55.2c-0.2-0.1-0.5-0.2-0.8-0.3
	c-0.6-0.3-0.9-1.1-0.7-1.7c0.2-0.5,0.7-0.9,1.3-0.9c0.1,0,0.2,0,0.3,0c0.4,0.1,0.8,0.2,1.2,0.3c0.3,0.1,0.6,0.2,1,0.2
	c1.8,0.4,3.6,0.9,5.4,1.3c0.1,0,0.3,0.1,0.4,0.1c0.3,0,0.6-0.1,0.9-0.2c0.3-0.2,0.5-0.4,0.6-0.7c0.1-0.6,0.1-1.4-0.8-1.9
	c-1.9-1-3.9-2-6.2-2.9c-0.5-0.2-1.1-0.4-1.6-0.6c-0.2-0.1-0.5-0.2-0.7-0.3c-0.6-0.2-1.2-0.3-1.8-0.3c-0.4,0-0.8,0-1.3,0.1l-1,0.2
	c-1.5,0.3-3,0.6-4.5,0.8c-0.9,0.2-2,0.3-3,0.3c-0.2,0-0.4,0-0.6,0c-0.3,0-1-0.1-1.3-0.8c-0.2-0.4-0.2-0.9,0-1.3
	c0.2-0.4,0.6-0.7,1-0.7c0.2,0,0.4-0.1,0.6-0.1c0.1,0,0.3,0,0.4,0l0.6-0.1c1.2-0.2,2.3-0.3,3.5-0.5c0.6-0.1,1.3-0.2,1.9-0.4
	c0.7-0.1,1.3-0.3,2-0.4c0.5-0.1,1-0.1,1.5-0.1c1.1,0,2.1,0.2,3.2,0.5c2.6,0.9,5,2,7.3,3.2c0.5,0.3,1.2,0.6,1.8,1
	c0.8,0.5,1.3,1.1,1.7,2.1l2.7-0.7c1.7-0.4,3.3-0.8,5-1.2c0.9-0.2,1.8-0.4,2.7-0.5c0.2,0,0.5,0,0.7,0c2.4,0,3.8,1.8,4.1,3.6
	c0,0.1,0,0.2,0.1,0.4l0,0.2v0.2l0,0.1c0,0,0,0.1,0,0.1c-0.1,1.6-0.9,2.8-2.3,3.6c-0.9,0.5-1.8,0.9-2.6,1.3l-1,0.5
	c-2.5,1.2-5.1,2.4-7.7,3.5c-1.7,0.7-3.1,1-4.4,1.2c-0.3,0-0.5,0.1-0.8,0.1l-0.4,0H39.1z"/>
<path class="st0" d="M39.2,63c-0.5-0.1-0.9-0.1-1.4-0.2c-1.6-0.4-3.2-0.8-4.8-1.2C31,61,28.9,60.5,26.8,60c-1.2-0.3-2.4-0.3-3.6-0.4
	c-0.8,0-1.6-0.1-2.4-0.1c-0.2,0-0.4-0.1-0.6-0.2c-0.3-0.2-0.4-0.6-0.3-0.9c0.1-0.3,0.4-0.6,0.7-0.6c2.2-0.1,4.4,0,6.5,0.4
	c2.6,0.5,5.2,1.3,7.8,2c1.3,0.3,2.6,0.7,3.9,0.9c1.9,0.3,3.8,0.1,5.7-0.5c1.7-0.5,3.3-1.3,5-2c2.4-1.1,4.8-2.3,7.2-3.4
	c0.3-0.1,0.5-0.3,0.8-0.5c0.7-0.6,1-1.4,0.7-2.3c-0.2-1-1.2-1.5-2.2-1.3c-1.8,0.4-3.5,0.8-5.3,1.2c-1.8,0.4-3.6,0.9-5.3,1.3
	c-0.2,0-0.3,0.1-0.3,0.3c-0.2,0.5-0.5,1.1-0.9,1.5c-0.9,0.9-1.9,1.3-3.2,1.2c-1.2-0.2-2.4-0.5-3.6-0.7c-1.4-0.3-2.7-0.7-4.1-1.1
	c-0.2-0.1-0.4-0.2-0.6-0.3c-0.4-0.2-0.5-0.7-0.4-1c0.1-0.3,0.6-0.6,1-0.5c0.7,0.2,1.4,0.4,2.2,0.6c1.8,0.4,3.6,0.9,5.4,1.3
	c0.6,0.1,1.2,0.1,1.7-0.2c0.4-0.2,0.7-0.6,0.8-1.1c0.2-1.1-0.1-2-1.1-2.5c-2-1.1-4.1-2-6.2-2.9c-0.8-0.3-1.6-0.6-2.3-0.9
	c-1.1-0.4-2.3-0.4-3.5-0.2c-1.8,0.3-3.7,0.7-5.5,1c-1.1,0.2-2.3,0.4-3.5,0.3c-0.3,0-0.7-0.1-0.8-0.4c-0.3-0.6,0-1.1,0.6-1.3
	c0.3-0.1,0.7,0,1.1-0.1c1.4-0.2,2.7-0.4,4.1-0.6c1.3-0.2,2.6-0.5,3.8-0.7c1.5-0.3,3-0.1,4.5,0.4c2.5,0.9,4.9,2,7.2,3.1
	c0.6,0.3,1.2,0.6,1.8,0.9c0.7,0.4,1.2,1.1,1.5,1.8c0.1,0.4,0.2,0.4,0.6,0.3c2.6-0.6,5.2-1.3,7.8-1.9c0.9-0.2,1.7-0.4,2.6-0.5
	c2.4-0.3,3.9,1.3,4.2,3c0,0.2,0,0.3,0.1,0.5c0,0,0,0.1,0,0.1c0,0.1,0,0.2,0,0.2c-0.1,1.4-0.8,2.5-2,3.2c-0.9,0.5-1.9,1-2.8,1.4
	c-2.8,1.3-5.6,2.7-8.4,3.8c-1.4,0.5-2.8,1-4.3,1.2c-0.4,0-0.8,0.1-1.2,0.1C40.6,63,39.9,63,39.2,63z"/>
</svg>
