<?xml version="1.0" encoding="utf-8"?>
<!-- Generator: Adobe Illustrator 23.0.0, SVG Export Plug-In . SVG Version: 6.00 Build 0)  -->
<svg version="1.1" id="Capa_1" xmlns="http://www.w3.org/2000/svg" xmlns:xlink="http://www.w3.org/1999/xlink" x="0px" y="0px"
	 viewBox="0 0 80 79" style="enable-background:new 0 0 80 79;" xml:space="preserve">
<style type="text/css">
	.st0{fill:#FFFFFF;}
</style>
<g>
	<path class="st0" d="M67.7,63.5H12.3c-1.4,0-2.6-1.2-2.6-2.6v-45c0-1.4,1.2-2.6,2.6-2.6s2.6,1.2,2.6,2.6v42.4h52.7
		c1.4,0,2.6,1.2,2.6,2.6C70.2,62.4,69.1,63.5,67.7,63.5z"/>
	<path class="st0" d="M51.4,25.8H24.5c-1.4,0-2.6-1.2-2.6-2.6c0-1.4,1.2-2.6,2.6-2.6h26.9c1.4,0,2.6,1.2,2.6,2.6
		C54,24.6,52.9,25.8,51.4,25.8z"/>
	<path class="st0" d="M44.7,37.3H24.5c-1.4,0-2.6-1.2-2.6-2.6c0-1.4,1.2-2.6,2.6-2.6h20.2c1.4,0,2.6,1.2,2.6,2.6
		C47.3,36.2,46.1,37.3,44.7,37.3z"/>
	<path class="st0" d="M58.9,48.2H24.5c-1.4,0-2.6-1.2-2.6-2.6s1.2-2.6,2.6-2.6h34.4c1.4,0,2.6,1.2,2.6,2.6S60.4,48.2,58.9,48.2z"/>
</g>
</svg>
