<?xml version="1.0" encoding="utf-8"?>
<!-- Generator: Adobe Illustrator 23.0.0, SVG Export Plug-In . SVG Version: 6.00 Build 0)  -->
<svg version="1.1" id="Capa_1" xmlns="http://www.w3.org/2000/svg" xmlns:xlink="http://www.w3.org/1999/xlink" x="0px" y="0px"
	 viewBox="0 0 80 79" style="enable-background:new 0 0 80 79;" xml:space="preserve">
<style type="text/css">
	.st0{fill:#FFFFFF;stroke:#FFFFFF;stroke-width:0.6821;stroke-miterlimit:10;}
	.st1{fill:#FFFFFF;}
</style>
<g>
	<path class="st0" d="M39,16.8L39,16.8c-0.2,0-0.3-0.1-0.3-0.3v-2.7c0-0.2,0.1-0.3,0.3-0.3l0,0c0.2,0,0.3,0.1,0.3,0.3v2.7
		C39.3,16.7,39.2,16.8,39,16.8z"/>
	<path class="st0" d="M37.3,15.1L37.3,15.1c0-0.2,0.1-0.3,0.3-0.3h2.7c0.2,0,0.3,0.1,0.3,0.3l0,0c0,0.2-0.1,0.3-0.3,0.3h-2.7
		C37.4,15.4,37.3,15.3,37.3,15.1z"/>
</g>
<g>
	<path class="st1" d="M57.2,63.5c-1,0-1.7-0.8-1.7-1.7c0-8.6-7-15.5-15.5-15.5s-15.5,7-15.5,15.5c0,1-0.8,1.7-1.7,1.7
		S21,62.7,21,61.7c0-10.5,8.5-19,19-19s19,8.5,19,19C59,62.7,58.2,63.5,57.2,63.5z"/>
	<path class="st1" d="M40,39.1c-6.2,0-11.2-5-11.2-11.2v-3.4c0-6.2,5-11.2,11.2-11.2c6.2,0,11.2,5,11.2,11.2v3.4
		C51.2,34.1,46.2,39.1,40,39.1z M40,16.5c-4.4,0-8,3.6-8,8v3.4c0,4.4,3.6,8,8,8c4.4,0,8-3.6,8-8v-3.4C48,20.1,44.4,16.5,40,16.5z"/>
</g>
</svg>
